999
FreeCAD v0.21 33771 (Git)
  0
SECTION
  2
HEADER
  9
$ACADVER
  1
AC1014
  9
$ACADMAINTVER
 70
     9
  9
$DWGCODEPAGE
  3
ANSI_1252
  9
$TEXTSTYLE
  7
STANDARD
  9
$DIMSTYLE
  2
STANDARD
  9
$DIMTXSTY
  7
STANDARD
  9
$CMLSTYLE
  2
STANDARD
  9
$LUNITS
 70
2
  9
$INSUNITS
 70
4
  9
$PEXTMAX
 10
50
 20
50
 30
50
  9
$PEXTMIN
 10
0
 20
0
 30
0
  9
$HANDSEED
  5
FFFF
  0
ENDSEC
  0
SECTION
  2
CLASSES
  0
CLASS
  1
ACDBDICTIONARYWDFLT
  2
AcDbDictionaryWithDefault
  3
ObjectDBX Classes
 90
        0
280
     0
281
     0
  0
CLASS
  1
XRECORD
  2
AcDbXrecord
  3
ObjectDBX Classes
 90
        0
280
     0
281
     0
  0
CLASS
  1
LWPOLYLINE
  2
AcDbPolyline
  3
ObjectDBX Classes
 90
        0
280
     0
281
     1
  0
ENDSEC
  0
SECTION
  2
TABLES
  0
TABLE
  2
VPORT
  5
20
330
0
100
AcDbSymbolTable
 70
     1
  0
VPORT
  5
21
330
20
100
AcDbSymbolTableRecord
100
AcDbViewportTableRecord
  2
*ACTIVE
 70
     0
  0
ENDTAB
  0
TABLE
  2
LTYPE
  5
22
330
0
100
AcDbSymbolTable
 70
     1
  0
LTYPE
  5
23
330
21
100
AcDbSymbolTableRecord
100
AcDbLinetypeTableRecord
  2
BYBLOCK
 70
     0
  3

 72
    65
 73
     0
 40
0.0
  0
LTYPE
  5
24
330
21
100
AcDbSymbolTableRecord
100
AcDbLinetypeTableRecord
  2
BYLAYER
 70
     0
  3

 72
    65
 73
     0
 40
0.0
  0
LTYPE
  5
25
330
21
100
AcDbSymbolTableRecord
100
AcDbLinetypeTableRecord
  2
CONTINUOUS
 70
     0
  3
Solid line
 72
    65
 73
     0
 40
0.0
  0
ENDTAB
  0
TABLE
  2
LAYER
  5
C90
330
0
100
AcDbSymbolTable
 70
3
  0
LAYER
  5
C91
330
C90
100
AcDbSymbolTableRecord
100
AcDbLayerTableRecord
  2
0
 70
   0
 62
   7
  6
CONTINUOUS
  0
LAYER
  5
C92
330
C90
100
AcDbSymbolTableRecord
100
AcDbLayerTableRecord
  2
none
 70
    0
 62
    7
  6
CONTINUOUS
  0
LAYER
  5
C93
330
C90
100
AcDbSymbolTableRecord
100
AcDbLayerTableRecord
  2
Fillet068
 70
    0
 62
    7
  6
CONTINUOUS
  0
ENDTAB
  0
TABLE
  2
STYLE
  5
70
330
0
100
AcDbSymbolTable
 70
     2
  0
STYLE
  5
71
330
70
100
AcDbSymbolTableRecord
100
AcDbTextStyleTableRecord
  2
STANDARD
 70
     0
 40
0.0
 41
1.0
 50
0.0
 71
     0
 42
2.5
  3
arial.ttf
  4

  0
STYLE
  5
72
330
70
100
AcDbSymbolTableRecord
100
AcDbTextStyleTableRecord
  2
ANNOTATIVE
 70
     0
 40
0.0
 41
1.0
 50
0.0
 71
     0
 42
2.5
  3
arial.ttf
  4

  0
ENDTAB
  0
TABLE
  2
VIEW
  5
73
330
0
100
AcDbSymbolTable
 70
     0
  0
ENDTAB
  0
TABLE
  2
UCS
  5
74
330
0
100
AcDbSymbolTable
 70
     0
  0
ENDTAB
  0
TABLE
  2
APPID
  5
75
330
0
100
AcDbSymbolTable
 70
     2
  0
APPID
  5
76
330
75
100
AcDbSymbolTableRecord
100
AcDbRegAppTableRecord
  2
ACAD
 70
     0
  0
APPID
  5
77
330
75
100
AcDbSymbolTableRecord
100
AcDbRegAppTableRecord
  2
ACADANNOTATIVE
 70
     0
  0
ENDTAB
  0
TABLE
  2
DIMSTYLE
  5
78
330
0
100
AcDbSymbolTable
 70
     2
  0
DIMSTYLE
105
79
330
78
100
AcDbSymbolTableRecord
100
AcDbDimStyleTableRecord
  2
STANDARD
 70
     0
  3

  4

  5

  6

  7

 40
0.0
 41
2.5
 42
0.625
 43
3.75
 44
1.25
 45
0.0
 46
0.0
 47
0.0
 48
0.0
140
2.5
141
2.5
142
0.0
143
0.03937007874016
144
1.0
145
0.0
146
1.0
147
0.625
 71
     0
 72
     0
 73
     0
 74
     0
 75
     0
 76
     0
 77
     1
 78
     8
170
     0
171
     3
172
     1
173
     0
174
     0
175
     0
176
     0
177
     0
178
     0
270
     2
271
     2
272
     2
273
     2
274
     3
340
71
275
     0
280
     0
281
     0
282
     0
283
     0
284
     8
285
     0
286
     0
287
     3
288
     0
  0
ENDTAB
  0
TABLE
  2
BLOCK_RECORD
  5
A01
330
0
100
AcDbSymbolTable
  70
5
  0
BLOCK_RECORD
  5
A02
330
A01
100
AcDbSymbolTableRecord
100
AcDbBlockTableRecord
  2
*MODEL_SPACE
  0
BLOCK_RECORD
  5
A03
330
A01
100
AcDbSymbolTableRecord
100
AcDbBlockTableRecord
  2
*PAPER_SPACE
  0
ENDTAB
  0
ENDSEC
  0
SECTION
  2
BLOCKS
  0
BLOCK
  5
A04
330
A02
100
AcDbEntity
  8
0
100
AcDbBlockBegin
  2
*MODEL_SPACE
 70
   0
 10
0
 20
0
 30
0
  3
*MODEL_SPACE
  1
 
  0
ENDBLK
  5
A05
330
A02
100
AcDbEntity
  8
0
100
AcDbBlockEnd
  0
BLOCK
  5
A06
330
A03
100
AcDbEntity
 67
1
  8
0
100
AcDbBlockBegin
  2
*PAPER_SPACE
 70
   0
 10
0
 20
0
 30
0
  3
*PAPER_SPACE
  1
 
  0
ENDBLK
  5
A07
330
A03
100
AcDbEntity
 67
    1
  8
0
100
AcDbBlockEnd
  0
ENDSEC
  0
SECTION
  2
ENTITIES
  0
LINE
  5
A08
330
A02
100
AcDbEntity
  8
Fillet068
100
AcDbLine
 10
225
 20
211.65
 30
0
 11
225
 21
200
 31
0
  0
ARC
  5
A09
330
A02
100
AcDbEntity
  8
Fillet068
100
AcDbCircle
 10
228.35
 20
211.65
 30
0
 40
3.35
100
AcDbArc
 50
90
 51
180
  0
LINE
  5
A0A
330
A02
100
AcDbEntity
  8
Fillet068
100
AcDbLine
 10
225
 20
200
 30
0
 11
220
 21
200
 31
0
  0
LINE
  5
A0B
330
A02
100
AcDbEntity
  8
Fillet068
100
AcDbLine
 10
290
 20
215
 30
0
 11
228.35
 21
215
 31
0
  0
LINE
  5
A0C
330
A02
100
AcDbEntity
  8
Fillet068
100
AcDbLine
 10
200
 20
200
 30
0
 11
220
 21
200
 31
0
  0
LINE
  5
A0D
330
A02
100
AcDbEntity
  8
Fillet068
100
AcDbLine
 10
291.65
 20
215
 30
0
 11
290
 21
215
 31
0
  0
LINE
  5
A0E
330
A02
100
AcDbEntity
  8
Fillet068
100
AcDbLine
 10
195
 20
200
 30
0
 11
200
 21
200
 31
0
  0
ARC
  5
A0F
330
A02
100
AcDbEntity
  8
Fillet068
100
AcDbCircle
 10
291.65
 20
218.35
 30
0
 40
3.35
100
AcDbArc
 50
-90
 51
0
  0
LINE
  5
A10
330
A02
100
AcDbEntity
  8
Fillet068
100
AcDbLine
 10
195
 20
200
 30
0
 11
195
 21
211.65
 31
0
  0
LINE
  5
A11
330
A02
100
AcDbEntity
  8
Fillet068
100
AcDbLine
 10
295
 20
241.65
 30
0
 11
295
 21
218.35
 31
0
  0
ARC
  5
A12
330
A02
100
AcDbEntity
  8
Fillet068
100
AcDbCircle
 10
191.65
 20
211.65
 30
0
 40
3.35
100
AcDbArc
 50
0
 51
90
  0
ARC
  5
A13
330
A02
100
AcDbEntity
  8
Fillet068
100
AcDbCircle
 10
291.65
 20
241.65
 30
0
 40
3.35
100
AcDbArc
 50
0
 51
90
  0
LINE
  5
A14
330
A02
100
AcDbEntity
  8
Fillet068
100
AcDbLine
 10
191.65
 20
215
 30
0
 11
170.753
 21
215
 31
0
  0
LINE
  5
A15
330
A02
100
AcDbEntity
  8
Fillet068
100
AcDbLine
 10
290
 20
245
 30
0
 11
291.65
 21
245
 31
0
  0
ARC
  5
A16
330
A02
100
AcDbEntity
  8
Fillet068
100
AcDbCircle
 10
170.753
 20
211.65
 30
0
 40
3.35
100
AcDbArc
 50
90
 51
158.783
  0
LINE
  5
A17
330
A02
100
AcDbEntity
  8
Fillet068
100
AcDbLine
 10
178.35
 20
245
 30
0
 11
290
 21
245
 31
0
  0
LINE
  5
A18
330
A02
100
AcDbEntity
  8
Fillet068
100
AcDbLine
 10
167.63
 20
212.862
 30
0
 11
162.227
 21
198.945
 31
0
  0
ARC
  5
A19
330
A02
100
AcDbEntity
  8
Fillet068
100
AcDbCircle
 10
178.35
 20
248.35
 30
0
 40
3.35
100
AcDbArc
 50
180
 51
-90
  0
ARC
  5
A1A
330
A02
100
AcDbEntity
  8
Fillet068
100
AcDbCircle
 10
165.35
 20
197.733
 30
0
 40
3.35
100
AcDbArc
 50
158.783
 51
180
  0
LINE
  5
A1B
330
A02
100
AcDbEntity
  8
Fillet068
100
AcDbLine
 10
175
 20
356.516
 30
0
 11
175
 21
248.35
 31
0
  0
LINE
  5
A1C
330
A02
100
AcDbEntity
  8
Fillet068
100
AcDbLine
 10
162
 20
197.733
 30
0
 11
162
 21
115
 31
0
  0
ARC
  5
A1D
330
A02
100
AcDbEntity
  8
Fillet068
100
AcDbCircle
 10
171.65
 20
356.516
 30
0
 40
3.35
100
AcDbArc
 50
0
 51
45.0029
  0
LINE
  5
A1E
330
A02
100
AcDbEntity
  8
Fillet068
100
AcDbLine
 10
162
 20
115
 30
0
 11
162
 21
113.35
 31
0
  0
LINE
  5
A1F
330
A02
100
AcDbEntity
  8
Fillet068
100
AcDbLine
 10
136.381
 20
396.519
 30
0
 11
174.019
 21
358.885
 31
0
  0
ARC
  5
A20
330
A02
100
AcDbEntity
  8
Fillet068
100
AcDbCircle
 10
158.65
 20
113.35
 30
0
 40
3.35
100
AcDbArc
 50
-90
 51
2.43051e-13
  0
ARC
  5
A21
330
A02
100
AcDbEntity
  8
Fillet068
100
AcDbCircle
 10
138.75
 20
398.888
 30
0
 40
3.35
100
AcDbArc
 50
180
 51
-134.997
  0
LINE
  5
A22
330
A02
100
AcDbEntity
  8
Fillet068
100
AcDbLine
 10
158.65
 20
110
 30
0
 11
157.873
 21
110
 31
0
  0
LINE
  5
A23
330
A02
100
AcDbEntity
  8
Fillet068
100
AcDbLine
 10
135.4
 20
402.5
 30
0
 11
135.4
 21
398.888
 31
0
  0
ARC
  5
A24
330
A02
100
AcDbEntity
  8
Fillet068
100
AcDbCircle
 10
157.873
 20
113.35
 30
0
 40
3.35
100
AcDbArc
 50
-119.205
 51
-90
  0
LINE
  5
A25
330
A02
100
AcDbEntity
  8
Fillet068
100
AcDbLine
 10
130.4
 20
402.5
 30
0
 11
135.4
 21
402.5
 31
0
  0
LINE
  5
A26
330
A02
100
AcDbEntity
  8
Fillet068
100
AcDbLine
 10
156.238
 20
110.426
 30
0
 11
135.366
 21
122.093
 31
0
  0
LINE
  5
A27
330
A02
100
AcDbEntity
  8
Fillet068
100
AcDbLine
 10
101.467
 20
402.5
 30
0
 11
130.4
 21
402.5
 31
0
  0
ARC
  5
A28
330
A02
100
AcDbEntity
  8
Fillet068
100
AcDbCircle
 10
137.001
 20
125.017
 30
0
 40
3.35
100
AcDbArc
 50
-149.424
 51
-119.205
  0
LINE
  5
A29
330
A02
100
AcDbEntity
  8
Fillet068
100
AcDbLine
 10
101.467
 20
402.5
 30
0
 11
96.4674
 21
402.5
 31
0
  0
LINE
  5
A2A
330
A02
100
AcDbEntity
  8
Fillet068
100
AcDbLine
 10
134.117
 20
123.313
 30
0
 11
132.466
 21
126.108
 31
0
  0
LINE
  5
A2B
330
A02
100
AcDbEntity
  8
Fillet068
100
AcDbLine
 10
96.4674
 20
397.5
 30
0
 11
96.4674
 21
402.5
 31
0
  0
ARC
  5
A2C
330
A02
100
AcDbEntity
  8
Fillet068
100
AcDbCircle
 10
135.35
 20
127.812
 30
0
 40
3.35
100
AcDbArc
 50
-180
 51
-149.424
  0
LINE
  5
A2D
330
A02
100
AcDbEntity
  8
Fillet068
100
AcDbLine
 10
96.4674
 20
393.885
 30
0
 11
96.4674
 21
397.5
 31
0
  0
LINE
  5
A2E
330
A02
100
AcDbEntity
  8
Fillet068
100
AcDbLine
 10
132
 20
127.812
 30
0
 11
132
 21
199.496
 31
0
  0
ARC
  5
A2F
330
A02
100
AcDbEntity
  8
Fillet068
100
AcDbCircle
 10
99.8174
 20
393.885
 30
0
 40
3.35
100
AcDbArc
 50
180
 51
-135.082
  0
ARC
  5
A30
330
A02
100
AcDbEntity
  8
Fillet068
100
AcDbCircle
 10
135.35
 20
199.496
 30
0
 40
3.35
100
AcDbArc
 50
161.985
 51
180
  0
LINE
  5
A31
330
A02
100
AcDbEntity
  8
Fillet068
100
AcDbLine
 10
144.012
 20
344.82
 30
0
 11
97.4452
 21
391.519
 31
0
  0
LINE
  5
A32
330
A02
100
AcDbEntity
  8
Fillet068
100
AcDbLine
 10
132.164
 20
200.532
 30
0
 11
144.825
 21
239.463
 31
0
  0
ARC
  5
A33
330
A02
100
AcDbEntity
  8
Fillet068
100
AcDbCircle
 10
141.639
 20
342.455
 30
0
 40
3.35
100
AcDbArc
 50
0
 51
44.9183
  0
ARC
  5
A34
330
A02
100
AcDbEntity
  8
Fillet068
100
AcDbCircle
 10
141.639
 20
240.499
 30
0
 40
3.35
100
AcDbArc
 50
-18.0153
 51
0
  0
LINE
  5
A35
330
A02
100
AcDbEntity
  8
Fillet068
100
AcDbLine
 10
144.989
 20
240.499
 30
0
 11
144.989
 21
342.455
 31
0
  0
LINE
  5
A36
330
A02
100
AcDbEntity
  8
Fillet068
100
AcDbLine
 10
247
 20
419.25
 30
0
 11
247
 21
421.55
 31
0
  0
ARC
  5
A37
330
A02
100
AcDbEntity
  8
Fillet068
100
AcDbCircle
 10
253.35
 20
419.25
 30
0
 40
6.35
100
AcDbArc
 50
180
 51
-90
  0
ARC
  5
A38
330
A02
100
AcDbEntity
  8
Fillet068
100
AcDbCircle
 10
253.35
 20
421.55
 30
0
 40
6.35
100
AcDbArc
 50
90
 51
180
  0
LINE
  5
A39
330
A02
100
AcDbEntity
  8
Fillet068
100
AcDbLine
 10
260.65
 20
412.9
 30
0
 11
253.35
 21
412.9
 31
0
  0
LINE
  5
A3A
330
A02
100
AcDbEntity
  8
Fillet068
100
AcDbLine
 10
253.35
 20
427.9
 30
0
 11
260.65
 21
427.9
 31
0
  0
ARC
  5
A3B
330
A02
100
AcDbEntity
  8
Fillet068
100
AcDbCircle
 10
260.65
 20
419.25
 30
0
 40
6.35
100
AcDbArc
 50
-90
 51
0
  0
ARC
  5
A3C
330
A02
100
AcDbEntity
  8
Fillet068
100
AcDbCircle
 10
260.65
 20
421.55
 30
0
 40
6.35
100
AcDbArc
 50
0
 51
90
  0
LINE
  5
A3D
330
A02
100
AcDbEntity
  8
Fillet068
100
AcDbLine
 10
267
 20
421.55
 30
0
 11
267
 21
419.25
 31
0
  0
LINE
  5
A3E
330
A02
100
AcDbEntity
  8
Fillet068
100
AcDbLine
 10
247.5
 20
385.3
 30
0
 11
202.5
 21
385.3
 31
0
  0
ARC
  5
A3F
330
A02
100
AcDbEntity
  8
Fillet068
100
AcDbCircle
 10
247.5
 20
379.3
 30
0
 40
6
100
AcDbArc
 50
0
 51
90
  0
ARC
  5
A40
330
A02
100
AcDbEntity
  8
Fillet068
100
AcDbCircle
 10
202.5
 20
379.3
 30
0
 40
6
100
AcDbArc
 50
90
 51
180
  0
LINE
  5
A41
330
A02
100
AcDbEntity
  8
Fillet068
100
AcDbLine
 10
253.5
 20
287.3
 30
0
 11
253.5
 21
379.3
 31
0
  0
LINE
  5
A42
330
A02
100
AcDbEntity
  8
Fillet068
100
AcDbLine
 10
196.5
 20
379.3
 30
0
 11
196.5
 21
287.3
 31
0
  0
LINE
  5
A43
330
A02
100
AcDbEntity
  8
Fillet068
100
AcDbLine
 10
196.5
 20
287.3
 30
0
 11
253.5
 21
287.3
 31
0
  0
LINE
  5
A44
330
A02
100
AcDbEntity
  8
Fillet068
100
AcDbLine
 10
252.15
 20
545.5
 30
-8.9e-16
 11
252.536
 21
509.5
 31
-8.9e-16
  0
LINE
  5
A45
330
A02
100
AcDbEntity
  8
Fillet068
100
AcDbLine
 10
252.15
 20
545.5
 30
0
 11
197.848
 21
545.5
 31
0
  0
LINE
  5
A46
330
A02
100
AcDbEntity
  8
Fillet068
100
AcDbLine
 10
252.536
 20
509.5
 30
0
 11
349.402
 21
461.057
 31
0
  0
LINE
  5
A47
330
A02
100
AcDbEntity
  8
Fillet068
100
AcDbLine
 10
197.848
 20
545.5
 30
0
 11
197.726
 21
534.521
 31
0
  0
LINE
  5
A48
330
A02
100
AcDbEntity
  8
Fillet068
100
AcDbLine
 10
349.402
 20
461.057
 30
0
 11
353.186
 21
456.92
 31
0
  0
LINE
  5
A49
330
A02
100
AcDbEntity
  8
Fillet068
100
AcDbLine
 10
197.726
 20
534.521
 30
-8.9e-16
 11
195.596
 21
533.25
 31
-8.9e-16
  0
LINE
  5
A4A
330
A02
100
AcDbEntity
  8
Fillet068
100
AcDbLine
 10
353.186
 20
456.92
 30
-8.9e-16
 11
355.987
 21
452.42
 31
-8.9e-16
  0
LINE
  5
A4B
330
A02
100
AcDbEntity
  8
Fillet068
100
AcDbLine
 10
195.596
 20
533.25
 30
0
 11
190.601
 21
530.784
 31
0
  0
LINE
  5
A4C
330
A02
100
AcDbEntity
  8
Fillet068
100
AcDbLine
 10
355.987
 20
452.42
 30
0
 11
355.987
 21
442.02
 31
0
  0
LINE
  5
A4D
330
A02
100
AcDbEntity
  8
Fillet068
100
AcDbLine
 10
190.601
 20
530.784
 30
0
 11
185.731
 21
530.784
 31
0
  0
LINE
  5
A4E
330
A02
100
AcDbEntity
  8
Fillet068
100
AcDbLine
 10
355.987
 20
442.02
 30
0
 11
320
 21
343.5
 31
0
  0
LINE
  5
A4F
330
A02
100
AcDbEntity
  8
Fillet068
100
AcDbLine
 10
185.731
 20
530.784
 30
0
 11
184.499
 21
530.912
 31
0
  0
LINE
  5
A50
330
A02
100
AcDbEntity
  8
Fillet068
100
AcDbLine
 10
320
 20
343.5
 30
0
 11
320
 21
331.5
 31
0
  0
LINE
  5
A51
330
A02
100
AcDbEntity
  8
Fillet068
100
AcDbLine
 10
184.499
 20
530.912
 30
-8.9e-16
 11
97.9865
 21
587.073
 31
-8.9e-16
  0
LINE
  5
A52
330
A02
100
AcDbEntity
  8
Fillet068
100
AcDbLine
 10
320
 20
331.5
 30
0
 11
413.447
 21
57.5962
 31
0
  0
LINE
  5
A53
330
A02
100
AcDbEntity
  8
Fillet068
100
AcDbLine
 10
97.9865
 20
587.073
 30
0
 11
91.1348
 21
587.073
 31
0
  0
LINE
  5
A54
330
A02
100
AcDbEntity
  8
Fillet068
100
AcDbLine
 10
413.447
 20
50.3962
 30
0
 11
413.447
 21
57.5962
 31
0
  0
LINE
  5
A55
330
A02
100
AcDbEntity
  8
Fillet068
100
AcDbLine
 10
91.1348
 20
587.073
 30
-8.9e-16
 11
89.4748
 21
585.83
 31
-8.9e-16
  0
LINE
  5
A56
330
A02
100
AcDbEntity
  8
Fillet068
100
AcDbLine
 10
413.447
 20
50.3962
 30
0
 11
410.947
 21
46.6962
 31
0
  0
LINE
  5
A57
330
A02
100
AcDbEntity
  8
Fillet068
100
AcDbLine
 10
89.4748
 20
585.83
 30
-8.9e-16
 11
87.4848
 21
583.86
 31
-8.9e-16
  0
LINE
  5
A58
330
A02
100
AcDbEntity
  8
Fillet068
100
AcDbLine
 10
410.947
 20
46.6962
 30
0
 11
408.821
 21
43.4657
 31
0
  0
LINE
  5
A59
330
A02
100
AcDbEntity
  8
Fillet068
100
AcDbLine
 10
87.4848
 20
583.86
 30
0
 11
85.9748
 21
581.98
 31
0
  0
LINE
  5
A5A
330
A02
100
AcDbEntity
  8
Fillet068
100
AcDbLine
 10
408.821
 20
43.4657
 30
0
 11
403.447
 21
43.4657
 31
0
  0
LINE
  5
A5B
330
A02
100
AcDbEntity
  8
Fillet068
100
AcDbLine
 10
57
 20
538
 30
0
 11
85.9748
 21
581.98
 31
0
  0
LINE
  5
A5C
330
A02
100
AcDbEntity
  8
Fillet068
100
AcDbLine
 10
403.447
 20
43.4657
 30
0
 11
320.445
 21
66.6106
 31
0
  0
LINE
  5
A5D
330
A02
100
AcDbEntity
  8
Fillet068
100
AcDbLine
 10
54
 20
534
 30
0
 11
57
 21
538
 31
0
  0
LINE
  5
A5E
330
A02
100
AcDbEntity
  8
Fillet068
100
AcDbLine
 10
320.445
 20
66.6106
 30
0
 11
290
 21
70.0001
 31
0
  0
LINE
  5
A5F
330
A02
100
AcDbEntity
  8
Fillet068
100
AcDbLine
 10
52.6
 20
529.8
 30
0
 11
54
 21
534
 31
0
  0
LINE
  5
A60
330
A02
100
AcDbEntity
  8
Fillet068
100
AcDbLine
 10
290
 20
70.0001
 30
0
 11
160
 21
70.0001
 31
0
  0
LINE
  5
A61
330
A02
100
AcDbEntity
  8
Fillet068
100
AcDbLine
 10
52.6
 20
392
 30
0
 11
52.6
 21
529.8
 31
0
  0
LINE
  5
A62
330
A02
100
AcDbEntity
  8
Fillet068
100
AcDbLine
 10
160
 20
70.0001
 30
-8.9e-16
 11
50.9702
 21
135.84
 31
-8.9e-16
  0
LINE
  5
A63
330
A02
100
AcDbEntity
  8
Fillet068
100
AcDbLine
 10
54
 20
388
 30
0
 11
52.6
 21
392
 31
0
  0
LINE
  5
A64
330
A02
100
AcDbEntity
  8
Fillet068
100
AcDbLine
 10
47.2242
 20
138.987
 30
-8.9e-16
 11
50.9702
 21
135.84
 31
-8.9e-16
  0
LINE
  5
A65
330
A02
100
AcDbEntity
  8
Fillet068
100
AcDbLine
 10
56.5
 20
383.7
 30
0
 11
54
 21
388
 31
0
  0
LINE
  5
A66
330
A02
100
AcDbEntity
  8
Fillet068
100
AcDbLine
 10
45.1102
 20
141.95
 30
-8.9e-16
 11
47.2242
 21
138.987
 31
-8.9e-16
  0
LINE
  5
A67
330
A02
100
AcDbEntity
  8
Fillet068
100
AcDbLine
 10
61
 20
378.8
 30
0
 11
56.5
 21
383.7
 31
0
  0
LINE
  5
A68
330
A02
100
AcDbEntity
  8
Fillet068
100
AcDbLine
 10
44.2002
 20
144.6
 30
0
 11
45.1102
 21
141.95
 31
0
  0
LINE
  5
A69
330
A02
100
AcDbEntity
  8
Fillet068
100
AcDbLine
 10
64
 20
377
 30
0
 11
61
 21
378.8
 31
0
  0
LINE
  5
A6A
330
A02
100
AcDbEntity
  8
Fillet068
100
AcDbLine
 10
44.2002
 20
148.6
 30
0
 11
44.2002
 21
144.6
 31
0
  0
LINE
  5
A6B
330
A02
100
AcDbEntity
  8
Fillet068
100
AcDbLine
 10
96.1282
 20
362.119
 30
-8.9e-16
 11
64
 21
377
 31
-8.9e-16
  0
LINE
  5
A6C
330
A02
100
AcDbEntity
  8
Fillet068
100
AcDbLine
 10
44.2002
 20
150.2
 30
0
 11
44.2002
 21
148.6
 31
0
  0
LINE
  5
A6D
330
A02
100
AcDbEntity
  8
Fillet068
100
AcDbLine
 10
107.659
 20
357.048
 30
-8.9e-16
 11
96.1282
 21
362.119
 31
-8.9e-16
  0
LINE
  5
A6E
330
A02
100
AcDbEntity
  8
Fillet068
100
AcDbLine
 10
128.394
 20
307.697
 30
0
 11
44.2002
 21
150.2
 31
0
  0
LINE
  5
A6F
330
A02
100
AcDbEntity
  8
Fillet068
100
AcDbLine
 10
107.659
 20
357.048
 30
0
 11
122.894
 21
344.497
 31
0
  0
LINE
  5
A70
330
A02
100
AcDbEntity
  8
Fillet068
100
AcDbLine
 10
130.394
 20
310.397
 30
-8.9e-16
 11
128.394
 21
307.697
 31
-8.9e-16
  0
LINE
  5
A71
330
A02
100
AcDbEntity
  8
Fillet068
100
AcDbLine
 10
122.894
 20
344.497
 30
-8.9e-16
 11
130.394
 21
322.397
 31
-8.9e-16
  0
LINE
  5
A72
330
A02
100
AcDbEntity
  8
Fillet068
100
AcDbLine
 10
130.394
 20
322.397
 30
0
 11
130.394
 21
310.397
 31
0
  0
CIRCLE
  5
A73
330
A02
100
AcDbEntity
  8
Fillet068
100
AcDbCircle
 10
330
 20
121
 40
47
  0
LINE
  5
A74
330
A02
100
AcDbEntity
  8
Fillet068
100
AcDbLine
 10
225
 20
211.65
 30
0
 11
225
 21
200
 31
0
  0
LINE
  5
A75
330
A02
100
AcDbEntity
  8
Fillet068
100
AcDbLine
 10
225
 20
211.65
 30
0
 11
225
 21
211.65
 31
7
  0
LINE
  5
A76
330
A02
100
AcDbEntity
  8
Fillet068
100
AcDbLine
 10
225
 20
200
 30
0
 11
225
 21
200
 31
7
  0
LINE
  5
A77
330
A02
100
AcDbEntity
  8
Fillet068
100
AcDbLine
 10
225
 20
211.65
 30
7
 11
225
 21
200
 31
7
  0
ARC
  5
A78
330
A02
100
AcDbEntity
  8
Fillet068
100
AcDbCircle
 10
228.35
 20
211.65
 30
0
 40
3.35
100
AcDbArc
 50
90
 51
180
  0
LINE
  5
A79
330
A02
100
AcDbEntity
  8
Fillet068
100
AcDbLine
 10
225
 20
211.65
 30
0
 11
225
 21
211.65
 31
7
  0
LINE
  5
A7A
330
A02
100
AcDbEntity
  8
Fillet068
100
AcDbLine
 10
228.35
 20
215
 30
0
 11
228.35
 21
215
 31
7
  0
ARC
  5
A7B
330
A02
100
AcDbEntity
  8
Fillet068
100
AcDbCircle
 10
228.35
 20
211.65
 30
7
 40
3.35
100
AcDbArc
 50
90
 51
180
  0
LINE
  5
A7C
330
A02
100
AcDbEntity
  8
Fillet068
100
AcDbLine
 10
225
 20
200
 30
0
 11
225
 21
200
 31
7
  0
LINE
  5
A7D
330
A02
100
AcDbEntity
  8
Fillet068
100
AcDbLine
 10
220
 20
200
 30
0
 11
220
 21
200
 31
7
  0
LINE
  5
A7E
330
A02
100
AcDbEntity
  8
Fillet068
100
AcDbLine
 10
225
 20
200
 30
0
 11
220
 21
200
 31
0
  0
LINE
  5
A7F
330
A02
100
AcDbEntity
  8
Fillet068
100
AcDbLine
 10
225
 20
200
 30
7
 11
220
 21
200
 31
7
  0
LINE
  5
A80
330
A02
100
AcDbEntity
  8
Fillet068
100
AcDbLine
 10
290
 20
215
 30
0
 11
228.35
 21
215
 31
0
  0
LINE
  5
A81
330
A02
100
AcDbEntity
  8
Fillet068
100
AcDbLine
 10
228.35
 20
215
 30
0
 11
228.35
 21
215
 31
7
  0
LINE
  5
A82
330
A02
100
AcDbEntity
  8
Fillet068
100
AcDbLine
 10
290
 20
215
 30
0
 11
290
 21
215
 31
7
  0
LINE
  5
A83
330
A02
100
AcDbEntity
  8
Fillet068
100
AcDbLine
 10
290
 20
215
 30
7
 11
228.35
 21
215
 31
7
  0
LINE
  5
A84
330
A02
100
AcDbEntity
  8
Fillet068
100
AcDbLine
 10
200
 20
200
 30
0
 11
200
 21
200
 31
7
  0
LINE
  5
A85
330
A02
100
AcDbEntity
  8
Fillet068
100
AcDbLine
 10
220
 20
200
 30
0
 11
220
 21
200
 31
7
  0
LINE
  5
A86
330
A02
100
AcDbEntity
  8
Fillet068
100
AcDbLine
 10
200
 20
200
 30
0
 11
220
 21
200
 31
0
  0
LINE
  5
A87
330
A02
100
AcDbEntity
  8
Fillet068
100
AcDbLine
 10
200
 20
200
 30
7
 11
220
 21
200
 31
7
  0
LINE
  5
A88
330
A02
100
AcDbEntity
  8
Fillet068
100
AcDbLine
 10
291.65
 20
215
 30
0
 11
290
 21
215
 31
0
  0
LINE
  5
A89
330
A02
100
AcDbEntity
  8
Fillet068
100
AcDbLine
 10
291.65
 20
215
 30
0
 11
291.65
 21
215
 31
7
  0
LINE
  5
A8A
330
A02
100
AcDbEntity
  8
Fillet068
100
AcDbLine
 10
290
 20
215
 30
0
 11
290
 21
215
 31
7
  0
LINE
  5
A8B
330
A02
100
AcDbEntity
  8
Fillet068
100
AcDbLine
 10
291.65
 20
215
 30
7
 11
290
 21
215
 31
7
  0
LINE
  5
A8C
330
A02
100
AcDbEntity
  8
Fillet068
100
AcDbLine
 10
195
 20
200
 30
0
 11
195
 21
200
 31
7
  0
LINE
  5
A8D
330
A02
100
AcDbEntity
  8
Fillet068
100
AcDbLine
 10
200
 20
200
 30
0
 11
200
 21
200
 31
7
  0
LINE
  5
A8E
330
A02
100
AcDbEntity
  8
Fillet068
100
AcDbLine
 10
195
 20
200
 30
0
 11
200
 21
200
 31
0
  0
LINE
  5
A8F
330
A02
100
AcDbEntity
  8
Fillet068
100
AcDbLine
 10
195
 20
200
 30
7
 11
200
 21
200
 31
7
  0
ARC
  5
A90
330
A02
100
AcDbEntity
  8
Fillet068
100
AcDbCircle
 10
291.65
 20
218.35
 30
0
 40
3.35
100
AcDbArc
 50
-90
 51
0
  0
LINE
  5
A91
330
A02
100
AcDbEntity
  8
Fillet068
100
AcDbLine
 10
291.65
 20
215
 30
0
 11
291.65
 21
215
 31
7
  0
LINE
  5
A92
330
A02
100
AcDbEntity
  8
Fillet068
100
AcDbLine
 10
295
 20
218.35
 30
0
 11
295
 21
218.35
 31
7
  0
ARC
  5
A93
330
A02
100
AcDbEntity
  8
Fillet068
100
AcDbCircle
 10
291.65
 20
218.35
 30
7
 40
3.35
100
AcDbArc
 50
-90
 51
0
  0
LINE
  5
A94
330
A02
100
AcDbEntity
  8
Fillet068
100
AcDbLine
 10
195
 20
200
 30
0
 11
195
 21
211.65
 31
0
  0
LINE
  5
A95
330
A02
100
AcDbEntity
  8
Fillet068
100
AcDbLine
 10
195
 20
211.65
 30
0
 11
195
 21
211.65
 31
7
  0
LINE
  5
A96
330
A02
100
AcDbEntity
  8
Fillet068
100
AcDbLine
 10
195
 20
200
 30
0
 11
195
 21
200
 31
7
  0
LINE
  5
A97
330
A02
100
AcDbEntity
  8
Fillet068
100
AcDbLine
 10
195
 20
200
 30
7
 11
195
 21
211.65
 31
7
  0
LINE
  5
A98
330
A02
100
AcDbEntity
  8
Fillet068
100
AcDbLine
 10
295
 20
241.65
 30
0
 11
295
 21
218.35
 31
0
  0
LINE
  5
A99
330
A02
100
AcDbEntity
  8
Fillet068
100
AcDbLine
 10
295
 20
241.65
 30
0
 11
295
 21
241.65
 31
7
  0
LINE
  5
A9A
330
A02
100
AcDbEntity
  8
Fillet068
100
AcDbLine
 10
295
 20
218.35
 30
0
 11
295
 21
218.35
 31
7
  0
LINE
  5
A9B
330
A02
100
AcDbEntity
  8
Fillet068
100
AcDbLine
 10
295
 20
241.65
 30
7
 11
295
 21
218.35
 31
7
  0
ARC
  5
A9C
330
A02
100
AcDbEntity
  8
Fillet068
100
AcDbCircle
 10
191.65
 20
211.65
 30
0
 40
3.35
100
AcDbArc
 50
0
 51
90
  0
LINE
  5
A9D
330
A02
100
AcDbEntity
  8
Fillet068
100
AcDbLine
 10
191.65
 20
215
 30
0
 11
191.65
 21
215
 31
7
  0
LINE
  5
A9E
330
A02
100
AcDbEntity
  8
Fillet068
100
AcDbLine
 10
195
 20
211.65
 30
0
 11
195
 21
211.65
 31
7
  0
ARC
  5
A9F
330
A02
100
AcDbEntity
  8
Fillet068
100
AcDbCircle
 10
191.65
 20
211.65
 30
7
 40
3.35
100
AcDbArc
 50
0
 51
90
  0
ARC
  5
AA0
330
A02
100
AcDbEntity
  8
Fillet068
100
AcDbCircle
 10
291.65
 20
241.65
 30
0
 40
3.35
100
AcDbArc
 50
0
 51
90
  0
LINE
  5
AA1
330
A02
100
AcDbEntity
  8
Fillet068
100
AcDbLine
 10
295
 20
241.65
 30
0
 11
295
 21
241.65
 31
7
  0
LINE
  5
AA2
330
A02
100
AcDbEntity
  8
Fillet068
100
AcDbLine
 10
291.65
 20
245
 30
0
 11
291.65
 21
245
 31
7
  0
ARC
  5
AA3
330
A02
100
AcDbEntity
  8
Fillet068
100
AcDbCircle
 10
291.65
 20
241.65
 30
7
 40
3.35
100
AcDbArc
 50
0
 51
90
  0
LINE
  5
AA4
330
A02
100
AcDbEntity
  8
Fillet068
100
AcDbLine
 10
191.65
 20
215
 30
0
 11
170.753
 21
215
 31
0
  0
LINE
  5
AA5
330
A02
100
AcDbEntity
  8
Fillet068
100
AcDbLine
 10
191.65
 20
215
 30
0
 11
191.65
 21
215
 31
7
  0
LINE
  5
AA6
330
A02
100
AcDbEntity
  8
Fillet068
100
AcDbLine
 10
170.753
 20
215
 30
0
 11
170.753
 21
215
 31
7
  0
LINE
  5
AA7
330
A02
100
AcDbEntity
  8
Fillet068
100
AcDbLine
 10
191.65
 20
215
 30
7
 11
170.753
 21
215
 31
7
  0
LINE
  5
AA8
330
A02
100
AcDbEntity
  8
Fillet068
100
AcDbLine
 10
290
 20
245
 30
0
 11
291.65
 21
245
 31
0
  0
LINE
  5
AA9
330
A02
100
AcDbEntity
  8
Fillet068
100
AcDbLine
 10
291.65
 20
245
 30
0
 11
291.65
 21
245
 31
7
  0
LINE
  5
AAA
330
A02
100
AcDbEntity
  8
Fillet068
100
AcDbLine
 10
290
 20
245
 30
0
 11
290
 21
245
 31
7
  0
LINE
  5
AAB
330
A02
100
AcDbEntity
  8
Fillet068
100
AcDbLine
 10
290
 20
245
 30
7
 11
291.65
 21
245
 31
7
  0
ARC
  5
AAC
330
A02
100
AcDbEntity
  8
Fillet068
100
AcDbCircle
 10
170.753
 20
211.65
 30
0
 40
3.35
100
AcDbArc
 50
90
 51
158.783
  0
LINE
  5
AAD
330
A02
100
AcDbEntity
  8
Fillet068
100
AcDbLine
 10
167.63
 20
212.862
 30
0
 11
167.63
 21
212.862
 31
7
  0
LINE
  5
AAE
330
A02
100
AcDbEntity
  8
Fillet068
100
AcDbLine
 10
170.753
 20
215
 30
0
 11
170.753
 21
215
 31
7
  0
ARC
  5
AAF
330
A02
100
AcDbEntity
  8
Fillet068
100
AcDbCircle
 10
170.753
 20
211.65
 30
7
 40
3.35
100
AcDbArc
 50
90
 51
158.783
  0
LINE
  5
AB0
330
A02
100
AcDbEntity
  8
Fillet068
100
AcDbLine
 10
178.35
 20
245
 30
0
 11
290
 21
245
 31
0
  0
LINE
  5
AB1
330
A02
100
AcDbEntity
  8
Fillet068
100
AcDbLine
 10
178.35
 20
245
 30
0
 11
178.35
 21
245
 31
7
  0
LINE
  5
AB2
330
A02
100
AcDbEntity
  8
Fillet068
100
AcDbLine
 10
290
 20
245
 30
0
 11
290
 21
245
 31
7
  0
LINE
  5
AB3
330
A02
100
AcDbEntity
  8
Fillet068
100
AcDbLine
 10
178.35
 20
245
 30
7
 11
290
 21
245
 31
7
  0
LINE
  5
AB4
330
A02
100
AcDbEntity
  8
Fillet068
100
AcDbLine
 10
167.63
 20
212.862
 30
0
 11
162.227
 21
198.945
 31
0
  0
LINE
  5
AB5
330
A02
100
AcDbEntity
  8
Fillet068
100
AcDbLine
 10
167.63
 20
212.862
 30
0
 11
167.63
 21
212.862
 31
7
  0
LINE
  5
AB6
330
A02
100
AcDbEntity
  8
Fillet068
100
AcDbLine
 10
162.227
 20
198.945
 30
0
 11
162.227
 21
198.945
 31
7
  0
LINE
  5
AB7
330
A02
100
AcDbEntity
  8
Fillet068
100
AcDbLine
 10
167.63
 20
212.862
 30
7
 11
162.227
 21
198.945
 31
7
  0
ARC
  5
AB8
330
A02
100
AcDbEntity
  8
Fillet068
100
AcDbCircle
 10
178.35
 20
248.35
 30
0
 40
3.35
100
AcDbArc
 50
180
 51
-90
  0
LINE
  5
AB9
330
A02
100
AcDbEntity
  8
Fillet068
100
AcDbLine
 10
178.35
 20
245
 30
0
 11
178.35
 21
245
 31
7
  0
LINE
  5
ABA
330
A02
100
AcDbEntity
  8
Fillet068
100
AcDbLine
 10
175
 20
248.35
 30
0
 11
175
 21
248.35
 31
7
  0
ARC
  5
ABB
330
A02
100
AcDbEntity
  8
Fillet068
100
AcDbCircle
 10
178.35
 20
248.35
 30
7
 40
3.35
100
AcDbArc
 50
180
 51
-90
  0
ARC
  5
ABC
330
A02
100
AcDbEntity
  8
Fillet068
100
AcDbCircle
 10
165.35
 20
197.733
 30
0
 40
3.35
100
AcDbArc
 50
158.783
 51
180
  0
LINE
  5
ABD
330
A02
100
AcDbEntity
  8
Fillet068
100
AcDbLine
 10
162
 20
197.733
 30
0
 11
162
 21
197.733
 31
7
  0
LINE
  5
ABE
330
A02
100
AcDbEntity
  8
Fillet068
100
AcDbLine
 10
162.227
 20
198.945
 30
0
 11
162.227
 21
198.945
 31
7
  0
ARC
  5
ABF
330
A02
100
AcDbEntity
  8
Fillet068
100
AcDbCircle
 10
165.35
 20
197.733
 30
7
 40
3.35
100
AcDbArc
 50
158.783
 51
180
  0
LINE
  5
AC0
330
A02
100
AcDbEntity
  8
Fillet068
100
AcDbLine
 10
175
 20
356.516
 30
0
 11
175
 21
248.35
 31
0
  0
LINE
  5
AC1
330
A02
100
AcDbEntity
  8
Fillet068
100
AcDbLine
 10
175
 20
356.516
 30
0
 11
175
 21
356.516
 31
7
  0
LINE
  5
AC2
330
A02
100
AcDbEntity
  8
Fillet068
100
AcDbLine
 10
175
 20
248.35
 30
0
 11
175
 21
248.35
 31
7
  0
LINE
  5
AC3
330
A02
100
AcDbEntity
  8
Fillet068
100
AcDbLine
 10
175
 20
356.516
 30
7
 11
175
 21
248.35
 31
7
  0
LINE
  5
AC4
330
A02
100
AcDbEntity
  8
Fillet068
100
AcDbLine
 10
162
 20
197.733
 30
0
 11
162
 21
115
 31
0
  0
LINE
  5
AC5
330
A02
100
AcDbEntity
  8
Fillet068
100
AcDbLine
 10
162
 20
197.733
 30
0
 11
162
 21
197.733
 31
7
  0
LINE
  5
AC6
330
A02
100
AcDbEntity
  8
Fillet068
100
AcDbLine
 10
162
 20
115
 30
0
 11
162
 21
115
 31
7
  0
LINE
  5
AC7
330
A02
100
AcDbEntity
  8
Fillet068
100
AcDbLine
 10
162
 20
197.733
 30
7
 11
162
 21
115
 31
7
  0
ARC
  5
AC8
330
A02
100
AcDbEntity
  8
Fillet068
100
AcDbCircle
 10
171.65
 20
356.516
 30
0
 40
3.35
100
AcDbArc
 50
0
 51
45.0029
  0
LINE
  5
AC9
330
A02
100
AcDbEntity
  8
Fillet068
100
AcDbLine
 10
175
 20
356.516
 30
0
 11
175
 21
356.516
 31
7
  0
LINE
  5
ACA
330
A02
100
AcDbEntity
  8
Fillet068
100
AcDbLine
 10
174.019
 20
358.885
 30
0
 11
174.019
 21
358.885
 31
7
  0
ARC
  5
ACB
330
A02
100
AcDbEntity
  8
Fillet068
100
AcDbCircle
 10
171.65
 20
356.516
 30
7
 40
3.35
100
AcDbArc
 50
0
 51
45.0029
  0
LINE
  5
ACC
330
A02
100
AcDbEntity
  8
Fillet068
100
AcDbLine
 10
162
 20
115
 30
0
 11
162
 21
113.35
 31
0
  0
LINE
  5
ACD
330
A02
100
AcDbEntity
  8
Fillet068
100
AcDbLine
 10
162
 20
113.35
 30
0
 11
162
 21
113.35
 31
7
  0
LINE
  5
ACE
330
A02
100
AcDbEntity
  8
Fillet068
100
AcDbLine
 10
162
 20
115
 30
0
 11
162
 21
115
 31
7
  0
LINE
  5
ACF
330
A02
100
AcDbEntity
  8
Fillet068
100
AcDbLine
 10
162
 20
115
 30
7
 11
162
 21
113.35
 31
7
  0
LINE
  5
AD0
330
A02
100
AcDbEntity
  8
Fillet068
100
AcDbLine
 10
136.381
 20
396.519
 30
0
 11
174.019
 21
358.885
 31
0
  0
LINE
  5
AD1
330
A02
100
AcDbEntity
  8
Fillet068
100
AcDbLine
 10
136.381
 20
396.519
 30
0
 11
136.381
 21
396.519
 31
7
  0
LINE
  5
AD2
330
A02
100
AcDbEntity
  8
Fillet068
100
AcDbLine
 10
174.019
 20
358.885
 30
0
 11
174.019
 21
358.885
 31
7
  0
LINE
  5
AD3
330
A02
100
AcDbEntity
  8
Fillet068
100
AcDbLine
 10
136.381
 20
396.519
 30
7
 11
174.019
 21
358.885
 31
7
  0
ARC
  5
AD4
330
A02
100
AcDbEntity
  8
Fillet068
100
AcDbCircle
 10
158.65
 20
113.35
 30
0
 40
3.35
100
AcDbArc
 50
-90
 51
2.43051e-13
  0
LINE
  5
AD5
330
A02
100
AcDbEntity
  8
Fillet068
100
AcDbLine
 10
158.65
 20
110
 30
0
 11
158.65
 21
110
 31
7
  0
LINE
  5
AD6
330
A02
100
AcDbEntity
  8
Fillet068
100
AcDbLine
 10
162
 20
113.35
 30
0
 11
162
 21
113.35
 31
7
  0
ARC
  5
AD7
330
A02
100
AcDbEntity
  8
Fillet068
100
AcDbCircle
 10
158.65
 20
113.35
 30
7
 40
3.35
100
AcDbArc
 50
-90
 51
2.43051e-13
  0
ARC
  5
AD8
330
A02
100
AcDbEntity
  8
Fillet068
100
AcDbCircle
 10
138.75
 20
398.888
 30
0
 40
3.35
100
AcDbArc
 50
180
 51
-134.997
  0
LINE
  5
AD9
330
A02
100
AcDbEntity
  8
Fillet068
100
AcDbLine
 10
136.381
 20
396.519
 30
0
 11
136.381
 21
396.519
 31
7
  0
LINE
  5
ADA
330
A02
100
AcDbEntity
  8
Fillet068
100
AcDbLine
 10
135.4
 20
398.888
 30
0
 11
135.4
 21
398.888
 31
7
  0
ARC
  5
ADB
330
A02
100
AcDbEntity
  8
Fillet068
100
AcDbCircle
 10
138.75
 20
398.888
 30
7
 40
3.35
100
AcDbArc
 50
180
 51
-134.997
  0
LINE
  5
ADC
330
A02
100
AcDbEntity
  8
Fillet068
100
AcDbLine
 10
158.65
 20
110
 30
0
 11
157.873
 21
110
 31
0
  0
LINE
  5
ADD
330
A02
100
AcDbEntity
  8
Fillet068
100
AcDbLine
 10
158.65
 20
110
 30
0
 11
158.65
 21
110
 31
7
  0
LINE
  5
ADE
330
A02
100
AcDbEntity
  8
Fillet068
100
AcDbLine
 10
157.873
 20
110
 30
0
 11
157.873
 21
110
 31
7
  0
LINE
  5
ADF
330
A02
100
AcDbEntity
  8
Fillet068
100
AcDbLine
 10
158.65
 20
110
 30
7
 11
157.873
 21
110
 31
7
  0
LINE
  5
AE0
330
A02
100
AcDbEntity
  8
Fillet068
100
AcDbLine
 10
135.4
 20
402.5
 30
0
 11
135.4
 21
398.888
 31
0
  0
LINE
  5
AE1
330
A02
100
AcDbEntity
  8
Fillet068
100
AcDbLine
 10
135.4
 20
398.888
 30
0
 11
135.4
 21
398.888
 31
7
  0
LINE
  5
AE2
330
A02
100
AcDbEntity
  8
Fillet068
100
AcDbLine
 10
135.4
 20
402.5
 30
0
 11
135.4
 21
402.5
 31
7
  0
LINE
  5
AE3
330
A02
100
AcDbEntity
  8
Fillet068
100
AcDbLine
 10
135.4
 20
402.5
 30
7
 11
135.4
 21
398.888
 31
7
  0
ARC
  5
AE4
330
A02
100
AcDbEntity
  8
Fillet068
100
AcDbCircle
 10
157.873
 20
113.35
 30
0
 40
3.35
100
AcDbArc
 50
-119.205
 51
-90
  0
LINE
  5
AE5
330
A02
100
AcDbEntity
  8
Fillet068
100
AcDbLine
 10
156.238
 20
110.426
 30
0
 11
156.238
 21
110.426
 31
7
  0
LINE
  5
AE6
330
A02
100
AcDbEntity
  8
Fillet068
100
AcDbLine
 10
157.873
 20
110
 30
0
 11
157.873
 21
110
 31
7
  0
ARC
  5
AE7
330
A02
100
AcDbEntity
  8
Fillet068
100
AcDbCircle
 10
157.873
 20
113.35
 30
7
 40
3.35
100
AcDbArc
 50
-119.205
 51
-90
  0
LINE
  5
AE8
330
A02
100
AcDbEntity
  8
Fillet068
100
AcDbLine
 10
130.4
 20
402.5
 30
0
 11
130.4
 21
402.5
 31
7
  0
LINE
  5
AE9
330
A02
100
AcDbEntity
  8
Fillet068
100
AcDbLine
 10
135.4
 20
402.5
 30
0
 11
135.4
 21
402.5
 31
7
  0
LINE
  5
AEA
330
A02
100
AcDbEntity
  8
Fillet068
100
AcDbLine
 10
130.4
 20
402.5
 30
0
 11
135.4
 21
402.5
 31
0
  0
LINE
  5
AEB
330
A02
100
AcDbEntity
  8
Fillet068
100
AcDbLine
 10
130.4
 20
402.5
 30
7
 11
135.4
 21
402.5
 31
7
  0
LINE
  5
AEC
330
A02
100
AcDbEntity
  8
Fillet068
100
AcDbLine
 10
156.238
 20
110.426
 30
0
 11
135.366
 21
122.093
 31
0
  0
LINE
  5
AED
330
A02
100
AcDbEntity
  8
Fillet068
100
AcDbLine
 10
156.238
 20
110.426
 30
0
 11
156.238
 21
110.426
 31
7
  0
LINE
  5
AEE
330
A02
100
AcDbEntity
  8
Fillet068
100
AcDbLine
 10
135.366
 20
122.093
 30
0
 11
135.366
 21
122.093
 31
7
  0
LINE
  5
AEF
330
A02
100
AcDbEntity
  8
Fillet068
100
AcDbLine
 10
156.238
 20
110.426
 30
7
 11
135.366
 21
122.093
 31
7
  0
LINE
  5
AF0
330
A02
100
AcDbEntity
  8
Fillet068
100
AcDbLine
 10
101.467
 20
402.5
 30
0
 11
101.467
 21
402.5
 31
7
  0
LINE
  5
AF1
330
A02
100
AcDbEntity
  8
Fillet068
100
AcDbLine
 10
130.4
 20
402.5
 30
0
 11
130.4
 21
402.5
 31
7
  0
LINE
  5
AF2
330
A02
100
AcDbEntity
  8
Fillet068
100
AcDbLine
 10
101.467
 20
402.5
 30
0
 11
130.4
 21
402.5
 31
0
  0
LINE
  5
AF3
330
A02
100
AcDbEntity
  8
Fillet068
100
AcDbLine
 10
101.467
 20
402.5
 30
7
 11
130.4
 21
402.5
 31
7
  0
ARC
  5
AF4
330
A02
100
AcDbEntity
  8
Fillet068
100
AcDbCircle
 10
137.001
 20
125.017
 30
0
 40
3.35
100
AcDbArc
 50
-149.424
 51
-119.205
  0
LINE
  5
AF5
330
A02
100
AcDbEntity
  8
Fillet068
100
AcDbLine
 10
134.117
 20
123.313
 30
0
 11
134.117
 21
123.313
 31
7
  0
LINE
  5
AF6
330
A02
100
AcDbEntity
  8
Fillet068
100
AcDbLine
 10
135.366
 20
122.093
 30
0
 11
135.366
 21
122.093
 31
7
  0
ARC
  5
AF7
330
A02
100
AcDbEntity
  8
Fillet068
100
AcDbCircle
 10
137.001
 20
125.017
 30
7
 40
3.35
100
AcDbArc
 50
-149.424
 51
-119.205
  0
LINE
  5
AF8
330
A02
100
AcDbEntity
  8
Fillet068
100
AcDbLine
 10
101.467
 20
402.5
 30
0
 11
101.467
 21
402.5
 31
7
  0
LINE
  5
AF9
330
A02
100
AcDbEntity
  8
Fillet068
100
AcDbLine
 10
96.4674
 20
402.5
 30
0
 11
96.4674
 21
402.5
 31
7
  0
LINE
  5
AFA
330
A02
100
AcDbEntity
  8
Fillet068
100
AcDbLine
 10
101.467
 20
402.5
 30
0
 11
96.4674
 21
402.5
 31
0
  0
LINE
  5
AFB
330
A02
100
AcDbEntity
  8
Fillet068
100
AcDbLine
 10
101.467
 20
402.5
 30
7
 11
96.4674
 21
402.5
 31
7
  0
LINE
  5
AFC
330
A02
100
AcDbEntity
  8
Fillet068
100
AcDbLine
 10
134.117
 20
123.313
 30
0
 11
132.466
 21
126.108
 31
0
  0
LINE
  5
AFD
330
A02
100
AcDbEntity
  8
Fillet068
100
AcDbLine
 10
134.117
 20
123.313
 30
0
 11
134.117
 21
123.313
 31
7
  0
LINE
  5
AFE
330
A02
100
AcDbEntity
  8
Fillet068
100
AcDbLine
 10
132.466
 20
126.108
 30
0
 11
132.466
 21
126.108
 31
7
  0
LINE
  5
AFF
330
A02
100
AcDbEntity
  8
Fillet068
100
AcDbLine
 10
134.117
 20
123.313
 30
7
 11
132.466
 21
126.108
 31
7
  0
LINE
  5
B00
330
A02
100
AcDbEntity
  8
Fillet068
100
AcDbLine
 10
96.4674
 20
397.5
 30
0
 11
96.4674
 21
397.5
 31
7
  0
LINE
  5
B01
330
A02
100
AcDbEntity
  8
Fillet068
100
AcDbLine
 10
96.4674
 20
402.5
 30
0
 11
96.4674
 21
402.5
 31
7
  0
LINE
  5
B02
330
A02
100
AcDbEntity
  8
Fillet068
100
AcDbLine
 10
96.4674
 20
397.5
 30
0
 11
96.4674
 21
402.5
 31
0
  0
LINE
  5
B03
330
A02
100
AcDbEntity
  8
Fillet068
100
AcDbLine
 10
96.4674
 20
397.5
 30
7
 11
96.4674
 21
402.5
 31
7
  0
ARC
  5
B04
330
A02
100
AcDbEntity
  8
Fillet068
100
AcDbCircle
 10
135.35
 20
127.812
 30
0
 40
3.35
100
AcDbArc
 50
-180
 51
-149.424
  0
LINE
  5
B05
330
A02
100
AcDbEntity
  8
Fillet068
100
AcDbLine
 10
132
 20
127.812
 30
0
 11
132
 21
127.812
 31
7
  0
LINE
  5
B06
330
A02
100
AcDbEntity
  8
Fillet068
100
AcDbLine
 10
132.466
 20
126.108
 30
0
 11
132.466
 21
126.108
 31
7
  0
ARC
  5
B07
330
A02
100
AcDbEntity
  8
Fillet068
100
AcDbCircle
 10
135.35
 20
127.812
 30
7
 40
3.35
100
AcDbArc
 50
-180
 51
-149.424
  0
LINE
  5
B08
330
A02
100
AcDbEntity
  8
Fillet068
100
AcDbLine
 10
96.4674
 20
393.885
 30
0
 11
96.4674
 21
397.5
 31
0
  0
LINE
  5
B09
330
A02
100
AcDbEntity
  8
Fillet068
100
AcDbLine
 10
96.4674
 20
393.885
 30
0
 11
96.4674
 21
393.885
 31
7
  0
LINE
  5
B0A
330
A02
100
AcDbEntity
  8
Fillet068
100
AcDbLine
 10
96.4674
 20
397.5
 30
0
 11
96.4674
 21
397.5
 31
7
  0
LINE
  5
B0B
330
A02
100
AcDbEntity
  8
Fillet068
100
AcDbLine
 10
96.4674
 20
393.885
 30
7
 11
96.4674
 21
397.5
 31
7
  0
LINE
  5
B0C
330
A02
100
AcDbEntity
  8
Fillet068
100
AcDbLine
 10
132
 20
127.812
 30
0
 11
132
 21
199.496
 31
0
  0
LINE
  5
B0D
330
A02
100
AcDbEntity
  8
Fillet068
100
AcDbLine
 10
132
 20
127.812
 30
0
 11
132
 21
127.812
 31
7
  0
LINE
  5
B0E
330
A02
100
AcDbEntity
  8
Fillet068
100
AcDbLine
 10
132
 20
199.496
 30
0
 11
132
 21
199.496
 31
7
  0
LINE
  5
B0F
330
A02
100
AcDbEntity
  8
Fillet068
100
AcDbLine
 10
132
 20
127.812
 30
7
 11
132
 21
199.496
 31
7
  0
ARC
  5
B10
330
A02
100
AcDbEntity
  8
Fillet068
100
AcDbCircle
 10
99.8174
 20
393.885
 30
0
 40
3.35
100
AcDbArc
 50
180
 51
-135.082
  0
LINE
  5
B11
330
A02
100
AcDbEntity
  8
Fillet068
100
AcDbLine
 10
96.4674
 20
393.885
 30
0
 11
96.4674
 21
393.885
 31
7
  0
LINE
  5
B12
330
A02
100
AcDbEntity
  8
Fillet068
100
AcDbLine
 10
97.4452
 20
391.519
 30
0
 11
97.4452
 21
391.519
 31
7
  0
ARC
  5
B13
330
A02
100
AcDbEntity
  8
Fillet068
100
AcDbCircle
 10
99.8174
 20
393.885
 30
7
 40
3.35
100
AcDbArc
 50
180
 51
-135.082
  0
ARC
  5
B14
330
A02
100
AcDbEntity
  8
Fillet068
100
AcDbCircle
 10
135.35
 20
199.496
 30
0
 40
3.35
100
AcDbArc
 50
161.985
 51
180
  0
LINE
  5
B15
330
A02
100
AcDbEntity
  8
Fillet068
100
AcDbLine
 10
132.164
 20
200.532
 30
0
 11
132.164
 21
200.532
 31
7
  0
LINE
  5
B16
330
A02
100
AcDbEntity
  8
Fillet068
100
AcDbLine
 10
132
 20
199.496
 30
0
 11
132
 21
199.496
 31
7
  0
ARC
  5
B17
330
A02
100
AcDbEntity
  8
Fillet068
100
AcDbCircle
 10
135.35
 20
199.496
 30
7
 40
3.35
100
AcDbArc
 50
161.985
 51
180
  0
LINE
  5
B18
330
A02
100
AcDbEntity
  8
Fillet068
100
AcDbLine
 10
144.012
 20
344.82
 30
0
 11
97.4452
 21
391.519
 31
0
  0
LINE
  5
B19
330
A02
100
AcDbEntity
  8
Fillet068
100
AcDbLine
 10
144.012
 20
344.82
 30
0
 11
144.012
 21
344.82
 31
7
  0
LINE
  5
B1A
330
A02
100
AcDbEntity
  8
Fillet068
100
AcDbLine
 10
97.4452
 20
391.519
 30
0
 11
97.4452
 21
391.519
 31
7
  0
LINE
  5
B1B
330
A02
100
AcDbEntity
  8
Fillet068
100
AcDbLine
 10
144.012
 20
344.82
 30
7
 11
97.4452
 21
391.519
 31
7
  0
LINE
  5
B1C
330
A02
100
AcDbEntity
  8
Fillet068
100
AcDbLine
 10
132.164
 20
200.532
 30
0
 11
144.825
 21
239.463
 31
0
  0
LINE
  5
B1D
330
A02
100
AcDbEntity
  8
Fillet068
100
AcDbLine
 10
132.164
 20
200.532
 30
0
 11
132.164
 21
200.532
 31
7
  0
LINE
  5
B1E
330
A02
100
AcDbEntity
  8
Fillet068
100
AcDbLine
 10
144.825
 20
239.463
 30
0
 11
144.825
 21
239.463
 31
7
  0
LINE
  5
B1F
330
A02
100
AcDbEntity
  8
Fillet068
100
AcDbLine
 10
132.164
 20
200.532
 30
7
 11
144.825
 21
239.463
 31
7
  0
ARC
  5
B20
330
A02
100
AcDbEntity
  8
Fillet068
100
AcDbCircle
 10
141.639
 20
342.455
 30
0
 40
3.35
100
AcDbArc
 50
0
 51
44.9183
  0
LINE
  5
B21
330
A02
100
AcDbEntity
  8
Fillet068
100
AcDbLine
 10
144.012
 20
344.82
 30
0
 11
144.012
 21
344.82
 31
7
  0
LINE
  5
B22
330
A02
100
AcDbEntity
  8
Fillet068
100
AcDbLine
 10
144.989
 20
342.455
 30
0
 11
144.989
 21
342.455
 31
7
  0
ARC
  5
B23
330
A02
100
AcDbEntity
  8
Fillet068
100
AcDbCircle
 10
141.639
 20
342.455
 30
7
 40
3.35
100
AcDbArc
 50
0
 51
44.9183
  0
ARC
  5
B24
330
A02
100
AcDbEntity
  8
Fillet068
100
AcDbCircle
 10
141.639
 20
240.499
 30
0
 40
3.35
100
AcDbArc
 50
-18.0153
 51
0
  0
LINE
  5
B25
330
A02
100
AcDbEntity
  8
Fillet068
100
AcDbLine
 10
144.989
 20
240.499
 30
0
 11
144.989
 21
240.499
 31
7
  0
LINE
  5
B26
330
A02
100
AcDbEntity
  8
Fillet068
100
AcDbLine
 10
144.825
 20
239.463
 30
0
 11
144.825
 21
239.463
 31
7
  0
ARC
  5
B27
330
A02
100
AcDbEntity
  8
Fillet068
100
AcDbCircle
 10
141.639
 20
240.499
 30
7
 40
3.35
100
AcDbArc
 50
-18.0153
 51
0
  0
LINE
  5
B28
330
A02
100
AcDbEntity
  8
Fillet068
100
AcDbLine
 10
144.989
 20
240.499
 30
0
 11
144.989
 21
342.455
 31
0
  0
LINE
  5
B29
330
A02
100
AcDbEntity
  8
Fillet068
100
AcDbLine
 10
144.989
 20
240.499
 30
0
 11
144.989
 21
240.499
 31
7
  0
LINE
  5
B2A
330
A02
100
AcDbEntity
  8
Fillet068
100
AcDbLine
 10
144.989
 20
342.455
 30
0
 11
144.989
 21
342.455
 31
7
  0
LINE
  5
B2B
330
A02
100
AcDbEntity
  8
Fillet068
100
AcDbLine
 10
144.989
 20
240.499
 30
7
 11
144.989
 21
342.455
 31
7
  0
LINE
  5
B2C
330
A02
100
AcDbEntity
  8
Fillet068
100
AcDbLine
 10
247
 20
419.25
 30
7
 11
247
 21
421.55
 31
7
  0
LINE
  5
B2D
330
A02
100
AcDbEntity
  8
Fillet068
100
AcDbLine
 10
247
 20
419.25
 30
7
 11
247
 21
419.25
 31
0
  0
LINE
  5
B2E
330
A02
100
AcDbEntity
  8
Fillet068
100
AcDbLine
 10
247
 20
421.55
 30
7
 11
247
 21
421.55
 31
0
  0
LINE
  5
B2F
330
A02
100
AcDbEntity
  8
Fillet068
100
AcDbLine
 10
247
 20
419.25
 30
0
 11
247
 21
421.55
 31
0
  0
ARC
  5
B30
330
A02
100
AcDbEntity
  8
Fillet068
100
AcDbCircle
 10
253.35
 20
419.25
 30
7
 40
6.35
100
AcDbArc
 50
180
 51
-90
  0
LINE
  5
B31
330
A02
100
AcDbEntity
  8
Fillet068
100
AcDbLine
 10
247
 20
419.25
 30
7
 11
247
 21
419.25
 31
0
  0
LINE
  5
B32
330
A02
100
AcDbEntity
  8
Fillet068
100
AcDbLine
 10
253.35
 20
412.9
 30
7
 11
253.35
 21
412.9
 31
0
  0
ARC
  5
B33
330
A02
100
AcDbEntity
  8
Fillet068
100
AcDbCircle
 10
253.35
 20
419.25
 30
0
 40
6.35
100
AcDbArc
 50
180
 51
-90
  0
ARC
  5
B34
330
A02
100
AcDbEntity
  8
Fillet068
100
AcDbCircle
 10
253.35
 20
421.55
 30
7
 40
6.35
100
AcDbArc
 50
90
 51
180
  0
LINE
  5
B35
330
A02
100
AcDbEntity
  8
Fillet068
100
AcDbLine
 10
247
 20
421.55
 30
7
 11
247
 21
421.55
 31
0
  0
LINE
  5
B36
330
A02
100
AcDbEntity
  8
Fillet068
100
AcDbLine
 10
253.35
 20
427.9
 30
7
 11
253.35
 21
427.9
 31
0
  0
ARC
  5
B37
330
A02
100
AcDbEntity
  8
Fillet068
100
AcDbCircle
 10
253.35
 20
421.55
 30
0
 40
6.35
100
AcDbArc
 50
90
 51
180
  0
LINE
  5
B38
330
A02
100
AcDbEntity
  8
Fillet068
100
AcDbLine
 10
260.65
 20
412.9
 30
7
 11
253.35
 21
412.9
 31
7
  0
LINE
  5
B39
330
A02
100
AcDbEntity
  8
Fillet068
100
AcDbLine
 10
260.65
 20
412.9
 30
7
 11
260.65
 21
412.9
 31
0
  0
LINE
  5
B3A
330
A02
100
AcDbEntity
  8
Fillet068
100
AcDbLine
 10
253.35
 20
412.9
 30
7
 11
253.35
 21
412.9
 31
0
  0
LINE
  5
B3B
330
A02
100
AcDbEntity
  8
Fillet068
100
AcDbLine
 10
260.65
 20
412.9
 30
0
 11
253.35
 21
412.9
 31
0
  0
LINE
  5
B3C
330
A02
100
AcDbEntity
  8
Fillet068
100
AcDbLine
 10
253.35
 20
427.9
 30
7
 11
260.65
 21
427.9
 31
7
  0
LINE
  5
B3D
330
A02
100
AcDbEntity
  8
Fillet068
100
AcDbLine
 10
253.35
 20
427.9
 30
7
 11
253.35
 21
427.9
 31
0
  0
LINE
  5
B3E
330
A02
100
AcDbEntity
  8
Fillet068
100
AcDbLine
 10
260.65
 20
427.9
 30
7
 11
260.65
 21
427.9
 31
0
  0
LINE
  5
B3F
330
A02
100
AcDbEntity
  8
Fillet068
100
AcDbLine
 10
253.35
 20
427.9
 30
0
 11
260.65
 21
427.9
 31
0
  0
ARC
  5
B40
330
A02
100
AcDbEntity
  8
Fillet068
100
AcDbCircle
 10
260.65
 20
419.25
 30
7
 40
6.35
100
AcDbArc
 50
-90
 51
0
  0
LINE
  5
B41
330
A02
100
AcDbEntity
  8
Fillet068
100
AcDbLine
 10
260.65
 20
412.9
 30
7
 11
260.65
 21
412.9
 31
0
  0
LINE
  5
B42
330
A02
100
AcDbEntity
  8
Fillet068
100
AcDbLine
 10
267
 20
419.25
 30
7
 11
267
 21
419.25
 31
0
  0
ARC
  5
B43
330
A02
100
AcDbEntity
  8
Fillet068
100
AcDbCircle
 10
260.65
 20
419.25
 30
0
 40
6.35
100
AcDbArc
 50
-90
 51
0
  0
ARC
  5
B44
330
A02
100
AcDbEntity
  8
Fillet068
100
AcDbCircle
 10
260.65
 20
421.55
 30
7
 40
6.35
100
AcDbArc
 50
0
 51
90
  0
LINE
  5
B45
330
A02
100
AcDbEntity
  8
Fillet068
100
AcDbLine
 10
260.65
 20
427.9
 30
7
 11
260.65
 21
427.9
 31
0
  0
LINE
  5
B46
330
A02
100
AcDbEntity
  8
Fillet068
100
AcDbLine
 10
267
 20
421.55
 30
7
 11
267
 21
421.55
 31
0
  0
ARC
  5
B47
330
A02
100
AcDbEntity
  8
Fillet068
100
AcDbCircle
 10
260.65
 20
421.55
 30
0
 40
6.35
100
AcDbArc
 50
0
 51
90
  0
LINE
  5
B48
330
A02
100
AcDbEntity
  8
Fillet068
100
AcDbLine
 10
267
 20
421.55
 30
7
 11
267
 21
419.25
 31
7
  0
LINE
  5
B49
330
A02
100
AcDbEntity
  8
Fillet068
100
AcDbLine
 10
267
 20
421.55
 30
7
 11
267
 21
421.55
 31
0
  0
LINE
  5
B4A
330
A02
100
AcDbEntity
  8
Fillet068
100
AcDbLine
 10
267
 20
419.25
 30
7
 11
267
 21
419.25
 31
0
  0
LINE
  5
B4B
330
A02
100
AcDbEntity
  8
Fillet068
100
AcDbLine
 10
267
 20
421.55
 30
0
 11
267
 21
419.25
 31
0
  0
LINE
  5
B4C
330
A02
100
AcDbEntity
  8
Fillet068
100
AcDbLine
 10
247.5
 20
385.3
 30
0
 11
202.5
 21
385.3
 31
0
  0
LINE
  5
B4D
330
A02
100
AcDbEntity
  8
Fillet068
100
AcDbLine
 10
247.5
 20
385.3
 30
0
 11
247.5
 21
385.3
 31
7
  0
LINE
  5
B4E
330
A02
100
AcDbEntity
  8
Fillet068
100
AcDbLine
 10
202.5
 20
385.3
 30
0
 11
202.5
 21
385.3
 31
7
  0
LINE
  5
B4F
330
A02
100
AcDbEntity
  8
Fillet068
100
AcDbLine
 10
247.5
 20
385.3
 30
7
 11
202.5
 21
385.3
 31
7
  0
ARC
  5
B50
330
A02
100
AcDbEntity
  8
Fillet068
100
AcDbCircle
 10
247.5
 20
379.3
 30
0
 40
6
100
AcDbArc
 50
0
 51
90
  0
LINE
  5
B51
330
A02
100
AcDbEntity
  8
Fillet068
100
AcDbLine
 10
247.5
 20
385.3
 30
0
 11
247.5
 21
385.3
 31
7
  0
LINE
  5
B52
330
A02
100
AcDbEntity
  8
Fillet068
100
AcDbLine
 10
253.5
 20
379.3
 30
0
 11
253.5
 21
379.3
 31
7
  0
ARC
  5
B53
330
A02
100
AcDbEntity
  8
Fillet068
100
AcDbCircle
 10
247.5
 20
379.3
 30
7
 40
6
100
AcDbArc
 50
0
 51
90
  0
ARC
  5
B54
330
A02
100
AcDbEntity
  8
Fillet068
100
AcDbCircle
 10
202.5
 20
379.3
 30
0
 40
6
100
AcDbArc
 50
90
 51
180
  0
LINE
  5
B55
330
A02
100
AcDbEntity
  8
Fillet068
100
AcDbLine
 10
202.5
 20
385.3
 30
0
 11
202.5
 21
385.3
 31
7
  0
LINE
  5
B56
330
A02
100
AcDbEntity
  8
Fillet068
100
AcDbLine
 10
196.5
 20
379.3
 30
0
 11
196.5
 21
379.3
 31
7
  0
ARC
  5
B57
330
A02
100
AcDbEntity
  8
Fillet068
100
AcDbCircle
 10
202.5
 20
379.3
 30
7
 40
6
100
AcDbArc
 50
90
 51
180
  0
LINE
  5
B58
330
A02
100
AcDbEntity
  8
Fillet068
100
AcDbLine
 10
253.5
 20
287.3
 30
0
 11
253.5
 21
379.3
 31
0
  0
LINE
  5
B59
330
A02
100
AcDbEntity
  8
Fillet068
100
AcDbLine
 10
253.5
 20
379.3
 30
0
 11
253.5
 21
379.3
 31
7
  0
LINE
  5
B5A
330
A02
100
AcDbEntity
  8
Fillet068
100
AcDbLine
 10
253.5
 20
287.3
 30
0
 11
253.5
 21
287.3
 31
7
  0
LINE
  5
B5B
330
A02
100
AcDbEntity
  8
Fillet068
100
AcDbLine
 10
253.5
 20
287.3
 30
7
 11
253.5
 21
379.3
 31
7
  0
LINE
  5
B5C
330
A02
100
AcDbEntity
  8
Fillet068
100
AcDbLine
 10
196.5
 20
379.3
 30
0
 11
196.5
 21
287.3
 31
0
  0
LINE
  5
B5D
330
A02
100
AcDbEntity
  8
Fillet068
100
AcDbLine
 10
196.5
 20
379.3
 30
0
 11
196.5
 21
379.3
 31
7
  0
LINE
  5
B5E
330
A02
100
AcDbEntity
  8
Fillet068
100
AcDbLine
 10
196.5
 20
287.3
 30
0
 11
196.5
 21
287.3
 31
7
  0
LINE
  5
B5F
330
A02
100
AcDbEntity
  8
Fillet068
100
AcDbLine
 10
196.5
 20
379.3
 30
7
 11
196.5
 21
287.3
 31
7
  0
LINE
  5
B60
330
A02
100
AcDbEntity
  8
Fillet068
100
AcDbLine
 10
196.5
 20
287.3
 30
0
 11
196.5
 21
287.3
 31
7
  0
LINE
  5
B61
330
A02
100
AcDbEntity
  8
Fillet068
100
AcDbLine
 10
253.5
 20
287.3
 30
0
 11
253.5
 21
287.3
 31
7
  0
LINE
  5
B62
330
A02
100
AcDbEntity
  8
Fillet068
100
AcDbLine
 10
196.5
 20
287.3
 30
0
 11
253.5
 21
287.3
 31
0
  0
LINE
  5
B63
330
A02
100
AcDbEntity
  8
Fillet068
100
AcDbLine
 10
196.5
 20
287.3
 30
7
 11
253.5
 21
287.3
 31
7
  0
LINE
  5
B64
330
A02
100
AcDbEntity
  8
Fillet068
100
AcDbLine
 10
252.15
 20
545.5
 30
7
 11
252.536
 21
509.5
 31
7
  0
LINE
  5
B65
330
A02
100
AcDbEntity
  8
Fillet068
100
AcDbLine
 10
252.536
 20
509.5
 30
7
 11
252.536
 21
509.5
 31
0
  0
LINE
  5
B66
330
A02
100
AcDbEntity
  8
Fillet068
100
AcDbLine
 10
252.15
 20
545.5
 30
-8.9e-16
 11
252.536
 21
509.5
 31
-8.9e-16
  0
LINE
  5
B67
330
A02
100
AcDbEntity
  8
Fillet068
100
AcDbLine
 10
252.15
 20
545.5
 30
7
 11
252.15
 21
545.5
 31
0
  0
LINE
  5
B68
330
A02
100
AcDbEntity
  8
Fillet068
100
AcDbLine
 10
252.15
 20
545.5
 30
7
 11
197.848
 21
545.5
 31
7
  0
LINE
  5
B69
330
A02
100
AcDbEntity
  8
Fillet068
100
AcDbLine
 10
197.848
 20
545.5
 30
7
 11
197.848
 21
545.5
 31
0
  0
LINE
  5
B6A
330
A02
100
AcDbEntity
  8
Fillet068
100
AcDbLine
 10
252.15
 20
545.5
 30
0
 11
197.848
 21
545.5
 31
0
  0
LINE
  5
B6B
330
A02
100
AcDbEntity
  8
Fillet068
100
AcDbLine
 10
252.15
 20
545.5
 30
7
 11
252.15
 21
545.5
 31
0
  0
LINE
  5
B6C
330
A02
100
AcDbEntity
  8
Fillet068
100
AcDbLine
 10
252.536
 20
509.5
 30
7
 11
349.402
 21
461.057
 31
7
  0
LINE
  5
B6D
330
A02
100
AcDbEntity
  8
Fillet068
100
AcDbLine
 10
349.402
 20
461.057
 30
7
 11
349.402
 21
461.057
 31
0
  0
LINE
  5
B6E
330
A02
100
AcDbEntity
  8
Fillet068
100
AcDbLine
 10
252.536
 20
509.5
 30
0
 11
349.402
 21
461.057
 31
0
  0
LINE
  5
B6F
330
A02
100
AcDbEntity
  8
Fillet068
100
AcDbLine
 10
252.536
 20
509.5
 30
7
 11
252.536
 21
509.5
 31
0
  0
LINE
  5
B70
330
A02
100
AcDbEntity
  8
Fillet068
100
AcDbLine
 10
197.848
 20
545.5
 30
7
 11
197.726
 21
534.521
 31
7
  0
LINE
  5
B71
330
A02
100
AcDbEntity
  8
Fillet068
100
AcDbLine
 10
197.726
 20
534.521
 30
7
 11
197.726
 21
534.521
 31
0
  0
LINE
  5
B72
330
A02
100
AcDbEntity
  8
Fillet068
100
AcDbLine
 10
197.848
 20
545.5
 30
0
 11
197.726
 21
534.521
 31
0
  0
LINE
  5
B73
330
A02
100
AcDbEntity
  8
Fillet068
100
AcDbLine
 10
197.848
 20
545.5
 30
7
 11
197.848
 21
545.5
 31
0
  0
LINE
  5
B74
330
A02
100
AcDbEntity
  8
Fillet068
100
AcDbLine
 10
349.402
 20
461.057
 30
7
 11
353.186
 21
456.92
 31
7
  0
LINE
  5
B75
330
A02
100
AcDbEntity
  8
Fillet068
100
AcDbLine
 10
353.186
 20
456.92
 30
7
 11
353.186
 21
456.92
 31
0
  0
LINE
  5
B76
330
A02
100
AcDbEntity
  8
Fillet068
100
AcDbLine
 10
349.402
 20
461.057
 30
0
 11
353.186
 21
456.92
 31
0
  0
LINE
  5
B77
330
A02
100
AcDbEntity
  8
Fillet068
100
AcDbLine
 10
349.402
 20
461.057
 30
7
 11
349.402
 21
461.057
 31
0
  0
LINE
  5
B78
330
A02
100
AcDbEntity
  8
Fillet068
100
AcDbLine
 10
197.726
 20
534.521
 30
7
 11
195.596
 21
533.25
 31
7
  0
LINE
  5
B79
330
A02
100
AcDbEntity
  8
Fillet068
100
AcDbLine
 10
195.596
 20
533.25
 30
7
 11
195.596
 21
533.25
 31
0
  0
LINE
  5
B7A
330
A02
100
AcDbEntity
  8
Fillet068
100
AcDbLine
 10
197.726
 20
534.521
 30
-8.9e-16
 11
195.596
 21
533.25
 31
-8.9e-16
  0
LINE
  5
B7B
330
A02
100
AcDbEntity
  8
Fillet068
100
AcDbLine
 10
197.726
 20
534.521
 30
7
 11
197.726
 21
534.521
 31
0
  0
LINE
  5
B7C
330
A02
100
AcDbEntity
  8
Fillet068
100
AcDbLine
 10
353.186
 20
456.92
 30
7
 11
355.987
 21
452.42
 31
7
  0
LINE
  5
B7D
330
A02
100
AcDbEntity
  8
Fillet068
100
AcDbLine
 10
355.987
 20
452.42
 30
7
 11
355.987
 21
452.42
 31
0
  0
LINE
  5
B7E
330
A02
100
AcDbEntity
  8
Fillet068
100
AcDbLine
 10
353.186
 20
456.92
 30
-8.9e-16
 11
355.987
 21
452.42
 31
-8.9e-16
  0
LINE
  5
B7F
330
A02
100
AcDbEntity
  8
Fillet068
100
AcDbLine
 10
353.186
 20
456.92
 30
7
 11
353.186
 21
456.92
 31
0
  0
LINE
  5
B80
330
A02
100
AcDbEntity
  8
Fillet068
100
AcDbLine
 10
195.596
 20
533.25
 30
7
 11
190.601
 21
530.784
 31
7
  0
LINE
  5
B81
330
A02
100
AcDbEntity
  8
Fillet068
100
AcDbLine
 10
190.601
 20
530.784
 30
7
 11
190.601
 21
530.784
 31
0
  0
LINE
  5
B82
330
A02
100
AcDbEntity
  8
Fillet068
100
AcDbLine
 10
195.596
 20
533.25
 30
0
 11
190.601
 21
530.784
 31
0
  0
LINE
  5
B83
330
A02
100
AcDbEntity
  8
Fillet068
100
AcDbLine
 10
195.596
 20
533.25
 30
7
 11
195.596
 21
533.25
 31
0
  0
LINE
  5
B84
330
A02
100
AcDbEntity
  8
Fillet068
100
AcDbLine
 10
355.987
 20
452.42
 30
7
 11
355.987
 21
442.02
 31
7
  0
LINE
  5
B85
330
A02
100
AcDbEntity
  8
Fillet068
100
AcDbLine
 10
355.987
 20
442.02
 30
7
 11
355.987
 21
442.02
 31
0
  0
LINE
  5
B86
330
A02
100
AcDbEntity
  8
Fillet068
100
AcDbLine
 10
355.987
 20
452.42
 30
0
 11
355.987
 21
442.02
 31
0
  0
LINE
  5
B87
330
A02
100
AcDbEntity
  8
Fillet068
100
AcDbLine
 10
355.987
 20
452.42
 30
7
 11
355.987
 21
452.42
 31
0
  0
LINE
  5
B88
330
A02
100
AcDbEntity
  8
Fillet068
100
AcDbLine
 10
190.601
 20
530.784
 30
7
 11
185.731
 21
530.784
 31
7
  0
LINE
  5
B89
330
A02
100
AcDbEntity
  8
Fillet068
100
AcDbLine
 10
185.731
 20
530.784
 30
7
 11
185.731
 21
530.784
 31
0
  0
LINE
  5
B8A
330
A02
100
AcDbEntity
  8
Fillet068
100
AcDbLine
 10
190.601
 20
530.784
 30
0
 11
185.731
 21
530.784
 31
0
  0
LINE
  5
B8B
330
A02
100
AcDbEntity
  8
Fillet068
100
AcDbLine
 10
190.601
 20
530.784
 30
7
 11
190.601
 21
530.784
 31
0
  0
LINE
  5
B8C
330
A02
100
AcDbEntity
  8
Fillet068
100
AcDbLine
 10
355.987
 20
442.02
 30
7
 11
320
 21
343.5
 31
7
  0
LINE
  5
B8D
330
A02
100
AcDbEntity
  8
Fillet068
100
AcDbLine
 10
320
 20
343.5
 30
7
 11
320
 21
343.5
 31
0
  0
LINE
  5
B8E
330
A02
100
AcDbEntity
  8
Fillet068
100
AcDbLine
 10
355.987
 20
442.02
 30
0
 11
320
 21
343.5
 31
0
  0
LINE
  5
B8F
330
A02
100
AcDbEntity
  8
Fillet068
100
AcDbLine
 10
355.987
 20
442.02
 30
7
 11
355.987
 21
442.02
 31
0
  0
LINE
  5
B90
330
A02
100
AcDbEntity
  8
Fillet068
100
AcDbLine
 10
185.731
 20
530.784
 30
7
 11
184.499
 21
530.912
 31
7
  0
LINE
  5
B91
330
A02
100
AcDbEntity
  8
Fillet068
100
AcDbLine
 10
184.499
 20
530.912
 30
7
 11
184.499
 21
530.912
 31
0
  0
LINE
  5
B92
330
A02
100
AcDbEntity
  8
Fillet068
100
AcDbLine
 10
185.731
 20
530.784
 30
0
 11
184.499
 21
530.912
 31
0
  0
LINE
  5
B93
330
A02
100
AcDbEntity
  8
Fillet068
100
AcDbLine
 10
185.731
 20
530.784
 30
7
 11
185.731
 21
530.784
 31
0
  0
LINE
  5
B94
330
A02
100
AcDbEntity
  8
Fillet068
100
AcDbLine
 10
320
 20
343.5
 30
7
 11
320
 21
331.5
 31
7
  0
LINE
  5
B95
330
A02
100
AcDbEntity
  8
Fillet068
100
AcDbLine
 10
320
 20
331.5
 30
7
 11
320
 21
331.5
 31
0
  0
LINE
  5
B96
330
A02
100
AcDbEntity
  8
Fillet068
100
AcDbLine
 10
320
 20
343.5
 30
0
 11
320
 21
331.5
 31
0
  0
LINE
  5
B97
330
A02
100
AcDbEntity
  8
Fillet068
100
AcDbLine
 10
320
 20
343.5
 30
7
 11
320
 21
343.5
 31
0
  0
LINE
  5
B98
330
A02
100
AcDbEntity
  8
Fillet068
100
AcDbLine
 10
184.499
 20
530.912
 30
7
 11
97.9865
 21
587.073
 31
7
  0
LINE
  5
B99
330
A02
100
AcDbEntity
  8
Fillet068
100
AcDbLine
 10
97.9865
 20
587.073
 30
7
 11
97.9865
 21
587.073
 31
0
  0
LINE
  5
B9A
330
A02
100
AcDbEntity
  8
Fillet068
100
AcDbLine
 10
184.499
 20
530.912
 30
-8.9e-16
 11
97.9865
 21
587.073
 31
-8.9e-16
  0
LINE
  5
B9B
330
A02
100
AcDbEntity
  8
Fillet068
100
AcDbLine
 10
184.499
 20
530.912
 30
7
 11
184.499
 21
530.912
 31
0
  0
LINE
  5
B9C
330
A02
100
AcDbEntity
  8
Fillet068
100
AcDbLine
 10
320
 20
331.5
 30
7
 11
413.447
 21
57.5962
 31
7
  0
LINE
  5
B9D
330
A02
100
AcDbEntity
  8
Fillet068
100
AcDbLine
 10
413.447
 20
57.5962
 30
7
 11
413.447
 21
57.5962
 31
0
  0
LINE
  5
B9E
330
A02
100
AcDbEntity
  8
Fillet068
100
AcDbLine
 10
320
 20
331.5
 30
0
 11
413.447
 21
57.5962
 31
0
  0
LINE
  5
B9F
330
A02
100
AcDbEntity
  8
Fillet068
100
AcDbLine
 10
320
 20
331.5
 30
7
 11
320
 21
331.5
 31
0
  0
LINE
  5
BA0
330
A02
100
AcDbEntity
  8
Fillet068
100
AcDbLine
 10
97.9865
 20
587.073
 30
7
 11
91.1348
 21
587.073
 31
7
  0
LINE
  5
BA1
330
A02
100
AcDbEntity
  8
Fillet068
100
AcDbLine
 10
91.1348
 20
587.073
 30
7
 11
91.1348
 21
587.073
 31
0
  0
LINE
  5
BA2
330
A02
100
AcDbEntity
  8
Fillet068
100
AcDbLine
 10
97.9865
 20
587.073
 30
0
 11
91.1348
 21
587.073
 31
0
  0
LINE
  5
BA3
330
A02
100
AcDbEntity
  8
Fillet068
100
AcDbLine
 10
97.9865
 20
587.073
 30
7
 11
97.9865
 21
587.073
 31
0
  0
LINE
  5
BA4
330
A02
100
AcDbEntity
  8
Fillet068
100
AcDbLine
 10
413.447
 20
50.3962
 30
7
 11
413.447
 21
57.5962
 31
7
  0
LINE
  5
BA5
330
A02
100
AcDbEntity
  8
Fillet068
100
AcDbLine
 10
413.447
 20
57.5962
 30
7
 11
413.447
 21
57.5962
 31
0
  0
LINE
  5
BA6
330
A02
100
AcDbEntity
  8
Fillet068
100
AcDbLine
 10
413.447
 20
50.3962
 30
0
 11
413.447
 21
57.5962
 31
0
  0
LINE
  5
BA7
330
A02
100
AcDbEntity
  8
Fillet068
100
AcDbLine
 10
413.447
 20
50.3962
 30
7
 11
413.447
 21
50.3962
 31
0
  0
LINE
  5
BA8
330
A02
100
AcDbEntity
  8
Fillet068
100
AcDbLine
 10
91.1348
 20
587.073
 30
7
 11
89.4748
 21
585.83
 31
7
  0
LINE
  5
BA9
330
A02
100
AcDbEntity
  8
Fillet068
100
AcDbLine
 10
89.4748
 20
585.83
 30
7
 11
89.4748
 21
585.83
 31
0
  0
LINE
  5
BAA
330
A02
100
AcDbEntity
  8
Fillet068
100
AcDbLine
 10
91.1348
 20
587.073
 30
-8.9e-16
 11
89.4748
 21
585.83
 31
-8.9e-16
  0
LINE
  5
BAB
330
A02
100
AcDbEntity
  8
Fillet068
100
AcDbLine
 10
91.1348
 20
587.073
 30
7
 11
91.1348
 21
587.073
 31
0
  0
LINE
  5
BAC
330
A02
100
AcDbEntity
  8
Fillet068
100
AcDbLine
 10
413.447
 20
50.3962
 30
7
 11
410.947
 21
46.6962
 31
7
  0
LINE
  5
BAD
330
A02
100
AcDbEntity
  8
Fillet068
100
AcDbLine
 10
410.947
 20
46.6962
 30
7
 11
410.947
 21
46.6962
 31
0
  0
LINE
  5
BAE
330
A02
100
AcDbEntity
  8
Fillet068
100
AcDbLine
 10
413.447
 20
50.3962
 30
0
 11
410.947
 21
46.6962
 31
0
  0
LINE
  5
BAF
330
A02
100
AcDbEntity
  8
Fillet068
100
AcDbLine
 10
413.447
 20
50.3962
 30
7
 11
413.447
 21
50.3962
 31
0
  0
LINE
  5
BB0
330
A02
100
AcDbEntity
  8
Fillet068
100
AcDbLine
 10
89.4748
 20
585.83
 30
7
 11
87.4848
 21
583.86
 31
7
  0
LINE
  5
BB1
330
A02
100
AcDbEntity
  8
Fillet068
100
AcDbLine
 10
87.4848
 20
583.86
 30
7
 11
87.4848
 21
583.86
 31
0
  0
LINE
  5
BB2
330
A02
100
AcDbEntity
  8
Fillet068
100
AcDbLine
 10
89.4748
 20
585.83
 30
-8.9e-16
 11
87.4848
 21
583.86
 31
-8.9e-16
  0
LINE
  5
BB3
330
A02
100
AcDbEntity
  8
Fillet068
100
AcDbLine
 10
89.4748
 20
585.83
 30
7
 11
89.4748
 21
585.83
 31
0
  0
LINE
  5
BB4
330
A02
100
AcDbEntity
  8
Fillet068
100
AcDbLine
 10
410.947
 20
46.6962
 30
7
 11
408.821
 21
43.4657
 31
7
  0
LINE
  5
BB5
330
A02
100
AcDbEntity
  8
Fillet068
100
AcDbLine
 10
408.821
 20
43.4657
 30
7
 11
408.821
 21
43.4657
 31
0
  0
LINE
  5
BB6
330
A02
100
AcDbEntity
  8
Fillet068
100
AcDbLine
 10
410.947
 20
46.6962
 30
0
 11
408.821
 21
43.4657
 31
0
  0
LINE
  5
BB7
330
A02
100
AcDbEntity
  8
Fillet068
100
AcDbLine
 10
410.947
 20
46.6962
 30
7
 11
410.947
 21
46.6962
 31
0
  0
LINE
  5
BB8
330
A02
100
AcDbEntity
  8
Fillet068
100
AcDbLine
 10
87.4848
 20
583.86
 30
7
 11
85.9748
 21
581.98
 31
7
  0
LINE
  5
BB9
330
A02
100
AcDbEntity
  8
Fillet068
100
AcDbLine
 10
85.9748
 20
581.98
 30
7
 11
85.9748
 21
581.98
 31
0
  0
LINE
  5
BBA
330
A02
100
AcDbEntity
  8
Fillet068
100
AcDbLine
 10
87.4848
 20
583.86
 30
0
 11
85.9748
 21
581.98
 31
0
  0
LINE
  5
BBB
330
A02
100
AcDbEntity
  8
Fillet068
100
AcDbLine
 10
87.4848
 20
583.86
 30
7
 11
87.4848
 21
583.86
 31
0
  0
LINE
  5
BBC
330
A02
100
AcDbEntity
  8
Fillet068
100
AcDbLine
 10
408.821
 20
43.4657
 30
7
 11
403.447
 21
43.4657
 31
7
  0
LINE
  5
BBD
330
A02
100
AcDbEntity
  8
Fillet068
100
AcDbLine
 10
403.447
 20
43.4657
 30
7
 11
403.447
 21
43.4657
 31
0
  0
LINE
  5
BBE
330
A02
100
AcDbEntity
  8
Fillet068
100
AcDbLine
 10
408.821
 20
43.4657
 30
0
 11
403.447
 21
43.4657
 31
0
  0
LINE
  5
BBF
330
A02
100
AcDbEntity
  8
Fillet068
100
AcDbLine
 10
408.821
 20
43.4657
 30
7
 11
408.821
 21
43.4657
 31
0
  0
LINE
  5
BC0
330
A02
100
AcDbEntity
  8
Fillet068
100
AcDbLine
 10
57
 20
538
 30
7
 11
85.9748
 21
581.98
 31
7
  0
LINE
  5
BC1
330
A02
100
AcDbEntity
  8
Fillet068
100
AcDbLine
 10
85.9748
 20
581.98
 30
7
 11
85.9748
 21
581.98
 31
0
  0
LINE
  5
BC2
330
A02
100
AcDbEntity
  8
Fillet068
100
AcDbLine
 10
57
 20
538
 30
0
 11
85.9748
 21
581.98
 31
0
  0
LINE
  5
BC3
330
A02
100
AcDbEntity
  8
Fillet068
100
AcDbLine
 10
57
 20
538
 30
7
 11
57
 21
538
 31
0
  0
LINE
  5
BC4
330
A02
100
AcDbEntity
  8
Fillet068
100
AcDbLine
 10
403.447
 20
43.4657
 30
7
 11
320.445
 21
66.6106
 31
7
  0
LINE
  5
BC5
330
A02
100
AcDbEntity
  8
Fillet068
100
AcDbLine
 10
320.445
 20
66.6106
 30
7
 11
320.445
 21
66.6106
 31
0
  0
LINE
  5
BC6
330
A02
100
AcDbEntity
  8
Fillet068
100
AcDbLine
 10
403.447
 20
43.4657
 30
0
 11
320.445
 21
66.6106
 31
0
  0
LINE
  5
BC7
330
A02
100
AcDbEntity
  8
Fillet068
100
AcDbLine
 10
403.447
 20
43.4657
 30
7
 11
403.447
 21
43.4657
 31
0
  0
LINE
  5
BC8
330
A02
100
AcDbEntity
  8
Fillet068
100
AcDbLine
 10
54
 20
534
 30
7
 11
57
 21
538
 31
7
  0
LINE
  5
BC9
330
A02
100
AcDbEntity
  8
Fillet068
100
AcDbLine
 10
57
 20
538
 30
7
 11
57
 21
538
 31
0
  0
LINE
  5
BCA
330
A02
100
AcDbEntity
  8
Fillet068
100
AcDbLine
 10
54
 20
534
 30
0
 11
57
 21
538
 31
0
  0
LINE
  5
BCB
330
A02
100
AcDbEntity
  8
Fillet068
100
AcDbLine
 10
54
 20
534
 30
7
 11
54
 21
534
 31
0
  0
LINE
  5
BCC
330
A02
100
AcDbEntity
  8
Fillet068
100
AcDbLine
 10
320.445
 20
66.6106
 30
7
 11
290
 21
70.0001
 31
7
  0
LINE
  5
BCD
330
A02
100
AcDbEntity
  8
Fillet068
100
AcDbLine
 10
290
 20
70.0001
 30
7
 11
290
 21
70.0001
 31
0
  0
LINE
  5
BCE
330
A02
100
AcDbEntity
  8
Fillet068
100
AcDbLine
 10
320.445
 20
66.6106
 30
0
 11
290
 21
70.0001
 31
0
  0
LINE
  5
BCF
330
A02
100
AcDbEntity
  8
Fillet068
100
AcDbLine
 10
320.445
 20
66.6106
 30
7
 11
320.445
 21
66.6106
 31
0
  0
LINE
  5
BD0
330
A02
100
AcDbEntity
  8
Fillet068
100
AcDbLine
 10
52.6
 20
529.8
 30
7
 11
54
 21
534
 31
7
  0
LINE
  5
BD1
330
A02
100
AcDbEntity
  8
Fillet068
100
AcDbLine
 10
54
 20
534
 30
7
 11
54
 21
534
 31
0
  0
LINE
  5
BD2
330
A02
100
AcDbEntity
  8
Fillet068
100
AcDbLine
 10
52.6
 20
529.8
 30
0
 11
54
 21
534
 31
0
  0
LINE
  5
BD3
330
A02
100
AcDbEntity
  8
Fillet068
100
AcDbLine
 10
52.6
 20
529.8
 30
7
 11
52.6
 21
529.8
 31
0
  0
LINE
  5
BD4
330
A02
100
AcDbEntity
  8
Fillet068
100
AcDbLine
 10
290
 20
70.0001
 30
7
 11
160
 21
70.0001
 31
7
  0
LINE
  5
BD5
330
A02
100
AcDbEntity
  8
Fillet068
100
AcDbLine
 10
160
 20
70.0001
 30
7
 11
160
 21
70.0001
 31
0
  0
LINE
  5
BD6
330
A02
100
AcDbEntity
  8
Fillet068
100
AcDbLine
 10
290
 20
70.0001
 30
0
 11
160
 21
70.0001
 31
0
  0
LINE
  5
BD7
330
A02
100
AcDbEntity
  8
Fillet068
100
AcDbLine
 10
290
 20
70.0001
 30
7
 11
290
 21
70.0001
 31
0
  0
LINE
  5
BD8
330
A02
100
AcDbEntity
  8
Fillet068
100
AcDbLine
 10
52.6
 20
392
 30
7
 11
52.6
 21
529.8
 31
7
  0
LINE
  5
BD9
330
A02
100
AcDbEntity
  8
Fillet068
100
AcDbLine
 10
52.6
 20
529.8
 30
7
 11
52.6
 21
529.8
 31
0
  0
LINE
  5
BDA
330
A02
100
AcDbEntity
  8
Fillet068
100
AcDbLine
 10
52.6
 20
392
 30
0
 11
52.6
 21
529.8
 31
0
  0
LINE
  5
BDB
330
A02
100
AcDbEntity
  8
Fillet068
100
AcDbLine
 10
52.6
 20
392
 30
7
 11
52.6
 21
392
 31
0
  0
LINE
  5
BDC
330
A02
100
AcDbEntity
  8
Fillet068
100
AcDbLine
 10
160
 20
70.0001
 30
7
 11
50.9702
 21
135.84
 31
7
  0
LINE
  5
BDD
330
A02
100
AcDbEntity
  8
Fillet068
100
AcDbLine
 10
50.9702
 20
135.84
 30
7
 11
50.9702
 21
135.84
 31
0
  0
LINE
  5
BDE
330
A02
100
AcDbEntity
  8
Fillet068
100
AcDbLine
 10
160
 20
70.0001
 30
-8.9e-16
 11
50.9702
 21
135.84
 31
-8.9e-16
  0
LINE
  5
BDF
330
A02
100
AcDbEntity
  8
Fillet068
100
AcDbLine
 10
160
 20
70.0001
 30
7
 11
160
 21
70.0001
 31
0
  0
LINE
  5
BE0
330
A02
100
AcDbEntity
  8
Fillet068
100
AcDbLine
 10
54
 20
388
 30
7
 11
52.6
 21
392
 31
7
  0
LINE
  5
BE1
330
A02
100
AcDbEntity
  8
Fillet068
100
AcDbLine
 10
52.6
 20
392
 30
7
 11
52.6
 21
392
 31
0
  0
LINE
  5
BE2
330
A02
100
AcDbEntity
  8
Fillet068
100
AcDbLine
 10
54
 20
388
 30
0
 11
52.6
 21
392
 31
0
  0
LINE
  5
BE3
330
A02
100
AcDbEntity
  8
Fillet068
100
AcDbLine
 10
54
 20
388
 30
7
 11
54
 21
388
 31
0
  0
LINE
  5
BE4
330
A02
100
AcDbEntity
  8
Fillet068
100
AcDbLine
 10
47.2242
 20
138.987
 30
7
 11
50.9702
 21
135.84
 31
7
  0
LINE
  5
BE5
330
A02
100
AcDbEntity
  8
Fillet068
100
AcDbLine
 10
50.9702
 20
135.84
 30
7
 11
50.9702
 21
135.84
 31
0
  0
LINE
  5
BE6
330
A02
100
AcDbEntity
  8
Fillet068
100
AcDbLine
 10
47.2242
 20
138.987
 30
-8.9e-16
 11
50.9702
 21
135.84
 31
-8.9e-16
  0
LINE
  5
BE7
330
A02
100
AcDbEntity
  8
Fillet068
100
AcDbLine
 10
47.2242
 20
138.987
 30
7
 11
47.2242
 21
138.987
 31
0
  0
LINE
  5
BE8
330
A02
100
AcDbEntity
  8
Fillet068
100
AcDbLine
 10
56.5
 20
383.7
 30
7
 11
54
 21
388
 31
7
  0
LINE
  5
BE9
330
A02
100
AcDbEntity
  8
Fillet068
100
AcDbLine
 10
54
 20
388
 30
7
 11
54
 21
388
 31
0
  0
LINE
  5
BEA
330
A02
100
AcDbEntity
  8
Fillet068
100
AcDbLine
 10
56.5
 20
383.7
 30
0
 11
54
 21
388
 31
0
  0
LINE
  5
BEB
330
A02
100
AcDbEntity
  8
Fillet068
100
AcDbLine
 10
56.5
 20
383.7
 30
7
 11
56.5
 21
383.7
 31
0
  0
LINE
  5
BEC
330
A02
100
AcDbEntity
  8
Fillet068
100
AcDbLine
 10
45.1102
 20
141.95
 30
7
 11
47.2242
 21
138.987
 31
7
  0
LINE
  5
BED
330
A02
100
AcDbEntity
  8
Fillet068
100
AcDbLine
 10
47.2242
 20
138.987
 30
7
 11
47.2242
 21
138.987
 31
0
  0
LINE
  5
BEE
330
A02
100
AcDbEntity
  8
Fillet068
100
AcDbLine
 10
45.1102
 20
141.95
 30
-8.9e-16
 11
47.2242
 21
138.987
 31
-8.9e-16
  0
LINE
  5
BEF
330
A02
100
AcDbEntity
  8
Fillet068
100
AcDbLine
 10
45.1102
 20
141.95
 30
7
 11
45.1102
 21
141.95
 31
0
  0
LINE
  5
BF0
330
A02
100
AcDbEntity
  8
Fillet068
100
AcDbLine
 10
61
 20
378.8
 30
7
 11
56.5
 21
383.7
 31
7
  0
LINE
  5
BF1
330
A02
100
AcDbEntity
  8
Fillet068
100
AcDbLine
 10
56.5
 20
383.7
 30
7
 11
56.5
 21
383.7
 31
0
  0
LINE
  5
BF2
330
A02
100
AcDbEntity
  8
Fillet068
100
AcDbLine
 10
61
 20
378.8
 30
0
 11
56.5
 21
383.7
 31
0
  0
LINE
  5
BF3
330
A02
100
AcDbEntity
  8
Fillet068
100
AcDbLine
 10
61
 20
378.8
 30
7
 11
61
 21
378.8
 31
0
  0
LINE
  5
BF4
330
A02
100
AcDbEntity
  8
Fillet068
100
AcDbLine
 10
44.2002
 20
144.6
 30
7
 11
45.1102
 21
141.95
 31
7
  0
LINE
  5
BF5
330
A02
100
AcDbEntity
  8
Fillet068
100
AcDbLine
 10
45.1102
 20
141.95
 30
7
 11
45.1102
 21
141.95
 31
0
  0
LINE
  5
BF6
330
A02
100
AcDbEntity
  8
Fillet068
100
AcDbLine
 10
44.2002
 20
144.6
 30
0
 11
45.1102
 21
141.95
 31
0
  0
LINE
  5
BF7
330
A02
100
AcDbEntity
  8
Fillet068
100
AcDbLine
 10
44.2002
 20
144.6
 30
7
 11
44.2002
 21
144.6
 31
0
  0
LINE
  5
BF8
330
A02
100
AcDbEntity
  8
Fillet068
100
AcDbLine
 10
64
 20
377
 30
7
 11
61
 21
378.8
 31
7
  0
LINE
  5
BF9
330
A02
100
AcDbEntity
  8
Fillet068
100
AcDbLine
 10
61
 20
378.8
 30
7
 11
61
 21
378.8
 31
0
  0
LINE
  5
BFA
330
A02
100
AcDbEntity
  8
Fillet068
100
AcDbLine
 10
64
 20
377
 30
0
 11
61
 21
378.8
 31
0
  0
LINE
  5
BFB
330
A02
100
AcDbEntity
  8
Fillet068
100
AcDbLine
 10
64
 20
377
 30
7
 11
64
 21
377
 31
0
  0
LINE
  5
BFC
330
A02
100
AcDbEntity
  8
Fillet068
100
AcDbLine
 10
44.2002
 20
148.6
 30
7
 11
44.2002
 21
144.6
 31
7
  0
LINE
  5
BFD
330
A02
100
AcDbEntity
  8
Fillet068
100
AcDbLine
 10
44.2002
 20
144.6
 30
7
 11
44.2002
 21
144.6
 31
0
  0
LINE
  5
BFE
330
A02
100
AcDbEntity
  8
Fillet068
100
AcDbLine
 10
44.2002
 20
148.6
 30
0
 11
44.2002
 21
144.6
 31
0
  0
LINE
  5
BFF
330
A02
100
AcDbEntity
  8
Fillet068
100
AcDbLine
 10
44.2002
 20
148.6
 30
7
 11
44.2002
 21
148.6
 31
0
  0
LINE
  5
C00
330
A02
100
AcDbEntity
  8
Fillet068
100
AcDbLine
 10
96.1282
 20
362.119
 30
7
 11
64
 21
377
 31
7
  0
LINE
  5
C01
330
A02
100
AcDbEntity
  8
Fillet068
100
AcDbLine
 10
64
 20
377
 30
7
 11
64
 21
377
 31
0
  0
LINE
  5
C02
330
A02
100
AcDbEntity
  8
Fillet068
100
AcDbLine
 10
96.1282
 20
362.119
 30
-8.9e-16
 11
64
 21
377
 31
-8.9e-16
  0
LINE
  5
C03
330
A02
100
AcDbEntity
  8
Fillet068
100
AcDbLine
 10
96.1282
 20
362.119
 30
7
 11
96.1282
 21
362.119
 31
0
  0
LINE
  5
C04
330
A02
100
AcDbEntity
  8
Fillet068
100
AcDbLine
 10
44.2002
 20
150.2
 30
7
 11
44.2002
 21
148.6
 31
7
  0
LINE
  5
C05
330
A02
100
AcDbEntity
  8
Fillet068
100
AcDbLine
 10
44.2002
 20
148.6
 30
7
 11
44.2002
 21
148.6
 31
0
  0
LINE
  5
C06
330
A02
100
AcDbEntity
  8
Fillet068
100
AcDbLine
 10
44.2002
 20
150.2
 30
0
 11
44.2002
 21
148.6
 31
0
  0
LINE
  5
C07
330
A02
100
AcDbEntity
  8
Fillet068
100
AcDbLine
 10
44.2002
 20
150.2
 30
7
 11
44.2002
 21
150.2
 31
0
  0
LINE
  5
C08
330
A02
100
AcDbEntity
  8
Fillet068
100
AcDbLine
 10
107.659
 20
357.048
 30
7
 11
96.1282
 21
362.119
 31
7
  0
LINE
  5
C09
330
A02
100
AcDbEntity
  8
Fillet068
100
AcDbLine
 10
96.1282
 20
362.119
 30
7
 11
96.1282
 21
362.119
 31
0
  0
LINE
  5
C0A
330
A02
100
AcDbEntity
  8
Fillet068
100
AcDbLine
 10
107.659
 20
357.048
 30
-8.9e-16
 11
96.1282
 21
362.119
 31
-8.9e-16
  0
LINE
  5
C0B
330
A02
100
AcDbEntity
  8
Fillet068
100
AcDbLine
 10
107.659
 20
357.048
 30
7
 11
107.659
 21
357.048
 31
0
  0
LINE
  5
C0C
330
A02
100
AcDbEntity
  8
Fillet068
100
AcDbLine
 10
128.394
 20
307.697
 30
7
 11
44.2002
 21
150.2
 31
7
  0
LINE
  5
C0D
330
A02
100
AcDbEntity
  8
Fillet068
100
AcDbLine
 10
44.2002
 20
150.2
 30
7
 11
44.2002
 21
150.2
 31
0
  0
LINE
  5
C0E
330
A02
100
AcDbEntity
  8
Fillet068
100
AcDbLine
 10
128.394
 20
307.697
 30
0
 11
44.2002
 21
150.2
 31
0
  0
LINE
  5
C0F
330
A02
100
AcDbEntity
  8
Fillet068
100
AcDbLine
 10
128.394
 20
307.697
 30
7
 11
128.394
 21
307.697
 31
0
  0
LINE
  5
C10
330
A02
100
AcDbEntity
  8
Fillet068
100
AcDbLine
 10
107.659
 20
357.048
 30
7
 11
122.894
 21
344.497
 31
7
  0
LINE
  5
C11
330
A02
100
AcDbEntity
  8
Fillet068
100
AcDbLine
 10
122.894
 20
344.497
 30
7
 11
122.894
 21
344.497
 31
0
  0
LINE
  5
C12
330
A02
100
AcDbEntity
  8
Fillet068
100
AcDbLine
 10
107.659
 20
357.048
 30
0
 11
122.894
 21
344.497
 31
0
  0
LINE
  5
C13
330
A02
100
AcDbEntity
  8
Fillet068
100
AcDbLine
 10
107.659
 20
357.048
 30
7
 11
107.659
 21
357.048
 31
0
  0
LINE
  5
C14
330
A02
100
AcDbEntity
  8
Fillet068
100
AcDbLine
 10
130.394
 20
310.397
 30
7
 11
128.394
 21
307.697
 31
7
  0
LINE
  5
C15
330
A02
100
AcDbEntity
  8
Fillet068
100
AcDbLine
 10
128.394
 20
307.697
 30
7
 11
128.394
 21
307.697
 31
0
  0
LINE
  5
C16
330
A02
100
AcDbEntity
  8
Fillet068
100
AcDbLine
 10
130.394
 20
310.397
 30
-8.9e-16
 11
128.394
 21
307.697
 31
-8.9e-16
  0
LINE
  5
C17
330
A02
100
AcDbEntity
  8
Fillet068
100
AcDbLine
 10
130.394
 20
310.397
 30
7
 11
130.394
 21
310.397
 31
0
  0
LINE
  5
C18
330
A02
100
AcDbEntity
  8
Fillet068
100
AcDbLine
 10
122.894
 20
344.497
 30
7
 11
130.394
 21
322.397
 31
7
  0
LINE
  5
C19
330
A02
100
AcDbEntity
  8
Fillet068
100
AcDbLine
 10
130.394
 20
322.397
 30
7
 11
130.394
 21
322.397
 31
0
  0
LINE
  5
C1A
330
A02
100
AcDbEntity
  8
Fillet068
100
AcDbLine
 10
122.894
 20
344.497
 30
-8.9e-16
 11
130.394
 21
322.397
 31
-8.9e-16
  0
LINE
  5
C1B
330
A02
100
AcDbEntity
  8
Fillet068
100
AcDbLine
 10
122.894
 20
344.497
 30
7
 11
122.894
 21
344.497
 31
0
  0
LINE
  5
C1C
330
A02
100
AcDbEntity
  8
Fillet068
100
AcDbLine
 10
130.394
 20
322.397
 30
7
 11
130.394
 21
310.397
 31
7
  0
LINE
  5
C1D
330
A02
100
AcDbEntity
  8
Fillet068
100
AcDbLine
 10
130.394
 20
310.397
 30
7
 11
130.394
 21
310.397
 31
0
  0
LINE
  5
C1E
330
A02
100
AcDbEntity
  8
Fillet068
100
AcDbLine
 10
130.394
 20
322.397
 30
0
 11
130.394
 21
310.397
 31
0
  0
LINE
  5
C1F
330
A02
100
AcDbEntity
  8
Fillet068
100
AcDbLine
 10
130.394
 20
322.397
 30
7
 11
130.394
 21
322.397
 31
0
  0
LINE
  5
C20
330
A02
100
AcDbEntity
  8
Fillet068
100
AcDbLine
 10
377
 20
121
 30
0
 11
377
 21
121
 31
7
  0
LINE
  5
C21
330
A02
100
AcDbEntity
  8
Fillet068
100
AcDbLine
 10
377
 20
121
 30
0
 11
377
 21
121
 31
7
  0
CIRCLE
  5
C22
330
A02
100
AcDbEntity
  8
Fillet068
100
AcDbCircle
 10
330
 20
121
 40
47
  0
CIRCLE
  5
C23
330
A02
100
AcDbEntity
  8
Fillet068
100
AcDbCircle
 10
330
 20
121
 40
47
  0
LINE
  5
C24
330
A02
100
AcDbEntity
  8
Fillet068
100
AcDbLine
 10
225
 20
211.65
 30
7
 11
225
 21
200
 31
7
  0
ARC
  5
C25
330
A02
100
AcDbEntity
  8
Fillet068
100
AcDbCircle
 10
228.35
 20
211.65
 30
7
 40
3.35
100
AcDbArc
 50
90
 51
180
  0
LINE
  5
C26
330
A02
100
AcDbEntity
  8
Fillet068
100
AcDbLine
 10
225
 20
200
 30
7
 11
220
 21
200
 31
7
  0
LINE
  5
C27
330
A02
100
AcDbEntity
  8
Fillet068
100
AcDbLine
 10
290
 20
215
 30
7
 11
228.35
 21
215
 31
7
  0
LINE
  5
C28
330
A02
100
AcDbEntity
  8
Fillet068
100
AcDbLine
 10
200
 20
200
 30
7
 11
220
 21
200
 31
7
  0
LINE
  5
C29
330
A02
100
AcDbEntity
  8
Fillet068
100
AcDbLine
 10
291.65
 20
215
 30
7
 11
290
 21
215
 31
7
  0
LINE
  5
C2A
330
A02
100
AcDbEntity
  8
Fillet068
100
AcDbLine
 10
195
 20
200
 30
7
 11
200
 21
200
 31
7
  0
ARC
  5
C2B
330
A02
100
AcDbEntity
  8
Fillet068
100
AcDbCircle
 10
291.65
 20
218.35
 30
7
 40
3.35
100
AcDbArc
 50
-90
 51
0
  0
LINE
  5
C2C
330
A02
100
AcDbEntity
  8
Fillet068
100
AcDbLine
 10
195
 20
200
 30
7
 11
195
 21
211.65
 31
7
  0
LINE
  5
C2D
330
A02
100
AcDbEntity
  8
Fillet068
100
AcDbLine
 10
295
 20
241.65
 30
7
 11
295
 21
218.35
 31
7
  0
ARC
  5
C2E
330
A02
100
AcDbEntity
  8
Fillet068
100
AcDbCircle
 10
191.65
 20
211.65
 30
7
 40
3.35
100
AcDbArc
 50
0
 51
90
  0
ARC
  5
C2F
330
A02
100
AcDbEntity
  8
Fillet068
100
AcDbCircle
 10
291.65
 20
241.65
 30
7
 40
3.35
100
AcDbArc
 50
0
 51
90
  0
LINE
  5
C30
330
A02
100
AcDbEntity
  8
Fillet068
100
AcDbLine
 10
191.65
 20
215
 30
7
 11
170.753
 21
215
 31
7
  0
LINE
  5
C31
330
A02
100
AcDbEntity
  8
Fillet068
100
AcDbLine
 10
290
 20
245
 30
7
 11
291.65
 21
245
 31
7
  0
ARC
  5
C32
330
A02
100
AcDbEntity
  8
Fillet068
100
AcDbCircle
 10
170.753
 20
211.65
 30
7
 40
3.35
100
AcDbArc
 50
90
 51
158.783
  0
LINE
  5
C33
330
A02
100
AcDbEntity
  8
Fillet068
100
AcDbLine
 10
178.35
 20
245
 30
7
 11
290
 21
245
 31
7
  0
LINE
  5
C34
330
A02
100
AcDbEntity
  8
Fillet068
100
AcDbLine
 10
167.63
 20
212.862
 30
7
 11
162.227
 21
198.945
 31
7
  0
ARC
  5
C35
330
A02
100
AcDbEntity
  8
Fillet068
100
AcDbCircle
 10
178.35
 20
248.35
 30
7
 40
3.35
100
AcDbArc
 50
180
 51
-90
  0
ARC
  5
C36
330
A02
100
AcDbEntity
  8
Fillet068
100
AcDbCircle
 10
165.35
 20
197.733
 30
7
 40
3.35
100
AcDbArc
 50
158.783
 51
180
  0
LINE
  5
C37
330
A02
100
AcDbEntity
  8
Fillet068
100
AcDbLine
 10
175
 20
356.516
 30
7
 11
175
 21
248.35
 31
7
  0
LINE
  5
C38
330
A02
100
AcDbEntity
  8
Fillet068
100
AcDbLine
 10
162
 20
197.733
 30
7
 11
162
 21
115
 31
7
  0
ARC
  5
C39
330
A02
100
AcDbEntity
  8
Fillet068
100
AcDbCircle
 10
171.65
 20
356.516
 30
7
 40
3.35
100
AcDbArc
 50
0
 51
45.0029
  0
LINE
  5
C3A
330
A02
100
AcDbEntity
  8
Fillet068
100
AcDbLine
 10
162
 20
115
 30
7
 11
162
 21
113.35
 31
7
  0
LINE
  5
C3B
330
A02
100
AcDbEntity
  8
Fillet068
100
AcDbLine
 10
136.381
 20
396.519
 30
7
 11
174.019
 21
358.885
 31
7
  0
ARC
  5
C3C
330
A02
100
AcDbEntity
  8
Fillet068
100
AcDbCircle
 10
158.65
 20
113.35
 30
7
 40
3.35
100
AcDbArc
 50
-90
 51
2.43051e-13
  0
ARC
  5
C3D
330
A02
100
AcDbEntity
  8
Fillet068
100
AcDbCircle
 10
138.75
 20
398.888
 30
7
 40
3.35
100
AcDbArc
 50
180
 51
-134.997
  0
LINE
  5
C3E
330
A02
100
AcDbEntity
  8
Fillet068
100
AcDbLine
 10
158.65
 20
110
 30
7
 11
157.873
 21
110
 31
7
  0
LINE
  5
C3F
330
A02
100
AcDbEntity
  8
Fillet068
100
AcDbLine
 10
135.4
 20
402.5
 30
7
 11
135.4
 21
398.888
 31
7
  0
ARC
  5
C40
330
A02
100
AcDbEntity
  8
Fillet068
100
AcDbCircle
 10
157.873
 20
113.35
 30
7
 40
3.35
100
AcDbArc
 50
-119.205
 51
-90
  0
LINE
  5
C41
330
A02
100
AcDbEntity
  8
Fillet068
100
AcDbLine
 10
130.4
 20
402.5
 30
7
 11
135.4
 21
402.5
 31
7
  0
LINE
  5
C42
330
A02
100
AcDbEntity
  8
Fillet068
100
AcDbLine
 10
156.238
 20
110.426
 30
7
 11
135.366
 21
122.093
 31
7
  0
LINE
  5
C43
330
A02
100
AcDbEntity
  8
Fillet068
100
AcDbLine
 10
101.467
 20
402.5
 30
7
 11
130.4
 21
402.5
 31
7
  0
ARC
  5
C44
330
A02
100
AcDbEntity
  8
Fillet068
100
AcDbCircle
 10
137.001
 20
125.017
 30
7
 40
3.35
100
AcDbArc
 50
-149.424
 51
-119.205
  0
LINE
  5
C45
330
A02
100
AcDbEntity
  8
Fillet068
100
AcDbLine
 10
101.467
 20
402.5
 30
7
 11
96.4674
 21
402.5
 31
7
  0
LINE
  5
C46
330
A02
100
AcDbEntity
  8
Fillet068
100
AcDbLine
 10
134.117
 20
123.313
 30
7
 11
132.466
 21
126.108
 31
7
  0
LINE
  5
C47
330
A02
100
AcDbEntity
  8
Fillet068
100
AcDbLine
 10
96.4674
 20
397.5
 30
7
 11
96.4674
 21
402.5
 31
7
  0
ARC
  5
C48
330
A02
100
AcDbEntity
  8
Fillet068
100
AcDbCircle
 10
135.35
 20
127.812
 30
7
 40
3.35
100
AcDbArc
 50
-180
 51
-149.424
  0
LINE
  5
C49
330
A02
100
AcDbEntity
  8
Fillet068
100
AcDbLine
 10
96.4674
 20
393.885
 30
7
 11
96.4674
 21
397.5
 31
7
  0
LINE
  5
C4A
330
A02
100
AcDbEntity
  8
Fillet068
100
AcDbLine
 10
132
 20
127.812
 30
7
 11
132
 21
199.496
 31
7
  0
ARC
  5
C4B
330
A02
100
AcDbEntity
  8
Fillet068
100
AcDbCircle
 10
99.8174
 20
393.885
 30
7
 40
3.35
100
AcDbArc
 50
180
 51
-135.082
  0
ARC
  5
C4C
330
A02
100
AcDbEntity
  8
Fillet068
100
AcDbCircle
 10
135.35
 20
199.496
 30
7
 40
3.35
100
AcDbArc
 50
161.985
 51
180
  0
LINE
  5
C4D
330
A02
100
AcDbEntity
  8
Fillet068
100
AcDbLine
 10
144.012
 20
344.82
 30
7
 11
97.4452
 21
391.519
 31
7
  0
LINE
  5
C4E
330
A02
100
AcDbEntity
  8
Fillet068
100
AcDbLine
 10
132.164
 20
200.532
 30
7
 11
144.825
 21
239.463
 31
7
  0
ARC
  5
C4F
330
A02
100
AcDbEntity
  8
Fillet068
100
AcDbCircle
 10
141.639
 20
342.455
 30
7
 40
3.35
100
AcDbArc
 50
0
 51
44.9183
  0
ARC
  5
C50
330
A02
100
AcDbEntity
  8
Fillet068
100
AcDbCircle
 10
141.639
 20
240.499
 30
7
 40
3.35
100
AcDbArc
 50
-18.0153
 51
0
  0
LINE
  5
C51
330
A02
100
AcDbEntity
  8
Fillet068
100
AcDbLine
 10
144.989
 20
240.499
 30
7
 11
144.989
 21
342.455
 31
7
  0
LINE
  5
C52
330
A02
100
AcDbEntity
  8
Fillet068
100
AcDbLine
 10
247
 20
419.25
 30
7
 11
247
 21
421.55
 31
7
  0
ARC
  5
C53
330
A02
100
AcDbEntity
  8
Fillet068
100
AcDbCircle
 10
253.35
 20
419.25
 30
7
 40
6.35
100
AcDbArc
 50
180
 51
-90
  0
ARC
  5
C54
330
A02
100
AcDbEntity
  8
Fillet068
100
AcDbCircle
 10
253.35
 20
421.55
 30
7
 40
6.35
100
AcDbArc
 50
90
 51
180
  0
LINE
  5
C55
330
A02
100
AcDbEntity
  8
Fillet068
100
AcDbLine
 10
260.65
 20
412.9
 30
7
 11
253.35
 21
412.9
 31
7
  0
LINE
  5
C56
330
A02
100
AcDbEntity
  8
Fillet068
100
AcDbLine
 10
253.35
 20
427.9
 30
7
 11
260.65
 21
427.9
 31
7
  0
ARC
  5
C57
330
A02
100
AcDbEntity
  8
Fillet068
100
AcDbCircle
 10
260.65
 20
419.25
 30
7
 40
6.35
100
AcDbArc
 50
-90
 51
0
  0
ARC
  5
C58
330
A02
100
AcDbEntity
  8
Fillet068
100
AcDbCircle
 10
260.65
 20
421.55
 30
7
 40
6.35
100
AcDbArc
 50
0
 51
90
  0
LINE
  5
C59
330
A02
100
AcDbEntity
  8
Fillet068
100
AcDbLine
 10
267
 20
421.55
 30
7
 11
267
 21
419.25
 31
7
  0
LINE
  5
C5A
330
A02
100
AcDbEntity
  8
Fillet068
100
AcDbLine
 10
247.5
 20
385.3
 30
7
 11
202.5
 21
385.3
 31
7
  0
ARC
  5
C5B
330
A02
100
AcDbEntity
  8
Fillet068
100
AcDbCircle
 10
247.5
 20
379.3
 30
7
 40
6
100
AcDbArc
 50
0
 51
90
  0
ARC
  5
C5C
330
A02
100
AcDbEntity
  8
Fillet068
100
AcDbCircle
 10
202.5
 20
379.3
 30
7
 40
6
100
AcDbArc
 50
90
 51
180
  0
LINE
  5
C5D
330
A02
100
AcDbEntity
  8
Fillet068
100
AcDbLine
 10
253.5
 20
287.3
 30
7
 11
253.5
 21
379.3
 31
7
  0
LINE
  5
C5E
330
A02
100
AcDbEntity
  8
Fillet068
100
AcDbLine
 10
196.5
 20
379.3
 30
7
 11
196.5
 21
287.3
 31
7
  0
LINE
  5
C5F
330
A02
100
AcDbEntity
  8
Fillet068
100
AcDbLine
 10
196.5
 20
287.3
 30
7
 11
253.5
 21
287.3
 31
7
  0
LINE
  5
C60
330
A02
100
AcDbEntity
  8
Fillet068
100
AcDbLine
 10
252.15
 20
545.5
 30
7
 11
252.536
 21
509.5
 31
7
  0
LINE
  5
C61
330
A02
100
AcDbEntity
  8
Fillet068
100
AcDbLine
 10
252.15
 20
545.5
 30
7
 11
197.848
 21
545.5
 31
7
  0
LINE
  5
C62
330
A02
100
AcDbEntity
  8
Fillet068
100
AcDbLine
 10
252.536
 20
509.5
 30
7
 11
349.402
 21
461.057
 31
7
  0
LINE
  5
C63
330
A02
100
AcDbEntity
  8
Fillet068
100
AcDbLine
 10
197.848
 20
545.5
 30
7
 11
197.726
 21
534.521
 31
7
  0
LINE
  5
C64
330
A02
100
AcDbEntity
  8
Fillet068
100
AcDbLine
 10
349.402
 20
461.057
 30
7
 11
353.186
 21
456.92
 31
7
  0
LINE
  5
C65
330
A02
100
AcDbEntity
  8
Fillet068
100
AcDbLine
 10
197.726
 20
534.521
 30
7
 11
195.596
 21
533.25
 31
7
  0
LINE
  5
C66
330
A02
100
AcDbEntity
  8
Fillet068
100
AcDbLine
 10
353.186
 20
456.92
 30
7
 11
355.987
 21
452.42
 31
7
  0
LINE
  5
C67
330
A02
100
AcDbEntity
  8
Fillet068
100
AcDbLine
 10
195.596
 20
533.25
 30
7
 11
190.601
 21
530.784
 31
7
  0
LINE
  5
C68
330
A02
100
AcDbEntity
  8
Fillet068
100
AcDbLine
 10
355.987
 20
452.42
 30
7
 11
355.987
 21
442.02
 31
7
  0
LINE
  5
C69
330
A02
100
AcDbEntity
  8
Fillet068
100
AcDbLine
 10
190.601
 20
530.784
 30
7
 11
185.731
 21
530.784
 31
7
  0
LINE
  5
C6A
330
A02
100
AcDbEntity
  8
Fillet068
100
AcDbLine
 10
355.987
 20
442.02
 30
7
 11
320
 21
343.5
 31
7
  0
LINE
  5
C6B
330
A02
100
AcDbEntity
  8
Fillet068
100
AcDbLine
 10
185.731
 20
530.784
 30
7
 11
184.499
 21
530.912
 31
7
  0
LINE
  5
C6C
330
A02
100
AcDbEntity
  8
Fillet068
100
AcDbLine
 10
320
 20
343.5
 30
7
 11
320
 21
331.5
 31
7
  0
LINE
  5
C6D
330
A02
100
AcDbEntity
  8
Fillet068
100
AcDbLine
 10
184.499
 20
530.912
 30
7
 11
97.9865
 21
587.073
 31
7
  0
LINE
  5
C6E
330
A02
100
AcDbEntity
  8
Fillet068
100
AcDbLine
 10
320
 20
331.5
 30
7
 11
413.447
 21
57.5962
 31
7
  0
LINE
  5
C6F
330
A02
100
AcDbEntity
  8
Fillet068
100
AcDbLine
 10
97.9865
 20
587.073
 30
7
 11
91.1348
 21
587.073
 31
7
  0
LINE
  5
C70
330
A02
100
AcDbEntity
  8
Fillet068
100
AcDbLine
 10
413.447
 20
50.3962
 30
7
 11
413.447
 21
57.5962
 31
7
  0
LINE
  5
C71
330
A02
100
AcDbEntity
  8
Fillet068
100
AcDbLine
 10
91.1348
 20
587.073
 30
7
 11
89.4748
 21
585.83
 31
7
  0
LINE
  5
C72
330
A02
100
AcDbEntity
  8
Fillet068
100
AcDbLine
 10
413.447
 20
50.3962
 30
7
 11
410.947
 21
46.6962
 31
7
  0
LINE
  5
C73
330
A02
100
AcDbEntity
  8
Fillet068
100
AcDbLine
 10
89.4748
 20
585.83
 30
7
 11
87.4848
 21
583.86
 31
7
  0
LINE
  5
C74
330
A02
100
AcDbEntity
  8
Fillet068
100
AcDbLine
 10
410.947
 20
46.6962
 30
7
 11
408.821
 21
43.4657
 31
7
  0
LINE
  5
C75
330
A02
100
AcDbEntity
  8
Fillet068
100
AcDbLine
 10
87.4848
 20
583.86
 30
7
 11
85.9748
 21
581.98
 31
7
  0
LINE
  5
C76
330
A02
100
AcDbEntity
  8
Fillet068
100
AcDbLine
 10
408.821
 20
43.4657
 30
7
 11
403.447
 21
43.4657
 31
7
  0
LINE
  5
C77
330
A02
100
AcDbEntity
  8
Fillet068
100
AcDbLine
 10
57
 20
538
 30
7
 11
85.9748
 21
581.98
 31
7
  0
LINE
  5
C78
330
A02
100
AcDbEntity
  8
Fillet068
100
AcDbLine
 10
403.447
 20
43.4657
 30
7
 11
320.445
 21
66.6106
 31
7
  0
LINE
  5
C79
330
A02
100
AcDbEntity
  8
Fillet068
100
AcDbLine
 10
54
 20
534
 30
7
 11
57
 21
538
 31
7
  0
LINE
  5
C7A
330
A02
100
AcDbEntity
  8
Fillet068
100
AcDbLine
 10
320.445
 20
66.6106
 30
7
 11
290
 21
70.0001
 31
7
  0
LINE
  5
C7B
330
A02
100
AcDbEntity
  8
Fillet068
100
AcDbLine
 10
52.6
 20
529.8
 30
7
 11
54
 21
534
 31
7
  0
LINE
  5
C7C
330
A02
100
AcDbEntity
  8
Fillet068
100
AcDbLine
 10
290
 20
70.0001
 30
7
 11
160
 21
70.0001
 31
7
  0
LINE
  5
C7D
330
A02
100
AcDbEntity
  8
Fillet068
100
AcDbLine
 10
52.6
 20
392
 30
7
 11
52.6
 21
529.8
 31
7
  0
LINE
  5
C7E
330
A02
100
AcDbEntity
  8
Fillet068
100
AcDbLine
 10
160
 20
70.0001
 30
7
 11
50.9702
 21
135.84
 31
7
  0
LINE
  5
C7F
330
A02
100
AcDbEntity
  8
Fillet068
100
AcDbLine
 10
54
 20
388
 30
7
 11
52.6
 21
392
 31
7
  0
LINE
  5
C80
330
A02
100
AcDbEntity
  8
Fillet068
100
AcDbLine
 10
47.2242
 20
138.987
 30
7
 11
50.9702
 21
135.84
 31
7
  0
LINE
  5
C81
330
A02
100
AcDbEntity
  8
Fillet068
100
AcDbLine
 10
56.5
 20
383.7
 30
7
 11
54
 21
388
 31
7
  0
LINE
  5
C82
330
A02
100
AcDbEntity
  8
Fillet068
100
AcDbLine
 10
45.1102
 20
141.95
 30
7
 11
47.2242
 21
138.987
 31
7
  0
LINE
  5
C83
330
A02
100
AcDbEntity
  8
Fillet068
100
AcDbLine
 10
61
 20
378.8
 30
7
 11
56.5
 21
383.7
 31
7
  0
LINE
  5
C84
330
A02
100
AcDbEntity
  8
Fillet068
100
AcDbLine
 10
44.2002
 20
144.6
 30
7
 11
45.1102
 21
141.95
 31
7
  0
LINE
  5
C85
330
A02
100
AcDbEntity
  8
Fillet068
100
AcDbLine
 10
64
 20
377
 30
7
 11
61
 21
378.8
 31
7
  0
LINE
  5
C86
330
A02
100
AcDbEntity
  8
Fillet068
100
AcDbLine
 10
44.2002
 20
148.6
 30
7
 11
44.2002
 21
144.6
 31
7
  0
LINE
  5
C87
330
A02
100
AcDbEntity
  8
Fillet068
100
AcDbLine
 10
96.1282
 20
362.119
 30
7
 11
64
 21
377
 31
7
  0
LINE
  5
C88
330
A02
100
AcDbEntity
  8
Fillet068
100
AcDbLine
 10
44.2002
 20
150.2
 30
7
 11
44.2002
 21
148.6
 31
7
  0
LINE
  5
C89
330
A02
100
AcDbEntity
  8
Fillet068
100
AcDbLine
 10
107.659
 20
357.048
 30
7
 11
96.1282
 21
362.119
 31
7
  0
LINE
  5
C8A
330
A02
100
AcDbEntity
  8
Fillet068
100
AcDbLine
 10
128.394
 20
307.697
 30
7
 11
44.2002
 21
150.2
 31
7
  0
LINE
  5
C8B
330
A02
100
AcDbEntity
  8
Fillet068
100
AcDbLine
 10
107.659
 20
357.048
 30
7
 11
122.894
 21
344.497
 31
7
  0
LINE
  5
C8C
330
A02
100
AcDbEntity
  8
Fillet068
100
AcDbLine
 10
130.394
 20
310.397
 30
7
 11
128.394
 21
307.697
 31
7
  0
LINE
  5
C8D
330
A02
100
AcDbEntity
  8
Fillet068
100
AcDbLine
 10
122.894
 20
344.497
 30
7
 11
130.394
 21
322.397
 31
7
  0
LINE
  5
C8E
330
A02
100
AcDbEntity
  8
Fillet068
100
AcDbLine
 10
130.394
 20
322.397
 30
7
 11
130.394
 21
310.397
 31
7
  0
CIRCLE
  5
C8F
330
A02
100
AcDbEntity
  8
Fillet068
100
AcDbCircle
 10
330
 20
121
 40
47
  0
ENDSEC
  0
SECTION
  2
OBJECTS
  0
DICTIONARY
  5
F000
330
0
100
AcDbDictionary
  3
ACAD_GROUP
350
F001
  0
DICTIONARY
  5
F001
330
F000
100
AcDbDictionary
  0
ENDSEC
  0
EOF