M48
; DRILL file {KiCad 7.0.9} date Wed Jul  3 00:23:11 2024
; FORMAT={-:-/ absolute / metric / decimal}
; #@! TF.CreationDate,2024-07-03T00:23:11+10:00
; #@! TF.GenerationSoftware,Kicad,Pcbnew,7.0.9
; #@! TF.FileFunction,MixedPlating,1,2
FMAT,2
METRIC
; #@! TA.AperFunction,Plated,PTH,ComponentDrill
T1C0.700
; #@! TA.AperFunction,Plated,PTH,ComponentDrill
T2C0.800
; #@! TA.AperFunction,Plated,PTH,ComponentDrill
T3C0.900
; #@! TA.AperFunction,Plated,PTH,ComponentDrill
T4C1.016
; #@! TA.AperFunction,Plated,PTH,ViaDrill
T5C1.050
; #@! TA.AperFunction,Plated,PTH,ComponentDrill
T6C1.800
; #@! TA.AperFunction,NonPlated,NPTH,ComponentDrill
T7C3.200
%
G90
G05
T1
X228.6Y-42.672
X236.22Y-42.672
T2
X232.385Y-80.645
X232.41Y-78.105
X232.41Y-88.9
X232.41Y-91.44
X251.206Y-89.027
X251.206Y-91.567
X251.308Y-80.645
X251.333Y-78.105
T3
X210.821Y-66.426
X210.821Y-68.926
X210.821Y-71.426
X214.121Y-66.426
X214.121Y-68.926
X214.121Y-71.426
T4
X231.818Y-50.857
X234.358Y-50.857
X236.898Y-50.857
X239.438Y-50.857
X241.978Y-50.857
X244.518Y-50.857
X247.018Y-58.607
X247.018Y-61.147
X247.018Y-63.687
T5
X193.167Y-58.547
X193.167Y-61.468
X197.739Y-62.611
X202.184Y-77.343
X203.581Y-45.847
X212.725Y-78.359
X215.392Y-78.234
X218.694Y-69.215
X221.869Y-62.611
X223.774Y-83.439
X226.822Y-44.958
X226.822Y-56.261
X228.473Y-76.248
X251.587Y-67.31
T6
X175.465Y-76.811
X185.465Y-76.811
T7
X171.958Y-44.196
X171.958Y-95.758
X259.461Y-44.196
X259.461Y-95.758
T0
M30
