<?xml version="1.0" standalone="no"?>
<!DOCTYPE svg PUBLIC "-//W3C//DTD SVG 20010904//EN"
 "http://www.w3.org/TR/2001/REC-SVG-20010904/DTD/svg10.dtd">
<svg version="1.0" xmlns="http://www.w3.org/2000/svg"
 width="512.000000pt" height="512.000000pt" viewBox="0 0 512.000000 512.000000"
 preserveAspectRatio="xMidYMid meet">

<g transform="translate(0.000000,512.000000) scale(0.100000,-0.100000)"
fill="#000000" stroke="none">
<path d="M2494 4733 c-55 -48 -230 -203 -389 -343 -159 -140 -368 -324 -465
-409 -96 -85 -244 -216 -329 -290 -467 -411 -616 -542 -711 -626 -58 -51 -208
-184 -335 -295 -126 -111 -238 -210 -247 -219 -17 -16 -16 -18 13 -54 93 -113
253 -118 408 -14 37 26 301 246 671 561 47 40 364 308 705 596 341 288 656
555 699 592 43 37 83 68 87 68 5 0 140 -118 301 -262 160 -145 384 -346 497
-447 114 -101 244 -218 291 -261 47 -42 153 -137 235 -210 83 -74 168 -151
190 -171 229 -209 474 -421 521 -449 136 -81 278 -102 370 -55 27 14 64 42 82
63 l33 37 -48 45 c-26 25 -163 148 -303 275 -140 126 -257 232 -260 235 -4 5
-197 180 -635 575 -61 55 -369 334 -684 620 -315 286 -579 521 -585 523 -6 1
-57 -37 -112 -85z"/>
<path d="M4010 4006 l0 -304 198 -169 c250 -213 298 -253 306 -253 3 0 6 232
6 515 l0 515 -255 0 -255 0 0 -304z"/>
<path d="M2169 3623 c-229 -192 -566 -474 -750 -628 -184 -153 -410 -344 -504
-423 -93 -80 -180 -152 -192 -162 l-23 -18 0 -1010 c0 -763 3 -1018 12 -1037
25 -56 11 -55 721 -55 l654 0 6 352 c4 194 7 450 7 569 0 209 1 217 23 250 41
61 49 63 394 62 200 -1 324 -5 346 -12 39 -13 81 -54 96 -94 7 -19 11 -212 11
-573 l0 -544 650 0 c718 0 692 -2 727 63 17 30 18 98 21 1030 l2 999 -27 21
c-28 22 -604 533 -1345 1194 -224 200 -409 363 -411 363 -2 0 -190 -156 -418
-347z"/>
</g>
</svg>
