%TF.GenerationSoftware,KiCad,Pcbnew,7.0.9*%
%TF.CreationDate,2024-07-11T14:42:56+10:00*%
%TF.ProjectId,bms test circuit,626d7320-7465-4737-9420-636972637569,rev?*%
%TF.SameCoordinates,Original*%
%TF.FileFunction,Paste,Top*%
%TF.FilePolarity,Positive*%
%FSLAX46Y46*%
G04 Gerber Fmt 4.6, Leading zero omitted, Abs format (unit mm)*
G04 Created by KiCad (PCBNEW 7.0.9) date 2024-07-11 14:42:56*
%MOMM*%
%LPD*%
G01*
G04 APERTURE LIST*
G04 Aperture macros list*
%AMRoundRect*
0 Rectangle with rounded corners*
0 $1 Rounding radius*
0 $2 $3 $4 $5 $6 $7 $8 $9 X,Y pos of 4 corners*
0 Add a 4 corners polygon primitive as box body*
4,1,4,$2,$3,$4,$5,$6,$7,$8,$9,$2,$3,0*
0 Add four circle primitives for the rounded corners*
1,1,$1+$1,$2,$3*
1,1,$1+$1,$4,$5*
1,1,$1+$1,$6,$7*
1,1,$1+$1,$8,$9*
0 Add four rect primitives between the rounded corners*
20,1,$1+$1,$2,$3,$4,$5,0*
20,1,$1+$1,$4,$5,$6,$7,0*
20,1,$1+$1,$6,$7,$8,$9,0*
20,1,$1+$1,$8,$9,$2,$3,0*%
G04 Aperture macros list end*
%ADD10RoundRect,0.250000X0.312500X0.625000X-0.312500X0.625000X-0.312500X-0.625000X0.312500X-0.625000X0*%
%ADD11RoundRect,0.250000X-0.375000X-0.625000X0.375000X-0.625000X0.375000X0.625000X-0.375000X0.625000X0*%
%ADD12RoundRect,0.250000X0.625000X-0.375000X0.625000X0.375000X-0.625000X0.375000X-0.625000X-0.375000X0*%
%ADD13RoundRect,0.250000X0.850000X0.350000X-0.850000X0.350000X-0.850000X-0.350000X0.850000X-0.350000X0*%
%ADD14RoundRect,0.250000X1.275000X1.125000X-1.275000X1.125000X-1.275000X-1.125000X1.275000X-1.125000X0*%
%ADD15RoundRect,0.250000X-0.312500X-0.625000X0.312500X-0.625000X0.312500X0.625000X-0.312500X0.625000X0*%
%ADD16RoundRect,0.150000X0.150000X-0.587500X0.150000X0.587500X-0.150000X0.587500X-0.150000X-0.587500X0*%
%ADD17R,1.200000X4.500000*%
%ADD18R,1.200000X3.000000*%
%ADD19RoundRect,0.250000X0.625000X-0.312500X0.625000X0.312500X-0.625000X0.312500X-0.625000X-0.312500X0*%
%ADD20RoundRect,0.150000X0.587500X0.150000X-0.587500X0.150000X-0.587500X-0.150000X0.587500X-0.150000X0*%
%ADD21RoundRect,0.150000X-0.150000X0.587500X-0.150000X-0.587500X0.150000X-0.587500X0.150000X0.587500X0*%
%ADD22R,1.600000X3.100000*%
%ADD23R,4.500000X1.200000*%
%ADD24R,3.000000X1.200000*%
G04 APERTURE END LIST*
D10*
X220472000Y-59563000D03*
X217547000Y-59563000D03*
X220283500Y-50292000D03*
X217358500Y-50292000D03*
X200344500Y-58166000D03*
X197419500Y-58166000D03*
D11*
X241297000Y-95250000D03*
X244097000Y-95250000D03*
D12*
X193040000Y-80140000D03*
X193040000Y-77340000D03*
D13*
X207224000Y-71876000D03*
D14*
X202599000Y-71121000D03*
X202599000Y-68071000D03*
X199249000Y-71121000D03*
X199249000Y-68071000D03*
D13*
X207224000Y-67316000D03*
D15*
X196911500Y-52832000D03*
X199836500Y-52832000D03*
D16*
X225425000Y-88392000D03*
X227325000Y-88392000D03*
X226375000Y-86517000D03*
D15*
X248473500Y-95250000D03*
X251398500Y-95250000D03*
D17*
X212851000Y-84298000D03*
X215351000Y-84298000D03*
X217851000Y-84298000D03*
D18*
X209901000Y-89998000D03*
X220801000Y-89998000D03*
D10*
X220791500Y-73660000D03*
X217866500Y-73660000D03*
X196026500Y-73914000D03*
X193101500Y-73914000D03*
D19*
X226949000Y-83758500D03*
X226949000Y-80833500D03*
D17*
X195706000Y-84425000D03*
X198206000Y-84425000D03*
X200706000Y-84425000D03*
D18*
X192756000Y-90125000D03*
X203656000Y-90125000D03*
D10*
X243905500Y-46355000D03*
X240980500Y-46355000D03*
D20*
X226822000Y-72390000D03*
X226822000Y-70490000D03*
X224947000Y-71440000D03*
D15*
X224978500Y-66548000D03*
X227903500Y-66548000D03*
D21*
X206436000Y-50576000D03*
X204536000Y-50576000D03*
X205486000Y-52451000D03*
D10*
X226379500Y-59690000D03*
X223454500Y-59690000D03*
X206313500Y-58166000D03*
X203388500Y-58166000D03*
D22*
X213614000Y-50800000D03*
X211074000Y-50800000D03*
X211074000Y-59690000D03*
X213614000Y-59690000D03*
D23*
X188595000Y-53587000D03*
X188595000Y-56087000D03*
X188595000Y-58587000D03*
X188595000Y-61087000D03*
D24*
X182895000Y-50637000D03*
X182895000Y-64037000D03*
M02*
