%TF.GenerationSoftware,KiCad,Pcbnew,7.0.9*%
%TF.CreationDate,2024-09-08T14:45:42+10:00*%
%TF.ProjectId,RGB LED Mounting Board,52474220-4c45-4442-904d-6f756e74696e,rev?*%
%TF.SameCoordinates,Original*%
%TF.FileFunction,Copper,L1,Top*%
%TF.FilePolarity,Positive*%
%FSLAX46Y46*%
G04 Gerber Fmt 4.6, Leading zero omitted, Abs format (unit mm)*
G04 Created by KiCad (PCBNEW 7.0.9) date 2024-09-08 14:45:42*
%MOMM*%
%LPD*%
G01*
G04 APERTURE LIST*
G04 Aperture macros list*
%AMRoundRect*
0 Rectangle with rounded corners*
0 $1 Rounding radius*
0 $2 $3 $4 $5 $6 $7 $8 $9 X,Y pos of 4 corners*
0 Add a 4 corners polygon primitive as box body*
4,1,4,$2,$3,$4,$5,$6,$7,$8,$9,$2,$3,0*
0 Add four circle primitives for the rounded corners*
1,1,$1+$1,$2,$3*
1,1,$1+$1,$4,$5*
1,1,$1+$1,$6,$7*
1,1,$1+$1,$8,$9*
0 Add four rect primitives between the rounded corners*
20,1,$1+$1,$2,$3,$4,$5,0*
20,1,$1+$1,$4,$5,$6,$7,0*
20,1,$1+$1,$6,$7,$8,$9,0*
20,1,$1+$1,$8,$9,$2,$3,0*%
G04 Aperture macros list end*
%TA.AperFunction,SMDPad,CuDef*%
%ADD10RoundRect,0.250000X0.325000X0.650000X-0.325000X0.650000X-0.325000X-0.650000X0.325000X-0.650000X0*%
%TD*%
%TA.AperFunction,SMDPad,CuDef*%
%ADD11RoundRect,0.250000X-0.325000X-0.650000X0.325000X-0.650000X0.325000X0.650000X-0.325000X0.650000X0*%
%TD*%
%TA.AperFunction,SMDPad,CuDef*%
%ADD12RoundRect,0.250000X-0.625000X0.312500X-0.625000X-0.312500X0.625000X-0.312500X0.625000X0.312500X0*%
%TD*%
%TA.AperFunction,SMDPad,CuDef*%
%ADD13R,1.500000X0.900000*%
%TD*%
%TA.AperFunction,SMDPad,CuDef*%
%ADD14RoundRect,0.250000X-1.250000X-0.550000X1.250000X-0.550000X1.250000X0.550000X-1.250000X0.550000X0*%
%TD*%
%TA.AperFunction,SMDPad,CuDef*%
%ADD15RoundRect,0.150000X-0.150000X-0.700000X0.150000X-0.700000X0.150000X0.700000X-0.150000X0.700000X0*%
%TD*%
%TA.AperFunction,SMDPad,CuDef*%
%ADD16RoundRect,0.250000X-0.250000X-1.150000X0.250000X-1.150000X0.250000X1.150000X-0.250000X1.150000X0*%
%TD*%
%TA.AperFunction,SMDPad,CuDef*%
%ADD17RoundRect,0.150000X0.150000X0.700000X-0.150000X0.700000X-0.150000X-0.700000X0.150000X-0.700000X0*%
%TD*%
%TA.AperFunction,SMDPad,CuDef*%
%ADD18RoundRect,0.250000X0.250000X1.150000X-0.250000X1.150000X-0.250000X-1.150000X0.250000X-1.150000X0*%
%TD*%
%TA.AperFunction,Conductor*%
%ADD19C,0.700000*%
%TD*%
G04 APERTURE END LIST*
D10*
%TO.P,C8,1*%
%TO.N,GND1*%
X137800000Y-51050000D03*
%TO.P,C8,2*%
%TO.N,VDDA*%
X134850000Y-51050000D03*
%TD*%
%TO.P,C7,1*%
%TO.N,GND1*%
X150675000Y-51100000D03*
%TO.P,C7,2*%
%TO.N,VDDA*%
X147725000Y-51100000D03*
%TD*%
%TO.P,C6,1*%
%TO.N,GND1*%
X163500000Y-51075000D03*
%TO.P,C6,2*%
%TO.N,VDDA*%
X160550000Y-51075000D03*
%TD*%
%TO.P,C5,1*%
%TO.N,GND1*%
X176400000Y-50925000D03*
%TO.P,C5,2*%
%TO.N,VDDA*%
X173450000Y-50925000D03*
%TD*%
D11*
%TO.P,C4,1*%
%TO.N,GND*%
X171175000Y-20600000D03*
%TO.P,C4,2*%
%TO.N,VDD*%
X174125000Y-20600000D03*
%TD*%
%TO.P,C3,1*%
%TO.N,GND*%
X158312500Y-20625000D03*
%TO.P,C3,2*%
%TO.N,VDD*%
X161262500Y-20625000D03*
%TD*%
%TO.P,C2,1*%
%TO.N,GND*%
X145487500Y-20600000D03*
%TO.P,C2,2*%
%TO.N,VDD*%
X148437500Y-20600000D03*
%TD*%
%TO.P,C1,1*%
%TO.N,GND*%
X132700000Y-20600000D03*
%TO.P,C1,2*%
%TO.N,VDD*%
X135650000Y-20600000D03*
%TD*%
D12*
%TO.P,R1,1*%
%TO.N,Net-(J1-Pin_2)*%
X129275000Y-27712500D03*
%TO.P,R1,2*%
%TO.N,Net-(D1-DIN)*%
X129275000Y-30637500D03*
%TD*%
D13*
%TO.P,D8,1,VDD*%
%TO.N,VDDA*%
X132500000Y-45050000D03*
%TO.P,D8,2,DOUT*%
%TO.N,Net-(D8-DOUT)*%
X132500000Y-48350000D03*
%TO.P,D8,3,VSS*%
%TO.N,GND1*%
X137400000Y-48350000D03*
%TO.P,D8,4,DIN*%
%TO.N,Net-(D7-DOUT)*%
X137400000Y-45050000D03*
%TD*%
%TO.P,D5,1,VDD*%
%TO.N,VDDA*%
X171100000Y-45050000D03*
%TO.P,D5,2,DOUT*%
%TO.N,Net-(D5-DOUT)*%
X171100000Y-48350000D03*
%TO.P,D5,3,VSS*%
%TO.N,GND1*%
X176000000Y-48350000D03*
%TO.P,D5,4,DIN*%
%TO.N,Net-(D5-DIN)*%
X176000000Y-45050000D03*
%TD*%
D14*
%TO.P,C9,1*%
%TO.N,VDD*%
X119750000Y-21700000D03*
%TO.P,C9,2*%
%TO.N,GND*%
X124150000Y-21700000D03*
%TD*%
D15*
%TO.P,J4,1,Pin_1*%
%TO.N,GND1*%
X121025000Y-45525000D03*
%TO.P,J4,2,Pin_2*%
%TO.N,Net-(D8-DOUT)*%
X122275000Y-45525000D03*
%TO.P,J4,3,Pin_3*%
%TO.N,VDDA*%
X123525000Y-45525000D03*
D16*
%TO.P,J4,MP*%
%TO.N,N/C*%
X119175000Y-42175000D03*
X125375000Y-42175000D03*
%TD*%
D17*
%TO.P,J2,1,Pin_1*%
%TO.N,GND*%
X188100000Y-25975000D03*
%TO.P,J2,2,Pin_2*%
%TO.N,Net-(D4-DOUT)*%
X186850000Y-25975000D03*
%TO.P,J2,3,Pin_3*%
%TO.N,VDD*%
X185600000Y-25975000D03*
D18*
%TO.P,J2,MP*%
%TO.N,N/C*%
X189950000Y-29325000D03*
X183750000Y-29325000D03*
%TD*%
D13*
%TO.P,D2,1,VDD*%
%TO.N,VDD*%
X150800000Y-26650000D03*
%TO.P,D2,2,DOUT*%
%TO.N,Net-(D2-DOUT)*%
X150800000Y-23350000D03*
%TO.P,D2,3,VSS*%
%TO.N,GND*%
X145900000Y-23350000D03*
%TO.P,D2,4,DIN*%
%TO.N,Net-(D1-DOUT)*%
X145900000Y-26650000D03*
%TD*%
D15*
%TO.P,J3,1,Pin_1*%
%TO.N,GND1*%
X185600000Y-44525000D03*
%TO.P,J3,2,Pin_2*%
%TO.N,Net-(D5-DIN)*%
X186850000Y-44525000D03*
%TO.P,J3,3,Pin_3*%
%TO.N,VDDA*%
X188100000Y-44525000D03*
D16*
%TO.P,J3,MP*%
%TO.N,N/C*%
X183750000Y-41175000D03*
X189950000Y-41175000D03*
%TD*%
D13*
%TO.P,D7,1,VDD*%
%TO.N,VDDA*%
X145350000Y-45050000D03*
%TO.P,D7,2,DOUT*%
%TO.N,Net-(D7-DOUT)*%
X145350000Y-48350000D03*
%TO.P,D7,3,VSS*%
%TO.N,GND1*%
X150250000Y-48350000D03*
%TO.P,D7,4,DIN*%
%TO.N,Net-(D6-DOUT)*%
X150250000Y-45050000D03*
%TD*%
%TO.P,D1,1,VDD*%
%TO.N,VDD*%
X137950000Y-26650000D03*
%TO.P,D1,2,DOUT*%
%TO.N,Net-(D1-DOUT)*%
X137950000Y-23350000D03*
%TO.P,D1,3,VSS*%
%TO.N,GND*%
X133050000Y-23350000D03*
%TO.P,D1,4,DIN*%
%TO.N,Net-(D1-DIN)*%
X133050000Y-26650000D03*
%TD*%
%TO.P,D3,1,VDD*%
%TO.N,VDD*%
X163625000Y-26650000D03*
%TO.P,D3,2,DOUT*%
%TO.N,Net-(D3-DOUT)*%
X163625000Y-23350000D03*
%TO.P,D3,3,VSS*%
%TO.N,GND*%
X158725000Y-23350000D03*
%TO.P,D3,4,DIN*%
%TO.N,Net-(D2-DOUT)*%
X158725000Y-26650000D03*
%TD*%
%TO.P,D4,1,VDD*%
%TO.N,VDD*%
X176500000Y-26650000D03*
%TO.P,D4,2,DOUT*%
%TO.N,Net-(D4-DOUT)*%
X176500000Y-23350000D03*
%TO.P,D4,3,VSS*%
%TO.N,GND*%
X171600000Y-23350000D03*
%TO.P,D4,4,DIN*%
%TO.N,Net-(D3-DOUT)*%
X171600000Y-26650000D03*
%TD*%
%TO.P,D6,1,VDD*%
%TO.N,VDDA*%
X158225000Y-45050000D03*
%TO.P,D6,2,DOUT*%
%TO.N,Net-(D6-DOUT)*%
X158225000Y-48350000D03*
%TO.P,D6,3,VSS*%
%TO.N,GND1*%
X163125000Y-48350000D03*
%TO.P,D6,4,DIN*%
%TO.N,Net-(D5-DOUT)*%
X163125000Y-45050000D03*
%TD*%
D17*
%TO.P,J1,1,Pin_1*%
%TO.N,GND*%
X123450000Y-27125000D03*
%TO.P,J1,2,Pin_2*%
%TO.N,Net-(J1-Pin_2)*%
X122200000Y-27125000D03*
%TO.P,J1,3,Pin_3*%
%TO.N,VDD*%
X120950000Y-27125000D03*
D18*
%TO.P,J1,MP*%
%TO.N,N/C*%
X125300000Y-30475000D03*
X119100000Y-30475000D03*
%TD*%
D19*
%TO.N,GND*%
X123450000Y-27125000D02*
X123450000Y-22400000D01*
X124150000Y-21700000D02*
X127975000Y-21700000D01*
X127975000Y-21700000D02*
X128025000Y-21650000D01*
X123450000Y-22400000D02*
X124150000Y-21700000D01*
%TO.N,VDD*%
X134125000Y-18650000D02*
X146475000Y-18650000D01*
X159275000Y-18650000D02*
X161250000Y-20625000D01*
X119750000Y-21700000D02*
X122800000Y-18650000D01*
X135637500Y-20600000D02*
X135637500Y-24337500D01*
X146475000Y-18650000D02*
X159275000Y-18650000D01*
X161250000Y-20625000D02*
X161250000Y-24275000D01*
X174112500Y-20600000D02*
X174112500Y-24262500D01*
X135637500Y-24337500D02*
X137950000Y-26650000D01*
X184500000Y-25975000D02*
X185600000Y-25975000D01*
X134125000Y-18650000D02*
X134550000Y-19075000D01*
X148425000Y-24275000D02*
X150800000Y-26650000D01*
X172162500Y-18650000D02*
X174112500Y-20600000D01*
X134550000Y-19512500D02*
X135637500Y-20600000D01*
X159275000Y-18650000D02*
X172162500Y-18650000D01*
X148425000Y-20600000D02*
X148425000Y-24275000D01*
X174112500Y-24262500D02*
X176500000Y-26650000D01*
X120950000Y-27125000D02*
X120950000Y-22900000D01*
X120950000Y-22900000D02*
X119750000Y-21700000D01*
X177175000Y-18650000D02*
X184500000Y-25975000D01*
X161250000Y-24275000D02*
X163625000Y-26650000D01*
X172162500Y-18650000D02*
X177175000Y-18650000D01*
X134550000Y-19075000D02*
X134550000Y-19512500D01*
X122800000Y-18650000D02*
X134125000Y-18650000D01*
X146475000Y-18650000D02*
X148425000Y-20600000D01*
%TO.N,GND1*%
X183125000Y-47000000D02*
X182375000Y-47000000D01*
X185600000Y-44525000D02*
X183125000Y-47000000D01*
%TO.N,VDDA*%
X174575000Y-53075000D02*
X173462500Y-51962500D01*
X173462500Y-47412500D02*
X171100000Y-45050000D01*
X147737500Y-51100000D02*
X147737500Y-47437500D01*
X160562500Y-47387500D02*
X158225000Y-45050000D01*
X147737500Y-47437500D02*
X145350000Y-45050000D01*
X174575000Y-53075000D02*
X162562500Y-53075000D01*
X160562500Y-51075000D02*
X160562500Y-47387500D01*
X173462500Y-50925000D02*
X173462500Y-47412500D01*
X149712500Y-53075000D02*
X147737500Y-51100000D01*
X136887500Y-53075000D02*
X134862500Y-51050000D01*
X131625000Y-53075000D02*
X124075000Y-45525000D01*
X188100000Y-44525000D02*
X188100000Y-46425000D01*
X162562500Y-53075000D02*
X149712500Y-53075000D01*
X173462500Y-51962500D02*
X173462500Y-50925000D01*
X136887500Y-53075000D02*
X131625000Y-53075000D01*
X124075000Y-45525000D02*
X123525000Y-45525000D01*
X134862500Y-51050000D02*
X134862500Y-47412500D01*
X188100000Y-46425000D02*
X181450000Y-53075000D01*
X181450000Y-53075000D02*
X174575000Y-53075000D01*
X134862500Y-47412500D02*
X132500000Y-45050000D01*
X149712500Y-53075000D02*
X136887500Y-53075000D01*
X162562500Y-53075000D02*
X160562500Y-51075000D01*
%TO.N,Net-(D1-DOUT)*%
X143300000Y-26650000D02*
X145900000Y-26650000D01*
X140000000Y-23350000D02*
X143300000Y-26650000D01*
X137950000Y-23350000D02*
X140000000Y-23350000D01*
%TO.N,Net-(D1-DIN)*%
X131475000Y-29850000D02*
X131475000Y-28225000D01*
X130687500Y-30637500D02*
X131475000Y-29850000D01*
X129275000Y-30637500D02*
X130687500Y-30637500D01*
X131475000Y-28225000D02*
X133050000Y-26650000D01*
%TO.N,Net-(D2-DOUT)*%
X150800000Y-23350000D02*
X152075000Y-23350000D01*
X152075000Y-23350000D02*
X155375000Y-26650000D01*
X155375000Y-26650000D02*
X158725000Y-26650000D01*
%TO.N,Net-(D3-DOUT)*%
X165200000Y-23350000D02*
X168500000Y-26650000D01*
X163625000Y-23350000D02*
X165200000Y-23350000D01*
X168500000Y-26650000D02*
X171600000Y-26650000D01*
%TO.N,Net-(D4-DOUT)*%
X186850000Y-27100000D02*
X186850000Y-25975000D01*
X176500000Y-23350000D02*
X180000000Y-23350000D01*
X185075000Y-27575000D02*
X185075000Y-27775000D01*
X183650000Y-27000000D02*
X184500000Y-27000000D01*
X180000000Y-23350000D02*
X183650000Y-27000000D01*
X186175000Y-27775000D02*
X186850000Y-27100000D01*
X185075000Y-27775000D02*
X186175000Y-27775000D01*
X184500000Y-27000000D02*
X185075000Y-27575000D01*
%TO.N,Net-(D5-DOUT)*%
X171100000Y-48350000D02*
X166425000Y-48350000D01*
X166425000Y-48350000D02*
X163125000Y-45050000D01*
%TO.N,Net-(D5-DIN)*%
X186850000Y-43425000D02*
X186125000Y-42700000D01*
X185225000Y-42700000D02*
X184575000Y-43350000D01*
X184575000Y-43350000D02*
X184250000Y-43350000D01*
X186125000Y-42700000D02*
X185225000Y-42700000D01*
X184250000Y-43350000D02*
X182550000Y-45050000D01*
X182550000Y-45050000D02*
X176000000Y-45050000D01*
X186850000Y-44525000D02*
X186850000Y-43425000D01*
%TO.N,Net-(D6-DOUT)*%
X153550000Y-48350000D02*
X150250000Y-45050000D01*
X158225000Y-48350000D02*
X153550000Y-48350000D01*
%TO.N,Net-(D7-DOUT)*%
X140700000Y-48350000D02*
X137400000Y-45050000D01*
X145350000Y-48350000D02*
X140700000Y-48350000D01*
%TO.N,Net-(D8-DOUT)*%
X124675000Y-44225000D02*
X124475000Y-44025000D01*
X124475000Y-44025000D02*
X123039472Y-44025000D01*
X123039472Y-44025000D02*
X122275000Y-44789472D01*
X125550000Y-44225000D02*
X124675000Y-44225000D01*
X129675000Y-48350000D02*
X125550000Y-44225000D01*
X132500000Y-48350000D02*
X129675000Y-48350000D01*
X122275000Y-44789472D02*
X122275000Y-45525000D01*
%TO.N,Net-(J1-Pin_2)*%
X125137500Y-27712500D02*
X129275000Y-27712500D01*
X122725000Y-28850000D02*
X124000000Y-28850000D01*
X122200000Y-27125000D02*
X122200000Y-28325000D01*
X124000000Y-28850000D02*
X125137500Y-27712500D01*
X122200000Y-28325000D02*
X122725000Y-28850000D01*
%TD*%
%TA.AperFunction,Conductor*%
%TO.N,GND*%
G36*
X189193039Y-17519685D02*
G01*
X189238794Y-17572489D01*
X189250000Y-17624000D01*
X189250000Y-27512270D01*
X189230315Y-27579309D01*
X189213681Y-27599951D01*
X189107289Y-27706342D01*
X189015187Y-27855663D01*
X189015186Y-27855666D01*
X188960001Y-28022203D01*
X188960001Y-28022204D01*
X188960000Y-28022204D01*
X188949500Y-28124983D01*
X188949500Y-30525001D01*
X188949501Y-30525018D01*
X188960000Y-30627796D01*
X188960001Y-30627799D01*
X189015185Y-30794331D01*
X189015187Y-30794336D01*
X189107289Y-30943657D01*
X189213681Y-31050049D01*
X189247166Y-31111372D01*
X189250000Y-31137730D01*
X189250000Y-32276000D01*
X189230315Y-32343039D01*
X189177511Y-32388794D01*
X189126000Y-32400000D01*
X127624000Y-32400000D01*
X127556961Y-32380315D01*
X127511206Y-32327511D01*
X127500000Y-32276000D01*
X127500000Y-28687000D01*
X127519685Y-28619961D01*
X127572489Y-28574206D01*
X127624000Y-28563000D01*
X128075270Y-28563000D01*
X128142309Y-28582685D01*
X128162951Y-28599319D01*
X128181344Y-28617712D01*
X128330666Y-28709814D01*
X128497203Y-28764999D01*
X128599991Y-28775500D01*
X129950008Y-28775499D01*
X130052797Y-28764999D01*
X130219334Y-28709814D01*
X130368656Y-28617712D01*
X130412819Y-28573549D01*
X130474142Y-28540064D01*
X130543834Y-28545048D01*
X130599767Y-28586920D01*
X130624184Y-28652384D01*
X130624500Y-28661230D01*
X130624500Y-29446348D01*
X130604815Y-29513387D01*
X130588181Y-29534029D01*
X130451138Y-29671072D01*
X130389815Y-29704557D01*
X130320123Y-29699573D01*
X130298365Y-29688932D01*
X130219334Y-29640186D01*
X130052797Y-29585001D01*
X130052795Y-29585000D01*
X129950010Y-29574500D01*
X128599998Y-29574500D01*
X128599981Y-29574501D01*
X128497203Y-29585000D01*
X128497200Y-29585001D01*
X128330668Y-29640185D01*
X128330663Y-29640187D01*
X128181342Y-29732289D01*
X128057289Y-29856342D01*
X127965187Y-30005663D01*
X127965186Y-30005666D01*
X127910001Y-30172203D01*
X127910001Y-30172204D01*
X127910000Y-30172204D01*
X127899500Y-30274983D01*
X127899500Y-31000001D01*
X127899501Y-31000019D01*
X127910000Y-31102796D01*
X127910001Y-31102799D01*
X127947181Y-31214998D01*
X127965186Y-31269334D01*
X128057288Y-31418656D01*
X128181344Y-31542712D01*
X128330666Y-31634814D01*
X128497203Y-31689999D01*
X128599991Y-31700500D01*
X129950008Y-31700499D01*
X130052797Y-31689999D01*
X130219334Y-31634814D01*
X130368656Y-31542712D01*
X130387049Y-31524319D01*
X130448372Y-31490834D01*
X130474730Y-31488000D01*
X130650413Y-31488000D01*
X130655448Y-31488205D01*
X130675062Y-31489801D01*
X130710667Y-31492701D01*
X130790892Y-31481770D01*
X130871410Y-31473014D01*
X130871414Y-31473012D01*
X130872536Y-31472766D01*
X130892807Y-31468015D01*
X130893962Y-31467728D01*
X130893962Y-31467727D01*
X130893968Y-31467727D01*
X130969986Y-31439799D01*
X131046721Y-31413944D01*
X131046727Y-31413939D01*
X131047851Y-31413420D01*
X131066623Y-31404423D01*
X131067612Y-31403933D01*
X131067616Y-31403932D01*
X131135853Y-31360315D01*
X131205236Y-31318570D01*
X131205241Y-31318565D01*
X131206169Y-31317860D01*
X131222576Y-31305033D01*
X131223486Y-31304302D01*
X131223486Y-31304301D01*
X131223489Y-31304300D01*
X131252118Y-31275670D01*
X131280749Y-31247040D01*
X131314575Y-31214998D01*
X131339541Y-31191349D01*
X131339545Y-31191342D01*
X131340257Y-31190505D01*
X131354404Y-31173383D01*
X132050192Y-30477595D01*
X132053859Y-30474215D01*
X132096100Y-30438337D01*
X132145097Y-30373881D01*
X132195841Y-30310754D01*
X132195842Y-30310751D01*
X132196480Y-30309753D01*
X132207406Y-30292138D01*
X132208043Y-30291077D01*
X132208054Y-30291064D01*
X132242066Y-30217547D01*
X132278036Y-30145021D01*
X132278039Y-30145008D01*
X132278452Y-30143886D01*
X132285389Y-30124183D01*
X132285727Y-30123177D01*
X132285732Y-30123167D01*
X132303141Y-30044073D01*
X132322684Y-29965495D01*
X132322683Y-29965495D01*
X132322685Y-29965491D01*
X132322830Y-29964426D01*
X132325371Y-29943677D01*
X132325500Y-29942497D01*
X132325500Y-29861531D01*
X132327693Y-29780564D01*
X132327608Y-29779520D01*
X132325500Y-29757352D01*
X132325500Y-28628650D01*
X132345185Y-28561611D01*
X132361815Y-28540973D01*
X133265970Y-27636817D01*
X133327293Y-27603333D01*
X133353651Y-27600499D01*
X133847871Y-27600499D01*
X133847872Y-27600499D01*
X133907483Y-27594091D01*
X134042331Y-27543796D01*
X134157546Y-27457546D01*
X134243796Y-27342331D01*
X134294091Y-27207483D01*
X134300500Y-27147873D01*
X134300499Y-26152128D01*
X134294091Y-26092517D01*
X134243796Y-25957669D01*
X134243795Y-25957668D01*
X134243793Y-25957664D01*
X134157547Y-25842455D01*
X134157544Y-25842452D01*
X134042335Y-25756206D01*
X134042328Y-25756202D01*
X133907482Y-25705908D01*
X133907483Y-25705908D01*
X133847883Y-25699501D01*
X133847881Y-25699500D01*
X133847873Y-25699500D01*
X133847864Y-25699500D01*
X132252129Y-25699500D01*
X132252123Y-25699501D01*
X132192516Y-25705908D01*
X132057671Y-25756202D01*
X132057664Y-25756206D01*
X131942455Y-25842452D01*
X131942452Y-25842455D01*
X131856206Y-25957664D01*
X131856202Y-25957671D01*
X131805908Y-26092517D01*
X131799501Y-26152116D01*
X131799501Y-26152123D01*
X131799500Y-26152135D01*
X131799500Y-26646348D01*
X131779815Y-26713387D01*
X131763181Y-26734029D01*
X130899830Y-27597380D01*
X130896127Y-27600794D01*
X130854777Y-27635918D01*
X130790940Y-27664317D01*
X130721882Y-27653695D01*
X130669530Y-27607424D01*
X130650499Y-27541412D01*
X130650499Y-27349998D01*
X130650498Y-27349981D01*
X130639999Y-27247203D01*
X130639998Y-27247200D01*
X130621871Y-27192497D01*
X130584814Y-27080666D01*
X130492712Y-26931344D01*
X130368656Y-26807288D01*
X130219334Y-26715186D01*
X130052797Y-26660001D01*
X130052795Y-26660000D01*
X129950010Y-26649500D01*
X128599998Y-26649500D01*
X128599981Y-26649501D01*
X128497203Y-26660000D01*
X128497200Y-26660001D01*
X128330668Y-26715185D01*
X128330663Y-26715187D01*
X128181342Y-26807289D01*
X128162951Y-26825681D01*
X128101628Y-26859166D01*
X128075270Y-26862000D01*
X127624000Y-26862000D01*
X127556961Y-26842315D01*
X127511206Y-26789511D01*
X127500000Y-26738000D01*
X127500000Y-23600000D01*
X131800000Y-23600000D01*
X131800000Y-23847844D01*
X131806401Y-23907372D01*
X131806403Y-23907379D01*
X131856645Y-24042086D01*
X131856649Y-24042093D01*
X131942809Y-24157187D01*
X131942812Y-24157190D01*
X132057906Y-24243350D01*
X132057913Y-24243354D01*
X132192620Y-24293596D01*
X132192627Y-24293598D01*
X132252155Y-24299999D01*
X132252172Y-24300000D01*
X132800000Y-24300000D01*
X132800000Y-23600000D01*
X133300000Y-23600000D01*
X133300000Y-24300000D01*
X133847828Y-24300000D01*
X133847844Y-24299999D01*
X133907372Y-24293598D01*
X133907379Y-24293596D01*
X134042086Y-24243354D01*
X134042093Y-24243350D01*
X134157187Y-24157190D01*
X134157190Y-24157187D01*
X134243350Y-24042093D01*
X134243354Y-24042086D01*
X134293596Y-23907379D01*
X134293598Y-23907372D01*
X134299999Y-23847844D01*
X134300000Y-23847827D01*
X134300000Y-23600000D01*
X133300000Y-23600000D01*
X132800000Y-23600000D01*
X131800000Y-23600000D01*
X127500000Y-23600000D01*
X127500000Y-23100000D01*
X131800000Y-23100000D01*
X132800000Y-23100000D01*
X132800000Y-22400000D01*
X133300000Y-22400000D01*
X133300000Y-23100000D01*
X134300000Y-23100000D01*
X134300000Y-22852172D01*
X134299999Y-22852155D01*
X134293598Y-22792627D01*
X134293596Y-22792620D01*
X134243354Y-22657913D01*
X134243350Y-22657906D01*
X134157190Y-22542812D01*
X134157187Y-22542809D01*
X134042093Y-22456649D01*
X134042086Y-22456645D01*
X133907379Y-22406403D01*
X133907372Y-22406401D01*
X133847844Y-22400000D01*
X133300000Y-22400000D01*
X132800000Y-22400000D01*
X132252155Y-22400000D01*
X132192627Y-22406401D01*
X132192620Y-22406403D01*
X132057913Y-22456645D01*
X132057906Y-22456649D01*
X131942812Y-22542809D01*
X131942809Y-22542812D01*
X131856649Y-22657906D01*
X131856645Y-22657913D01*
X131806403Y-22792620D01*
X131806401Y-22792627D01*
X131800000Y-22852155D01*
X131800000Y-23100000D01*
X127500000Y-23100000D01*
X127500000Y-20850000D01*
X131625001Y-20850000D01*
X131625001Y-21299986D01*
X131635494Y-21402697D01*
X131690641Y-21569119D01*
X131690643Y-21569124D01*
X131782684Y-21718345D01*
X131906654Y-21842315D01*
X132055875Y-21934356D01*
X132055880Y-21934358D01*
X132222302Y-21989505D01*
X132222309Y-21989506D01*
X132325019Y-21999999D01*
X132449999Y-21999999D01*
X132450000Y-21999998D01*
X132450000Y-20850000D01*
X132950000Y-20850000D01*
X132950000Y-21999999D01*
X133074972Y-21999999D01*
X133074986Y-21999998D01*
X133177697Y-21989505D01*
X133344119Y-21934358D01*
X133344124Y-21934356D01*
X133493345Y-21842315D01*
X133617315Y-21718345D01*
X133709356Y-21569124D01*
X133709358Y-21569119D01*
X133764505Y-21402697D01*
X133764506Y-21402690D01*
X133774999Y-21299986D01*
X133775000Y-21299973D01*
X133775000Y-20850000D01*
X132950000Y-20850000D01*
X132450000Y-20850000D01*
X131625001Y-20850000D01*
X127500000Y-20850000D01*
X127500000Y-19624500D01*
X127519685Y-19557461D01*
X127572489Y-19511706D01*
X127624000Y-19500500D01*
X131562125Y-19500500D01*
X131629164Y-19520185D01*
X131674919Y-19572989D01*
X131684863Y-19642147D01*
X131679831Y-19663504D01*
X131635494Y-19797302D01*
X131635493Y-19797309D01*
X131625000Y-19900013D01*
X131625000Y-20350000D01*
X133774999Y-20350000D01*
X133774999Y-20242289D01*
X133794684Y-20175250D01*
X133847488Y-20129495D01*
X133916646Y-20119551D01*
X133980202Y-20148576D01*
X133989012Y-20157004D01*
X133996151Y-20164541D01*
X133996154Y-20164543D01*
X133996155Y-20164544D01*
X133996983Y-20165247D01*
X134014119Y-20179408D01*
X134538181Y-20703470D01*
X134571666Y-20764793D01*
X134574500Y-20791151D01*
X134574500Y-21300001D01*
X134574501Y-21300019D01*
X134585000Y-21402796D01*
X134585001Y-21402799D01*
X134640185Y-21569331D01*
X134640187Y-21569336D01*
X134655604Y-21594331D01*
X134732096Y-21718345D01*
X134732289Y-21718657D01*
X134750681Y-21737049D01*
X134784166Y-21798372D01*
X134787000Y-21824730D01*
X134787000Y-24300411D01*
X134786795Y-24305445D01*
X134782298Y-24360663D01*
X134793229Y-24440892D01*
X134801986Y-24521413D01*
X134802210Y-24522430D01*
X134807025Y-24542973D01*
X134807273Y-24543970D01*
X134812239Y-24557486D01*
X134835200Y-24619986D01*
X134853304Y-24673716D01*
X134861057Y-24696723D01*
X134861501Y-24697685D01*
X134870646Y-24716766D01*
X134871064Y-24717609D01*
X134871067Y-24717614D01*
X134871068Y-24717616D01*
X134902544Y-24766860D01*
X134914684Y-24785853D01*
X134956430Y-24855236D01*
X134957038Y-24856036D01*
X134970078Y-24872716D01*
X134970701Y-24873491D01*
X135027958Y-24930748D01*
X135083650Y-24989540D01*
X135084510Y-24990271D01*
X135101623Y-25004411D01*
X136663181Y-26565969D01*
X136696666Y-26627292D01*
X136699500Y-26653650D01*
X136699500Y-27147870D01*
X136699501Y-27147876D01*
X136705908Y-27207483D01*
X136756202Y-27342328D01*
X136756206Y-27342335D01*
X136842452Y-27457544D01*
X136842455Y-27457547D01*
X136957664Y-27543793D01*
X136957671Y-27543797D01*
X137092517Y-27594091D01*
X137092516Y-27594091D01*
X137099444Y-27594835D01*
X137152127Y-27600500D01*
X138747872Y-27600499D01*
X138807483Y-27594091D01*
X138942331Y-27543796D01*
X139057546Y-27457546D01*
X139143796Y-27342331D01*
X139194091Y-27207483D01*
X139200500Y-27147873D01*
X139200499Y-26152128D01*
X139194091Y-26092517D01*
X139143796Y-25957669D01*
X139143795Y-25957668D01*
X139143793Y-25957664D01*
X139057547Y-25842455D01*
X139057544Y-25842452D01*
X138942335Y-25756206D01*
X138942328Y-25756202D01*
X138807482Y-25705908D01*
X138807483Y-25705908D01*
X138747883Y-25699501D01*
X138747881Y-25699500D01*
X138747873Y-25699500D01*
X138747865Y-25699500D01*
X138253651Y-25699500D01*
X138186612Y-25679815D01*
X138165970Y-25663181D01*
X137009810Y-24507021D01*
X136976325Y-24445698D01*
X136981309Y-24376006D01*
X137023181Y-24320073D01*
X137088645Y-24295656D01*
X137110746Y-24296050D01*
X137152127Y-24300500D01*
X138747872Y-24300499D01*
X138807483Y-24294091D01*
X138942331Y-24243796D01*
X138967128Y-24225233D01*
X139032592Y-24200816D01*
X139041439Y-24200500D01*
X139596349Y-24200500D01*
X139663388Y-24220185D01*
X139684030Y-24236819D01*
X142672385Y-27225173D01*
X142675788Y-27228865D01*
X142711662Y-27271099D01*
X142776126Y-27320104D01*
X142813316Y-27349998D01*
X142839247Y-27370842D01*
X142839252Y-27370844D01*
X142840163Y-27371427D01*
X142857955Y-27382463D01*
X142858933Y-27383052D01*
X142858936Y-27383054D01*
X142932429Y-27417055D01*
X143004979Y-27453037D01*
X143004982Y-27453037D01*
X143004987Y-27453040D01*
X143006019Y-27453419D01*
X143025853Y-27460402D01*
X143026835Y-27460733D01*
X143105916Y-27478139D01*
X143184506Y-27497684D01*
X143184510Y-27497684D01*
X143184514Y-27497685D01*
X143185604Y-27497833D01*
X143206375Y-27500377D01*
X143207502Y-27500499D01*
X143207503Y-27500500D01*
X143207504Y-27500500D01*
X143288469Y-27500500D01*
X143369432Y-27502693D01*
X143369432Y-27502692D01*
X143369435Y-27502693D01*
X143370479Y-27502608D01*
X143392648Y-27500500D01*
X144808561Y-27500500D01*
X144875600Y-27520185D01*
X144882872Y-27525233D01*
X144904484Y-27541412D01*
X144907668Y-27543795D01*
X144907671Y-27543797D01*
X145042517Y-27594091D01*
X145042516Y-27594091D01*
X145049444Y-27594835D01*
X145102127Y-27600500D01*
X146697872Y-27600499D01*
X146757483Y-27594091D01*
X146892331Y-27543796D01*
X147007546Y-27457546D01*
X147093796Y-27342331D01*
X147144091Y-27207483D01*
X147150500Y-27147873D01*
X147150499Y-26152128D01*
X147144091Y-26092517D01*
X147093796Y-25957669D01*
X147093795Y-25957668D01*
X147093793Y-25957664D01*
X147007547Y-25842455D01*
X147007544Y-25842452D01*
X146892335Y-25756206D01*
X146892328Y-25756202D01*
X146757482Y-25705908D01*
X146757483Y-25705908D01*
X146697883Y-25699501D01*
X146697881Y-25699500D01*
X146697873Y-25699500D01*
X146697864Y-25699500D01*
X145102129Y-25699500D01*
X145102123Y-25699501D01*
X145042516Y-25705908D01*
X144907671Y-25756202D01*
X144907668Y-25756204D01*
X144882872Y-25774767D01*
X144817408Y-25799184D01*
X144808561Y-25799500D01*
X143703651Y-25799500D01*
X143636612Y-25779815D01*
X143615970Y-25763181D01*
X142126600Y-24273811D01*
X141452789Y-23600000D01*
X144650000Y-23600000D01*
X144650000Y-23847844D01*
X144656401Y-23907372D01*
X144656403Y-23907379D01*
X144706645Y-24042086D01*
X144706649Y-24042093D01*
X144792809Y-24157187D01*
X144792812Y-24157190D01*
X144907906Y-24243350D01*
X144907913Y-24243354D01*
X145042620Y-24293596D01*
X145042627Y-24293598D01*
X145102155Y-24299999D01*
X145102172Y-24300000D01*
X145650000Y-24300000D01*
X145650000Y-23600000D01*
X146150000Y-23600000D01*
X146150000Y-24300000D01*
X146697828Y-24300000D01*
X146697844Y-24299999D01*
X146757372Y-24293598D01*
X146757379Y-24293596D01*
X146892086Y-24243354D01*
X146892093Y-24243350D01*
X147007187Y-24157190D01*
X147007190Y-24157187D01*
X147093350Y-24042093D01*
X147093354Y-24042086D01*
X147143596Y-23907379D01*
X147143598Y-23907372D01*
X147149999Y-23847844D01*
X147150000Y-23847827D01*
X147150000Y-23600000D01*
X146150000Y-23600000D01*
X145650000Y-23600000D01*
X144650000Y-23600000D01*
X141452789Y-23600000D01*
X140952789Y-23100000D01*
X144650000Y-23100000D01*
X145650000Y-23100000D01*
X145650000Y-22400000D01*
X146150000Y-22400000D01*
X146150000Y-23100000D01*
X147150000Y-23100000D01*
X147150000Y-22852172D01*
X147149999Y-22852155D01*
X147143598Y-22792627D01*
X147143596Y-22792620D01*
X147093354Y-22657913D01*
X147093350Y-22657906D01*
X147007190Y-22542812D01*
X147007187Y-22542809D01*
X146892093Y-22456649D01*
X146892086Y-22456645D01*
X146757379Y-22406403D01*
X146757372Y-22406401D01*
X146697844Y-22400000D01*
X146150000Y-22400000D01*
X145650000Y-22400000D01*
X145102155Y-22400000D01*
X145042627Y-22406401D01*
X145042620Y-22406403D01*
X144907913Y-22456645D01*
X144907906Y-22456649D01*
X144792812Y-22542809D01*
X144792809Y-22542812D01*
X144706649Y-22657906D01*
X144706645Y-22657913D01*
X144656403Y-22792620D01*
X144656401Y-22792627D01*
X144650000Y-22852155D01*
X144650000Y-23100000D01*
X140952789Y-23100000D01*
X140627607Y-22774818D01*
X140624204Y-22771126D01*
X140588336Y-22728899D01*
X140523891Y-22679909D01*
X140460759Y-22629162D01*
X140460758Y-22629161D01*
X140460754Y-22629158D01*
X140460748Y-22629155D01*
X140459854Y-22628583D01*
X140442019Y-22617520D01*
X140441064Y-22616946D01*
X140367560Y-22582939D01*
X140295027Y-22546966D01*
X140293981Y-22546582D01*
X140274160Y-22539602D01*
X140273164Y-22539266D01*
X140194073Y-22521858D01*
X140115494Y-22502315D01*
X140114584Y-22502191D01*
X140093506Y-22499610D01*
X140092501Y-22499501D01*
X140092497Y-22499500D01*
X140092492Y-22499500D01*
X140011531Y-22499500D01*
X139930564Y-22497306D01*
X139929520Y-22497391D01*
X139907352Y-22499500D01*
X139041439Y-22499500D01*
X138974400Y-22479815D01*
X138967128Y-22474767D01*
X138942331Y-22456204D01*
X138942328Y-22456202D01*
X138807482Y-22405908D01*
X138807483Y-22405908D01*
X138747883Y-22399501D01*
X138747881Y-22399500D01*
X138747873Y-22399500D01*
X138747864Y-22399500D01*
X137152129Y-22399500D01*
X137152123Y-22399501D01*
X137092516Y-22405908D01*
X136957671Y-22456202D01*
X136957664Y-22456206D01*
X136842455Y-22542452D01*
X136842452Y-22542455D01*
X136756206Y-22657664D01*
X136756202Y-22657671D01*
X136728182Y-22732799D01*
X136686311Y-22788733D01*
X136620847Y-22813150D01*
X136552574Y-22798299D01*
X136503168Y-22748893D01*
X136488000Y-22689466D01*
X136488000Y-21849730D01*
X136507685Y-21782691D01*
X136524319Y-21762049D01*
X136543023Y-21743345D01*
X136567712Y-21718656D01*
X136659814Y-21569334D01*
X136714999Y-21402797D01*
X136725500Y-21300009D01*
X136725500Y-20850000D01*
X144412501Y-20850000D01*
X144412501Y-21299986D01*
X144422994Y-21402697D01*
X144478141Y-21569119D01*
X144478143Y-21569124D01*
X144570184Y-21718345D01*
X144694154Y-21842315D01*
X144843375Y-21934356D01*
X144843380Y-21934358D01*
X145009802Y-21989505D01*
X145009809Y-21989506D01*
X145112519Y-21999999D01*
X145237499Y-21999999D01*
X145237500Y-21999998D01*
X145237500Y-20850000D01*
X145737500Y-20850000D01*
X145737500Y-21999999D01*
X145862472Y-21999999D01*
X145862486Y-21999998D01*
X145965197Y-21989505D01*
X146131619Y-21934358D01*
X146131624Y-21934356D01*
X146280845Y-21842315D01*
X146404815Y-21718345D01*
X146496856Y-21569124D01*
X146496858Y-21569119D01*
X146552005Y-21402697D01*
X146552006Y-21402690D01*
X146562499Y-21299986D01*
X146562500Y-21299973D01*
X146562500Y-20850000D01*
X145737500Y-20850000D01*
X145237500Y-20850000D01*
X144412501Y-20850000D01*
X136725500Y-20850000D01*
X136725499Y-19899992D01*
X136714999Y-19797203D01*
X136670694Y-19663502D01*
X136668293Y-19593676D01*
X136704024Y-19533634D01*
X136766545Y-19502441D01*
X136788401Y-19500500D01*
X144349625Y-19500500D01*
X144416664Y-19520185D01*
X144462419Y-19572989D01*
X144472363Y-19642147D01*
X144467331Y-19663504D01*
X144422994Y-19797302D01*
X144422993Y-19797309D01*
X144412500Y-19900013D01*
X144412500Y-20350000D01*
X146562499Y-20350000D01*
X146562499Y-20239650D01*
X146582184Y-20172611D01*
X146634988Y-20126856D01*
X146704146Y-20116912D01*
X146767702Y-20145937D01*
X146774180Y-20151969D01*
X147325681Y-20703470D01*
X147359166Y-20764793D01*
X147362000Y-20791151D01*
X147362000Y-21300001D01*
X147362001Y-21300019D01*
X147372500Y-21402796D01*
X147372501Y-21402799D01*
X147427685Y-21569331D01*
X147427687Y-21569336D01*
X147443104Y-21594331D01*
X147519596Y-21718345D01*
X147519789Y-21718657D01*
X147538181Y-21737049D01*
X147571666Y-21798372D01*
X147574500Y-21824730D01*
X147574500Y-24237911D01*
X147574295Y-24242945D01*
X147569798Y-24298163D01*
X147580729Y-24378392D01*
X147589486Y-24458913D01*
X147589710Y-24459930D01*
X147594525Y-24480473D01*
X147594773Y-24481470D01*
X147618108Y-24544986D01*
X147622700Y-24557486D01*
X147646258Y-24627402D01*
X147648557Y-24634223D01*
X147649001Y-24635185D01*
X147658146Y-24654266D01*
X147658564Y-24655109D01*
X147658567Y-24655114D01*
X147658568Y-24655116D01*
X147691533Y-24706689D01*
X147702184Y-24723353D01*
X147743930Y-24792736D01*
X147744538Y-24793536D01*
X147757578Y-24810216D01*
X147758201Y-24810991D01*
X147815459Y-24868249D01*
X147871152Y-24927042D01*
X147871983Y-24927747D01*
X147889119Y-24941908D01*
X149513181Y-26565970D01*
X149546666Y-26627293D01*
X149549500Y-26653651D01*
X149549500Y-27147870D01*
X149549501Y-27147876D01*
X149555908Y-27207483D01*
X149606202Y-27342328D01*
X149606206Y-27342335D01*
X149692452Y-27457544D01*
X149692455Y-27457547D01*
X149807664Y-27543793D01*
X149807671Y-27543797D01*
X149942517Y-27594091D01*
X149942516Y-27594091D01*
X149949444Y-27594835D01*
X150002127Y-27600500D01*
X151597872Y-27600499D01*
X151657483Y-27594091D01*
X151792331Y-27543796D01*
X151907546Y-27457546D01*
X151993796Y-27342331D01*
X152044091Y-27207483D01*
X152050500Y-27147873D01*
X152050499Y-26152128D01*
X152044091Y-26092517D01*
X151993796Y-25957669D01*
X151993795Y-25957668D01*
X151993793Y-25957664D01*
X151907547Y-25842455D01*
X151907544Y-25842452D01*
X151792335Y-25756206D01*
X151792328Y-25756202D01*
X151657482Y-25705908D01*
X151657483Y-25705908D01*
X151597883Y-25699501D01*
X151597881Y-25699500D01*
X151597873Y-25699500D01*
X151597865Y-25699500D01*
X151103650Y-25699500D01*
X151036611Y-25679815D01*
X151015969Y-25663181D01*
X150182842Y-24830054D01*
X149859808Y-24507019D01*
X149826324Y-24445698D01*
X149831308Y-24376006D01*
X149873180Y-24320073D01*
X149938644Y-24295656D01*
X149960745Y-24296051D01*
X149969110Y-24296950D01*
X150002127Y-24300500D01*
X151597872Y-24300499D01*
X151657483Y-24294091D01*
X151698494Y-24278794D01*
X151768184Y-24273811D01*
X151829504Y-24307293D01*
X154747385Y-27225173D01*
X154750788Y-27228865D01*
X154786662Y-27271099D01*
X154851126Y-27320104D01*
X154888316Y-27349998D01*
X154914247Y-27370842D01*
X154914252Y-27370844D01*
X154915163Y-27371427D01*
X154932955Y-27382463D01*
X154933933Y-27383052D01*
X154933936Y-27383054D01*
X155007429Y-27417055D01*
X155079979Y-27453037D01*
X155079982Y-27453037D01*
X155079987Y-27453040D01*
X155081019Y-27453419D01*
X155100853Y-27460402D01*
X155101835Y-27460733D01*
X155180916Y-27478139D01*
X155259506Y-27497684D01*
X155259510Y-27497684D01*
X155259514Y-27497685D01*
X155260604Y-27497833D01*
X155281375Y-27500377D01*
X155282502Y-27500499D01*
X155282503Y-27500500D01*
X155282504Y-27500500D01*
X155363469Y-27500500D01*
X155444432Y-27502693D01*
X155444432Y-27502692D01*
X155444435Y-27502693D01*
X155445479Y-27502608D01*
X155467648Y-27500500D01*
X157633561Y-27500500D01*
X157700600Y-27520185D01*
X157707872Y-27525233D01*
X157729484Y-27541412D01*
X157732668Y-27543795D01*
X157732671Y-27543797D01*
X157867517Y-27594091D01*
X157867516Y-27594091D01*
X157874444Y-27594835D01*
X157927127Y-27600500D01*
X159522872Y-27600499D01*
X159582483Y-27594091D01*
X159717331Y-27543796D01*
X159832546Y-27457546D01*
X159918796Y-27342331D01*
X159969091Y-27207483D01*
X159975500Y-27147873D01*
X159975499Y-26152128D01*
X159969091Y-26092517D01*
X159918796Y-25957669D01*
X159918795Y-25957668D01*
X159918793Y-25957664D01*
X159832547Y-25842455D01*
X159832544Y-25842452D01*
X159717335Y-25756206D01*
X159717328Y-25756202D01*
X159582482Y-25705908D01*
X159582483Y-25705908D01*
X159522883Y-25699501D01*
X159522881Y-25699500D01*
X159522873Y-25699500D01*
X159522864Y-25699500D01*
X157927129Y-25699500D01*
X157927123Y-25699501D01*
X157867516Y-25705908D01*
X157732671Y-25756202D01*
X157732668Y-25756204D01*
X157707872Y-25774767D01*
X157642408Y-25799184D01*
X157633561Y-25799500D01*
X155778651Y-25799500D01*
X155711612Y-25779815D01*
X155690970Y-25763181D01*
X154201600Y-24273811D01*
X153527789Y-23600000D01*
X157475000Y-23600000D01*
X157475000Y-23847844D01*
X157481401Y-23907372D01*
X157481403Y-23907379D01*
X157531645Y-24042086D01*
X157531649Y-24042093D01*
X157617809Y-24157187D01*
X157617812Y-24157190D01*
X157732906Y-24243350D01*
X157732913Y-24243354D01*
X157867620Y-24293596D01*
X157867627Y-24293598D01*
X157927155Y-24299999D01*
X157927172Y-24300000D01*
X158475000Y-24300000D01*
X158475000Y-23600000D01*
X158975000Y-23600000D01*
X158975000Y-24300000D01*
X159522828Y-24300000D01*
X159522844Y-24299999D01*
X159582372Y-24293598D01*
X159582379Y-24293596D01*
X159717086Y-24243354D01*
X159717093Y-24243350D01*
X159832187Y-24157190D01*
X159832190Y-24157187D01*
X159918350Y-24042093D01*
X159918354Y-24042086D01*
X159968596Y-23907379D01*
X159968598Y-23907372D01*
X159974999Y-23847844D01*
X159975000Y-23847827D01*
X159975000Y-23600000D01*
X158975000Y-23600000D01*
X158475000Y-23600000D01*
X157475000Y-23600000D01*
X153527789Y-23600000D01*
X153027789Y-23100000D01*
X157475000Y-23100000D01*
X158475000Y-23100000D01*
X158475000Y-22400000D01*
X158975000Y-22400000D01*
X158975000Y-23100000D01*
X159975000Y-23100000D01*
X159975000Y-22852172D01*
X159974999Y-22852155D01*
X159968598Y-22792627D01*
X159968596Y-22792620D01*
X159918354Y-22657913D01*
X159918350Y-22657906D01*
X159832190Y-22542812D01*
X159832187Y-22542809D01*
X159717093Y-22456649D01*
X159717086Y-22456645D01*
X159582379Y-22406403D01*
X159582372Y-22406401D01*
X159522844Y-22400000D01*
X158975000Y-22400000D01*
X158475000Y-22400000D01*
X157927155Y-22400000D01*
X157867627Y-22406401D01*
X157867620Y-22406403D01*
X157732913Y-22456645D01*
X157732906Y-22456649D01*
X157617812Y-22542809D01*
X157617809Y-22542812D01*
X157531649Y-22657906D01*
X157531645Y-22657913D01*
X157481403Y-22792620D01*
X157481401Y-22792627D01*
X157475000Y-22852155D01*
X157475000Y-23100000D01*
X153027789Y-23100000D01*
X152702607Y-22774818D01*
X152699204Y-22771126D01*
X152663336Y-22728899D01*
X152598891Y-22679909D01*
X152535759Y-22629162D01*
X152535758Y-22629161D01*
X152535754Y-22629158D01*
X152535748Y-22629155D01*
X152534854Y-22628583D01*
X152517019Y-22617520D01*
X152516064Y-22616946D01*
X152442560Y-22582939D01*
X152370027Y-22546966D01*
X152368981Y-22546582D01*
X152349160Y-22539602D01*
X152348164Y-22539266D01*
X152269073Y-22521858D01*
X152190494Y-22502315D01*
X152189584Y-22502191D01*
X152168506Y-22499610D01*
X152167501Y-22499501D01*
X152167497Y-22499500D01*
X152167492Y-22499500D01*
X152086531Y-22499500D01*
X152005564Y-22497306D01*
X152004520Y-22497391D01*
X151982352Y-22499500D01*
X151891439Y-22499500D01*
X151824400Y-22479815D01*
X151817128Y-22474767D01*
X151792331Y-22456204D01*
X151792328Y-22456202D01*
X151657482Y-22405908D01*
X151657483Y-22405908D01*
X151597883Y-22399501D01*
X151597881Y-22399500D01*
X151597873Y-22399500D01*
X151597864Y-22399500D01*
X150002129Y-22399500D01*
X150002123Y-22399501D01*
X149942516Y-22405908D01*
X149807671Y-22456202D01*
X149807664Y-22456206D01*
X149692455Y-22542452D01*
X149692452Y-22542455D01*
X149606206Y-22657664D01*
X149606202Y-22657671D01*
X149555908Y-22792517D01*
X149549501Y-22852116D01*
X149549500Y-22852135D01*
X149549500Y-23847870D01*
X149549501Y-23847879D01*
X149553949Y-23889256D01*
X149541542Y-23958015D01*
X149493930Y-24009151D01*
X149426230Y-24026429D01*
X149359937Y-24004363D01*
X149342978Y-23990189D01*
X149311819Y-23959030D01*
X149278334Y-23897707D01*
X149275500Y-23871349D01*
X149275500Y-21849730D01*
X149295185Y-21782691D01*
X149311819Y-21762049D01*
X149330523Y-21743345D01*
X149355212Y-21718656D01*
X149447314Y-21569334D01*
X149502499Y-21402797D01*
X149513000Y-21300009D01*
X149513000Y-20875000D01*
X157237501Y-20875000D01*
X157237501Y-21324986D01*
X157247994Y-21427697D01*
X157303141Y-21594119D01*
X157303143Y-21594124D01*
X157395184Y-21743345D01*
X157519154Y-21867315D01*
X157668375Y-21959356D01*
X157668380Y-21959358D01*
X157834802Y-22014505D01*
X157834809Y-22014506D01*
X157937519Y-22024999D01*
X158062499Y-22024999D01*
X158062500Y-22024998D01*
X158062500Y-20875000D01*
X158562500Y-20875000D01*
X158562500Y-22024999D01*
X158687472Y-22024999D01*
X158687486Y-22024998D01*
X158790197Y-22014505D01*
X158956619Y-21959358D01*
X158956624Y-21959356D01*
X159105845Y-21867315D01*
X159229815Y-21743345D01*
X159321856Y-21594124D01*
X159321858Y-21594119D01*
X159377005Y-21427697D01*
X159377006Y-21427690D01*
X159387499Y-21324986D01*
X159387500Y-21324973D01*
X159387500Y-20875000D01*
X158562500Y-20875000D01*
X158062500Y-20875000D01*
X157237501Y-20875000D01*
X149513000Y-20875000D01*
X149512999Y-19899992D01*
X149502499Y-19797203D01*
X149458194Y-19663502D01*
X149455793Y-19593676D01*
X149491524Y-19533634D01*
X149554045Y-19502441D01*
X149575901Y-19500500D01*
X157182909Y-19500500D01*
X157249948Y-19520185D01*
X157295703Y-19572989D01*
X157305647Y-19642147D01*
X157300615Y-19663504D01*
X157247994Y-19822302D01*
X157247993Y-19822309D01*
X157237500Y-19925013D01*
X157237500Y-20375000D01*
X159387499Y-20375000D01*
X159387499Y-20264649D01*
X159407184Y-20197610D01*
X159459988Y-20151855D01*
X159529146Y-20141911D01*
X159592702Y-20170936D01*
X159599180Y-20176968D01*
X160150681Y-20728469D01*
X160184166Y-20789792D01*
X160187000Y-20816150D01*
X160187000Y-21325001D01*
X160187001Y-21325019D01*
X160197500Y-21427796D01*
X160197501Y-21427799D01*
X160244332Y-21569124D01*
X160252686Y-21594334D01*
X160344596Y-21743345D01*
X160344789Y-21743657D01*
X160363181Y-21762049D01*
X160396666Y-21823372D01*
X160399500Y-21849730D01*
X160399500Y-24237911D01*
X160399295Y-24242945D01*
X160394798Y-24298163D01*
X160405729Y-24378392D01*
X160414486Y-24458913D01*
X160414710Y-24459930D01*
X160419525Y-24480473D01*
X160419773Y-24481470D01*
X160443108Y-24544986D01*
X160447700Y-24557486D01*
X160471258Y-24627402D01*
X160473557Y-24634223D01*
X160474001Y-24635185D01*
X160483146Y-24654266D01*
X160483564Y-24655109D01*
X160483567Y-24655114D01*
X160483568Y-24655116D01*
X160516533Y-24706689D01*
X160527184Y-24723353D01*
X160568930Y-24792736D01*
X160569538Y-24793536D01*
X160582578Y-24810216D01*
X160583201Y-24810991D01*
X160640459Y-24868249D01*
X160696152Y-24927042D01*
X160696983Y-24927747D01*
X160714119Y-24941908D01*
X162338181Y-26565970D01*
X162371666Y-26627293D01*
X162374500Y-26653651D01*
X162374500Y-27147870D01*
X162374501Y-27147876D01*
X162380908Y-27207483D01*
X162431202Y-27342328D01*
X162431206Y-27342335D01*
X162517452Y-27457544D01*
X162517455Y-27457547D01*
X162632664Y-27543793D01*
X162632671Y-27543797D01*
X162767517Y-27594091D01*
X162767516Y-27594091D01*
X162774444Y-27594835D01*
X162827127Y-27600500D01*
X164422872Y-27600499D01*
X164482483Y-27594091D01*
X164617331Y-27543796D01*
X164732546Y-27457546D01*
X164818796Y-27342331D01*
X164869091Y-27207483D01*
X164875500Y-27147873D01*
X164875499Y-26152128D01*
X164869091Y-26092517D01*
X164818796Y-25957669D01*
X164818795Y-25957668D01*
X164818793Y-25957664D01*
X164732547Y-25842455D01*
X164732544Y-25842452D01*
X164617335Y-25756206D01*
X164617328Y-25756202D01*
X164482482Y-25705908D01*
X164482483Y-25705908D01*
X164422883Y-25699501D01*
X164422881Y-25699500D01*
X164422873Y-25699500D01*
X164422865Y-25699500D01*
X163928650Y-25699500D01*
X163861611Y-25679815D01*
X163840969Y-25663181D01*
X163007842Y-24830054D01*
X162684808Y-24507019D01*
X162651324Y-24445698D01*
X162656308Y-24376006D01*
X162698180Y-24320073D01*
X162763644Y-24295656D01*
X162785745Y-24296051D01*
X162794110Y-24296950D01*
X162827127Y-24300500D01*
X164422872Y-24300499D01*
X164482483Y-24294091D01*
X164617331Y-24243796D01*
X164642128Y-24225233D01*
X164707592Y-24200816D01*
X164716439Y-24200500D01*
X164796349Y-24200500D01*
X164863388Y-24220185D01*
X164884030Y-24236819D01*
X167872385Y-27225173D01*
X167875788Y-27228865D01*
X167911662Y-27271099D01*
X167976126Y-27320104D01*
X168013316Y-27349998D01*
X168039247Y-27370842D01*
X168039252Y-27370844D01*
X168040163Y-27371427D01*
X168057955Y-27382463D01*
X168058933Y-27383052D01*
X168058936Y-27383054D01*
X168132429Y-27417055D01*
X168204979Y-27453037D01*
X168204982Y-27453037D01*
X168204987Y-27453040D01*
X168206019Y-27453419D01*
X168225853Y-27460402D01*
X168226835Y-27460733D01*
X168305916Y-27478139D01*
X168384506Y-27497684D01*
X168384510Y-27497684D01*
X168384514Y-27497685D01*
X168385604Y-27497833D01*
X168406375Y-27500377D01*
X168407502Y-27500499D01*
X168407503Y-27500500D01*
X168407504Y-27500500D01*
X168488469Y-27500500D01*
X168569432Y-27502693D01*
X168569432Y-27502692D01*
X168569435Y-27502693D01*
X168570479Y-27502608D01*
X168592648Y-27500500D01*
X170508561Y-27500500D01*
X170575600Y-27520185D01*
X170582872Y-27525233D01*
X170604484Y-27541412D01*
X170607668Y-27543795D01*
X170607671Y-27543797D01*
X170742517Y-27594091D01*
X170742516Y-27594091D01*
X170749444Y-27594835D01*
X170802127Y-27600500D01*
X172397872Y-27600499D01*
X172457483Y-27594091D01*
X172592331Y-27543796D01*
X172707546Y-27457546D01*
X172793796Y-27342331D01*
X172844091Y-27207483D01*
X172850500Y-27147873D01*
X172850499Y-26152128D01*
X172844091Y-26092517D01*
X172793796Y-25957669D01*
X172793795Y-25957668D01*
X172793793Y-25957664D01*
X172707547Y-25842455D01*
X172707544Y-25842452D01*
X172592335Y-25756206D01*
X172592328Y-25756202D01*
X172457482Y-25705908D01*
X172457483Y-25705908D01*
X172397883Y-25699501D01*
X172397881Y-25699500D01*
X172397873Y-25699500D01*
X172397864Y-25699500D01*
X170802129Y-25699500D01*
X170802123Y-25699501D01*
X170742516Y-25705908D01*
X170607671Y-25756202D01*
X170607668Y-25756204D01*
X170582872Y-25774767D01*
X170517408Y-25799184D01*
X170508561Y-25799500D01*
X168903651Y-25799500D01*
X168836612Y-25779815D01*
X168815970Y-25763181D01*
X167326600Y-24273811D01*
X166652789Y-23600000D01*
X170350000Y-23600000D01*
X170350000Y-23847844D01*
X170356401Y-23907372D01*
X170356403Y-23907379D01*
X170406645Y-24042086D01*
X170406649Y-24042093D01*
X170492809Y-24157187D01*
X170492812Y-24157190D01*
X170607906Y-24243350D01*
X170607913Y-24243354D01*
X170742620Y-24293596D01*
X170742627Y-24293598D01*
X170802155Y-24299999D01*
X170802172Y-24300000D01*
X171350000Y-24300000D01*
X171350000Y-23600000D01*
X171850000Y-23600000D01*
X171850000Y-24300000D01*
X172397828Y-24300000D01*
X172397844Y-24299999D01*
X172457372Y-24293598D01*
X172457379Y-24293596D01*
X172592086Y-24243354D01*
X172592093Y-24243350D01*
X172707187Y-24157190D01*
X172707190Y-24157187D01*
X172793350Y-24042093D01*
X172793354Y-24042086D01*
X172843596Y-23907379D01*
X172843598Y-23907372D01*
X172849999Y-23847844D01*
X172850000Y-23847827D01*
X172850000Y-23600000D01*
X171850000Y-23600000D01*
X171350000Y-23600000D01*
X170350000Y-23600000D01*
X166652789Y-23600000D01*
X166152789Y-23100000D01*
X170350000Y-23100000D01*
X171350000Y-23100000D01*
X171350000Y-22400000D01*
X171850000Y-22400000D01*
X171850000Y-23100000D01*
X172850000Y-23100000D01*
X172850000Y-22852172D01*
X172849999Y-22852155D01*
X172843598Y-22792627D01*
X172843596Y-22792620D01*
X172793354Y-22657913D01*
X172793350Y-22657906D01*
X172707190Y-22542812D01*
X172707187Y-22542809D01*
X172592093Y-22456649D01*
X172592086Y-22456645D01*
X172457379Y-22406403D01*
X172457372Y-22406401D01*
X172397844Y-22400000D01*
X171850000Y-22400000D01*
X171350000Y-22400000D01*
X170802155Y-22400000D01*
X170742627Y-22406401D01*
X170742620Y-22406403D01*
X170607913Y-22456645D01*
X170607906Y-22456649D01*
X170492812Y-22542809D01*
X170492809Y-22542812D01*
X170406649Y-22657906D01*
X170406645Y-22657913D01*
X170356403Y-22792620D01*
X170356401Y-22792627D01*
X170350000Y-22852155D01*
X170350000Y-23100000D01*
X166152789Y-23100000D01*
X165827607Y-22774818D01*
X165824204Y-22771126D01*
X165788336Y-22728899D01*
X165723891Y-22679909D01*
X165660759Y-22629162D01*
X165660758Y-22629161D01*
X165660754Y-22629158D01*
X165660748Y-22629155D01*
X165659854Y-22628583D01*
X165642019Y-22617520D01*
X165641064Y-22616946D01*
X165567560Y-22582939D01*
X165495027Y-22546966D01*
X165493981Y-22546582D01*
X165474160Y-22539602D01*
X165473164Y-22539266D01*
X165394073Y-22521858D01*
X165315494Y-22502315D01*
X165314584Y-22502191D01*
X165293506Y-22499610D01*
X165292501Y-22499501D01*
X165292497Y-22499500D01*
X165292492Y-22499500D01*
X165211531Y-22499500D01*
X165130564Y-22497306D01*
X165129520Y-22497391D01*
X165107352Y-22499500D01*
X164716439Y-22499500D01*
X164649400Y-22479815D01*
X164642128Y-22474767D01*
X164617331Y-22456204D01*
X164617328Y-22456202D01*
X164482482Y-22405908D01*
X164482483Y-22405908D01*
X164422883Y-22399501D01*
X164422881Y-22399500D01*
X164422873Y-22399500D01*
X164422864Y-22399500D01*
X162827129Y-22399500D01*
X162827123Y-22399501D01*
X162767516Y-22405908D01*
X162632671Y-22456202D01*
X162632664Y-22456206D01*
X162517455Y-22542452D01*
X162517452Y-22542455D01*
X162431206Y-22657664D01*
X162431202Y-22657671D01*
X162380908Y-22792517D01*
X162374501Y-22852116D01*
X162374500Y-22852135D01*
X162374500Y-23847870D01*
X162374501Y-23847879D01*
X162378949Y-23889256D01*
X162366542Y-23958015D01*
X162318930Y-24009151D01*
X162251230Y-24026429D01*
X162184937Y-24004363D01*
X162167978Y-23990189D01*
X162136819Y-23959030D01*
X162103334Y-23897707D01*
X162100500Y-23871349D01*
X162100500Y-21874730D01*
X162120185Y-21807691D01*
X162136819Y-21787049D01*
X162150500Y-21773368D01*
X162180212Y-21743656D01*
X162272314Y-21594334D01*
X162327499Y-21427797D01*
X162338000Y-21325009D01*
X162338000Y-20850000D01*
X170100001Y-20850000D01*
X170100001Y-21299986D01*
X170110494Y-21402697D01*
X170165641Y-21569119D01*
X170165643Y-21569124D01*
X170257684Y-21718345D01*
X170381654Y-21842315D01*
X170530875Y-21934356D01*
X170530880Y-21934358D01*
X170697302Y-21989505D01*
X170697309Y-21989506D01*
X170800019Y-21999999D01*
X170924999Y-21999999D01*
X170925000Y-21999998D01*
X170925000Y-20850000D01*
X171425000Y-20850000D01*
X171425000Y-21999999D01*
X171549972Y-21999999D01*
X171549986Y-21999998D01*
X171652697Y-21989505D01*
X171819119Y-21934358D01*
X171819124Y-21934356D01*
X171968345Y-21842315D01*
X172092315Y-21718345D01*
X172184356Y-21569124D01*
X172184358Y-21569119D01*
X172239505Y-21402697D01*
X172239506Y-21402690D01*
X172249999Y-21299986D01*
X172250000Y-21299973D01*
X172250000Y-20850000D01*
X171425000Y-20850000D01*
X170925000Y-20850000D01*
X170100001Y-20850000D01*
X162338000Y-20850000D01*
X162337999Y-19924992D01*
X162327499Y-19822203D01*
X162274910Y-19663503D01*
X162272509Y-19593676D01*
X162308241Y-19533634D01*
X162370761Y-19502441D01*
X162392617Y-19500500D01*
X170037125Y-19500500D01*
X170104164Y-19520185D01*
X170149919Y-19572989D01*
X170159863Y-19642147D01*
X170154831Y-19663504D01*
X170110494Y-19797302D01*
X170110493Y-19797309D01*
X170100000Y-19900013D01*
X170100000Y-20350000D01*
X172249999Y-20350000D01*
X172249999Y-20239650D01*
X172269684Y-20172611D01*
X172322488Y-20126856D01*
X172391646Y-20116912D01*
X172455202Y-20145937D01*
X172461680Y-20151969D01*
X173013181Y-20703470D01*
X173046666Y-20764793D01*
X173049500Y-20791151D01*
X173049500Y-21300001D01*
X173049501Y-21300019D01*
X173060000Y-21402796D01*
X173060001Y-21402799D01*
X173115185Y-21569331D01*
X173115187Y-21569336D01*
X173130604Y-21594331D01*
X173207096Y-21718345D01*
X173207289Y-21718657D01*
X173225681Y-21737049D01*
X173259166Y-21798372D01*
X173262000Y-21824730D01*
X173262000Y-24225411D01*
X173261795Y-24230445D01*
X173257298Y-24285663D01*
X173268229Y-24365892D01*
X173276986Y-24446413D01*
X173277210Y-24447430D01*
X173282025Y-24467973D01*
X173282273Y-24468970D01*
X173309460Y-24542973D01*
X173310200Y-24544986D01*
X173335471Y-24619986D01*
X173336057Y-24621723D01*
X173336501Y-24622685D01*
X173345646Y-24641766D01*
X173346064Y-24642609D01*
X173346067Y-24642614D01*
X173346068Y-24642616D01*
X173380651Y-24696721D01*
X173389684Y-24710853D01*
X173431427Y-24780232D01*
X173432038Y-24781036D01*
X173445078Y-24797716D01*
X173445701Y-24798491D01*
X173502958Y-24855748D01*
X173558650Y-24914540D01*
X173559510Y-24915271D01*
X173576623Y-24929411D01*
X175213181Y-26565969D01*
X175246666Y-26627292D01*
X175249500Y-26653650D01*
X175249500Y-27147870D01*
X175249501Y-27147876D01*
X175255908Y-27207483D01*
X175306202Y-27342328D01*
X175306206Y-27342335D01*
X175392452Y-27457544D01*
X175392455Y-27457547D01*
X175507664Y-27543793D01*
X175507671Y-27543797D01*
X175642517Y-27594091D01*
X175642516Y-27594091D01*
X175649444Y-27594835D01*
X175702127Y-27600500D01*
X177297872Y-27600499D01*
X177357483Y-27594091D01*
X177492331Y-27543796D01*
X177607546Y-27457546D01*
X177693796Y-27342331D01*
X177744091Y-27207483D01*
X177750500Y-27147873D01*
X177750499Y-26152128D01*
X177744091Y-26092517D01*
X177693796Y-25957669D01*
X177693795Y-25957668D01*
X177693793Y-25957664D01*
X177607547Y-25842455D01*
X177607544Y-25842452D01*
X177492335Y-25756206D01*
X177492328Y-25756202D01*
X177357482Y-25705908D01*
X177357483Y-25705908D01*
X177297883Y-25699501D01*
X177297881Y-25699500D01*
X177297873Y-25699500D01*
X177297865Y-25699500D01*
X176803651Y-25699500D01*
X176736612Y-25679815D01*
X176715970Y-25663181D01*
X175559810Y-24507021D01*
X175526325Y-24445698D01*
X175531309Y-24376006D01*
X175573181Y-24320073D01*
X175638645Y-24295656D01*
X175660746Y-24296050D01*
X175702127Y-24300500D01*
X177297872Y-24300499D01*
X177357483Y-24294091D01*
X177492331Y-24243796D01*
X177517128Y-24225233D01*
X177582592Y-24200816D01*
X177591439Y-24200500D01*
X179596349Y-24200500D01*
X179663388Y-24220185D01*
X179684030Y-24236819D01*
X182942740Y-27495528D01*
X182976225Y-27556851D01*
X182971241Y-27626543D01*
X182942742Y-27670888D01*
X182907291Y-27706340D01*
X182907289Y-27706342D01*
X182907288Y-27706344D01*
X182896272Y-27724204D01*
X182815187Y-27855663D01*
X182815186Y-27855666D01*
X182760001Y-28022203D01*
X182760001Y-28022204D01*
X182760000Y-28022204D01*
X182749500Y-28124983D01*
X182749500Y-30525001D01*
X182749501Y-30525018D01*
X182760000Y-30627796D01*
X182760001Y-30627799D01*
X182815185Y-30794331D01*
X182815186Y-30794334D01*
X182907288Y-30943656D01*
X183031344Y-31067712D01*
X183180666Y-31159814D01*
X183347203Y-31214999D01*
X183449991Y-31225500D01*
X184050008Y-31225499D01*
X184050016Y-31225498D01*
X184050019Y-31225498D01*
X184106302Y-31219748D01*
X184152797Y-31214999D01*
X184319334Y-31159814D01*
X184468656Y-31067712D01*
X184592712Y-30943656D01*
X184684814Y-30794334D01*
X184739999Y-30627797D01*
X184750500Y-30525009D01*
X184750499Y-28729636D01*
X184770184Y-28662598D01*
X184822987Y-28616843D01*
X184892146Y-28606899D01*
X184894466Y-28607255D01*
X184913028Y-28610298D01*
X184916271Y-28610921D01*
X184982503Y-28625500D01*
X184995653Y-28625500D01*
X185015714Y-28627133D01*
X185028683Y-28629260D01*
X185096358Y-28625590D01*
X185099712Y-28625500D01*
X186137913Y-28625500D01*
X186142948Y-28625705D01*
X186162562Y-28627301D01*
X186198167Y-28630201D01*
X186278392Y-28619270D01*
X186358910Y-28610514D01*
X186358914Y-28610512D01*
X186360036Y-28610266D01*
X186380307Y-28605515D01*
X186381462Y-28605228D01*
X186381462Y-28605227D01*
X186381468Y-28605227D01*
X186457486Y-28577299D01*
X186534221Y-28551444D01*
X186534227Y-28551439D01*
X186535351Y-28550920D01*
X186554123Y-28541923D01*
X186555112Y-28541433D01*
X186555116Y-28541432D01*
X186623353Y-28497815D01*
X186692736Y-28456070D01*
X186692741Y-28456065D01*
X186693669Y-28455360D01*
X186710076Y-28442533D01*
X186710986Y-28441802D01*
X186710986Y-28441801D01*
X186710989Y-28441800D01*
X186739618Y-28413170D01*
X186768249Y-28384540D01*
X186822025Y-28333600D01*
X186827041Y-28328849D01*
X186827045Y-28328842D01*
X186827757Y-28328005D01*
X186841904Y-28310883D01*
X187425192Y-27727595D01*
X187428859Y-27724215D01*
X187471100Y-27688337D01*
X187497434Y-27653695D01*
X187520090Y-27623892D01*
X187539966Y-27599165D01*
X187570842Y-27560754D01*
X187570845Y-27560747D01*
X187571451Y-27559799D01*
X187582449Y-27542069D01*
X187583051Y-27541069D01*
X187583052Y-27541066D01*
X187583054Y-27541064D01*
X187617060Y-27467560D01*
X187653036Y-27395021D01*
X187653037Y-27395014D01*
X187655355Y-27388708D01*
X187657712Y-27389574D01*
X187687208Y-27339145D01*
X187749490Y-27307479D01*
X187806867Y-27310292D01*
X187847508Y-27322099D01*
X187847511Y-27322100D01*
X187849998Y-27322295D01*
X187850000Y-27322295D01*
X187850000Y-26225000D01*
X188350000Y-26225000D01*
X188350000Y-27322295D01*
X188350001Y-27322295D01*
X188352486Y-27322100D01*
X188510198Y-27276281D01*
X188651552Y-27192685D01*
X188651561Y-27192678D01*
X188767678Y-27076561D01*
X188767685Y-27076552D01*
X188851282Y-26935196D01*
X188851283Y-26935193D01*
X188897099Y-26777495D01*
X188897100Y-26777489D01*
X188900000Y-26740644D01*
X188900000Y-26225000D01*
X188350000Y-26225000D01*
X187850000Y-26225000D01*
X187850000Y-24627703D01*
X188350000Y-24627703D01*
X188350000Y-25725000D01*
X188900000Y-25725000D01*
X188900000Y-25209356D01*
X188897100Y-25172510D01*
X188897099Y-25172504D01*
X188851283Y-25014806D01*
X188851282Y-25014803D01*
X188767685Y-24873447D01*
X188767678Y-24873438D01*
X188651561Y-24757321D01*
X188651552Y-24757314D01*
X188510196Y-24673717D01*
X188510193Y-24673716D01*
X188352494Y-24627900D01*
X188352497Y-24627900D01*
X188350000Y-24627703D01*
X187850000Y-24627703D01*
X187847503Y-24627900D01*
X187689806Y-24673716D01*
X187689803Y-24673717D01*
X187541729Y-24761288D01*
X187540544Y-24759285D01*
X187486355Y-24780551D01*
X187417840Y-24766860D01*
X187408211Y-24760671D01*
X187283274Y-24686784D01*
X187260398Y-24673256D01*
X187260397Y-24673255D01*
X187260396Y-24673255D01*
X187260393Y-24673254D01*
X187102573Y-24627402D01*
X187102567Y-24627401D01*
X187065696Y-24624500D01*
X187065694Y-24624500D01*
X186634306Y-24624500D01*
X186634304Y-24624500D01*
X186597432Y-24627401D01*
X186597426Y-24627402D01*
X186439606Y-24673254D01*
X186439603Y-24673255D01*
X186291420Y-24760890D01*
X186290254Y-24758919D01*
X186235942Y-24780232D01*
X186167427Y-24766540D01*
X186158595Y-24760864D01*
X186158580Y-24760890D01*
X186050075Y-24696721D01*
X186010398Y-24673256D01*
X186010397Y-24673255D01*
X186010396Y-24673255D01*
X186010393Y-24673254D01*
X185852573Y-24627402D01*
X185852567Y-24627401D01*
X185815696Y-24624500D01*
X185815694Y-24624500D01*
X185384306Y-24624500D01*
X185384304Y-24624500D01*
X185347432Y-24627401D01*
X185347426Y-24627402D01*
X185189606Y-24673254D01*
X185189603Y-24673255D01*
X185048137Y-24756917D01*
X185048129Y-24756923D01*
X184931925Y-24873128D01*
X184931914Y-24873140D01*
X184890287Y-24943528D01*
X184839218Y-24991211D01*
X184770476Y-25003714D01*
X184705887Y-24977068D01*
X184695875Y-24968087D01*
X181321907Y-21594119D01*
X177802607Y-18074818D01*
X177799204Y-18071126D01*
X177763336Y-18028899D01*
X177698891Y-17979909D01*
X177635759Y-17929162D01*
X177635758Y-17929161D01*
X177635754Y-17929158D01*
X177635748Y-17929155D01*
X177634854Y-17928583D01*
X177617019Y-17917520D01*
X177616064Y-17916946D01*
X177542560Y-17882939D01*
X177470027Y-17846966D01*
X177468981Y-17846582D01*
X177449160Y-17839602D01*
X177448164Y-17839266D01*
X177369073Y-17821858D01*
X177290494Y-17802315D01*
X177289584Y-17802191D01*
X177268506Y-17799610D01*
X177267501Y-17799501D01*
X177267497Y-17799500D01*
X177267492Y-17799500D01*
X177186531Y-17799500D01*
X177105564Y-17797306D01*
X177104520Y-17797391D01*
X177082352Y-17799500D01*
X172174031Y-17799500D01*
X172093064Y-17797306D01*
X172092020Y-17797391D01*
X172069852Y-17799500D01*
X159286531Y-17799500D01*
X159205564Y-17797306D01*
X159204520Y-17797391D01*
X159182352Y-17799500D01*
X146486531Y-17799500D01*
X146405564Y-17797306D01*
X146404520Y-17797391D01*
X146382352Y-17799500D01*
X134136531Y-17799500D01*
X134055564Y-17797306D01*
X134054520Y-17797391D01*
X134032352Y-17799500D01*
X127624000Y-17799500D01*
X127556961Y-17779815D01*
X127511206Y-17727011D01*
X127500000Y-17675500D01*
X127500000Y-17624000D01*
X127519685Y-17556961D01*
X127572489Y-17511206D01*
X127624000Y-17500000D01*
X189126000Y-17500000D01*
X189193039Y-17519685D01*
G37*
%TD.AperFunction*%
%TD*%
%TA.AperFunction,Conductor*%
%TO.N,GND1*%
G36*
X182376051Y-39249950D02*
G01*
X182443081Y-39269661D01*
X182488815Y-39322483D01*
X182500000Y-39373950D01*
X182500000Y-43845849D01*
X182480315Y-43912888D01*
X182463681Y-43933530D01*
X182234030Y-44163181D01*
X182172707Y-44196666D01*
X182146349Y-44199500D01*
X177091439Y-44199500D01*
X177024400Y-44179815D01*
X177017128Y-44174767D01*
X176992331Y-44156204D01*
X176992328Y-44156202D01*
X176857482Y-44105908D01*
X176857483Y-44105908D01*
X176797883Y-44099501D01*
X176797881Y-44099500D01*
X176797873Y-44099500D01*
X176797864Y-44099500D01*
X175202129Y-44099500D01*
X175202123Y-44099501D01*
X175142516Y-44105908D01*
X175007671Y-44156202D01*
X175007664Y-44156206D01*
X174892455Y-44242452D01*
X174892452Y-44242455D01*
X174806206Y-44357664D01*
X174806202Y-44357671D01*
X174755908Y-44492517D01*
X174753351Y-44516305D01*
X174749501Y-44552123D01*
X174749500Y-44552135D01*
X174749500Y-45547870D01*
X174749501Y-45547876D01*
X174755908Y-45607483D01*
X174806202Y-45742328D01*
X174806206Y-45742335D01*
X174892452Y-45857544D01*
X174892455Y-45857547D01*
X175007664Y-45943793D01*
X175007671Y-45943797D01*
X175142517Y-45994091D01*
X175142516Y-45994091D01*
X175149444Y-45994835D01*
X175202127Y-46000500D01*
X176797872Y-46000499D01*
X176857483Y-45994091D01*
X176992331Y-45943796D01*
X177017128Y-45925233D01*
X177082592Y-45900816D01*
X177091439Y-45900500D01*
X182376000Y-45900500D01*
X182443039Y-45920185D01*
X182488794Y-45972989D01*
X182500000Y-46024500D01*
X182500000Y-50770849D01*
X182480315Y-50837888D01*
X182463681Y-50858530D01*
X181134030Y-52188181D01*
X181072707Y-52221666D01*
X181046349Y-52224500D01*
X177427754Y-52224500D01*
X177360715Y-52204815D01*
X177314960Y-52152011D01*
X177305016Y-52082853D01*
X177322215Y-52035403D01*
X177409356Y-51894124D01*
X177409358Y-51894119D01*
X177464505Y-51727697D01*
X177464506Y-51727690D01*
X177474999Y-51624986D01*
X177475000Y-51624973D01*
X177475000Y-51175000D01*
X175325001Y-51175000D01*
X175325001Y-51624986D01*
X175335494Y-51727697D01*
X175390641Y-51894119D01*
X175390643Y-51894124D01*
X175477785Y-52035403D01*
X175496225Y-52102796D01*
X175475302Y-52169459D01*
X175421660Y-52214229D01*
X175372246Y-52224500D01*
X174978651Y-52224500D01*
X174911612Y-52204815D01*
X174890970Y-52188181D01*
X174547804Y-51845015D01*
X174514319Y-51783692D01*
X174514234Y-51731369D01*
X174514999Y-51727795D01*
X174525499Y-51625016D01*
X174525500Y-51625009D01*
X174525499Y-50224992D01*
X174514999Y-50122203D01*
X174459814Y-49955666D01*
X174367712Y-49806344D01*
X174349319Y-49787951D01*
X174315834Y-49726628D01*
X174313000Y-49700270D01*
X174313000Y-48600000D01*
X174750000Y-48600000D01*
X174750000Y-48847844D01*
X174756401Y-48907372D01*
X174756403Y-48907379D01*
X174806645Y-49042086D01*
X174806649Y-49042093D01*
X174892809Y-49157187D01*
X174892812Y-49157190D01*
X175007906Y-49243350D01*
X175007913Y-49243354D01*
X175142620Y-49293596D01*
X175142627Y-49293598D01*
X175202155Y-49299999D01*
X175202172Y-49300000D01*
X175864553Y-49300000D01*
X175931592Y-49319685D01*
X175977347Y-49372489D01*
X175987291Y-49441647D01*
X175958266Y-49505203D01*
X175903557Y-49541706D01*
X175755880Y-49590641D01*
X175755875Y-49590643D01*
X175606654Y-49682684D01*
X175482684Y-49806654D01*
X175390643Y-49955875D01*
X175390641Y-49955880D01*
X175335494Y-50122302D01*
X175335493Y-50122309D01*
X175325000Y-50225013D01*
X175325000Y-50675000D01*
X177474999Y-50675000D01*
X177474999Y-50225028D01*
X177474998Y-50225013D01*
X177464505Y-50122302D01*
X177409358Y-49955880D01*
X177409356Y-49955875D01*
X177317315Y-49806654D01*
X177193345Y-49682684D01*
X177044124Y-49590643D01*
X177044119Y-49590641D01*
X176877697Y-49535494D01*
X176871071Y-49534076D01*
X176871517Y-49531990D01*
X176816213Y-49509422D01*
X176776064Y-49452239D01*
X176773205Y-49382428D01*
X176808542Y-49322153D01*
X176850179Y-49296282D01*
X176992086Y-49243354D01*
X176992093Y-49243350D01*
X177107187Y-49157190D01*
X177107190Y-49157187D01*
X177193350Y-49042093D01*
X177193354Y-49042086D01*
X177243596Y-48907379D01*
X177243598Y-48907372D01*
X177249999Y-48847844D01*
X177250000Y-48847827D01*
X177250000Y-48600000D01*
X174750000Y-48600000D01*
X174313000Y-48600000D01*
X174313000Y-48100000D01*
X174750000Y-48100000D01*
X175750000Y-48100000D01*
X175750000Y-47400000D01*
X176250000Y-47400000D01*
X176250000Y-48100000D01*
X177250000Y-48100000D01*
X177250000Y-47852172D01*
X177249999Y-47852155D01*
X177243598Y-47792627D01*
X177243596Y-47792620D01*
X177193354Y-47657913D01*
X177193350Y-47657906D01*
X177107190Y-47542812D01*
X177107187Y-47542809D01*
X176992093Y-47456649D01*
X176992086Y-47456645D01*
X176857379Y-47406403D01*
X176857372Y-47406401D01*
X176797844Y-47400000D01*
X176250000Y-47400000D01*
X175750000Y-47400000D01*
X175202155Y-47400000D01*
X175142627Y-47406401D01*
X175142620Y-47406403D01*
X175007913Y-47456645D01*
X175007906Y-47456649D01*
X174892812Y-47542809D01*
X174892809Y-47542812D01*
X174806649Y-47657906D01*
X174806645Y-47657913D01*
X174756403Y-47792620D01*
X174756401Y-47792627D01*
X174750000Y-47852155D01*
X174750000Y-48100000D01*
X174313000Y-48100000D01*
X174313000Y-47449587D01*
X174313205Y-47444552D01*
X174317701Y-47389336D01*
X174314294Y-47364333D01*
X174306770Y-47309107D01*
X174298014Y-47228590D01*
X174298013Y-47228588D01*
X174298013Y-47228584D01*
X174297780Y-47227526D01*
X174293007Y-47207163D01*
X174292727Y-47206036D01*
X174292727Y-47206032D01*
X174264794Y-47129999D01*
X174238944Y-47053279D01*
X174238941Y-47053274D01*
X174238450Y-47052212D01*
X174229430Y-47033386D01*
X174228934Y-47032386D01*
X174204262Y-46993788D01*
X174185306Y-46964131D01*
X174143570Y-46894764D01*
X174143569Y-46894763D01*
X174143568Y-46894761D01*
X174142909Y-46893895D01*
X174130041Y-46877434D01*
X174129302Y-46876514D01*
X174129301Y-46876513D01*
X174129300Y-46876511D01*
X174072039Y-46819250D01*
X174016349Y-46760459D01*
X174015588Y-46759812D01*
X173998381Y-46745592D01*
X172386818Y-45134029D01*
X172353333Y-45072706D01*
X172350499Y-45046348D01*
X172350499Y-44552129D01*
X172350498Y-44552123D01*
X172350497Y-44552116D01*
X172344091Y-44492517D01*
X172318326Y-44423438D01*
X172293797Y-44357671D01*
X172293793Y-44357664D01*
X172207547Y-44242455D01*
X172207544Y-44242452D01*
X172092335Y-44156206D01*
X172092328Y-44156202D01*
X171957482Y-44105908D01*
X171957483Y-44105908D01*
X171897883Y-44099501D01*
X171897881Y-44099500D01*
X171897873Y-44099500D01*
X171897864Y-44099500D01*
X170302129Y-44099500D01*
X170302123Y-44099501D01*
X170242516Y-44105908D01*
X170107671Y-44156202D01*
X170107664Y-44156206D01*
X169992455Y-44242452D01*
X169992452Y-44242455D01*
X169906206Y-44357664D01*
X169906202Y-44357671D01*
X169855908Y-44492517D01*
X169853351Y-44516305D01*
X169849501Y-44552123D01*
X169849500Y-44552135D01*
X169849500Y-45547870D01*
X169849501Y-45547876D01*
X169855908Y-45607483D01*
X169906202Y-45742328D01*
X169906206Y-45742335D01*
X169992452Y-45857544D01*
X169992455Y-45857547D01*
X170107664Y-45943793D01*
X170107671Y-45943797D01*
X170152618Y-45960561D01*
X170242517Y-45994091D01*
X170302127Y-46000500D01*
X170796348Y-46000499D01*
X170863387Y-46020183D01*
X170884029Y-46036818D01*
X171724645Y-46877434D01*
X172040190Y-47192978D01*
X172073675Y-47254301D01*
X172068691Y-47323993D01*
X172026819Y-47379926D01*
X171961355Y-47404343D01*
X171939256Y-47403949D01*
X171925686Y-47402490D01*
X171897873Y-47399500D01*
X171897867Y-47399500D01*
X170302129Y-47399500D01*
X170302123Y-47399501D01*
X170242516Y-47405908D01*
X170107671Y-47456202D01*
X170107668Y-47456204D01*
X170082872Y-47474767D01*
X170017408Y-47499184D01*
X170008561Y-47499500D01*
X166828651Y-47499500D01*
X166761612Y-47479815D01*
X166740970Y-47463181D01*
X164411818Y-45134029D01*
X164378333Y-45072706D01*
X164375499Y-45046348D01*
X164375499Y-44552129D01*
X164375498Y-44552123D01*
X164375497Y-44552116D01*
X164369091Y-44492517D01*
X164343326Y-44423438D01*
X164318797Y-44357671D01*
X164318793Y-44357664D01*
X164232547Y-44242455D01*
X164232544Y-44242452D01*
X164117335Y-44156206D01*
X164117328Y-44156202D01*
X163982482Y-44105908D01*
X163982483Y-44105908D01*
X163922883Y-44099501D01*
X163922881Y-44099500D01*
X163922873Y-44099500D01*
X163922864Y-44099500D01*
X162327129Y-44099500D01*
X162327123Y-44099501D01*
X162267516Y-44105908D01*
X162132671Y-44156202D01*
X162132664Y-44156206D01*
X162017455Y-44242452D01*
X162017452Y-44242455D01*
X161931206Y-44357664D01*
X161931202Y-44357671D01*
X161880908Y-44492517D01*
X161878351Y-44516305D01*
X161874501Y-44552123D01*
X161874500Y-44552135D01*
X161874500Y-45547870D01*
X161874501Y-45547876D01*
X161880908Y-45607483D01*
X161931202Y-45742328D01*
X161931206Y-45742335D01*
X162017452Y-45857544D01*
X162017455Y-45857547D01*
X162132664Y-45943793D01*
X162132671Y-45943797D01*
X162177618Y-45960561D01*
X162267517Y-45994091D01*
X162327127Y-46000500D01*
X162821348Y-46000499D01*
X162888387Y-46020183D01*
X162909029Y-46036818D01*
X164065755Y-47193544D01*
X164099240Y-47254867D01*
X164094256Y-47324559D01*
X164052384Y-47380492D01*
X163986920Y-47404909D01*
X163964818Y-47404514D01*
X163922844Y-47400000D01*
X163375000Y-47400000D01*
X163375000Y-48100000D01*
X164375000Y-48100000D01*
X164375000Y-47852172D01*
X164374999Y-47852163D01*
X164370485Y-47810184D01*
X164382888Y-47741424D01*
X164430497Y-47690285D01*
X164498196Y-47673004D01*
X164564491Y-47695067D01*
X164581455Y-47709244D01*
X164972212Y-48100000D01*
X165797385Y-48925173D01*
X165800788Y-48928865D01*
X165836662Y-48971099D01*
X165901126Y-49020104D01*
X165928778Y-49042331D01*
X165964247Y-49070842D01*
X165964252Y-49070844D01*
X165965163Y-49071427D01*
X165982955Y-49082463D01*
X165983933Y-49083052D01*
X165983936Y-49083054D01*
X166057429Y-49117055D01*
X166129979Y-49153037D01*
X166129982Y-49153037D01*
X166129987Y-49153040D01*
X166131019Y-49153419D01*
X166150853Y-49160402D01*
X166151835Y-49160733D01*
X166230916Y-49178139D01*
X166309506Y-49197684D01*
X166309510Y-49197684D01*
X166309514Y-49197685D01*
X166310604Y-49197833D01*
X166331375Y-49200377D01*
X166332502Y-49200499D01*
X166332503Y-49200500D01*
X166332504Y-49200500D01*
X166413469Y-49200500D01*
X166494432Y-49202693D01*
X166494432Y-49202692D01*
X166494435Y-49202693D01*
X166495479Y-49202608D01*
X166517648Y-49200500D01*
X170008561Y-49200500D01*
X170075600Y-49220185D01*
X170082872Y-49225233D01*
X170107073Y-49243350D01*
X170107668Y-49243795D01*
X170107671Y-49243797D01*
X170242517Y-49294091D01*
X170242516Y-49294091D01*
X170249444Y-49294835D01*
X170302127Y-49300500D01*
X171897872Y-49300499D01*
X171957483Y-49294091D01*
X172092331Y-49243796D01*
X172207546Y-49157546D01*
X172293796Y-49042331D01*
X172344091Y-48907483D01*
X172350500Y-48847873D01*
X172350499Y-47852128D01*
X172346050Y-47810742D01*
X172358456Y-47741985D01*
X172406067Y-47690848D01*
X172473767Y-47673569D01*
X172540061Y-47695634D01*
X172557021Y-47709809D01*
X172575681Y-47728469D01*
X172609166Y-47789792D01*
X172612000Y-47816150D01*
X172612000Y-49675270D01*
X172592315Y-49742309D01*
X172575681Y-49762951D01*
X172532289Y-49806342D01*
X172440187Y-49955663D01*
X172440185Y-49955668D01*
X172437772Y-49962951D01*
X172385001Y-50122203D01*
X172385001Y-50122204D01*
X172385000Y-50122204D01*
X172374500Y-50224983D01*
X172374500Y-51625001D01*
X172374501Y-51625018D01*
X172385000Y-51727796D01*
X172385001Y-51727799D01*
X172440185Y-51894331D01*
X172440189Y-51894340D01*
X172527198Y-52035404D01*
X172545638Y-52102796D01*
X172524715Y-52169459D01*
X172471073Y-52214229D01*
X172421659Y-52224500D01*
X164619887Y-52224500D01*
X164552848Y-52204815D01*
X164507093Y-52152011D01*
X164497149Y-52082853D01*
X164507504Y-52048096D01*
X164509358Y-52044118D01*
X164564505Y-51877697D01*
X164564506Y-51877690D01*
X164574999Y-51774986D01*
X164575000Y-51774973D01*
X164575000Y-51325000D01*
X162425000Y-51325000D01*
X162425000Y-51435351D01*
X162405315Y-51502390D01*
X162352511Y-51548145D01*
X162283352Y-51558088D01*
X162219797Y-51529062D01*
X162213326Y-51523038D01*
X161661818Y-50971529D01*
X161628333Y-50910206D01*
X161625499Y-50883848D01*
X161625499Y-50825000D01*
X162425000Y-50825000D01*
X163250000Y-50825000D01*
X163250000Y-49675000D01*
X163750000Y-49675000D01*
X163750000Y-50825000D01*
X164574999Y-50825000D01*
X164574999Y-50375028D01*
X164574998Y-50375013D01*
X164564505Y-50272302D01*
X164509358Y-50105880D01*
X164509356Y-50105875D01*
X164417315Y-49956654D01*
X164293345Y-49832684D01*
X164144124Y-49740643D01*
X164144119Y-49740641D01*
X163977697Y-49685494D01*
X163977690Y-49685493D01*
X163874986Y-49675000D01*
X163750000Y-49675000D01*
X163250000Y-49675000D01*
X163125027Y-49675000D01*
X163125012Y-49675001D01*
X163022302Y-49685494D01*
X162855880Y-49740641D01*
X162855875Y-49740643D01*
X162706654Y-49832684D01*
X162582684Y-49956654D01*
X162490643Y-50105875D01*
X162490641Y-50105880D01*
X162435494Y-50272302D01*
X162435493Y-50272309D01*
X162425000Y-50375013D01*
X162425000Y-50825000D01*
X161625499Y-50825000D01*
X161625499Y-50374998D01*
X161625498Y-50374981D01*
X161614999Y-50272203D01*
X161614998Y-50272200D01*
X161568167Y-50130875D01*
X161559814Y-50105666D01*
X161467712Y-49956344D01*
X161449319Y-49937951D01*
X161415834Y-49876628D01*
X161413000Y-49850270D01*
X161413000Y-48600000D01*
X161875000Y-48600000D01*
X161875000Y-48847844D01*
X161881401Y-48907372D01*
X161881403Y-48907379D01*
X161931645Y-49042086D01*
X161931649Y-49042093D01*
X162017809Y-49157187D01*
X162017812Y-49157190D01*
X162132906Y-49243350D01*
X162132913Y-49243354D01*
X162267620Y-49293596D01*
X162267627Y-49293598D01*
X162327155Y-49299999D01*
X162327172Y-49300000D01*
X162875000Y-49300000D01*
X162875000Y-48600000D01*
X163375000Y-48600000D01*
X163375000Y-49300000D01*
X163922828Y-49300000D01*
X163922844Y-49299999D01*
X163982372Y-49293598D01*
X163982379Y-49293596D01*
X164117086Y-49243354D01*
X164117093Y-49243350D01*
X164232187Y-49157190D01*
X164232190Y-49157187D01*
X164318350Y-49042093D01*
X164318354Y-49042086D01*
X164368596Y-48907379D01*
X164368598Y-48907372D01*
X164374999Y-48847844D01*
X164375000Y-48847827D01*
X164375000Y-48600000D01*
X163375000Y-48600000D01*
X162875000Y-48600000D01*
X161875000Y-48600000D01*
X161413000Y-48600000D01*
X161413000Y-48100000D01*
X161875000Y-48100000D01*
X162875000Y-48100000D01*
X162875000Y-47400000D01*
X162327155Y-47400000D01*
X162267627Y-47406401D01*
X162267620Y-47406403D01*
X162132913Y-47456645D01*
X162132906Y-47456649D01*
X162017812Y-47542809D01*
X162017809Y-47542812D01*
X161931649Y-47657906D01*
X161931645Y-47657913D01*
X161881403Y-47792620D01*
X161881401Y-47792627D01*
X161875000Y-47852155D01*
X161875000Y-48100000D01*
X161413000Y-48100000D01*
X161413000Y-47424587D01*
X161413205Y-47419552D01*
X161417701Y-47364336D01*
X161413582Y-47334107D01*
X161406770Y-47284107D01*
X161398014Y-47203590D01*
X161398013Y-47203588D01*
X161398013Y-47203584D01*
X161397780Y-47202526D01*
X161392997Y-47182121D01*
X161392727Y-47181032D01*
X161364799Y-47105013D01*
X161355789Y-47078273D01*
X161338944Y-47028279D01*
X161338941Y-47028275D01*
X161338941Y-47028273D01*
X161338506Y-47027331D01*
X161329392Y-47008312D01*
X161328932Y-47007384D01*
X161317274Y-46989146D01*
X161285322Y-46939158D01*
X161243570Y-46869764D01*
X161243568Y-46869762D01*
X161243567Y-46869760D01*
X161242955Y-46868955D01*
X161230003Y-46852389D01*
X161229303Y-46851518D01*
X161229299Y-46851511D01*
X161172057Y-46794269D01*
X161148944Y-46769869D01*
X161116348Y-46735457D01*
X161115608Y-46734828D01*
X161098375Y-46720587D01*
X159511818Y-45134029D01*
X159478333Y-45072706D01*
X159475499Y-45046348D01*
X159475499Y-44552129D01*
X159475498Y-44552123D01*
X159475497Y-44552116D01*
X159469091Y-44492517D01*
X159443326Y-44423438D01*
X159418797Y-44357671D01*
X159418793Y-44357664D01*
X159332547Y-44242455D01*
X159332544Y-44242452D01*
X159217335Y-44156206D01*
X159217328Y-44156202D01*
X159082482Y-44105908D01*
X159082483Y-44105908D01*
X159022883Y-44099501D01*
X159022881Y-44099500D01*
X159022873Y-44099500D01*
X159022864Y-44099500D01*
X157427129Y-44099500D01*
X157427123Y-44099501D01*
X157367516Y-44105908D01*
X157232671Y-44156202D01*
X157232664Y-44156206D01*
X157117455Y-44242452D01*
X157117452Y-44242455D01*
X157031206Y-44357664D01*
X157031202Y-44357671D01*
X156980908Y-44492517D01*
X156978351Y-44516305D01*
X156974501Y-44552123D01*
X156974500Y-44552135D01*
X156974500Y-45547870D01*
X156974501Y-45547876D01*
X156980908Y-45607483D01*
X157031202Y-45742328D01*
X157031206Y-45742335D01*
X157117452Y-45857544D01*
X157117455Y-45857547D01*
X157232664Y-45943793D01*
X157232671Y-45943797D01*
X157277618Y-45960561D01*
X157367517Y-45994091D01*
X157427127Y-46000500D01*
X157921348Y-46000499D01*
X157988387Y-46020183D01*
X158009029Y-46036818D01*
X159165189Y-47192978D01*
X159198674Y-47254301D01*
X159193690Y-47323993D01*
X159151818Y-47379926D01*
X159086354Y-47404343D01*
X159064255Y-47403949D01*
X159054195Y-47402867D01*
X159022873Y-47399500D01*
X159022867Y-47399500D01*
X157427129Y-47399500D01*
X157427123Y-47399501D01*
X157367516Y-47405908D01*
X157232671Y-47456202D01*
X157232668Y-47456204D01*
X157207872Y-47474767D01*
X157142408Y-47499184D01*
X157133561Y-47499500D01*
X153953651Y-47499500D01*
X153886612Y-47479815D01*
X153865970Y-47463181D01*
X151536818Y-45134029D01*
X151503333Y-45072706D01*
X151500499Y-45046348D01*
X151500499Y-44552129D01*
X151500498Y-44552123D01*
X151500497Y-44552116D01*
X151494091Y-44492517D01*
X151468326Y-44423438D01*
X151443797Y-44357671D01*
X151443793Y-44357664D01*
X151357547Y-44242455D01*
X151357544Y-44242452D01*
X151242335Y-44156206D01*
X151242328Y-44156202D01*
X151107482Y-44105908D01*
X151107483Y-44105908D01*
X151047883Y-44099501D01*
X151047881Y-44099500D01*
X151047873Y-44099500D01*
X151047864Y-44099500D01*
X149452129Y-44099500D01*
X149452123Y-44099501D01*
X149392516Y-44105908D01*
X149257671Y-44156202D01*
X149257664Y-44156206D01*
X149142455Y-44242452D01*
X149142452Y-44242455D01*
X149056206Y-44357664D01*
X149056202Y-44357671D01*
X149005908Y-44492517D01*
X149003351Y-44516305D01*
X148999501Y-44552123D01*
X148999500Y-44552135D01*
X148999500Y-45547870D01*
X148999501Y-45547876D01*
X149005908Y-45607483D01*
X149056202Y-45742328D01*
X149056206Y-45742335D01*
X149142452Y-45857544D01*
X149142455Y-45857547D01*
X149257664Y-45943793D01*
X149257671Y-45943797D01*
X149302618Y-45960561D01*
X149392517Y-45994091D01*
X149452127Y-46000500D01*
X149946348Y-46000499D01*
X150013387Y-46020183D01*
X150034029Y-46036818D01*
X151190755Y-47193544D01*
X151224240Y-47254867D01*
X151219256Y-47324559D01*
X151177384Y-47380492D01*
X151111920Y-47404909D01*
X151089818Y-47404514D01*
X151047844Y-47400000D01*
X150500000Y-47400000D01*
X150500000Y-48100000D01*
X151500000Y-48100000D01*
X151500000Y-47852172D01*
X151499999Y-47852163D01*
X151495485Y-47810184D01*
X151507888Y-47741424D01*
X151555497Y-47690285D01*
X151623196Y-47673004D01*
X151689491Y-47695067D01*
X151706455Y-47709244D01*
X152097212Y-48100000D01*
X152922385Y-48925173D01*
X152925788Y-48928865D01*
X152961662Y-48971099D01*
X153026126Y-49020104D01*
X153053778Y-49042331D01*
X153089247Y-49070842D01*
X153089252Y-49070844D01*
X153090163Y-49071427D01*
X153107955Y-49082463D01*
X153108933Y-49083052D01*
X153108936Y-49083054D01*
X153182429Y-49117055D01*
X153254979Y-49153037D01*
X153254982Y-49153037D01*
X153254987Y-49153040D01*
X153256019Y-49153419D01*
X153275853Y-49160402D01*
X153276835Y-49160733D01*
X153355916Y-49178139D01*
X153434506Y-49197684D01*
X153434510Y-49197684D01*
X153434514Y-49197685D01*
X153435604Y-49197833D01*
X153456375Y-49200377D01*
X153457502Y-49200499D01*
X153457503Y-49200500D01*
X153457504Y-49200500D01*
X153538469Y-49200500D01*
X153619432Y-49202693D01*
X153619432Y-49202692D01*
X153619435Y-49202693D01*
X153620479Y-49202608D01*
X153642648Y-49200500D01*
X157133561Y-49200500D01*
X157200600Y-49220185D01*
X157207872Y-49225233D01*
X157232073Y-49243350D01*
X157232668Y-49243795D01*
X157232671Y-49243797D01*
X157367517Y-49294091D01*
X157367516Y-49294091D01*
X157374444Y-49294835D01*
X157427127Y-49300500D01*
X159022872Y-49300499D01*
X159082483Y-49294091D01*
X159217331Y-49243796D01*
X159332546Y-49157546D01*
X159418796Y-49042331D01*
X159461116Y-48928865D01*
X159471802Y-48900215D01*
X159475052Y-48901427D01*
X159501812Y-48854330D01*
X159563692Y-48821886D01*
X159633290Y-48828047D01*
X159688508Y-48870857D01*
X159711816Y-48936724D01*
X159712000Y-48943480D01*
X159712000Y-49825270D01*
X159692315Y-49892309D01*
X159675681Y-49912951D01*
X159632289Y-49956342D01*
X159540187Y-50105663D01*
X159540185Y-50105668D01*
X159531831Y-50130880D01*
X159485001Y-50272203D01*
X159485001Y-50272204D01*
X159485000Y-50272204D01*
X159474500Y-50374983D01*
X159474500Y-51775001D01*
X159474501Y-51775018D01*
X159485000Y-51877796D01*
X159485001Y-51877799D01*
X159540186Y-52044334D01*
X159541941Y-52048097D01*
X159542370Y-52050924D01*
X159542458Y-52051189D01*
X159542412Y-52051203D01*
X159552432Y-52117175D01*
X159523911Y-52180958D01*
X159465433Y-52219197D01*
X159429558Y-52224500D01*
X151804591Y-52224500D01*
X151737552Y-52204815D01*
X151691797Y-52152011D01*
X151681853Y-52082853D01*
X151686885Y-52061496D01*
X151739505Y-51902697D01*
X151739506Y-51902690D01*
X151749999Y-51799986D01*
X151750000Y-51799973D01*
X151750000Y-51350000D01*
X149600000Y-51350000D01*
X149600000Y-51460350D01*
X149580315Y-51527389D01*
X149527511Y-51573144D01*
X149458352Y-51583087D01*
X149394797Y-51554061D01*
X149388319Y-51548030D01*
X148836818Y-50996529D01*
X148803333Y-50935206D01*
X148800499Y-50908848D01*
X148800499Y-50850000D01*
X149600000Y-50850000D01*
X150425000Y-50850000D01*
X150425000Y-49700000D01*
X150925000Y-49700000D01*
X150925000Y-50850000D01*
X151749999Y-50850000D01*
X151749999Y-50400028D01*
X151749998Y-50400013D01*
X151739505Y-50297302D01*
X151684358Y-50130880D01*
X151684356Y-50130875D01*
X151592315Y-49981654D01*
X151468345Y-49857684D01*
X151319124Y-49765643D01*
X151319119Y-49765641D01*
X151152697Y-49710494D01*
X151152690Y-49710493D01*
X151049986Y-49700000D01*
X150925000Y-49700000D01*
X150425000Y-49700000D01*
X150300027Y-49700000D01*
X150300012Y-49700001D01*
X150197302Y-49710494D01*
X150030880Y-49765641D01*
X150030875Y-49765643D01*
X149881654Y-49857684D01*
X149757684Y-49981654D01*
X149665643Y-50130875D01*
X149665641Y-50130880D01*
X149610494Y-50297302D01*
X149610493Y-50297309D01*
X149600000Y-50400013D01*
X149600000Y-50850000D01*
X148800499Y-50850000D01*
X148800499Y-50399998D01*
X148800498Y-50399981D01*
X148789999Y-50297203D01*
X148789998Y-50297200D01*
X148773431Y-50247204D01*
X148734814Y-50130666D01*
X148642712Y-49981344D01*
X148624319Y-49962951D01*
X148590834Y-49901628D01*
X148588000Y-49875270D01*
X148588000Y-48600000D01*
X149000000Y-48600000D01*
X149000000Y-48847844D01*
X149006401Y-48907372D01*
X149006403Y-48907379D01*
X149056645Y-49042086D01*
X149056649Y-49042093D01*
X149142809Y-49157187D01*
X149142812Y-49157190D01*
X149257906Y-49243350D01*
X149257913Y-49243354D01*
X149392620Y-49293596D01*
X149392627Y-49293598D01*
X149452155Y-49299999D01*
X149452172Y-49300000D01*
X150000000Y-49300000D01*
X150000000Y-48600000D01*
X150500000Y-48600000D01*
X150500000Y-49300000D01*
X151047828Y-49300000D01*
X151047844Y-49299999D01*
X151107372Y-49293598D01*
X151107379Y-49293596D01*
X151242086Y-49243354D01*
X151242093Y-49243350D01*
X151357187Y-49157190D01*
X151357190Y-49157187D01*
X151443350Y-49042093D01*
X151443354Y-49042086D01*
X151493596Y-48907379D01*
X151493598Y-48907372D01*
X151499999Y-48847844D01*
X151500000Y-48847827D01*
X151500000Y-48600000D01*
X150500000Y-48600000D01*
X150000000Y-48600000D01*
X149000000Y-48600000D01*
X148588000Y-48600000D01*
X148588000Y-48100000D01*
X149000000Y-48100000D01*
X150000000Y-48100000D01*
X150000000Y-47400000D01*
X149452155Y-47400000D01*
X149392627Y-47406401D01*
X149392620Y-47406403D01*
X149257913Y-47456645D01*
X149257906Y-47456649D01*
X149142812Y-47542809D01*
X149142809Y-47542812D01*
X149056649Y-47657906D01*
X149056645Y-47657913D01*
X149006403Y-47792620D01*
X149006401Y-47792627D01*
X149000000Y-47852155D01*
X149000000Y-48100000D01*
X148588000Y-48100000D01*
X148588000Y-47474587D01*
X148588205Y-47469552D01*
X148592701Y-47414336D01*
X148591620Y-47406403D01*
X148581770Y-47334107D01*
X148573014Y-47253590D01*
X148573013Y-47253588D01*
X148573013Y-47253584D01*
X148572780Y-47252526D01*
X148567997Y-47232121D01*
X148567727Y-47231032D01*
X148539799Y-47155013D01*
X148513944Y-47078279D01*
X148513941Y-47078275D01*
X148513941Y-47078273D01*
X148513506Y-47077331D01*
X148504395Y-47058318D01*
X148503933Y-47057387D01*
X148503932Y-47057384D01*
X148460315Y-46989146D01*
X148418570Y-46919764D01*
X148418569Y-46919763D01*
X148418568Y-46919761D01*
X148417957Y-46918958D01*
X148404993Y-46902374D01*
X148404304Y-46901518D01*
X148404300Y-46901511D01*
X148347039Y-46844250D01*
X148291349Y-46785459D01*
X148290588Y-46784812D01*
X148273381Y-46770592D01*
X146636818Y-45134029D01*
X146603333Y-45072706D01*
X146600499Y-45046348D01*
X146600499Y-44552129D01*
X146600498Y-44552123D01*
X146600497Y-44552116D01*
X146594091Y-44492517D01*
X146568326Y-44423438D01*
X146543797Y-44357671D01*
X146543793Y-44357664D01*
X146457547Y-44242455D01*
X146457544Y-44242452D01*
X146342335Y-44156206D01*
X146342328Y-44156202D01*
X146207482Y-44105908D01*
X146207483Y-44105908D01*
X146147883Y-44099501D01*
X146147881Y-44099500D01*
X146147873Y-44099500D01*
X146147864Y-44099500D01*
X144552129Y-44099500D01*
X144552123Y-44099501D01*
X144492516Y-44105908D01*
X144357671Y-44156202D01*
X144357664Y-44156206D01*
X144242455Y-44242452D01*
X144242452Y-44242455D01*
X144156206Y-44357664D01*
X144156202Y-44357671D01*
X144105908Y-44492517D01*
X144103351Y-44516305D01*
X144099501Y-44552123D01*
X144099500Y-44552135D01*
X144099500Y-45547870D01*
X144099501Y-45547876D01*
X144105908Y-45607483D01*
X144156202Y-45742328D01*
X144156206Y-45742335D01*
X144242452Y-45857544D01*
X144242455Y-45857547D01*
X144357664Y-45943793D01*
X144357671Y-45943797D01*
X144402618Y-45960561D01*
X144492517Y-45994091D01*
X144552127Y-46000500D01*
X145046348Y-46000499D01*
X145113387Y-46020183D01*
X145134029Y-46036818D01*
X145991975Y-46894764D01*
X146290190Y-47192978D01*
X146323675Y-47254301D01*
X146318691Y-47323993D01*
X146276819Y-47379926D01*
X146211355Y-47404343D01*
X146189256Y-47403949D01*
X146175686Y-47402490D01*
X146147873Y-47399500D01*
X146147867Y-47399500D01*
X144552129Y-47399500D01*
X144552123Y-47399501D01*
X144492516Y-47405908D01*
X144357671Y-47456202D01*
X144357668Y-47456204D01*
X144332872Y-47474767D01*
X144267408Y-47499184D01*
X144258561Y-47499500D01*
X141103651Y-47499500D01*
X141036612Y-47479815D01*
X141015970Y-47463181D01*
X138686818Y-45134029D01*
X138653333Y-45072706D01*
X138650499Y-45046348D01*
X138650499Y-44552129D01*
X138650498Y-44552123D01*
X138650497Y-44552116D01*
X138644091Y-44492517D01*
X138618326Y-44423438D01*
X138593797Y-44357671D01*
X138593793Y-44357664D01*
X138507547Y-44242455D01*
X138507544Y-44242452D01*
X138392335Y-44156206D01*
X138392328Y-44156202D01*
X138257482Y-44105908D01*
X138257483Y-44105908D01*
X138197883Y-44099501D01*
X138197881Y-44099500D01*
X138197873Y-44099500D01*
X138197864Y-44099500D01*
X136602129Y-44099500D01*
X136602123Y-44099501D01*
X136542516Y-44105908D01*
X136407671Y-44156202D01*
X136407664Y-44156206D01*
X136292455Y-44242452D01*
X136292452Y-44242455D01*
X136206206Y-44357664D01*
X136206202Y-44357671D01*
X136155908Y-44492517D01*
X136153351Y-44516305D01*
X136149501Y-44552123D01*
X136149500Y-44552135D01*
X136149500Y-45547870D01*
X136149501Y-45547876D01*
X136155908Y-45607483D01*
X136206202Y-45742328D01*
X136206206Y-45742335D01*
X136292452Y-45857544D01*
X136292455Y-45857547D01*
X136407664Y-45943793D01*
X136407671Y-45943797D01*
X136452618Y-45960561D01*
X136542517Y-45994091D01*
X136602127Y-46000500D01*
X137096348Y-46000499D01*
X137163387Y-46020183D01*
X137184029Y-46036818D01*
X138340755Y-47193544D01*
X138374240Y-47254867D01*
X138369256Y-47324559D01*
X138327384Y-47380492D01*
X138261920Y-47404909D01*
X138239818Y-47404514D01*
X138197844Y-47400000D01*
X137650000Y-47400000D01*
X137650000Y-48100000D01*
X138650000Y-48100000D01*
X138650000Y-47852172D01*
X138649999Y-47852163D01*
X138645485Y-47810184D01*
X138657888Y-47741424D01*
X138705497Y-47690285D01*
X138773196Y-47673004D01*
X138839491Y-47695067D01*
X138856455Y-47709244D01*
X139247212Y-48100000D01*
X140072385Y-48925173D01*
X140075788Y-48928865D01*
X140111662Y-48971099D01*
X140176126Y-49020104D01*
X140203778Y-49042331D01*
X140239247Y-49070842D01*
X140239252Y-49070844D01*
X140240163Y-49071427D01*
X140257955Y-49082463D01*
X140258933Y-49083052D01*
X140258936Y-49083054D01*
X140332429Y-49117055D01*
X140404979Y-49153037D01*
X140404982Y-49153037D01*
X140404987Y-49153040D01*
X140406019Y-49153419D01*
X140425853Y-49160402D01*
X140426835Y-49160733D01*
X140505916Y-49178139D01*
X140584506Y-49197684D01*
X140584510Y-49197684D01*
X140584514Y-49197685D01*
X140585604Y-49197833D01*
X140606375Y-49200377D01*
X140607502Y-49200499D01*
X140607503Y-49200500D01*
X140607504Y-49200500D01*
X140688469Y-49200500D01*
X140769432Y-49202693D01*
X140769432Y-49202692D01*
X140769435Y-49202693D01*
X140770479Y-49202608D01*
X140792648Y-49200500D01*
X144258561Y-49200500D01*
X144325600Y-49220185D01*
X144332872Y-49225233D01*
X144357073Y-49243350D01*
X144357668Y-49243795D01*
X144357671Y-49243797D01*
X144492517Y-49294091D01*
X144492516Y-49294091D01*
X144499444Y-49294835D01*
X144552127Y-49300500D01*
X146147872Y-49300499D01*
X146207483Y-49294091D01*
X146342331Y-49243796D01*
X146457546Y-49157546D01*
X146543796Y-49042331D01*
X146594091Y-48907483D01*
X146600500Y-48847873D01*
X146600499Y-47852128D01*
X146596050Y-47810742D01*
X146608456Y-47741985D01*
X146656067Y-47690848D01*
X146723767Y-47673569D01*
X146790061Y-47695634D01*
X146807021Y-47709809D01*
X146850681Y-47753469D01*
X146884166Y-47814792D01*
X146887000Y-47841150D01*
X146887000Y-49850270D01*
X146867315Y-49917309D01*
X146850681Y-49937951D01*
X146807289Y-49981342D01*
X146715187Y-50130663D01*
X146715185Y-50130668D01*
X146715115Y-50130880D01*
X146660001Y-50297203D01*
X146660001Y-50297204D01*
X146660000Y-50297204D01*
X146649500Y-50399983D01*
X146649500Y-51800001D01*
X146649501Y-51800018D01*
X146660000Y-51902796D01*
X146660001Y-51902799D01*
X146697736Y-52016675D01*
X146709173Y-52051189D01*
X146712589Y-52061496D01*
X146714991Y-52131324D01*
X146679259Y-52191366D01*
X146616739Y-52222559D01*
X146594883Y-52224500D01*
X138904854Y-52224500D01*
X138837815Y-52204815D01*
X138792060Y-52152011D01*
X138782116Y-52082853D01*
X138799316Y-52035402D01*
X138809355Y-52019126D01*
X138809358Y-52019119D01*
X138864505Y-51852697D01*
X138864506Y-51852690D01*
X138874999Y-51749986D01*
X138875000Y-51749973D01*
X138875000Y-51300000D01*
X136725000Y-51300000D01*
X136725000Y-51410351D01*
X136705315Y-51477390D01*
X136652511Y-51523145D01*
X136583352Y-51533088D01*
X136519797Y-51504062D01*
X136513327Y-51498038D01*
X135961818Y-50946529D01*
X135928333Y-50885206D01*
X135925499Y-50858848D01*
X135925499Y-50800000D01*
X136725000Y-50800000D01*
X137550000Y-50800000D01*
X137550000Y-49650000D01*
X138050000Y-49650000D01*
X138050000Y-50800000D01*
X138874999Y-50800000D01*
X138874999Y-50350028D01*
X138874998Y-50350013D01*
X138864505Y-50247302D01*
X138809358Y-50080880D01*
X138809356Y-50080875D01*
X138717315Y-49931654D01*
X138593345Y-49807684D01*
X138444124Y-49715643D01*
X138444119Y-49715641D01*
X138277697Y-49660494D01*
X138277690Y-49660493D01*
X138174986Y-49650000D01*
X138050000Y-49650000D01*
X137550000Y-49650000D01*
X137425027Y-49650000D01*
X137425012Y-49650001D01*
X137322302Y-49660494D01*
X137155880Y-49715641D01*
X137155875Y-49715643D01*
X137006654Y-49807684D01*
X136882684Y-49931654D01*
X136790643Y-50080875D01*
X136790641Y-50080880D01*
X136735494Y-50247302D01*
X136735493Y-50247309D01*
X136725000Y-50350013D01*
X136725000Y-50800000D01*
X135925499Y-50800000D01*
X135925499Y-50349998D01*
X135925498Y-50349981D01*
X135914999Y-50247203D01*
X135914998Y-50247200D01*
X135876453Y-50130880D01*
X135859814Y-50080666D01*
X135767712Y-49931344D01*
X135749319Y-49912951D01*
X135715834Y-49851628D01*
X135713000Y-49825270D01*
X135713000Y-48600000D01*
X136150000Y-48600000D01*
X136150000Y-48847844D01*
X136156401Y-48907372D01*
X136156403Y-48907379D01*
X136206645Y-49042086D01*
X136206649Y-49042093D01*
X136292809Y-49157187D01*
X136292812Y-49157190D01*
X136407906Y-49243350D01*
X136407913Y-49243354D01*
X136542620Y-49293596D01*
X136542627Y-49293598D01*
X136602155Y-49299999D01*
X136602172Y-49300000D01*
X137150000Y-49300000D01*
X137150000Y-48600000D01*
X137650000Y-48600000D01*
X137650000Y-49300000D01*
X138197828Y-49300000D01*
X138197844Y-49299999D01*
X138257372Y-49293598D01*
X138257379Y-49293596D01*
X138392086Y-49243354D01*
X138392093Y-49243350D01*
X138507187Y-49157190D01*
X138507190Y-49157187D01*
X138593350Y-49042093D01*
X138593354Y-49042086D01*
X138643596Y-48907379D01*
X138643598Y-48907372D01*
X138649999Y-48847844D01*
X138650000Y-48847827D01*
X138650000Y-48600000D01*
X137650000Y-48600000D01*
X137150000Y-48600000D01*
X136150000Y-48600000D01*
X135713000Y-48600000D01*
X135713000Y-48100000D01*
X136150000Y-48100000D01*
X137150000Y-48100000D01*
X137150000Y-47400000D01*
X136602155Y-47400000D01*
X136542627Y-47406401D01*
X136542620Y-47406403D01*
X136407913Y-47456645D01*
X136407906Y-47456649D01*
X136292812Y-47542809D01*
X136292809Y-47542812D01*
X136206649Y-47657906D01*
X136206645Y-47657913D01*
X136156403Y-47792620D01*
X136156401Y-47792627D01*
X136150000Y-47852155D01*
X136150000Y-48100000D01*
X135713000Y-48100000D01*
X135713000Y-47449587D01*
X135713205Y-47444552D01*
X135717701Y-47389336D01*
X135714294Y-47364333D01*
X135706770Y-47309107D01*
X135698014Y-47228590D01*
X135698013Y-47228588D01*
X135698013Y-47228584D01*
X135697780Y-47227526D01*
X135693007Y-47207163D01*
X135692727Y-47206036D01*
X135692727Y-47206032D01*
X135664794Y-47129999D01*
X135638944Y-47053279D01*
X135638941Y-47053274D01*
X135638450Y-47052212D01*
X135629430Y-47033386D01*
X135628934Y-47032386D01*
X135604262Y-46993788D01*
X135585306Y-46964131D01*
X135543570Y-46894764D01*
X135543569Y-46894763D01*
X135543568Y-46894761D01*
X135542909Y-46893895D01*
X135530041Y-46877434D01*
X135529302Y-46876514D01*
X135529301Y-46876513D01*
X135529300Y-46876511D01*
X135472039Y-46819250D01*
X135416349Y-46760459D01*
X135415588Y-46759812D01*
X135398381Y-46745592D01*
X133786818Y-45134029D01*
X133753333Y-45072706D01*
X133750499Y-45046348D01*
X133750499Y-44552129D01*
X133750498Y-44552123D01*
X133750497Y-44552116D01*
X133744091Y-44492517D01*
X133718326Y-44423438D01*
X133693797Y-44357671D01*
X133693793Y-44357664D01*
X133607547Y-44242455D01*
X133607544Y-44242452D01*
X133492335Y-44156206D01*
X133492328Y-44156202D01*
X133357482Y-44105908D01*
X133357483Y-44105908D01*
X133297883Y-44099501D01*
X133297881Y-44099500D01*
X133297873Y-44099500D01*
X133297864Y-44099500D01*
X131702129Y-44099500D01*
X131702123Y-44099501D01*
X131642516Y-44105908D01*
X131507671Y-44156202D01*
X131507664Y-44156206D01*
X131392455Y-44242452D01*
X131392452Y-44242455D01*
X131306206Y-44357664D01*
X131306202Y-44357671D01*
X131255908Y-44492517D01*
X131253351Y-44516305D01*
X131249501Y-44552123D01*
X131249500Y-44552135D01*
X131249500Y-45547870D01*
X131249501Y-45547876D01*
X131255908Y-45607483D01*
X131306202Y-45742328D01*
X131306206Y-45742335D01*
X131392452Y-45857544D01*
X131392455Y-45857547D01*
X131507664Y-45943793D01*
X131507671Y-45943797D01*
X131552618Y-45960561D01*
X131642517Y-45994091D01*
X131702127Y-46000500D01*
X132196348Y-46000499D01*
X132263387Y-46020183D01*
X132284029Y-46036818D01*
X133124645Y-46877434D01*
X133440190Y-47192978D01*
X133473675Y-47254301D01*
X133468691Y-47323993D01*
X133426819Y-47379926D01*
X133361355Y-47404343D01*
X133339256Y-47403949D01*
X133325686Y-47402490D01*
X133297873Y-47399500D01*
X133297867Y-47399500D01*
X131702129Y-47399500D01*
X131702123Y-47399501D01*
X131642516Y-47405908D01*
X131507671Y-47456202D01*
X131507668Y-47456204D01*
X131482872Y-47474767D01*
X131417408Y-47499184D01*
X131408561Y-47499500D01*
X130078651Y-47499500D01*
X130011612Y-47479815D01*
X129990970Y-47463181D01*
X126326614Y-43798825D01*
X126293129Y-43737502D01*
X126298113Y-43667810D01*
X126308758Y-43646045D01*
X126309814Y-43644334D01*
X126364999Y-43477797D01*
X126375500Y-43375009D01*
X126375499Y-40974992D01*
X126364999Y-40872203D01*
X126309814Y-40705666D01*
X126217712Y-40556344D01*
X126093656Y-40432288D01*
X126000888Y-40375069D01*
X125944336Y-40340187D01*
X125944331Y-40340185D01*
X125942862Y-40339698D01*
X125777797Y-40285001D01*
X125777795Y-40285000D01*
X125675010Y-40274500D01*
X125074998Y-40274500D01*
X125074980Y-40274501D01*
X124972203Y-40285000D01*
X124972200Y-40285001D01*
X124805668Y-40340185D01*
X124805663Y-40340187D01*
X124656342Y-40432289D01*
X124532289Y-40556342D01*
X124440187Y-40705663D01*
X124440186Y-40705666D01*
X124385001Y-40872203D01*
X124385001Y-40872204D01*
X124385000Y-40872204D01*
X124374500Y-40974983D01*
X124374500Y-40974996D01*
X124374501Y-43050500D01*
X124354816Y-43117539D01*
X124302013Y-43163294D01*
X124250501Y-43174500D01*
X123076559Y-43174500D01*
X123071524Y-43174295D01*
X123016307Y-43169798D01*
X123016300Y-43169799D01*
X122936079Y-43180729D01*
X122855564Y-43189485D01*
X122854603Y-43189697D01*
X122833943Y-43194538D01*
X122833013Y-43194770D01*
X122833005Y-43194772D01*
X122833004Y-43194773D01*
X122756971Y-43222705D01*
X122680247Y-43248557D01*
X122679268Y-43249010D01*
X122660169Y-43258162D01*
X122659356Y-43258565D01*
X122591104Y-43302192D01*
X122521728Y-43343935D01*
X122520992Y-43344494D01*
X122504300Y-43357542D01*
X122503486Y-43358197D01*
X122446222Y-43415459D01*
X122387428Y-43471153D01*
X122386794Y-43471899D01*
X122372565Y-43489116D01*
X121699830Y-44161852D01*
X121696127Y-44165266D01*
X121653898Y-44201137D01*
X121641036Y-44218056D01*
X121584793Y-44259511D01*
X121515066Y-44263977D01*
X121479204Y-44249743D01*
X121435196Y-44223717D01*
X121435193Y-44223716D01*
X121277494Y-44177900D01*
X121277497Y-44177900D01*
X121275000Y-44177703D01*
X121275000Y-46872295D01*
X121275001Y-46872295D01*
X121277486Y-46872100D01*
X121435198Y-46826281D01*
X121583271Y-46738712D01*
X121584459Y-46740721D01*
X121638602Y-46719452D01*
X121707121Y-46733119D01*
X121716743Y-46739301D01*
X121723135Y-46743081D01*
X121864602Y-46826744D01*
X121864609Y-46826746D01*
X122022426Y-46872597D01*
X122022429Y-46872597D01*
X122022431Y-46872598D01*
X122034722Y-46873565D01*
X122059304Y-46875500D01*
X122059306Y-46875500D01*
X122490696Y-46875500D01*
X122509131Y-46874049D01*
X122527569Y-46872598D01*
X122527571Y-46872597D01*
X122527573Y-46872597D01*
X122600150Y-46851511D01*
X122685398Y-46826744D01*
X122826865Y-46743081D01*
X122826864Y-46743081D01*
X122833580Y-46739110D01*
X122834747Y-46741083D01*
X122889035Y-46719769D01*
X122957553Y-46733448D01*
X122966404Y-46739136D01*
X122966420Y-46739110D01*
X122973135Y-46743081D01*
X123114602Y-46826744D01*
X123114609Y-46826746D01*
X123272426Y-46872597D01*
X123272429Y-46872597D01*
X123272431Y-46872598D01*
X123284722Y-46873565D01*
X123309304Y-46875500D01*
X123309306Y-46875500D01*
X123740696Y-46875500D01*
X123759131Y-46874049D01*
X123777569Y-46872598D01*
X123777571Y-46872597D01*
X123777573Y-46872597D01*
X123935392Y-46826746D01*
X123935392Y-46826745D01*
X123935398Y-46826744D01*
X124002515Y-46787050D01*
X124070235Y-46769869D01*
X124136498Y-46792028D01*
X124153314Y-46806103D01*
X130997391Y-53650180D01*
X131000784Y-53653860D01*
X131018564Y-53674792D01*
X131036663Y-53696101D01*
X131036664Y-53696102D01*
X131072341Y-53723221D01*
X131101118Y-53745097D01*
X131164246Y-53795841D01*
X131164247Y-53795841D01*
X131164248Y-53795842D01*
X131165157Y-53796423D01*
X131183009Y-53807497D01*
X131183928Y-53808050D01*
X131183934Y-53808053D01*
X131183936Y-53808054D01*
X131257452Y-53842066D01*
X131321987Y-53874072D01*
X131373299Y-53921493D01*
X131390828Y-53989128D01*
X131369009Y-54055503D01*
X131314768Y-54099545D01*
X131266793Y-54109160D01*
X119898901Y-54100098D01*
X119831877Y-54080360D01*
X119786165Y-54027520D01*
X119775000Y-53976098D01*
X119775000Y-45775000D01*
X120225000Y-45775000D01*
X120225000Y-46290644D01*
X120227899Y-46327489D01*
X120227900Y-46327495D01*
X120273716Y-46485193D01*
X120273717Y-46485196D01*
X120357314Y-46626552D01*
X120357321Y-46626561D01*
X120473438Y-46742678D01*
X120473447Y-46742685D01*
X120614801Y-46826281D01*
X120772514Y-46872100D01*
X120772511Y-46872100D01*
X120774998Y-46872295D01*
X120775000Y-46872295D01*
X120775000Y-45775000D01*
X120225000Y-45775000D01*
X119775000Y-45775000D01*
X119775000Y-45275000D01*
X120225000Y-45275000D01*
X120775000Y-45275000D01*
X120775000Y-44177703D01*
X120772503Y-44177900D01*
X120614806Y-44223716D01*
X120614803Y-44223717D01*
X120473447Y-44307314D01*
X120473438Y-44307321D01*
X120357321Y-44423438D01*
X120357314Y-44423447D01*
X120273717Y-44564803D01*
X120273716Y-44564806D01*
X120227900Y-44722504D01*
X120227899Y-44722510D01*
X120225000Y-44759356D01*
X120225000Y-45275000D01*
X119775000Y-45275000D01*
X119775000Y-44060106D01*
X119794685Y-43993067D01*
X119833904Y-43954567D01*
X119893656Y-43917712D01*
X120017712Y-43793656D01*
X120109814Y-43644334D01*
X120164999Y-43477797D01*
X120175500Y-43375009D01*
X120175499Y-40974992D01*
X120164999Y-40872203D01*
X120109814Y-40705666D01*
X120017712Y-40556344D01*
X119893656Y-40432288D01*
X119893652Y-40432285D01*
X119833903Y-40395431D01*
X119787178Y-40343483D01*
X119775000Y-40289893D01*
X119775000Y-39349049D01*
X119794685Y-39282010D01*
X119847489Y-39236255D01*
X119899046Y-39225049D01*
X182376051Y-39249950D01*
G37*
%TD.AperFunction*%
%TD*%
M02*
