%TF.GenerationSoftware,KiCad,Pcbnew,7.0.9*%
%TF.CreationDate,2024-12-12T11:18:18+10:00*%
%TF.ProjectId,RGB LED Mounting Board,52474220-4c45-4442-904d-6f756e74696e,rev?*%
%TF.SameCoordinates,Original*%
%TF.FileFunction,Legend,Bot*%
%TF.FilePolarity,Positive*%
%FSLAX46Y46*%
G04 Gerber Fmt 4.6, Leading zero omitted, Abs format (unit mm)*
G04 Created by KiCad (PCBNEW 7.0.9) date 2024-12-12 11:18:18*
%MOMM*%
%LPD*%
G01*
G04 APERTURE LIST*
%ADD10C,0.150000*%
%ADD11C,0.120000*%
G04 APERTURE END LIST*
D10*
X188679819Y-30891666D02*
X189394104Y-30891666D01*
X189394104Y-30891666D02*
X189536961Y-30844047D01*
X189536961Y-30844047D02*
X189632200Y-30748809D01*
X189632200Y-30748809D02*
X189679819Y-30605952D01*
X189679819Y-30605952D02*
X189679819Y-30510714D01*
X188775057Y-31320238D02*
X188727438Y-31367857D01*
X188727438Y-31367857D02*
X188679819Y-31463095D01*
X188679819Y-31463095D02*
X188679819Y-31701190D01*
X188679819Y-31701190D02*
X188727438Y-31796428D01*
X188727438Y-31796428D02*
X188775057Y-31844047D01*
X188775057Y-31844047D02*
X188870295Y-31891666D01*
X188870295Y-31891666D02*
X188965533Y-31891666D01*
X188965533Y-31891666D02*
X189108390Y-31844047D01*
X189108390Y-31844047D02*
X189679819Y-31272619D01*
X189679819Y-31272619D02*
X189679819Y-31891666D01*
X127908333Y-30154819D02*
X127908333Y-30869104D01*
X127908333Y-30869104D02*
X127955952Y-31011961D01*
X127955952Y-31011961D02*
X128051190Y-31107200D01*
X128051190Y-31107200D02*
X128194047Y-31154819D01*
X128194047Y-31154819D02*
X128289285Y-31154819D01*
X126908333Y-31154819D02*
X127479761Y-31154819D01*
X127194047Y-31154819D02*
X127194047Y-30154819D01*
X127194047Y-30154819D02*
X127289285Y-30297676D01*
X127289285Y-30297676D02*
X127384523Y-30392914D01*
X127384523Y-30392914D02*
X127479761Y-30440533D01*
D11*
%TO.C,J2*%
X186340000Y-29760000D02*
X184740000Y-29760000D01*
X184740000Y-29760000D02*
X184740000Y-27960000D01*
X189210000Y-28490000D02*
X189210000Y-23810000D01*
X184740000Y-27960000D02*
X183800000Y-27960000D01*
X186340000Y-22540000D02*
X184740000Y-22540000D01*
X184740000Y-22540000D02*
X184740000Y-24340000D01*
%TO.C,J1*%
X118590000Y-28815000D02*
X118590000Y-27215000D01*
X118590000Y-27215000D02*
X120390000Y-27215000D01*
X119860000Y-31685000D02*
X124540000Y-31685000D01*
X120390000Y-27215000D02*
X120390000Y-26275000D01*
X125810000Y-28815000D02*
X125810000Y-27215000D01*
X125810000Y-27215000D02*
X124010000Y-27215000D01*
%TD*%
M02*
