%TF.GenerationSoftware,KiCad,Pcbnew,7.0.9*%
%TF.CreationDate,2024-12-12T11:18:18+10:00*%
%TF.ProjectId,RGB LED Mounting Board,52474220-4c45-4442-904d-6f756e74696e,rev?*%
%TF.SameCoordinates,Original*%
%TF.FileFunction,Copper,L1,Top*%
%TF.FilePolarity,Positive*%
%FSLAX46Y46*%
G04 Gerber Fmt 4.6, Leading zero omitted, Abs format (unit mm)*
G04 Created by KiCad (PCBNEW 7.0.9) date 2024-12-12 11:18:18*
%MOMM*%
%LPD*%
G01*
G04 APERTURE LIST*
G04 Aperture macros list*
%AMRoundRect*
0 Rectangle with rounded corners*
0 $1 Rounding radius*
0 $2 $3 $4 $5 $6 $7 $8 $9 X,Y pos of 4 corners*
0 Add a 4 corners polygon primitive as box body*
4,1,4,$2,$3,$4,$5,$6,$7,$8,$9,$2,$3,0*
0 Add four circle primitives for the rounded corners*
1,1,$1+$1,$2,$3*
1,1,$1+$1,$4,$5*
1,1,$1+$1,$6,$7*
1,1,$1+$1,$8,$9*
0 Add four rect primitives between the rounded corners*
20,1,$1+$1,$2,$3,$4,$5,0*
20,1,$1+$1,$4,$5,$6,$7,0*
20,1,$1+$1,$6,$7,$8,$9,0*
20,1,$1+$1,$8,$9,$2,$3,0*%
G04 Aperture macros list end*
%TA.AperFunction,SMDPad,CuDef*%
%ADD10RoundRect,0.250000X-0.625000X0.312500X-0.625000X-0.312500X0.625000X-0.312500X0.625000X0.312500X0*%
%TD*%
%TA.AperFunction,SMDPad,CuDef*%
%ADD11RoundRect,0.250000X-0.325000X-0.650000X0.325000X-0.650000X0.325000X0.650000X-0.325000X0.650000X0*%
%TD*%
%TA.AperFunction,SMDPad,CuDef*%
%ADD12RoundRect,0.250000X1.250000X0.550000X-1.250000X0.550000X-1.250000X-0.550000X1.250000X-0.550000X0*%
%TD*%
%TA.AperFunction,SMDPad,CuDef*%
%ADD13R,1.500000X0.900000*%
%TD*%
%TA.AperFunction,ViaPad*%
%ADD14C,0.800000*%
%TD*%
%TA.AperFunction,Conductor*%
%ADD15C,0.700000*%
%TD*%
G04 APERTURE END LIST*
D10*
%TO.P,R1,1*%
%TO.N,Net-(J1-Pin_2)*%
X129275000Y-26400000D03*
%TO.P,R1,2*%
%TO.N,Net-(D1-DIN)*%
X129275000Y-29325000D03*
%TD*%
D11*
%TO.P,C2,1*%
%TO.N,GND*%
X141025000Y-20600000D03*
%TO.P,C2,2*%
%TO.N,VDD*%
X143975000Y-20600000D03*
%TD*%
D12*
%TO.P,C9,1*%
%TO.N,VDD*%
X125500000Y-21375000D03*
%TO.P,C9,2*%
%TO.N,GND*%
X121100000Y-21375000D03*
%TD*%
D11*
%TO.P,C5,1*%
%TO.N,GND*%
X166000000Y-20600000D03*
%TO.P,C5,2*%
%TO.N,VDD*%
X168950000Y-20600000D03*
%TD*%
D13*
%TO.P,D2,1,VDD*%
%TO.N,VDD*%
X146250000Y-26650000D03*
%TO.P,D2,2,DOUT*%
%TO.N,Net-(D2-DOUT)*%
X146250000Y-23350000D03*
%TO.P,D2,3,VSS*%
%TO.N,GND*%
X141350000Y-23350000D03*
%TO.P,D2,4,DIN*%
%TO.N,Net-(D1-DOUT)*%
X141350000Y-26650000D03*
%TD*%
%TO.P,D6,1,VDD*%
%TO.N,VDD*%
X179450000Y-26650000D03*
%TO.P,D6,2,DOUT*%
%TO.N,Net-(D6-DOUT)*%
X179450000Y-23350000D03*
%TO.P,D6,3,VSS*%
%TO.N,GND*%
X174550000Y-23350000D03*
%TO.P,D6,4,DIN*%
%TO.N,Net-(D5-DOUT)*%
X174550000Y-26650000D03*
%TD*%
D11*
%TO.P,C4,1*%
%TO.N,GND*%
X157675000Y-20600000D03*
%TO.P,C4,2*%
%TO.N,VDD*%
X160625000Y-20600000D03*
%TD*%
%TO.P,C3,1*%
%TO.N,GND*%
X149350000Y-20600000D03*
%TO.P,C3,2*%
%TO.N,VDD*%
X152300000Y-20600000D03*
%TD*%
D13*
%TO.P,D5,1,VDD*%
%TO.N,VDD*%
X171150000Y-26650000D03*
%TO.P,D5,2,DOUT*%
%TO.N,Net-(D5-DOUT)*%
X171150000Y-23350000D03*
%TO.P,D5,3,VSS*%
%TO.N,GND*%
X166250000Y-23350000D03*
%TO.P,D5,4,DIN*%
%TO.N,Net-(D4-DOUT)*%
X166250000Y-26650000D03*
%TD*%
D11*
%TO.P,C1,1*%
%TO.N,GND*%
X132700000Y-20600000D03*
%TO.P,C1,2*%
%TO.N,VDD*%
X135650000Y-20600000D03*
%TD*%
D13*
%TO.P,D1,1,VDD*%
%TO.N,VDD*%
X137950000Y-26650000D03*
%TO.P,D1,2,DOUT*%
%TO.N,Net-(D1-DOUT)*%
X137950000Y-23350000D03*
%TO.P,D1,3,VSS*%
%TO.N,GND*%
X133050000Y-23350000D03*
%TO.P,D1,4,DIN*%
%TO.N,Net-(D1-DIN)*%
X133050000Y-26650000D03*
%TD*%
%TO.P,D3,1,VDD*%
%TO.N,VDD*%
X154550000Y-26650000D03*
%TO.P,D3,2,DOUT*%
%TO.N,Net-(D3-DOUT)*%
X154550000Y-23350000D03*
%TO.P,D3,3,VSS*%
%TO.N,GND*%
X149650000Y-23350000D03*
%TO.P,D3,4,DIN*%
%TO.N,Net-(D2-DOUT)*%
X149650000Y-26650000D03*
%TD*%
%TO.P,D4,1,VDD*%
%TO.N,VDD*%
X162850000Y-26650000D03*
%TO.P,D4,2,DOUT*%
%TO.N,Net-(D4-DOUT)*%
X162850000Y-23350000D03*
%TO.P,D4,3,VSS*%
%TO.N,GND*%
X157950000Y-23350000D03*
%TO.P,D4,4,DIN*%
%TO.N,Net-(D3-DOUT)*%
X157950000Y-26650000D03*
%TD*%
D11*
%TO.P,C6,1*%
%TO.N,GND*%
X174325000Y-20600000D03*
%TO.P,C6,2*%
%TO.N,VDD*%
X177275000Y-20600000D03*
%TD*%
D14*
%TO.N,VDD*%
X123425000Y-26775000D03*
%TO.N,GND*%
X120950000Y-26825000D03*
%TO.N,Net-(J1-Pin_2)*%
X122200000Y-27150000D03*
%TO.N,GND*%
X184700000Y-27425000D03*
%TO.N,VDD*%
X184775000Y-24925000D03*
%TO.N,Net-(D6-DOUT)*%
X184750000Y-26225000D03*
%TD*%
D15*
%TO.N,VDD*%
X123425000Y-26775000D02*
X123450000Y-26625000D01*
%TO.N,GND*%
X120900000Y-26825000D02*
X120950000Y-26775000D01*
X120950000Y-26825000D02*
X120900000Y-26825000D01*
X120950000Y-26775000D02*
X120950000Y-26825000D01*
%TO.N,Net-(J1-Pin_2)*%
X122200000Y-27150000D02*
X122200000Y-28325000D01*
%TO.N,GND*%
X129525000Y-31325000D02*
X129550000Y-31300000D01*
X127950000Y-31325000D02*
X129525000Y-31325000D01*
X127162500Y-30537500D02*
X127950000Y-31325000D01*
X119625000Y-27875000D02*
X122287500Y-30537500D01*
X122287500Y-30537500D02*
X127162500Y-30537500D01*
%TO.N,Net-(J1-Pin_2)*%
X122725000Y-28850000D02*
X124000000Y-28850000D01*
X122200000Y-28325000D02*
X122725000Y-28850000D01*
X122200000Y-27125000D02*
X122200000Y-27150000D01*
X124000000Y-28850000D02*
X126450000Y-26400000D01*
X126450000Y-26400000D02*
X129275000Y-26400000D01*
%TO.N,Net-(D1-DIN)*%
X130375000Y-29325000D02*
X133050000Y-26650000D01*
X129275000Y-29325000D02*
X130375000Y-29325000D01*
%TO.N,GND*%
X118650000Y-26189214D02*
X119625000Y-27164214D01*
X118650000Y-21750000D02*
X118650000Y-26189214D01*
X119625000Y-27164214D02*
X119625000Y-27875000D01*
X119025000Y-21375000D02*
X118650000Y-21750000D01*
X121100000Y-21375000D02*
X119025000Y-21375000D01*
X121100000Y-26625000D02*
X120950000Y-26775000D01*
X121100000Y-21375000D02*
X121100000Y-26625000D01*
%TO.N,VDD*%
X123450000Y-23425000D02*
X123425000Y-26775000D01*
X125500000Y-21375000D02*
X123450000Y-23425000D01*
X127175000Y-19700000D02*
X125500000Y-21375000D01*
X127175000Y-18650000D02*
X127175000Y-19700000D01*
X134125000Y-18650000D02*
X127175000Y-18650000D01*
X184775000Y-24925000D02*
X184675000Y-24925000D01*
%TO.N,Net-(D6-DOUT)*%
X184750000Y-26225000D02*
X184775000Y-26175000D01*
X184225000Y-26175000D02*
X184750000Y-26225000D01*
X182275000Y-26175000D02*
X184225000Y-26175000D01*
X179450000Y-23350000D02*
X182275000Y-26175000D01*
%TO.N,VDD*%
X181300000Y-22775000D02*
X183450000Y-24925000D01*
X181300000Y-21400000D02*
X181300000Y-22775000D01*
X183450000Y-24925000D02*
X184775000Y-24925000D01*
X176675000Y-18650000D02*
X178550000Y-18650000D01*
X178550000Y-18650000D02*
X181300000Y-21400000D01*
%TO.N,GND*%
X141025000Y-20600000D02*
X141025000Y-23025000D01*
X149350000Y-20600000D02*
X149350000Y-23050000D01*
X132700000Y-23000000D02*
X133050000Y-23350000D01*
X149350000Y-23050000D02*
X149650000Y-23350000D01*
X131650000Y-21650000D02*
X132700000Y-20600000D01*
X174325000Y-23125000D02*
X174550000Y-23350000D01*
X174325000Y-20600000D02*
X174325000Y-23125000D01*
X132700000Y-20600000D02*
X132700000Y-23000000D01*
X166000000Y-20600000D02*
X166000000Y-23100000D01*
X157675000Y-20600000D02*
X157675000Y-23075000D01*
X141025000Y-23025000D02*
X141350000Y-23350000D01*
X157675000Y-23075000D02*
X157950000Y-23350000D01*
X166000000Y-23100000D02*
X166250000Y-23350000D01*
%TO.N,VDD*%
X160625000Y-24425000D02*
X162850000Y-26650000D01*
X168950000Y-20600000D02*
X168950000Y-24450000D01*
X168950000Y-24450000D02*
X171150000Y-26650000D01*
X168950000Y-20600000D02*
X168950000Y-19425000D01*
X151325000Y-18650000D02*
X159600000Y-18650000D01*
X143975000Y-20600000D02*
X143975000Y-19275000D01*
X152300000Y-20600000D02*
X152300000Y-24400000D01*
X135637500Y-20600000D02*
X135637500Y-24337500D01*
X168175000Y-18650000D02*
X176675000Y-18650000D01*
X135637500Y-24337500D02*
X137950000Y-26650000D01*
X134125000Y-18650000D02*
X134550000Y-19075000D01*
X134550000Y-19512500D02*
X135637500Y-20600000D01*
X177275000Y-20600000D02*
X177275000Y-19250000D01*
X143975000Y-20600000D02*
X143975000Y-24375000D01*
X152300000Y-19625000D02*
X151325000Y-18650000D01*
X152300000Y-20600000D02*
X152300000Y-19625000D01*
X143975000Y-24375000D02*
X146250000Y-26650000D01*
X160625000Y-20600000D02*
X160625000Y-24425000D01*
X143975000Y-19275000D02*
X143350000Y-18650000D01*
X152300000Y-24400000D02*
X154550000Y-26650000D01*
X159600000Y-18650000D02*
X168175000Y-18650000D01*
X134125000Y-18650000D02*
X143350000Y-18650000D01*
X168950000Y-19425000D02*
X168175000Y-18650000D01*
X160625000Y-19675000D02*
X159600000Y-18650000D01*
X143350000Y-18650000D02*
X151325000Y-18650000D01*
X134550000Y-19075000D02*
X134550000Y-19512500D01*
X177275000Y-24475000D02*
X179450000Y-26650000D01*
X177275000Y-19250000D02*
X176675000Y-18650000D01*
X160625000Y-20600000D02*
X160625000Y-19675000D01*
X177275000Y-20600000D02*
X177275000Y-24475000D01*
%TO.N,Net-(D1-DOUT)*%
X138050000Y-23350000D02*
X141350000Y-26650000D01*
X137950000Y-23350000D02*
X138050000Y-23350000D01*
%TO.N,Net-(D2-DOUT)*%
X146250000Y-23350000D02*
X146350000Y-23350000D01*
X146350000Y-23350000D02*
X149650000Y-26650000D01*
%TO.N,Net-(D3-DOUT)*%
X154550000Y-23350000D02*
X154650000Y-23350000D01*
X154650000Y-23350000D02*
X157950000Y-26650000D01*
%TO.N,Net-(D4-DOUT)*%
X162950000Y-23350000D02*
X166250000Y-26650000D01*
X162850000Y-23350000D02*
X162950000Y-23350000D01*
%TO.N,Net-(D5-DOUT)*%
X171250000Y-23350000D02*
X174550000Y-26650000D01*
X171150000Y-23350000D02*
X171250000Y-23350000D01*
%TO.N,Net-(D6-DOUT)*%
X179450000Y-23350000D02*
X180000000Y-23350000D01*
%TD*%
%TA.AperFunction,Conductor*%
%TO.N,GND*%
G36*
X189193039Y-17519685D02*
G01*
X189238794Y-17572489D01*
X189250000Y-17624000D01*
X189250000Y-32276000D01*
X189230315Y-32343039D01*
X189177511Y-32388794D01*
X189126000Y-32400000D01*
X127624000Y-32400000D01*
X127556961Y-32380315D01*
X127511206Y-32327511D01*
X127500000Y-32276000D01*
X127500000Y-29687501D01*
X127899500Y-29687501D01*
X127899501Y-29687519D01*
X127910000Y-29790296D01*
X127910001Y-29790299D01*
X127957798Y-29934539D01*
X127965186Y-29956834D01*
X128057288Y-30106156D01*
X128181344Y-30230212D01*
X128330666Y-30322314D01*
X128497203Y-30377499D01*
X128599991Y-30388000D01*
X129950008Y-30387999D01*
X130052797Y-30377499D01*
X130219334Y-30322314D01*
X130368656Y-30230212D01*
X130392355Y-30206512D01*
X130453676Y-30173026D01*
X130463290Y-30171327D01*
X130471177Y-30170252D01*
X130478396Y-30169270D01*
X130507162Y-30166141D01*
X130558910Y-30160514D01*
X130558914Y-30160512D01*
X130560036Y-30160266D01*
X130580307Y-30155515D01*
X130581462Y-30155228D01*
X130581462Y-30155227D01*
X130581468Y-30155227D01*
X130657486Y-30127299D01*
X130734221Y-30101444D01*
X130734227Y-30101439D01*
X130735351Y-30100920D01*
X130754123Y-30091923D01*
X130755112Y-30091433D01*
X130755116Y-30091432D01*
X130823353Y-30047815D01*
X130892736Y-30006070D01*
X130892741Y-30006065D01*
X130893669Y-30005360D01*
X130910076Y-29992533D01*
X130910986Y-29991802D01*
X130910986Y-29991801D01*
X130910989Y-29991800D01*
X130939618Y-29963170D01*
X130968249Y-29934540D01*
X130999281Y-29905144D01*
X131027041Y-29878849D01*
X131027045Y-29878842D01*
X131027757Y-29878005D01*
X131041904Y-29860883D01*
X133265970Y-27636818D01*
X133327293Y-27603333D01*
X133353651Y-27600499D01*
X133847871Y-27600499D01*
X133847872Y-27600499D01*
X133907483Y-27594091D01*
X134042331Y-27543796D01*
X134157546Y-27457546D01*
X134243796Y-27342331D01*
X134294091Y-27207483D01*
X134300500Y-27147873D01*
X134300499Y-26152128D01*
X134294091Y-26092517D01*
X134275244Y-26041986D01*
X134243797Y-25957671D01*
X134243793Y-25957664D01*
X134157547Y-25842455D01*
X134157544Y-25842452D01*
X134042335Y-25756206D01*
X134042328Y-25756202D01*
X133907482Y-25705908D01*
X133907483Y-25705908D01*
X133847883Y-25699501D01*
X133847881Y-25699500D01*
X133847873Y-25699500D01*
X133847864Y-25699500D01*
X132252129Y-25699500D01*
X132252123Y-25699501D01*
X132192516Y-25705908D01*
X132057671Y-25756202D01*
X132057664Y-25756206D01*
X131942455Y-25842452D01*
X131942452Y-25842455D01*
X131856206Y-25957664D01*
X131856202Y-25957671D01*
X131805908Y-26092517D01*
X131799501Y-26152116D01*
X131799501Y-26152123D01*
X131799500Y-26152135D01*
X131799500Y-26646348D01*
X131779815Y-26713387D01*
X131763181Y-26734029D01*
X130236004Y-28261205D01*
X130174681Y-28294690D01*
X130109319Y-28291230D01*
X130052798Y-28272501D01*
X129950010Y-28262000D01*
X128599998Y-28262000D01*
X128599981Y-28262001D01*
X128497203Y-28272500D01*
X128497200Y-28272501D01*
X128330668Y-28327685D01*
X128330663Y-28327687D01*
X128181342Y-28419789D01*
X128057289Y-28543842D01*
X127965187Y-28693163D01*
X127965186Y-28693166D01*
X127910001Y-28859703D01*
X127910001Y-28859704D01*
X127910000Y-28859704D01*
X127899500Y-28962483D01*
X127899500Y-29687501D01*
X127500000Y-29687501D01*
X127500000Y-27374500D01*
X127519685Y-27307461D01*
X127572489Y-27261706D01*
X127624000Y-27250500D01*
X128075270Y-27250500D01*
X128142309Y-27270185D01*
X128162951Y-27286819D01*
X128181344Y-27305212D01*
X128330666Y-27397314D01*
X128497203Y-27452499D01*
X128599991Y-27463000D01*
X129950008Y-27462999D01*
X130052797Y-27452499D01*
X130219334Y-27397314D01*
X130368656Y-27305212D01*
X130492712Y-27181156D01*
X130584814Y-27031834D01*
X130639999Y-26865297D01*
X130650500Y-26762509D01*
X130650499Y-26037492D01*
X130642344Y-25957664D01*
X130639999Y-25934703D01*
X130639998Y-25934700D01*
X130616769Y-25864599D01*
X130584814Y-25768166D01*
X130492712Y-25618844D01*
X130368656Y-25494788D01*
X130219334Y-25402686D01*
X130052797Y-25347501D01*
X130052795Y-25347500D01*
X129950010Y-25337000D01*
X128599998Y-25337000D01*
X128599981Y-25337001D01*
X128497203Y-25347500D01*
X128497200Y-25347501D01*
X128330668Y-25402685D01*
X128330663Y-25402687D01*
X128181342Y-25494789D01*
X128162951Y-25513181D01*
X128101628Y-25546666D01*
X128075270Y-25549500D01*
X127624000Y-25549500D01*
X127556961Y-25529815D01*
X127511206Y-25477011D01*
X127500000Y-25425500D01*
X127500000Y-23600000D01*
X131800000Y-23600000D01*
X131800000Y-23847844D01*
X131806401Y-23907372D01*
X131806403Y-23907379D01*
X131856645Y-24042086D01*
X131856649Y-24042093D01*
X131942809Y-24157187D01*
X131942812Y-24157190D01*
X132057906Y-24243350D01*
X132057913Y-24243354D01*
X132192620Y-24293596D01*
X132192627Y-24293598D01*
X132252155Y-24299999D01*
X132252172Y-24300000D01*
X132800000Y-24300000D01*
X132800000Y-23600000D01*
X133300000Y-23600000D01*
X133300000Y-24300000D01*
X133847828Y-24300000D01*
X133847844Y-24299999D01*
X133907372Y-24293598D01*
X133907379Y-24293596D01*
X134042086Y-24243354D01*
X134042093Y-24243350D01*
X134157187Y-24157190D01*
X134157190Y-24157187D01*
X134243350Y-24042093D01*
X134243354Y-24042086D01*
X134293596Y-23907379D01*
X134293598Y-23907372D01*
X134299999Y-23847844D01*
X134300000Y-23847827D01*
X134300000Y-23600000D01*
X133300000Y-23600000D01*
X132800000Y-23600000D01*
X131800000Y-23600000D01*
X127500000Y-23600000D01*
X127500000Y-23100000D01*
X131800000Y-23100000D01*
X132800000Y-23100000D01*
X132800000Y-22400000D01*
X133300000Y-22400000D01*
X133300000Y-23100000D01*
X134300000Y-23100000D01*
X134300000Y-22852172D01*
X134299999Y-22852155D01*
X134293598Y-22792627D01*
X134293596Y-22792620D01*
X134243354Y-22657913D01*
X134243350Y-22657906D01*
X134157190Y-22542812D01*
X134157187Y-22542809D01*
X134042093Y-22456649D01*
X134042086Y-22456645D01*
X133907379Y-22406403D01*
X133907372Y-22406401D01*
X133847844Y-22400000D01*
X133300000Y-22400000D01*
X132800000Y-22400000D01*
X132252155Y-22400000D01*
X132192627Y-22406401D01*
X132192620Y-22406403D01*
X132057913Y-22456645D01*
X132057906Y-22456649D01*
X131942812Y-22542809D01*
X131942809Y-22542812D01*
X131856649Y-22657906D01*
X131856645Y-22657913D01*
X131806403Y-22792620D01*
X131806401Y-22792627D01*
X131800000Y-22852155D01*
X131800000Y-23100000D01*
X127500000Y-23100000D01*
X127500000Y-21983063D01*
X127500322Y-21976754D01*
X127500499Y-21975020D01*
X127500499Y-21975018D01*
X127500500Y-21975009D01*
X127500499Y-20850000D01*
X131625001Y-20850000D01*
X131625001Y-21299986D01*
X131635494Y-21402697D01*
X131690641Y-21569119D01*
X131690643Y-21569124D01*
X131782684Y-21718345D01*
X131906654Y-21842315D01*
X132055875Y-21934356D01*
X132055880Y-21934358D01*
X132222302Y-21989505D01*
X132222309Y-21989506D01*
X132325019Y-21999999D01*
X132449999Y-21999999D01*
X132450000Y-21999998D01*
X132450000Y-20850000D01*
X132950000Y-20850000D01*
X132950000Y-21999999D01*
X133074972Y-21999999D01*
X133074986Y-21999998D01*
X133177697Y-21989505D01*
X133344119Y-21934358D01*
X133344124Y-21934356D01*
X133493345Y-21842315D01*
X133617315Y-21718345D01*
X133709356Y-21569124D01*
X133709358Y-21569119D01*
X133764505Y-21402697D01*
X133764506Y-21402690D01*
X133774999Y-21299986D01*
X133775000Y-21299973D01*
X133775000Y-20850000D01*
X132950000Y-20850000D01*
X132450000Y-20850000D01*
X131625001Y-20850000D01*
X127500499Y-20850000D01*
X127500499Y-20774992D01*
X127500321Y-20773246D01*
X127500000Y-20766944D01*
X127500000Y-20629149D01*
X127519685Y-20562110D01*
X127536315Y-20541471D01*
X127750185Y-20327601D01*
X127753854Y-20324219D01*
X127796100Y-20288337D01*
X127845104Y-20223872D01*
X127895842Y-20160753D01*
X127895842Y-20160751D01*
X127895844Y-20160750D01*
X127896432Y-20159829D01*
X127907426Y-20142105D01*
X127908050Y-20141069D01*
X127908054Y-20141064D01*
X127942055Y-20067570D01*
X127978037Y-19995021D01*
X127978037Y-19995017D01*
X127978440Y-19993923D01*
X127985329Y-19974361D01*
X127985727Y-19973177D01*
X127985732Y-19973167D01*
X128003139Y-19894083D01*
X128022684Y-19815494D01*
X128022684Y-19815492D01*
X128022833Y-19814400D01*
X128025371Y-19793677D01*
X128025500Y-19792497D01*
X128025500Y-19711530D01*
X128027875Y-19623847D01*
X128030224Y-19623910D01*
X128042203Y-19566137D01*
X128091125Y-19516253D01*
X128151610Y-19500500D01*
X131562125Y-19500500D01*
X131629164Y-19520185D01*
X131674919Y-19572989D01*
X131684863Y-19642147D01*
X131679831Y-19663504D01*
X131635494Y-19797302D01*
X131635493Y-19797309D01*
X131625000Y-19900013D01*
X131625000Y-20350000D01*
X133774999Y-20350000D01*
X133774999Y-20242289D01*
X133794684Y-20175250D01*
X133847488Y-20129495D01*
X133916646Y-20119551D01*
X133980202Y-20148576D01*
X133989012Y-20157004D01*
X133996151Y-20164541D01*
X133996154Y-20164543D01*
X133996155Y-20164544D01*
X133996983Y-20165247D01*
X134014119Y-20179408D01*
X134538181Y-20703470D01*
X134571666Y-20764793D01*
X134574500Y-20791151D01*
X134574500Y-21300001D01*
X134574501Y-21300019D01*
X134585000Y-21402796D01*
X134585001Y-21402799D01*
X134640115Y-21569119D01*
X134640186Y-21569334D01*
X134732096Y-21718345D01*
X134732289Y-21718657D01*
X134750681Y-21737049D01*
X134784166Y-21798372D01*
X134787000Y-21824730D01*
X134787000Y-24300411D01*
X134786795Y-24305445D01*
X134782298Y-24360663D01*
X134793229Y-24440892D01*
X134801986Y-24521413D01*
X134802210Y-24522430D01*
X134807025Y-24542973D01*
X134807273Y-24543970D01*
X134831131Y-24608910D01*
X134835200Y-24619986D01*
X134856259Y-24682486D01*
X134861057Y-24696723D01*
X134861501Y-24697685D01*
X134870646Y-24716766D01*
X134871064Y-24717609D01*
X134871067Y-24717614D01*
X134871068Y-24717616D01*
X134904033Y-24769189D01*
X134914684Y-24785853D01*
X134956430Y-24855236D01*
X134957038Y-24856036D01*
X134970078Y-24872716D01*
X134970701Y-24873491D01*
X135027958Y-24930748D01*
X135083650Y-24989540D01*
X135084510Y-24990271D01*
X135101623Y-25004411D01*
X136663181Y-26565969D01*
X136696666Y-26627292D01*
X136699500Y-26653650D01*
X136699500Y-27147870D01*
X136699501Y-27147876D01*
X136705908Y-27207483D01*
X136756202Y-27342328D01*
X136756206Y-27342335D01*
X136842452Y-27457544D01*
X136842455Y-27457547D01*
X136957664Y-27543793D01*
X136957671Y-27543797D01*
X137092517Y-27594091D01*
X137092516Y-27594091D01*
X137099444Y-27594835D01*
X137152127Y-27600500D01*
X138747872Y-27600499D01*
X138807483Y-27594091D01*
X138942331Y-27543796D01*
X139057546Y-27457546D01*
X139143796Y-27342331D01*
X139194091Y-27207483D01*
X139200500Y-27147873D01*
X139200499Y-26152128D01*
X139194091Y-26092517D01*
X139194091Y-26092516D01*
X139157949Y-25995614D01*
X139152965Y-25925922D01*
X139186450Y-25864599D01*
X139247774Y-25831115D01*
X139317465Y-25836100D01*
X139361812Y-25864600D01*
X140063181Y-26565969D01*
X140096666Y-26627292D01*
X140099500Y-26653650D01*
X140099500Y-27147870D01*
X140099501Y-27147876D01*
X140105908Y-27207483D01*
X140156202Y-27342328D01*
X140156206Y-27342335D01*
X140242452Y-27457544D01*
X140242455Y-27457547D01*
X140357664Y-27543793D01*
X140357671Y-27543797D01*
X140492517Y-27594091D01*
X140492516Y-27594091D01*
X140499444Y-27594835D01*
X140552127Y-27600500D01*
X142147872Y-27600499D01*
X142207483Y-27594091D01*
X142342331Y-27543796D01*
X142457546Y-27457546D01*
X142543796Y-27342331D01*
X142594091Y-27207483D01*
X142600500Y-27147873D01*
X142600499Y-26152128D01*
X142594091Y-26092517D01*
X142575244Y-26041986D01*
X142543797Y-25957671D01*
X142543793Y-25957664D01*
X142457547Y-25842455D01*
X142457544Y-25842452D01*
X142342335Y-25756206D01*
X142342328Y-25756202D01*
X142207482Y-25705908D01*
X142207483Y-25705908D01*
X142147883Y-25699501D01*
X142147881Y-25699500D01*
X142147873Y-25699500D01*
X142147865Y-25699500D01*
X141653651Y-25699500D01*
X141586612Y-25679815D01*
X141565970Y-25663181D01*
X140409244Y-24506455D01*
X140375759Y-24445132D01*
X140380743Y-24375440D01*
X140422615Y-24319507D01*
X140488079Y-24295090D01*
X140510184Y-24295485D01*
X140552163Y-24299999D01*
X140552172Y-24300000D01*
X141100000Y-24300000D01*
X141100000Y-23600000D01*
X141600000Y-23600000D01*
X141600000Y-24300000D01*
X142147828Y-24300000D01*
X142147844Y-24299999D01*
X142207372Y-24293598D01*
X142207379Y-24293596D01*
X142342086Y-24243354D01*
X142342093Y-24243350D01*
X142457187Y-24157190D01*
X142457190Y-24157187D01*
X142543350Y-24042093D01*
X142543354Y-24042086D01*
X142593596Y-23907379D01*
X142593598Y-23907372D01*
X142599999Y-23847844D01*
X142600000Y-23847827D01*
X142600000Y-23600000D01*
X141600000Y-23600000D01*
X141100000Y-23600000D01*
X140100000Y-23600000D01*
X140100000Y-23847844D01*
X140104514Y-23889818D01*
X140092110Y-23958577D01*
X140044500Y-24009715D01*
X139976800Y-24026995D01*
X139910506Y-24004931D01*
X139893544Y-23990755D01*
X139236818Y-23334029D01*
X139203333Y-23272706D01*
X139200499Y-23246348D01*
X139200499Y-23100000D01*
X140100000Y-23100000D01*
X141100000Y-23100000D01*
X141100000Y-22400000D01*
X141600000Y-22400000D01*
X141600000Y-23100000D01*
X142600000Y-23100000D01*
X142600000Y-22852172D01*
X142599999Y-22852155D01*
X142593598Y-22792627D01*
X142593596Y-22792620D01*
X142543354Y-22657913D01*
X142543350Y-22657906D01*
X142457190Y-22542812D01*
X142457187Y-22542809D01*
X142342093Y-22456649D01*
X142342086Y-22456645D01*
X142207379Y-22406403D01*
X142207372Y-22406401D01*
X142147844Y-22400000D01*
X141600000Y-22400000D01*
X141100000Y-22400000D01*
X140552155Y-22400000D01*
X140492627Y-22406401D01*
X140492620Y-22406403D01*
X140357913Y-22456645D01*
X140357906Y-22456649D01*
X140242812Y-22542809D01*
X140242809Y-22542812D01*
X140156649Y-22657906D01*
X140156645Y-22657913D01*
X140106403Y-22792620D01*
X140106401Y-22792627D01*
X140100000Y-22852155D01*
X140100000Y-23100000D01*
X139200499Y-23100000D01*
X139200499Y-22852129D01*
X139200498Y-22852123D01*
X139194091Y-22792516D01*
X139143797Y-22657671D01*
X139143793Y-22657664D01*
X139057547Y-22542455D01*
X139057544Y-22542452D01*
X138942335Y-22456206D01*
X138942328Y-22456202D01*
X138807482Y-22405908D01*
X138807483Y-22405908D01*
X138747883Y-22399501D01*
X138747881Y-22399500D01*
X138747873Y-22399500D01*
X138747864Y-22399500D01*
X137152129Y-22399500D01*
X137152123Y-22399501D01*
X137092516Y-22405908D01*
X136957671Y-22456202D01*
X136957664Y-22456206D01*
X136842455Y-22542452D01*
X136842452Y-22542455D01*
X136756206Y-22657664D01*
X136756202Y-22657671D01*
X136728182Y-22732799D01*
X136686311Y-22788733D01*
X136620847Y-22813150D01*
X136552574Y-22798299D01*
X136503168Y-22748893D01*
X136488000Y-22689466D01*
X136488000Y-21849730D01*
X136507685Y-21782691D01*
X136524319Y-21762049D01*
X136536819Y-21749549D01*
X136567712Y-21718656D01*
X136659814Y-21569334D01*
X136714999Y-21402797D01*
X136725500Y-21300009D01*
X136725500Y-20850000D01*
X139950001Y-20850000D01*
X139950001Y-21299986D01*
X139960494Y-21402697D01*
X140015641Y-21569119D01*
X140015643Y-21569124D01*
X140107684Y-21718345D01*
X140231654Y-21842315D01*
X140380875Y-21934356D01*
X140380880Y-21934358D01*
X140547302Y-21989505D01*
X140547309Y-21989506D01*
X140650019Y-21999999D01*
X140774999Y-21999999D01*
X140775000Y-21999998D01*
X140775000Y-20850000D01*
X141275000Y-20850000D01*
X141275000Y-21999999D01*
X141399972Y-21999999D01*
X141399986Y-21999998D01*
X141502697Y-21989505D01*
X141669119Y-21934358D01*
X141669124Y-21934356D01*
X141818345Y-21842315D01*
X141942315Y-21718345D01*
X142034356Y-21569124D01*
X142034358Y-21569119D01*
X142089505Y-21402697D01*
X142089506Y-21402690D01*
X142099999Y-21299986D01*
X142100000Y-21299973D01*
X142100000Y-20850000D01*
X141275000Y-20850000D01*
X140775000Y-20850000D01*
X139950001Y-20850000D01*
X136725500Y-20850000D01*
X136725499Y-19899992D01*
X136724895Y-19894083D01*
X136714999Y-19797203D01*
X136689074Y-19718968D01*
X136670694Y-19663502D01*
X136668293Y-19593676D01*
X136704024Y-19533634D01*
X136766545Y-19502441D01*
X136788401Y-19500500D01*
X139887125Y-19500500D01*
X139954164Y-19520185D01*
X139999919Y-19572989D01*
X140009863Y-19642147D01*
X140004831Y-19663504D01*
X139960494Y-19797302D01*
X139960493Y-19797309D01*
X139950000Y-19900013D01*
X139950000Y-20350000D01*
X142099999Y-20350000D01*
X142099999Y-19900028D01*
X142099998Y-19900013D01*
X142089505Y-19797302D01*
X142045169Y-19663504D01*
X142042767Y-19593676D01*
X142078499Y-19533634D01*
X142141019Y-19502441D01*
X142162875Y-19500500D01*
X142836599Y-19500500D01*
X142903638Y-19520185D01*
X142949393Y-19572989D01*
X142959337Y-19642147D01*
X142954306Y-19663499D01*
X142910001Y-19797203D01*
X142910001Y-19797204D01*
X142910000Y-19797204D01*
X142899500Y-19899983D01*
X142899500Y-21300001D01*
X142899501Y-21300018D01*
X142910000Y-21402796D01*
X142910001Y-21402799D01*
X142965115Y-21569119D01*
X142965186Y-21569334D01*
X143057096Y-21718345D01*
X143057289Y-21718657D01*
X143088181Y-21749549D01*
X143121666Y-21810872D01*
X143124500Y-21837230D01*
X143124500Y-24337911D01*
X143124295Y-24342945D01*
X143119798Y-24398163D01*
X143130729Y-24478392D01*
X143139486Y-24558913D01*
X143139710Y-24559930D01*
X143144525Y-24580473D01*
X143144773Y-24581470D01*
X143171960Y-24655473D01*
X143172700Y-24657486D01*
X143197971Y-24732486D01*
X143198557Y-24734223D01*
X143199001Y-24735185D01*
X143208146Y-24754266D01*
X143208564Y-24755109D01*
X143208567Y-24755114D01*
X143208568Y-24755116D01*
X143227173Y-24784223D01*
X143252184Y-24823353D01*
X143293930Y-24892736D01*
X143294538Y-24893536D01*
X143307578Y-24910216D01*
X143308201Y-24910991D01*
X143365458Y-24968248D01*
X143421150Y-25027040D01*
X143422010Y-25027771D01*
X143439123Y-25041911D01*
X144963181Y-26565969D01*
X144996666Y-26627292D01*
X144999500Y-26653650D01*
X144999500Y-27147870D01*
X144999501Y-27147876D01*
X145005908Y-27207483D01*
X145056202Y-27342328D01*
X145056206Y-27342335D01*
X145142452Y-27457544D01*
X145142455Y-27457547D01*
X145257664Y-27543793D01*
X145257671Y-27543797D01*
X145392517Y-27594091D01*
X145392516Y-27594091D01*
X145399444Y-27594835D01*
X145452127Y-27600500D01*
X147047872Y-27600499D01*
X147107483Y-27594091D01*
X147242331Y-27543796D01*
X147357546Y-27457546D01*
X147443796Y-27342331D01*
X147494091Y-27207483D01*
X147500500Y-27147873D01*
X147500499Y-26152128D01*
X147494091Y-26092517D01*
X147494091Y-26092516D01*
X147457949Y-25995614D01*
X147452965Y-25925922D01*
X147486450Y-25864599D01*
X147547774Y-25831115D01*
X147617465Y-25836100D01*
X147661812Y-25864600D01*
X148363181Y-26565969D01*
X148396666Y-26627292D01*
X148399500Y-26653650D01*
X148399500Y-27147870D01*
X148399501Y-27147876D01*
X148405908Y-27207483D01*
X148456202Y-27342328D01*
X148456206Y-27342335D01*
X148542452Y-27457544D01*
X148542455Y-27457547D01*
X148657664Y-27543793D01*
X148657671Y-27543797D01*
X148792517Y-27594091D01*
X148792516Y-27594091D01*
X148799444Y-27594835D01*
X148852127Y-27600500D01*
X150447872Y-27600499D01*
X150507483Y-27594091D01*
X150642331Y-27543796D01*
X150757546Y-27457546D01*
X150843796Y-27342331D01*
X150894091Y-27207483D01*
X150900500Y-27147873D01*
X150900499Y-26152128D01*
X150894091Y-26092517D01*
X150875244Y-26041986D01*
X150843797Y-25957671D01*
X150843793Y-25957664D01*
X150757547Y-25842455D01*
X150757544Y-25842452D01*
X150642335Y-25756206D01*
X150642328Y-25756202D01*
X150507482Y-25705908D01*
X150507483Y-25705908D01*
X150447883Y-25699501D01*
X150447881Y-25699500D01*
X150447873Y-25699500D01*
X150447865Y-25699500D01*
X149953651Y-25699500D01*
X149886612Y-25679815D01*
X149865970Y-25663181D01*
X148709244Y-24506455D01*
X148675759Y-24445132D01*
X148680743Y-24375440D01*
X148722615Y-24319507D01*
X148788079Y-24295090D01*
X148810184Y-24295485D01*
X148852163Y-24299999D01*
X148852172Y-24300000D01*
X149400000Y-24300000D01*
X149400000Y-23600000D01*
X149900000Y-23600000D01*
X149900000Y-24300000D01*
X150447828Y-24300000D01*
X150447844Y-24299999D01*
X150507372Y-24293598D01*
X150507379Y-24293596D01*
X150642086Y-24243354D01*
X150642093Y-24243350D01*
X150757187Y-24157190D01*
X150757190Y-24157187D01*
X150843350Y-24042093D01*
X150843354Y-24042086D01*
X150893596Y-23907379D01*
X150893598Y-23907372D01*
X150899999Y-23847844D01*
X150900000Y-23847827D01*
X150900000Y-23600000D01*
X149900000Y-23600000D01*
X149400000Y-23600000D01*
X148400000Y-23600000D01*
X148400000Y-23847844D01*
X148404514Y-23889818D01*
X148392110Y-23958577D01*
X148344500Y-24009715D01*
X148276800Y-24026995D01*
X148210506Y-24004931D01*
X148193544Y-23990755D01*
X147536818Y-23334029D01*
X147503333Y-23272706D01*
X147500499Y-23246348D01*
X147500499Y-23100000D01*
X148400000Y-23100000D01*
X149400000Y-23100000D01*
X149400000Y-22400000D01*
X149900000Y-22400000D01*
X149900000Y-23100000D01*
X150900000Y-23100000D01*
X150900000Y-22852172D01*
X150899999Y-22852155D01*
X150893598Y-22792627D01*
X150893596Y-22792620D01*
X150843354Y-22657913D01*
X150843350Y-22657906D01*
X150757190Y-22542812D01*
X150757187Y-22542809D01*
X150642093Y-22456649D01*
X150642086Y-22456645D01*
X150507379Y-22406403D01*
X150507372Y-22406401D01*
X150447844Y-22400000D01*
X149900000Y-22400000D01*
X149400000Y-22400000D01*
X148852155Y-22400000D01*
X148792627Y-22406401D01*
X148792620Y-22406403D01*
X148657913Y-22456645D01*
X148657906Y-22456649D01*
X148542812Y-22542809D01*
X148542809Y-22542812D01*
X148456649Y-22657906D01*
X148456645Y-22657913D01*
X148406403Y-22792620D01*
X148406401Y-22792627D01*
X148400000Y-22852155D01*
X148400000Y-23100000D01*
X147500499Y-23100000D01*
X147500499Y-22852129D01*
X147500498Y-22852123D01*
X147494091Y-22792516D01*
X147443797Y-22657671D01*
X147443793Y-22657664D01*
X147357547Y-22542455D01*
X147357544Y-22542452D01*
X147242335Y-22456206D01*
X147242328Y-22456202D01*
X147107482Y-22405908D01*
X147107483Y-22405908D01*
X147047883Y-22399501D01*
X147047881Y-22399500D01*
X147047873Y-22399500D01*
X147047864Y-22399500D01*
X145452129Y-22399500D01*
X145452123Y-22399501D01*
X145392516Y-22405908D01*
X145257671Y-22456202D01*
X145257664Y-22456206D01*
X145142455Y-22542452D01*
X145142452Y-22542455D01*
X145050888Y-22664769D01*
X145048855Y-22663247D01*
X145008925Y-22703177D01*
X144940652Y-22718028D01*
X144875188Y-22693610D01*
X144833318Y-22637676D01*
X144825500Y-22594344D01*
X144825500Y-21837230D01*
X144845185Y-21770191D01*
X144861819Y-21749549D01*
X144874319Y-21737049D01*
X144892712Y-21718656D01*
X144984814Y-21569334D01*
X145039999Y-21402797D01*
X145050500Y-21300009D01*
X145050500Y-20850000D01*
X148275001Y-20850000D01*
X148275001Y-21299986D01*
X148285494Y-21402697D01*
X148340641Y-21569119D01*
X148340643Y-21569124D01*
X148432684Y-21718345D01*
X148556654Y-21842315D01*
X148705875Y-21934356D01*
X148705880Y-21934358D01*
X148872302Y-21989505D01*
X148872309Y-21989506D01*
X148975019Y-21999999D01*
X149099999Y-21999999D01*
X149100000Y-21999998D01*
X149100000Y-20850000D01*
X149600000Y-20850000D01*
X149600000Y-21999999D01*
X149724972Y-21999999D01*
X149724986Y-21999998D01*
X149827697Y-21989505D01*
X149994119Y-21934358D01*
X149994124Y-21934356D01*
X150143345Y-21842315D01*
X150267315Y-21718345D01*
X150359356Y-21569124D01*
X150359358Y-21569119D01*
X150414505Y-21402697D01*
X150414506Y-21402690D01*
X150424999Y-21299986D01*
X150425000Y-21299973D01*
X150425000Y-20850000D01*
X149600000Y-20850000D01*
X149100000Y-20850000D01*
X148275001Y-20850000D01*
X145050500Y-20850000D01*
X145050499Y-19899992D01*
X145049895Y-19894083D01*
X145039999Y-19797203D01*
X145014074Y-19718968D01*
X144995694Y-19663502D01*
X144993293Y-19593676D01*
X145029024Y-19533634D01*
X145091545Y-19502441D01*
X145113401Y-19500500D01*
X148212125Y-19500500D01*
X148279164Y-19520185D01*
X148324919Y-19572989D01*
X148334863Y-19642147D01*
X148329831Y-19663504D01*
X148285494Y-19797302D01*
X148285493Y-19797309D01*
X148275000Y-19900013D01*
X148275000Y-20350000D01*
X150424999Y-20350000D01*
X150424999Y-19900028D01*
X150424998Y-19900013D01*
X150414505Y-19797302D01*
X150370169Y-19663504D01*
X150367767Y-19593676D01*
X150403499Y-19533634D01*
X150466019Y-19502441D01*
X150487875Y-19500500D01*
X150921349Y-19500500D01*
X150988388Y-19520185D01*
X151009030Y-19536819D01*
X151196525Y-19724314D01*
X151230010Y-19785637D01*
X151232202Y-19824597D01*
X151224500Y-19899981D01*
X151224500Y-21300001D01*
X151224501Y-21300018D01*
X151235000Y-21402796D01*
X151235001Y-21402799D01*
X151290115Y-21569119D01*
X151290186Y-21569334D01*
X151382096Y-21718345D01*
X151382289Y-21718657D01*
X151413181Y-21749549D01*
X151446666Y-21810872D01*
X151449500Y-21837230D01*
X151449500Y-24362911D01*
X151449295Y-24367945D01*
X151444798Y-24423163D01*
X151455729Y-24503392D01*
X151464486Y-24583913D01*
X151464710Y-24584930D01*
X151469525Y-24605473D01*
X151469773Y-24606470D01*
X151496960Y-24680473D01*
X151497700Y-24682486D01*
X151522971Y-24757486D01*
X151523557Y-24759223D01*
X151524001Y-24760185D01*
X151533146Y-24779266D01*
X151533564Y-24780109D01*
X151533567Y-24780114D01*
X151533568Y-24780116D01*
X151564984Y-24829266D01*
X151577184Y-24848353D01*
X151618930Y-24917736D01*
X151619538Y-24918536D01*
X151632578Y-24935216D01*
X151633201Y-24935991D01*
X151690458Y-24993248D01*
X151746150Y-25052040D01*
X151747010Y-25052771D01*
X151764123Y-25066911D01*
X153263181Y-26565969D01*
X153296666Y-26627292D01*
X153299500Y-26653650D01*
X153299500Y-27147870D01*
X153299501Y-27147876D01*
X153305908Y-27207483D01*
X153356202Y-27342328D01*
X153356206Y-27342335D01*
X153442452Y-27457544D01*
X153442455Y-27457547D01*
X153557664Y-27543793D01*
X153557671Y-27543797D01*
X153692517Y-27594091D01*
X153692516Y-27594091D01*
X153699444Y-27594835D01*
X153752127Y-27600500D01*
X155347872Y-27600499D01*
X155407483Y-27594091D01*
X155542331Y-27543796D01*
X155657546Y-27457546D01*
X155743796Y-27342331D01*
X155794091Y-27207483D01*
X155800500Y-27147873D01*
X155800499Y-26152128D01*
X155794091Y-26092517D01*
X155794091Y-26092516D01*
X155757949Y-25995614D01*
X155752965Y-25925922D01*
X155786450Y-25864599D01*
X155847774Y-25831115D01*
X155917465Y-25836100D01*
X155961812Y-25864600D01*
X156663181Y-26565969D01*
X156696666Y-26627292D01*
X156699500Y-26653650D01*
X156699500Y-27147870D01*
X156699501Y-27147876D01*
X156705908Y-27207483D01*
X156756202Y-27342328D01*
X156756206Y-27342335D01*
X156842452Y-27457544D01*
X156842455Y-27457547D01*
X156957664Y-27543793D01*
X156957671Y-27543797D01*
X157092517Y-27594091D01*
X157092516Y-27594091D01*
X157099444Y-27594835D01*
X157152127Y-27600500D01*
X158747872Y-27600499D01*
X158807483Y-27594091D01*
X158942331Y-27543796D01*
X159057546Y-27457546D01*
X159143796Y-27342331D01*
X159194091Y-27207483D01*
X159200500Y-27147873D01*
X159200499Y-26152128D01*
X159194091Y-26092517D01*
X159175244Y-26041986D01*
X159143797Y-25957671D01*
X159143793Y-25957664D01*
X159057547Y-25842455D01*
X159057544Y-25842452D01*
X158942335Y-25756206D01*
X158942328Y-25756202D01*
X158807482Y-25705908D01*
X158807483Y-25705908D01*
X158747883Y-25699501D01*
X158747881Y-25699500D01*
X158747873Y-25699500D01*
X158747865Y-25699500D01*
X158253651Y-25699500D01*
X158186612Y-25679815D01*
X158165970Y-25663181D01*
X157009244Y-24506455D01*
X156975759Y-24445132D01*
X156980743Y-24375440D01*
X157022615Y-24319507D01*
X157088079Y-24295090D01*
X157110184Y-24295485D01*
X157152163Y-24299999D01*
X157152172Y-24300000D01*
X157700000Y-24300000D01*
X157700000Y-23600000D01*
X158200000Y-23600000D01*
X158200000Y-24300000D01*
X158747828Y-24300000D01*
X158747844Y-24299999D01*
X158807372Y-24293598D01*
X158807379Y-24293596D01*
X158942086Y-24243354D01*
X158942093Y-24243350D01*
X159057187Y-24157190D01*
X159057190Y-24157187D01*
X159143350Y-24042093D01*
X159143354Y-24042086D01*
X159193596Y-23907379D01*
X159193598Y-23907372D01*
X159199999Y-23847844D01*
X159200000Y-23847827D01*
X159200000Y-23600000D01*
X158200000Y-23600000D01*
X157700000Y-23600000D01*
X156700000Y-23600000D01*
X156700000Y-23847844D01*
X156704514Y-23889818D01*
X156692110Y-23958577D01*
X156644500Y-24009715D01*
X156576800Y-24026995D01*
X156510506Y-24004931D01*
X156493544Y-23990755D01*
X155836818Y-23334029D01*
X155803333Y-23272706D01*
X155800499Y-23246348D01*
X155800499Y-23100000D01*
X156700000Y-23100000D01*
X157700000Y-23100000D01*
X157700000Y-22400000D01*
X158200000Y-22400000D01*
X158200000Y-23100000D01*
X159200000Y-23100000D01*
X159200000Y-22852172D01*
X159199999Y-22852155D01*
X159193598Y-22792627D01*
X159193596Y-22792620D01*
X159143354Y-22657913D01*
X159143350Y-22657906D01*
X159057190Y-22542812D01*
X159057187Y-22542809D01*
X158942093Y-22456649D01*
X158942086Y-22456645D01*
X158807379Y-22406403D01*
X158807372Y-22406401D01*
X158747844Y-22400000D01*
X158200000Y-22400000D01*
X157700000Y-22400000D01*
X157152155Y-22400000D01*
X157092627Y-22406401D01*
X157092620Y-22406403D01*
X156957913Y-22456645D01*
X156957906Y-22456649D01*
X156842812Y-22542809D01*
X156842809Y-22542812D01*
X156756649Y-22657906D01*
X156756645Y-22657913D01*
X156706403Y-22792620D01*
X156706401Y-22792627D01*
X156700000Y-22852155D01*
X156700000Y-23100000D01*
X155800499Y-23100000D01*
X155800499Y-22852129D01*
X155800498Y-22852123D01*
X155794091Y-22792516D01*
X155743797Y-22657671D01*
X155743793Y-22657664D01*
X155657547Y-22542455D01*
X155657544Y-22542452D01*
X155542335Y-22456206D01*
X155542328Y-22456202D01*
X155407482Y-22405908D01*
X155407483Y-22405908D01*
X155347883Y-22399501D01*
X155347881Y-22399500D01*
X155347873Y-22399500D01*
X155347864Y-22399500D01*
X153752129Y-22399500D01*
X153752123Y-22399501D01*
X153692516Y-22405908D01*
X153557671Y-22456202D01*
X153557664Y-22456206D01*
X153442455Y-22542452D01*
X153442452Y-22542455D01*
X153373766Y-22634208D01*
X153317832Y-22676079D01*
X153248141Y-22681063D01*
X153186818Y-22647577D01*
X153153334Y-22586254D01*
X153150500Y-22559897D01*
X153150500Y-21837230D01*
X153170185Y-21770191D01*
X153186819Y-21749549D01*
X153199319Y-21737049D01*
X153217712Y-21718656D01*
X153309814Y-21569334D01*
X153364999Y-21402797D01*
X153375500Y-21300009D01*
X153375500Y-20850000D01*
X156600001Y-20850000D01*
X156600001Y-21299986D01*
X156610494Y-21402697D01*
X156665641Y-21569119D01*
X156665643Y-21569124D01*
X156757684Y-21718345D01*
X156881654Y-21842315D01*
X157030875Y-21934356D01*
X157030880Y-21934358D01*
X157197302Y-21989505D01*
X157197309Y-21989506D01*
X157300019Y-21999999D01*
X157424999Y-21999999D01*
X157425000Y-21999998D01*
X157425000Y-20850000D01*
X157925000Y-20850000D01*
X157925000Y-21999999D01*
X158049972Y-21999999D01*
X158049986Y-21999998D01*
X158152697Y-21989505D01*
X158319119Y-21934358D01*
X158319124Y-21934356D01*
X158468345Y-21842315D01*
X158592315Y-21718345D01*
X158684356Y-21569124D01*
X158684358Y-21569119D01*
X158739505Y-21402697D01*
X158739506Y-21402690D01*
X158749999Y-21299986D01*
X158750000Y-21299973D01*
X158750000Y-20850000D01*
X157925000Y-20850000D01*
X157425000Y-20850000D01*
X156600001Y-20850000D01*
X153375500Y-20850000D01*
X153375499Y-19899992D01*
X153374895Y-19894083D01*
X153364999Y-19797203D01*
X153339074Y-19718968D01*
X153320694Y-19663502D01*
X153318293Y-19593676D01*
X153354024Y-19533634D01*
X153416545Y-19502441D01*
X153438401Y-19500500D01*
X156537125Y-19500500D01*
X156604164Y-19520185D01*
X156649919Y-19572989D01*
X156659863Y-19642147D01*
X156654831Y-19663504D01*
X156610494Y-19797302D01*
X156610493Y-19797309D01*
X156600000Y-19900013D01*
X156600000Y-20350000D01*
X158749999Y-20350000D01*
X158749999Y-19900028D01*
X158749998Y-19900013D01*
X158739505Y-19797302D01*
X158695169Y-19663504D01*
X158692767Y-19593676D01*
X158728499Y-19533634D01*
X158791019Y-19502441D01*
X158812875Y-19500500D01*
X159196349Y-19500500D01*
X159263388Y-19520185D01*
X159284030Y-19536819D01*
X159516890Y-19769678D01*
X159550375Y-19831001D01*
X159552567Y-19869959D01*
X159549501Y-19899976D01*
X159549500Y-19899996D01*
X159549500Y-21300001D01*
X159549501Y-21300018D01*
X159560000Y-21402796D01*
X159560001Y-21402799D01*
X159615115Y-21569119D01*
X159615186Y-21569334D01*
X159707096Y-21718345D01*
X159707289Y-21718657D01*
X159738181Y-21749549D01*
X159771666Y-21810872D01*
X159774500Y-21837230D01*
X159774500Y-24387911D01*
X159774295Y-24392945D01*
X159769798Y-24448163D01*
X159780729Y-24528392D01*
X159789486Y-24608913D01*
X159789710Y-24609930D01*
X159794525Y-24630473D01*
X159794773Y-24631470D01*
X159818745Y-24696721D01*
X159822700Y-24707486D01*
X159847170Y-24780109D01*
X159848557Y-24784223D01*
X159849001Y-24785185D01*
X159858146Y-24804266D01*
X159858564Y-24805109D01*
X159858567Y-24805114D01*
X159858568Y-24805116D01*
X159889984Y-24854266D01*
X159902184Y-24873353D01*
X159943930Y-24942736D01*
X159944538Y-24943536D01*
X159957578Y-24960216D01*
X159958201Y-24960991D01*
X160015459Y-25018249D01*
X160071152Y-25077042D01*
X160071983Y-25077747D01*
X160089119Y-25091908D01*
X161563181Y-26565970D01*
X161596666Y-26627293D01*
X161599500Y-26653651D01*
X161599500Y-27147870D01*
X161599501Y-27147876D01*
X161605908Y-27207483D01*
X161656202Y-27342328D01*
X161656206Y-27342335D01*
X161742452Y-27457544D01*
X161742455Y-27457547D01*
X161857664Y-27543793D01*
X161857671Y-27543797D01*
X161992517Y-27594091D01*
X161992516Y-27594091D01*
X161999444Y-27594835D01*
X162052127Y-27600500D01*
X163647872Y-27600499D01*
X163707483Y-27594091D01*
X163842331Y-27543796D01*
X163957546Y-27457546D01*
X164043796Y-27342331D01*
X164094091Y-27207483D01*
X164100500Y-27147873D01*
X164100499Y-26152128D01*
X164094091Y-26092517D01*
X164094091Y-26092516D01*
X164057949Y-25995614D01*
X164052965Y-25925922D01*
X164086450Y-25864599D01*
X164147774Y-25831115D01*
X164217465Y-25836100D01*
X164261812Y-25864600D01*
X164963181Y-26565969D01*
X164996666Y-26627292D01*
X164999500Y-26653650D01*
X164999500Y-27147870D01*
X164999501Y-27147876D01*
X165005908Y-27207483D01*
X165056202Y-27342328D01*
X165056206Y-27342335D01*
X165142452Y-27457544D01*
X165142455Y-27457547D01*
X165257664Y-27543793D01*
X165257671Y-27543797D01*
X165392517Y-27594091D01*
X165392516Y-27594091D01*
X165399444Y-27594835D01*
X165452127Y-27600500D01*
X167047872Y-27600499D01*
X167107483Y-27594091D01*
X167242331Y-27543796D01*
X167357546Y-27457546D01*
X167443796Y-27342331D01*
X167494091Y-27207483D01*
X167500500Y-27147873D01*
X167500499Y-26152128D01*
X167494091Y-26092517D01*
X167475244Y-26041986D01*
X167443797Y-25957671D01*
X167443793Y-25957664D01*
X167357547Y-25842455D01*
X167357544Y-25842452D01*
X167242335Y-25756206D01*
X167242328Y-25756202D01*
X167107482Y-25705908D01*
X167107483Y-25705908D01*
X167047883Y-25699501D01*
X167047881Y-25699500D01*
X167047873Y-25699500D01*
X167047865Y-25699500D01*
X166553651Y-25699500D01*
X166486612Y-25679815D01*
X166465970Y-25663181D01*
X165309244Y-24506455D01*
X165275759Y-24445132D01*
X165280743Y-24375440D01*
X165322615Y-24319507D01*
X165388079Y-24295090D01*
X165410184Y-24295485D01*
X165452163Y-24299999D01*
X165452172Y-24300000D01*
X166000000Y-24300000D01*
X166000000Y-23600000D01*
X166500000Y-23600000D01*
X166500000Y-24300000D01*
X167047828Y-24300000D01*
X167047844Y-24299999D01*
X167107372Y-24293598D01*
X167107379Y-24293596D01*
X167242086Y-24243354D01*
X167242093Y-24243350D01*
X167357187Y-24157190D01*
X167357190Y-24157187D01*
X167443350Y-24042093D01*
X167443354Y-24042086D01*
X167493596Y-23907379D01*
X167493598Y-23907372D01*
X167499999Y-23847844D01*
X167500000Y-23847827D01*
X167500000Y-23600000D01*
X166500000Y-23600000D01*
X166000000Y-23600000D01*
X165000000Y-23600000D01*
X165000000Y-23847844D01*
X165004514Y-23889818D01*
X164992110Y-23958577D01*
X164944500Y-24009715D01*
X164876800Y-24026995D01*
X164810506Y-24004931D01*
X164793544Y-23990755D01*
X164136818Y-23334029D01*
X164103333Y-23272706D01*
X164100499Y-23246348D01*
X164100499Y-23100000D01*
X165000000Y-23100000D01*
X166000000Y-23100000D01*
X166000000Y-22400000D01*
X166500000Y-22400000D01*
X166500000Y-23100000D01*
X167500000Y-23100000D01*
X167500000Y-22852172D01*
X167499999Y-22852155D01*
X167493598Y-22792627D01*
X167493596Y-22792620D01*
X167443354Y-22657913D01*
X167443350Y-22657906D01*
X167357190Y-22542812D01*
X167357187Y-22542809D01*
X167242093Y-22456649D01*
X167242086Y-22456645D01*
X167107379Y-22406403D01*
X167107372Y-22406401D01*
X167047844Y-22400000D01*
X166500000Y-22400000D01*
X166000000Y-22400000D01*
X165452155Y-22400000D01*
X165392627Y-22406401D01*
X165392620Y-22406403D01*
X165257913Y-22456645D01*
X165257906Y-22456649D01*
X165142812Y-22542809D01*
X165142809Y-22542812D01*
X165056649Y-22657906D01*
X165056645Y-22657913D01*
X165006403Y-22792620D01*
X165006401Y-22792627D01*
X165000000Y-22852155D01*
X165000000Y-23100000D01*
X164100499Y-23100000D01*
X164100499Y-22852129D01*
X164100498Y-22852123D01*
X164094091Y-22792516D01*
X164043797Y-22657671D01*
X164043793Y-22657664D01*
X163957547Y-22542455D01*
X163957544Y-22542452D01*
X163842335Y-22456206D01*
X163842328Y-22456202D01*
X163707482Y-22405908D01*
X163707483Y-22405908D01*
X163647883Y-22399501D01*
X163647881Y-22399500D01*
X163647873Y-22399500D01*
X163647864Y-22399500D01*
X162052129Y-22399500D01*
X162052123Y-22399501D01*
X161992516Y-22405908D01*
X161857671Y-22456202D01*
X161857664Y-22456206D01*
X161742455Y-22542452D01*
X161698766Y-22600813D01*
X161642832Y-22642683D01*
X161573140Y-22647667D01*
X161511817Y-22614181D01*
X161478333Y-22552857D01*
X161475500Y-22526501D01*
X161475500Y-21837230D01*
X161495185Y-21770191D01*
X161511819Y-21749549D01*
X161524319Y-21737049D01*
X161542712Y-21718656D01*
X161634814Y-21569334D01*
X161689999Y-21402797D01*
X161700500Y-21300009D01*
X161700500Y-20850000D01*
X164925001Y-20850000D01*
X164925001Y-21299986D01*
X164935494Y-21402697D01*
X164990641Y-21569119D01*
X164990643Y-21569124D01*
X165082684Y-21718345D01*
X165206654Y-21842315D01*
X165355875Y-21934356D01*
X165355880Y-21934358D01*
X165522302Y-21989505D01*
X165522309Y-21989506D01*
X165625019Y-21999999D01*
X165749999Y-21999999D01*
X165750000Y-21999998D01*
X165750000Y-20850000D01*
X166250000Y-20850000D01*
X166250000Y-21999999D01*
X166374972Y-21999999D01*
X166374986Y-21999998D01*
X166477697Y-21989505D01*
X166644119Y-21934358D01*
X166644124Y-21934356D01*
X166793345Y-21842315D01*
X166917315Y-21718345D01*
X167009356Y-21569124D01*
X167009358Y-21569119D01*
X167064505Y-21402697D01*
X167064506Y-21402690D01*
X167074999Y-21299986D01*
X167075000Y-21299973D01*
X167075000Y-20850000D01*
X166250000Y-20850000D01*
X165750000Y-20850000D01*
X164925001Y-20850000D01*
X161700500Y-20850000D01*
X161700499Y-19899992D01*
X161699895Y-19894083D01*
X161689999Y-19797203D01*
X161664074Y-19718968D01*
X161645694Y-19663502D01*
X161643293Y-19593676D01*
X161679024Y-19533634D01*
X161741545Y-19502441D01*
X161763401Y-19500500D01*
X164862125Y-19500500D01*
X164929164Y-19520185D01*
X164974919Y-19572989D01*
X164984863Y-19642147D01*
X164979831Y-19663504D01*
X164935494Y-19797302D01*
X164935493Y-19797309D01*
X164925000Y-19900013D01*
X164925000Y-20350000D01*
X167074999Y-20350000D01*
X167074999Y-19900028D01*
X167074998Y-19900013D01*
X167064505Y-19797302D01*
X167020169Y-19663504D01*
X167017767Y-19593676D01*
X167053499Y-19533634D01*
X167116019Y-19502441D01*
X167137875Y-19500500D01*
X167771349Y-19500500D01*
X167838388Y-19520185D01*
X167859030Y-19536819D01*
X167889261Y-19567050D01*
X167922746Y-19628373D01*
X167919286Y-19693734D01*
X167885001Y-19797200D01*
X167885000Y-19797204D01*
X167874500Y-19899983D01*
X167874500Y-21300001D01*
X167874501Y-21300018D01*
X167885000Y-21402796D01*
X167885001Y-21402799D01*
X167940115Y-21569119D01*
X167940186Y-21569334D01*
X168032096Y-21718345D01*
X168032289Y-21718657D01*
X168063181Y-21749549D01*
X168096666Y-21810872D01*
X168099500Y-21837230D01*
X168099500Y-24412911D01*
X168099295Y-24417945D01*
X168094798Y-24473163D01*
X168105729Y-24553392D01*
X168114486Y-24633913D01*
X168114710Y-24634930D01*
X168119525Y-24655473D01*
X168119773Y-24656470D01*
X168142237Y-24717616D01*
X168147700Y-24732486D01*
X168172170Y-24805109D01*
X168173557Y-24809223D01*
X168174001Y-24810185D01*
X168183146Y-24829266D01*
X168183564Y-24830109D01*
X168183567Y-24830114D01*
X168183568Y-24830116D01*
X168211293Y-24873491D01*
X168227184Y-24898353D01*
X168268930Y-24967736D01*
X168269538Y-24968536D01*
X168282560Y-24985193D01*
X168283201Y-24985991D01*
X168340458Y-25043248D01*
X168396150Y-25102040D01*
X168397010Y-25102771D01*
X168414123Y-25116911D01*
X169863181Y-26565969D01*
X169896666Y-26627292D01*
X169899500Y-26653650D01*
X169899500Y-27147870D01*
X169899501Y-27147876D01*
X169905908Y-27207483D01*
X169956202Y-27342328D01*
X169956206Y-27342335D01*
X170042452Y-27457544D01*
X170042455Y-27457547D01*
X170157664Y-27543793D01*
X170157671Y-27543797D01*
X170292517Y-27594091D01*
X170292516Y-27594091D01*
X170299444Y-27594835D01*
X170352127Y-27600500D01*
X171947872Y-27600499D01*
X172007483Y-27594091D01*
X172142331Y-27543796D01*
X172257546Y-27457546D01*
X172343796Y-27342331D01*
X172394091Y-27207483D01*
X172400500Y-27147873D01*
X172400499Y-26152128D01*
X172394091Y-26092517D01*
X172394091Y-26092516D01*
X172357949Y-25995614D01*
X172352965Y-25925922D01*
X172386450Y-25864599D01*
X172447774Y-25831115D01*
X172517465Y-25836100D01*
X172561812Y-25864600D01*
X173263181Y-26565969D01*
X173296666Y-26627292D01*
X173299500Y-26653650D01*
X173299500Y-27147870D01*
X173299501Y-27147876D01*
X173305908Y-27207483D01*
X173356202Y-27342328D01*
X173356206Y-27342335D01*
X173442452Y-27457544D01*
X173442455Y-27457547D01*
X173557664Y-27543793D01*
X173557671Y-27543797D01*
X173692517Y-27594091D01*
X173692516Y-27594091D01*
X173699444Y-27594835D01*
X173752127Y-27600500D01*
X175347872Y-27600499D01*
X175407483Y-27594091D01*
X175542331Y-27543796D01*
X175657546Y-27457546D01*
X175743796Y-27342331D01*
X175794091Y-27207483D01*
X175800500Y-27147873D01*
X175800499Y-26152128D01*
X175794091Y-26092517D01*
X175775244Y-26041986D01*
X175743797Y-25957671D01*
X175743793Y-25957664D01*
X175657547Y-25842455D01*
X175657544Y-25842452D01*
X175542335Y-25756206D01*
X175542328Y-25756202D01*
X175407482Y-25705908D01*
X175407483Y-25705908D01*
X175347883Y-25699501D01*
X175347881Y-25699500D01*
X175347873Y-25699500D01*
X175347865Y-25699500D01*
X174853651Y-25699500D01*
X174786612Y-25679815D01*
X174765970Y-25663181D01*
X173609244Y-24506455D01*
X173575759Y-24445132D01*
X173580743Y-24375440D01*
X173622615Y-24319507D01*
X173688079Y-24295090D01*
X173710184Y-24295485D01*
X173752163Y-24299999D01*
X173752172Y-24300000D01*
X174300000Y-24300000D01*
X174300000Y-23600000D01*
X174800000Y-23600000D01*
X174800000Y-24300000D01*
X175347828Y-24300000D01*
X175347844Y-24299999D01*
X175407372Y-24293598D01*
X175407379Y-24293596D01*
X175542086Y-24243354D01*
X175542093Y-24243350D01*
X175657187Y-24157190D01*
X175657190Y-24157187D01*
X175743350Y-24042093D01*
X175743354Y-24042086D01*
X175793596Y-23907379D01*
X175793598Y-23907372D01*
X175799999Y-23847844D01*
X175800000Y-23847827D01*
X175800000Y-23600000D01*
X174800000Y-23600000D01*
X174300000Y-23600000D01*
X173300000Y-23600000D01*
X173300000Y-23847844D01*
X173304514Y-23889818D01*
X173292110Y-23958577D01*
X173244500Y-24009715D01*
X173176800Y-24026995D01*
X173110506Y-24004931D01*
X173093544Y-23990755D01*
X172436818Y-23334029D01*
X172403333Y-23272706D01*
X172400499Y-23246348D01*
X172400499Y-23100000D01*
X173300000Y-23100000D01*
X174300000Y-23100000D01*
X174300000Y-22400000D01*
X174800000Y-22400000D01*
X174800000Y-23100000D01*
X175800000Y-23100000D01*
X175800000Y-22852172D01*
X175799999Y-22852155D01*
X175793598Y-22792627D01*
X175793596Y-22792620D01*
X175743354Y-22657913D01*
X175743350Y-22657906D01*
X175657190Y-22542812D01*
X175657187Y-22542809D01*
X175542093Y-22456649D01*
X175542086Y-22456645D01*
X175407379Y-22406403D01*
X175407372Y-22406401D01*
X175347844Y-22400000D01*
X174800000Y-22400000D01*
X174300000Y-22400000D01*
X173752155Y-22400000D01*
X173692627Y-22406401D01*
X173692620Y-22406403D01*
X173557913Y-22456645D01*
X173557906Y-22456649D01*
X173442812Y-22542809D01*
X173442809Y-22542812D01*
X173356649Y-22657906D01*
X173356645Y-22657913D01*
X173306403Y-22792620D01*
X173306401Y-22792627D01*
X173300000Y-22852155D01*
X173300000Y-23100000D01*
X172400499Y-23100000D01*
X172400499Y-22852129D01*
X172400498Y-22852123D01*
X172394091Y-22792516D01*
X172343797Y-22657671D01*
X172343793Y-22657664D01*
X172257547Y-22542455D01*
X172257544Y-22542452D01*
X172142335Y-22456206D01*
X172142328Y-22456202D01*
X172007482Y-22405908D01*
X172007483Y-22405908D01*
X171947883Y-22399501D01*
X171947881Y-22399500D01*
X171947873Y-22399500D01*
X171947864Y-22399500D01*
X170352129Y-22399500D01*
X170352123Y-22399501D01*
X170292516Y-22405908D01*
X170157671Y-22456202D01*
X170157664Y-22456206D01*
X170042455Y-22542452D01*
X170023766Y-22567418D01*
X169967832Y-22609288D01*
X169898140Y-22614272D01*
X169836818Y-22580786D01*
X169803333Y-22519462D01*
X169800500Y-22493106D01*
X169800500Y-21837230D01*
X169820185Y-21770191D01*
X169836819Y-21749549D01*
X169849319Y-21737049D01*
X169867712Y-21718656D01*
X169959814Y-21569334D01*
X170014999Y-21402797D01*
X170025500Y-21300009D01*
X170025500Y-20850000D01*
X173250001Y-20850000D01*
X173250001Y-21299986D01*
X173260494Y-21402697D01*
X173315641Y-21569119D01*
X173315643Y-21569124D01*
X173407684Y-21718345D01*
X173531654Y-21842315D01*
X173680875Y-21934356D01*
X173680880Y-21934358D01*
X173847302Y-21989505D01*
X173847309Y-21989506D01*
X173950019Y-21999999D01*
X174074999Y-21999999D01*
X174075000Y-21999998D01*
X174075000Y-20850000D01*
X174575000Y-20850000D01*
X174575000Y-21999999D01*
X174699972Y-21999999D01*
X174699986Y-21999998D01*
X174802697Y-21989505D01*
X174969119Y-21934358D01*
X174969124Y-21934356D01*
X175118345Y-21842315D01*
X175242315Y-21718345D01*
X175334356Y-21569124D01*
X175334358Y-21569119D01*
X175389505Y-21402697D01*
X175389506Y-21402690D01*
X175399999Y-21299986D01*
X175400000Y-21299973D01*
X175400000Y-20850000D01*
X174575000Y-20850000D01*
X174075000Y-20850000D01*
X173250001Y-20850000D01*
X170025500Y-20850000D01*
X170025499Y-19899992D01*
X170024895Y-19894083D01*
X170014999Y-19797203D01*
X169989074Y-19718968D01*
X169970694Y-19663502D01*
X169968293Y-19593676D01*
X170004024Y-19533634D01*
X170066545Y-19502441D01*
X170088401Y-19500500D01*
X173187125Y-19500500D01*
X173254164Y-19520185D01*
X173299919Y-19572989D01*
X173309863Y-19642147D01*
X173304831Y-19663504D01*
X173260494Y-19797302D01*
X173260493Y-19797309D01*
X173250000Y-19900013D01*
X173250000Y-20350000D01*
X175399999Y-20350000D01*
X175399999Y-19900028D01*
X175399998Y-19900013D01*
X175389505Y-19797302D01*
X175345169Y-19663504D01*
X175342767Y-19593676D01*
X175378499Y-19533634D01*
X175441019Y-19502441D01*
X175462875Y-19500500D01*
X176136599Y-19500500D01*
X176203638Y-19520185D01*
X176249393Y-19572989D01*
X176259337Y-19642147D01*
X176254306Y-19663499D01*
X176210001Y-19797203D01*
X176210001Y-19797204D01*
X176210000Y-19797204D01*
X176199500Y-19899983D01*
X176199500Y-21300001D01*
X176199501Y-21300018D01*
X176210000Y-21402796D01*
X176210001Y-21402799D01*
X176265115Y-21569119D01*
X176265186Y-21569334D01*
X176357096Y-21718345D01*
X176357289Y-21718657D01*
X176388181Y-21749549D01*
X176421666Y-21810872D01*
X176424500Y-21837230D01*
X176424500Y-24437911D01*
X176424295Y-24442945D01*
X176419798Y-24498163D01*
X176430729Y-24578392D01*
X176439486Y-24658913D01*
X176439710Y-24659930D01*
X176444525Y-24680473D01*
X176444773Y-24681470D01*
X176464153Y-24734221D01*
X176472700Y-24757486D01*
X176497170Y-24830109D01*
X176498557Y-24834223D01*
X176499001Y-24835185D01*
X176508146Y-24854266D01*
X176508564Y-24855109D01*
X176508567Y-24855114D01*
X176508568Y-24855116D01*
X176538015Y-24901185D01*
X176552184Y-24923353D01*
X176593930Y-24992736D01*
X176594538Y-24993536D01*
X176607578Y-25010216D01*
X176608201Y-25010991D01*
X176665459Y-25068249D01*
X176721152Y-25127042D01*
X176721983Y-25127747D01*
X176739119Y-25141908D01*
X178163181Y-26565970D01*
X178196666Y-26627293D01*
X178199500Y-26653651D01*
X178199500Y-27147870D01*
X178199501Y-27147876D01*
X178205908Y-27207483D01*
X178256202Y-27342328D01*
X178256206Y-27342335D01*
X178342452Y-27457544D01*
X178342455Y-27457547D01*
X178457664Y-27543793D01*
X178457671Y-27543797D01*
X178592517Y-27594091D01*
X178592516Y-27594091D01*
X178599444Y-27594835D01*
X178652127Y-27600500D01*
X180247872Y-27600499D01*
X180307483Y-27594091D01*
X180442331Y-27543796D01*
X180557546Y-27457546D01*
X180643796Y-27342331D01*
X180694091Y-27207483D01*
X180700500Y-27147873D01*
X180700499Y-26152128D01*
X180696050Y-26110744D01*
X180708456Y-26041986D01*
X180756067Y-25990849D01*
X180823766Y-25973570D01*
X180890060Y-25995635D01*
X180907021Y-26009810D01*
X181647391Y-26750180D01*
X181650784Y-26753860D01*
X181668564Y-26774792D01*
X181686663Y-26796101D01*
X181686664Y-26796102D01*
X181722341Y-26823221D01*
X181751118Y-26845097D01*
X181814246Y-26895841D01*
X181814247Y-26895841D01*
X181814248Y-26895842D01*
X181815157Y-26896423D01*
X181833009Y-26907497D01*
X181833928Y-26908050D01*
X181833934Y-26908053D01*
X181833936Y-26908054D01*
X181907452Y-26942066D01*
X181979983Y-26978038D01*
X181981110Y-26978452D01*
X182000776Y-26985376D01*
X182001830Y-26985730D01*
X182001833Y-26985732D01*
X182041379Y-26994436D01*
X182080925Y-27003141D01*
X182159505Y-27022684D01*
X182160594Y-27022832D01*
X182181375Y-27025377D01*
X182182502Y-27025499D01*
X182182503Y-27025500D01*
X182182504Y-27025500D01*
X182263469Y-27025500D01*
X182344432Y-27027693D01*
X182344432Y-27027692D01*
X182344435Y-27027693D01*
X182345479Y-27027608D01*
X182367648Y-27025500D01*
X184181653Y-27025500D01*
X184187515Y-27025778D01*
X184354478Y-27041678D01*
X184393147Y-27051838D01*
X184470197Y-27086144D01*
X184655354Y-27125500D01*
X184655355Y-27125500D01*
X184844644Y-27125500D01*
X184844646Y-27125500D01*
X185029803Y-27086144D01*
X185202730Y-27009151D01*
X185355871Y-26897888D01*
X185482533Y-26757216D01*
X185577179Y-26593284D01*
X185635674Y-26413256D01*
X185655460Y-26225000D01*
X185635674Y-26036744D01*
X185577179Y-25856716D01*
X185482533Y-25692784D01*
X185482531Y-25692781D01*
X185481797Y-25691966D01*
X185477396Y-25686481D01*
X185471453Y-25678150D01*
X185464355Y-25670187D01*
X185434442Y-25607045D01*
X185443415Y-25537754D01*
X185464769Y-25504709D01*
X185507533Y-25457216D01*
X185602179Y-25293284D01*
X185660674Y-25113256D01*
X185680460Y-24925000D01*
X185660674Y-24736744D01*
X185602179Y-24556716D01*
X185507533Y-24392784D01*
X185380871Y-24252112D01*
X185368817Y-24243354D01*
X185227734Y-24140851D01*
X185227729Y-24140848D01*
X185054807Y-24063857D01*
X185054802Y-24063855D01*
X184909001Y-24032865D01*
X184869646Y-24024500D01*
X184680354Y-24024500D01*
X184640999Y-24032865D01*
X184495198Y-24063855D01*
X184489014Y-24065865D01*
X184488790Y-24065178D01*
X184444933Y-24074500D01*
X183853650Y-24074500D01*
X183786611Y-24054815D01*
X183765969Y-24038181D01*
X182186819Y-22459030D01*
X182153334Y-22397707D01*
X182150500Y-22371349D01*
X182150500Y-21437087D01*
X182150705Y-21432052D01*
X182155201Y-21376836D01*
X182144270Y-21296607D01*
X182135513Y-21216084D01*
X182135280Y-21215026D01*
X182130497Y-21194621D01*
X182130227Y-21193532D01*
X182102299Y-21117513D01*
X182076444Y-21040779D01*
X182076441Y-21040775D01*
X182076441Y-21040773D01*
X182076006Y-21039831D01*
X182066895Y-21020818D01*
X182066432Y-21019884D01*
X182022822Y-20951658D01*
X181981070Y-20882264D01*
X181981068Y-20882262D01*
X181981067Y-20882260D01*
X181980455Y-20881455D01*
X181967503Y-20864889D01*
X181966803Y-20864018D01*
X181966799Y-20864011D01*
X181909557Y-20806769D01*
X181879462Y-20774998D01*
X181853848Y-20747957D01*
X181853108Y-20747328D01*
X181835875Y-20733087D01*
X180603288Y-19500500D01*
X179177607Y-18074818D01*
X179174204Y-18071126D01*
X179138336Y-18028899D01*
X179073891Y-17979909D01*
X179010759Y-17929162D01*
X179010758Y-17929161D01*
X179010754Y-17929158D01*
X179010748Y-17929155D01*
X179009854Y-17928583D01*
X178992019Y-17917520D01*
X178991064Y-17916946D01*
X178917560Y-17882939D01*
X178845027Y-17846966D01*
X178843981Y-17846582D01*
X178824160Y-17839602D01*
X178823164Y-17839266D01*
X178744073Y-17821858D01*
X178665494Y-17802315D01*
X178664584Y-17802191D01*
X178643506Y-17799610D01*
X178642501Y-17799501D01*
X178642497Y-17799500D01*
X178642492Y-17799500D01*
X178561531Y-17799500D01*
X178480564Y-17797306D01*
X178479520Y-17797391D01*
X178457352Y-17799500D01*
X176686531Y-17799500D01*
X176605564Y-17797306D01*
X176604520Y-17797391D01*
X176582352Y-17799500D01*
X168186531Y-17799500D01*
X168105564Y-17797306D01*
X168104520Y-17797391D01*
X168082352Y-17799500D01*
X159611531Y-17799500D01*
X159530564Y-17797306D01*
X159529520Y-17797391D01*
X159507352Y-17799500D01*
X151336531Y-17799500D01*
X151255564Y-17797306D01*
X151254520Y-17797391D01*
X151232352Y-17799500D01*
X143361531Y-17799500D01*
X143280564Y-17797306D01*
X143279520Y-17797391D01*
X143257352Y-17799500D01*
X134136531Y-17799500D01*
X134055564Y-17797306D01*
X134054520Y-17797391D01*
X134032352Y-17799500D01*
X127624000Y-17799500D01*
X127556961Y-17779815D01*
X127511206Y-17727011D01*
X127500000Y-17675500D01*
X127500000Y-17624000D01*
X127519685Y-17556961D01*
X127572489Y-17511206D01*
X127624000Y-17500000D01*
X189126000Y-17500000D01*
X189193039Y-17519685D01*
G37*
%TD.AperFunction*%
%TD*%
M02*
