%TF.GenerationSoftware,KiCad,Pcbnew,7.0.9*%
%TF.CreationDate,2024-08-05T23:00:28+10:00*%
%TF.ProjectId,AFPI Device V1.1,41465049-2044-4657-9669-63652056312e,rev?*%
%TF.SameCoordinates,Original*%
%TF.FileFunction,Soldermask,Bot*%
%TF.FilePolarity,Negative*%
%FSLAX46Y46*%
G04 Gerber Fmt 4.6, Leading zero omitted, Abs format (unit mm)*
G04 Created by KiCad (PCBNEW 7.0.9) date 2024-08-05 23:00:28*
%MOMM*%
%LPD*%
G01*
G04 APERTURE LIST*
G04 Aperture macros list*
%AMRoundRect*
0 Rectangle with rounded corners*
0 $1 Rounding radius*
0 $2 $3 $4 $5 $6 $7 $8 $9 X,Y pos of 4 corners*
0 Add a 4 corners polygon primitive as box body*
4,1,4,$2,$3,$4,$5,$6,$7,$8,$9,$2,$3,0*
0 Add four circle primitives for the rounded corners*
1,1,$1+$1,$2,$3*
1,1,$1+$1,$4,$5*
1,1,$1+$1,$6,$7*
1,1,$1+$1,$8,$9*
0 Add four rect primitives between the rounded corners*
20,1,$1+$1,$2,$3,$4,$5,0*
20,1,$1+$1,$4,$5,$6,$7,0*
20,1,$1+$1,$6,$7,$8,$9,0*
20,1,$1+$1,$8,$9,$2,$3,0*%
G04 Aperture macros list end*
%ADD10C,1.524000*%
%ADD11O,1.524000X1.524000*%
%ADD12C,3.200000*%
%ADD13RoundRect,0.250000X0.725000X-0.600000X0.725000X0.600000X-0.725000X0.600000X-0.725000X-0.600000X0*%
%ADD14O,1.950000X1.700000*%
%ADD15C,0.750000*%
%ADD16RoundRect,0.250000X-0.750000X0.600000X-0.750000X-0.600000X0.750000X-0.600000X0.750000X0.600000X0*%
%ADD17O,2.000000X1.700000*%
%ADD18C,1.620000*%
%ADD19R,1.600000X1.600000*%
%ADD20O,1.600000X1.600000*%
%ADD21R,1.300000X1.300000*%
%ADD22C,1.300000*%
G04 APERTURE END LIST*
D10*
%TO.C,U3*%
X133223000Y-109220000D03*
X128143000Y-109220000D03*
D11*
X114173000Y-142494000D03*
X116713000Y-142494000D03*
X119253000Y-142494000D03*
D10*
X136423400Y-141620240D03*
X136423400Y-139082780D03*
X136423400Y-136502140D03*
X123063000Y-109220000D03*
X125603000Y-109220000D03*
X123063000Y-111760000D03*
X125603000Y-111760000D03*
X128143000Y-111760000D03*
X130683000Y-111760000D03*
X133223000Y-111760000D03*
D11*
X111633000Y-115570000D03*
X114173000Y-115570000D03*
X116713000Y-115570000D03*
X119253000Y-115570000D03*
X121793000Y-115570000D03*
X124333000Y-115570000D03*
X126873000Y-115570000D03*
X129413000Y-115570000D03*
X131953000Y-115570000D03*
X134493000Y-115570000D03*
X137033000Y-115570000D03*
X139573000Y-115570000D03*
X142113000Y-115570000D03*
X144653000Y-115570000D03*
X111633000Y-123190000D03*
X111633000Y-120650000D03*
X144653000Y-130810000D03*
X142113000Y-130810000D03*
X139573000Y-130810000D03*
X137033000Y-130810000D03*
X134493000Y-130810000D03*
X131953000Y-130810000D03*
X129413000Y-130810000D03*
X126873000Y-130810000D03*
X124333000Y-130810000D03*
X121793000Y-130810000D03*
X119253000Y-130810000D03*
X116713000Y-130810000D03*
X114173000Y-130810000D03*
X111633000Y-130810000D03*
%TD*%
D12*
%TO.C,REF\u002A\u002A*%
X102343000Y-142494000D03*
%TD*%
%TO.C,REF\u002A\u002A*%
X102343000Y-104521000D03*
%TD*%
%TO.C,REF\u002A\u002A*%
X179343000Y-104521000D03*
%TD*%
%TO.C,REF\u002A\u002A*%
X179343000Y-142521000D03*
%TD*%
D13*
%TO.C,J1*%
X150766000Y-133183000D03*
D14*
X150766000Y-130683000D03*
X150766000Y-128183000D03*
%TD*%
D15*
%TO.C,SW2*%
X155050000Y-112075000D03*
X153800000Y-112075000D03*
%TD*%
D16*
%TO.C,SW1*%
X106680000Y-130556000D03*
D17*
X106680000Y-133056000D03*
%TD*%
D15*
%TO.C,J9*%
X124333000Y-103632000D03*
X123083000Y-103632000D03*
%TD*%
%TO.C,J8*%
X118390000Y-103614000D03*
X117140000Y-103614000D03*
X115890000Y-103614000D03*
X114640000Y-103614000D03*
%TD*%
%TO.C,J7*%
X129520000Y-103632000D03*
X128270000Y-103632000D03*
%TD*%
%TO.C,J6*%
X174654000Y-117485000D03*
X173404000Y-117485000D03*
%TD*%
%TO.C,J5*%
X108146000Y-138213000D03*
X108146000Y-139463000D03*
%TD*%
%TO.C,J4*%
X101525000Y-122925000D03*
X101525000Y-124175000D03*
X101525000Y-125425000D03*
%TD*%
%TO.C,J3*%
X156050000Y-117375000D03*
X154800000Y-117375000D03*
X153550000Y-117375000D03*
X152300000Y-117375000D03*
%TD*%
%TO.C,J2*%
X152274000Y-121820000D03*
X153524000Y-121820000D03*
X154774000Y-121820000D03*
X156024000Y-121820000D03*
%TD*%
D18*
%TO.C,Gain1*%
X171998000Y-122595000D03*
X174498000Y-127595000D03*
X176998000Y-122595000D03*
%TD*%
%TO.C,Vol1*%
X161701000Y-118217000D03*
X164201000Y-113217000D03*
X166701000Y-118217000D03*
%TD*%
D19*
%TO.C,U2*%
X168519000Y-121422000D03*
D20*
X165979000Y-121422000D03*
X163439000Y-121422000D03*
X160899000Y-121422000D03*
X160899000Y-129042000D03*
X163439000Y-129042000D03*
X165979000Y-129042000D03*
X168519000Y-129042000D03*
%TD*%
D21*
%TO.C,Q1*%
X175035000Y-112532000D03*
D22*
X173765000Y-113802000D03*
X172495000Y-112532000D03*
%TD*%
M02*
