M48
; DRILL file {KiCad 7.0.9} date Mon Aug  5 22:59:51 2024
; FORMAT={-:-/ absolute / metric / decimal}
; #@! TF.CreationDate,2024-08-05T22:59:51+10:00
; #@! TF.GenerationSoftware,Kicad,Pcbnew,7.0.9
; #@! TF.FileFunction,MixedPlating,1,2
FMAT,2
METRIC
; #@! TA.AperFunction,Plated,PTH,ComponentDrill
T1C0.550
; #@! TA.AperFunction,Plated,PTH,ComponentDrill
T2C0.750
; #@! TA.AperFunction,Plated,PTH,ComponentDrill
T3C0.800
; #@! TA.AperFunction,Plated,PTH,ComponentDrill
T4C0.900
; #@! TA.AperFunction,Plated,PTH,ComponentDrill
T5C0.950
; #@! TA.AperFunction,Plated,PTH,ComponentDrill
T6C1.000
; #@! TA.AperFunction,Plated,PTH,ComponentDrill
T7C1.016
; #@! TA.AperFunction,NonPlated,NPTH,ComponentDrill
T8C3.200
%
G90
G05
T1
X101.525Y-122.925
X101.525Y-124.175
X101.525Y-125.425
X108.146Y-138.213
X108.146Y-139.463
X114.64Y-103.614
X115.89Y-103.614
X117.14Y-103.614
X118.39Y-103.614
X123.083Y-103.632
X124.333Y-103.632
X128.27Y-103.632
X129.52Y-103.632
X152.274Y-121.82
X152.3Y-117.375
X153.524Y-121.82
X153.55Y-117.375
X153.8Y-112.075
X154.774Y-121.82
X154.8Y-117.375
X155.05Y-112.075
X156.024Y-121.82
X156.05Y-117.375
X173.404Y-117.485
X174.654Y-117.485
T2
X172.495Y-112.532
X173.765Y-113.802
X175.035Y-112.532
T3
X160.899Y-121.422
X160.899Y-129.042
X163.439Y-121.422
X163.439Y-129.042
X165.979Y-121.422
X165.979Y-129.042
X168.519Y-121.422
X168.519Y-129.042
T4
X161.701Y-118.217
X164.201Y-113.217
X166.701Y-118.217
X171.998Y-122.595
X174.498Y-127.595
X176.998Y-122.595
T5
X150.766Y-128.183
X150.766Y-130.683
X150.766Y-133.183
T6
X106.68Y-130.556
X106.68Y-133.056
T7
X111.633Y-115.57
X111.633Y-120.65
X111.633Y-123.19
X111.633Y-130.81
X114.173Y-115.57
X114.173Y-130.81
X114.173Y-142.494
X116.713Y-115.57
X116.713Y-130.81
X116.713Y-142.494
X119.253Y-115.57
X119.253Y-130.81
X119.253Y-142.494
X121.793Y-115.57
X121.793Y-130.81
X123.063Y-109.22
X123.063Y-111.76
X124.333Y-115.57
X124.333Y-130.81
X125.603Y-109.22
X125.603Y-111.76
X126.873Y-115.57
X126.873Y-130.81
X128.143Y-109.22
X128.143Y-111.76
X129.413Y-115.57
X129.413Y-130.81
X130.683Y-111.76
X131.953Y-115.57
X131.953Y-130.81
X133.223Y-109.22
X133.223Y-111.76
X134.493Y-115.57
X134.493Y-130.81
X136.423Y-136.502
X136.423Y-139.083
X136.423Y-141.62
X137.033Y-115.57
X137.033Y-130.81
X139.573Y-115.57
X139.573Y-130.81
X142.113Y-115.57
X142.113Y-130.81
X144.653Y-115.57
X144.653Y-130.81
T8
X102.343Y-104.521
X102.343Y-142.494
X179.343Y-104.521
X179.343Y-142.521
T0
M30
