%TF.GenerationSoftware,KiCad,Pcbnew,7.0.9*%
%TF.CreationDate,2024-08-05T23:00:28+10:00*%
%TF.ProjectId,AFPI Device V1.1,41465049-2044-4657-9669-63652056312e,rev?*%
%TF.SameCoordinates,Original*%
%TF.FileFunction,Copper,L1,Top*%
%TF.FilePolarity,Positive*%
%FSLAX46Y46*%
G04 Gerber Fmt 4.6, Leading zero omitted, Abs format (unit mm)*
G04 Created by KiCad (PCBNEW 7.0.9) date 2024-08-05 23:00:28*
%MOMM*%
%LPD*%
G01*
G04 APERTURE LIST*
G04 Aperture macros list*
%AMRoundRect*
0 Rectangle with rounded corners*
0 $1 Rounding radius*
0 $2 $3 $4 $5 $6 $7 $8 $9 X,Y pos of 4 corners*
0 Add a 4 corners polygon primitive as box body*
4,1,4,$2,$3,$4,$5,$6,$7,$8,$9,$2,$3,0*
0 Add four circle primitives for the rounded corners*
1,1,$1+$1,$2,$3*
1,1,$1+$1,$4,$5*
1,1,$1+$1,$6,$7*
1,1,$1+$1,$8,$9*
0 Add four rect primitives between the rounded corners*
20,1,$1+$1,$2,$3,$4,$5,0*
20,1,$1+$1,$4,$5,$6,$7,0*
20,1,$1+$1,$6,$7,$8,$9,0*
20,1,$1+$1,$8,$9,$2,$3,0*%
G04 Aperture macros list end*
%TA.AperFunction,SMDPad,CuDef*%
%ADD10R,1.500000X2.000000*%
%TD*%
%TA.AperFunction,SMDPad,CuDef*%
%ADD11R,3.800000X2.000000*%
%TD*%
%TA.AperFunction,SMDPad,CuDef*%
%ADD12RoundRect,0.250000X0.325000X0.650000X-0.325000X0.650000X-0.325000X-0.650000X0.325000X-0.650000X0*%
%TD*%
%TA.AperFunction,ComponentPad*%
%ADD13C,1.524000*%
%TD*%
%TA.AperFunction,ComponentPad*%
%ADD14O,1.524000X1.524000*%
%TD*%
%TA.AperFunction,ComponentPad*%
%ADD15RoundRect,0.250000X0.725000X-0.600000X0.725000X0.600000X-0.725000X0.600000X-0.725000X-0.600000X0*%
%TD*%
%TA.AperFunction,ComponentPad*%
%ADD16O,1.950000X1.700000*%
%TD*%
%TA.AperFunction,ComponentPad*%
%ADD17C,0.750000*%
%TD*%
%TA.AperFunction,ComponentPad*%
%ADD18RoundRect,0.250000X-0.750000X0.600000X-0.750000X-0.600000X0.750000X-0.600000X0.750000X0.600000X0*%
%TD*%
%TA.AperFunction,ComponentPad*%
%ADD19O,2.000000X1.700000*%
%TD*%
%TA.AperFunction,SMDPad,CuDef*%
%ADD20RoundRect,0.250000X-0.325000X-0.650000X0.325000X-0.650000X0.325000X0.650000X-0.325000X0.650000X0*%
%TD*%
%TA.AperFunction,SMDPad,CuDef*%
%ADD21RoundRect,0.250000X0.650000X-0.325000X0.650000X0.325000X-0.650000X0.325000X-0.650000X-0.325000X0*%
%TD*%
%TA.AperFunction,ComponentPad*%
%ADD22C,1.620000*%
%TD*%
%TA.AperFunction,SMDPad,CuDef*%
%ADD23RoundRect,0.250000X0.312500X0.625000X-0.312500X0.625000X-0.312500X-0.625000X0.312500X-0.625000X0*%
%TD*%
%TA.AperFunction,SMDPad,CuDef*%
%ADD24RoundRect,0.250000X1.500000X0.550000X-1.500000X0.550000X-1.500000X-0.550000X1.500000X-0.550000X0*%
%TD*%
%TA.AperFunction,SMDPad,CuDef*%
%ADD25RoundRect,0.250000X1.250000X0.550000X-1.250000X0.550000X-1.250000X-0.550000X1.250000X-0.550000X0*%
%TD*%
%TA.AperFunction,SMDPad,CuDef*%
%ADD26RoundRect,0.250000X-1.950000X-1.000000X1.950000X-1.000000X1.950000X1.000000X-1.950000X1.000000X0*%
%TD*%
%TA.AperFunction,SMDPad,CuDef*%
%ADD27RoundRect,0.250000X0.625000X-0.312500X0.625000X0.312500X-0.625000X0.312500X-0.625000X-0.312500X0*%
%TD*%
%TA.AperFunction,ComponentPad*%
%ADD28R,1.600000X1.600000*%
%TD*%
%TA.AperFunction,ComponentPad*%
%ADD29O,1.600000X1.600000*%
%TD*%
%TA.AperFunction,ComponentPad*%
%ADD30R,1.300000X1.300000*%
%TD*%
%TA.AperFunction,ComponentPad*%
%ADD31C,1.300000*%
%TD*%
%TA.AperFunction,Conductor*%
%ADD32C,0.700000*%
%TD*%
%TA.AperFunction,Conductor*%
%ADD33C,0.600000*%
%TD*%
G04 APERTURE END LIST*
D10*
%TO.P,U1,1,IN*%
%TO.N,+9V*%
X103364000Y-116180000D03*
%TO.P,U1,2,GND*%
%TO.N,GND*%
X105664000Y-116180000D03*
%TO.P,U1,3,OUT*%
%TO.N,+5V*%
X107964000Y-116180000D03*
D11*
%TO.P,U1,4*%
%TO.N,N/C*%
X105664000Y-109880000D03*
%TD*%
D12*
%TO.P,C2,1*%
%TO.N,+5V*%
X108790000Y-118999000D03*
%TO.P,C2,2*%
%TO.N,GND*%
X105840000Y-118999000D03*
%TD*%
D13*
%TO.P,U3,46*%
%TO.N,N/C*%
X133223000Y-109220000D03*
%TO.P,U3,45*%
X128143000Y-109220000D03*
D14*
%TO.P,U3,43,HEADPHONES_VGND*%
%TO.N,HP VGND*%
X114173000Y-142494000D03*
%TO.P,U3,42,HEADPHONES_R*%
%TO.N,unconnected-(U3-HEADPHONES_R-Pad42)*%
X116713000Y-142494000D03*
%TO.P,U3,41,HEADPHONES_L*%
%TO.N,HP Line*%
X119253000Y-142494000D03*
D13*
%TO.P,U3,40,VOL_3.3V*%
%TO.N,unconnected-(U3-VOL_3.3V-Pad40)*%
X136423400Y-141620240D03*
%TO.P,U3,39,VOL_15_A1*%
%TO.N,unconnected-(U3-VOL_15_A1-Pad39)*%
X136423400Y-139082780D03*
%TO.P,U3,38,VOL_GND*%
%TO.N,unconnected-(U3-VOL_GND-Pad38)*%
X136423400Y-136502140D03*
%TO.P,U3,37,LINE_IN_L_GND*%
%TO.N,Net-(J8-Pin_1)*%
X123063000Y-109220000D03*
%TO.P,U3,36,LINE_IN_R_GND*%
%TO.N,Line in R GND*%
X125603000Y-109220000D03*
%TO.P,U3,35,LINE_IN_L*%
%TO.N,Net-(J8-Pin_2)*%
X123063000Y-111760000D03*
%TO.P,U3,34,LINE_IN_R*%
%TO.N,Line in R*%
X125603000Y-111760000D03*
%TO.P,U3,33,LINE_OUT_R*%
%TO.N,Line OUT R*%
X128143000Y-111760000D03*
%TO.P,U3,32,LINE_OUT_GND*%
%TO.N,GND1*%
X130683000Y-111760000D03*
%TO.P,U3,31,LINE_OUT_L*%
%TO.N,Net-(Q1-G)*%
X133223000Y-111760000D03*
D14*
%TO.P,U3,30,5V*%
%TO.N,+5V*%
X111633000Y-115570000D03*
%TO.P,U3,29,GND*%
%TO.N,GND*%
X114173000Y-115570000D03*
%TO.P,U3,28,3V*%
%TO.N,+3.3V*%
X116713000Y-115570000D03*
%TO.P,U3,27,23_A9_CRX1_MCLK1*%
%TO.N,unconnected-(U3-23_A9_CRX1_MCLK1-Pad27)*%
X119253000Y-115570000D03*
%TO.P,U3,26,22_A8_CTX1*%
%TO.N,Batt Vref*%
X121793000Y-115570000D03*
%TO.P,U3,25,21_A7_RX5_BCLK1*%
%TO.N,unconnected-(U3-21_A7_RX5_BCLK1-Pad25)*%
X124333000Y-115570000D03*
%TO.P,U3,24,20_A6_TX5_LRCLK1*%
%TO.N,unconnected-(U3-20_A6_TX5_LRCLK1-Pad24)*%
X126873000Y-115570000D03*
%TO.P,U3,23,19_A5_SCL0*%
%TO.N,unconnected-(U3-19_A5_SCL0-Pad23)*%
X129413000Y-115570000D03*
%TO.P,U3,22,18_A4_SDA0*%
%TO.N,unconnected-(U3-18_A4_SDA0-Pad22)*%
X131953000Y-115570000D03*
%TO.P,U3,21,17_A3_TX4_SDA1*%
%TO.N,Pin 17 SDA1*%
X134493000Y-115570000D03*
%TO.P,U3,20,16_A2_RX4_SCL1*%
%TO.N,Pin 16 SCL1*%
X137033000Y-115570000D03*
%TO.P,U3,19,15_A1_RX3_SPDIF_IN_VOL*%
%TO.N,unconnected-(U3-15_A1_RX3_SPDIF_IN_VOL-Pad19)*%
X139573000Y-115570000D03*
%TO.P,U3,18,14_A0_TX3_SPDIF_OUT*%
%TO.N,Net-(SW2-B)*%
X142113000Y-115570000D03*
%TO.P,U3,17,13_SCK_CRX1_LED*%
%TO.N,unconnected-(U3-13_SCK_CRX1_LED-Pad17)*%
X144653000Y-115570000D03*
%TO.P,U3,16,GND*%
%TO.N,unconnected-(U3-GND-Pad16)*%
X111633000Y-123190000D03*
%TO.P,U3,15,MIC*%
%TO.N,unconnected-(U3-MIC-Pad15)*%
X111633000Y-120650000D03*
%TO.P,U3,14,12_MISO_MQSL*%
%TO.N,unconnected-(U3-12_MISO_MQSL-Pad14)*%
X144653000Y-130810000D03*
%TO.P,U3,13,11_MOSI_CTX1*%
%TO.N,unconnected-(U3-11_MOSI_CTX1-Pad13)*%
X142113000Y-130810000D03*
%TO.P,U3,12,10_CS_MQSR*%
%TO.N,unconnected-(U3-10_CS_MQSR-Pad12)*%
X139573000Y-130810000D03*
%TO.P,U3,11,9_OUT1C*%
%TO.N,unconnected-(U3-9_OUT1C-Pad11)*%
X137033000Y-130810000D03*
%TO.P,U3,10,8_TX2_IN1*%
%TO.N,unconnected-(U3-8_TX2_IN1-Pad10)*%
X134493000Y-130810000D03*
%TO.P,U3,9,7_RX2_OUT1A*%
%TO.N,unconnected-(U3-7_RX2_OUT1A-Pad9)*%
X131953000Y-130810000D03*
%TO.P,U3,8,6_OUT1D*%
%TO.N,unconnected-(U3-6_OUT1D-Pad8)*%
X129413000Y-130810000D03*
%TO.P,U3,7,5_IN2*%
%TO.N,unconnected-(U3-5_IN2-Pad7)*%
X126873000Y-130810000D03*
%TO.P,U3,6,4_BCLK2*%
%TO.N,unconnected-(U3-4_BCLK2-Pad6)*%
X124333000Y-130810000D03*
%TO.P,U3,5,3_LRCLK2*%
%TO.N,unconnected-(U3-3_LRCLK2-Pad5)*%
X121793000Y-130810000D03*
%TO.P,U3,4,2_OUT2*%
%TO.N,Pin 2*%
X119253000Y-130810000D03*
%TO.P,U3,3,1_TX1_CTX2_MISO1*%
%TO.N,unconnected-(U3-1_TX1_CTX2_MISO1-Pad3)*%
X116713000Y-130810000D03*
%TO.P,U3,2,0_RX1_CRX2_CS1*%
%TO.N,unconnected-(U3-0_RX1_CRX2_CS1-Pad2)*%
X114173000Y-130810000D03*
%TO.P,U3,1,GND*%
%TO.N,GND*%
X111633000Y-130810000D03*
%TD*%
D15*
%TO.P,J1,1,Pin_1*%
%TO.N,Net-(J1-Pin_1)*%
X150766000Y-133183000D03*
D16*
%TO.P,J1,2,Pin_2*%
%TO.N,GND*%
X150766000Y-130683000D03*
%TO.P,J1,3,Pin_3*%
%TO.N,Batt Vref*%
X150766000Y-128183000D03*
%TD*%
D17*
%TO.P,SW2,1,A*%
%TO.N,GND*%
X155050000Y-112075000D03*
%TO.P,SW2,2,B*%
%TO.N,Net-(SW2-B)*%
X153800000Y-112075000D03*
%TD*%
D18*
%TO.P,SW1,1,A*%
%TO.N,+9V*%
X106680000Y-130556000D03*
D19*
%TO.P,SW1,2,B*%
%TO.N,Net-(J1-Pin_1)*%
X106680000Y-133056000D03*
%TD*%
D17*
%TO.P,J9,1,Pin_1*%
%TO.N,Line in R GND*%
X124333000Y-103632000D03*
%TO.P,J9,2,Pin_2*%
%TO.N,Line in R*%
X123083000Y-103632000D03*
%TD*%
%TO.P,J8,1,Pin_1*%
%TO.N,Net-(J8-Pin_1)*%
X118390000Y-103614000D03*
%TO.P,J8,2,Pin_2*%
%TO.N,Net-(J8-Pin_2)*%
X117140000Y-103614000D03*
%TO.P,J8,3,Pin_3*%
%TO.N,GND*%
X115890000Y-103614000D03*
%TO.P,J8,4,Pin_4*%
%TO.N,+9V*%
X114640000Y-103614000D03*
%TD*%
%TO.P,J7,1,Pin_1*%
%TO.N,GND1*%
X129520000Y-103632000D03*
%TO.P,J7,2,Pin_2*%
%TO.N,Line OUT R*%
X128270000Y-103632000D03*
%TD*%
%TO.P,J6,1,Pin_1*%
%TO.N,Net-(J6-Pin_1)*%
X174654000Y-117485000D03*
%TO.P,J6,2,Pin_2*%
%TO.N,GND1*%
X173404000Y-117485000D03*
%TD*%
%TO.P,J5,2,Pin_2*%
%TO.N,HP Line*%
X108146000Y-138213000D03*
%TO.P,J5,1,Pin_1*%
%TO.N,HP VGND*%
X108146000Y-139463000D03*
%TD*%
%TO.P,J4,1,Pin_1*%
%TO.N,+5V*%
X101525000Y-122925000D03*
%TO.P,J4,2,Pin_2*%
%TO.N,GND*%
X101525000Y-124175000D03*
%TO.P,J4,3,Pin_3*%
%TO.N,Pin 2*%
X101525000Y-125425000D03*
%TD*%
%TO.P,J3,1,Pin_1*%
%TO.N,+3.3V*%
X156050000Y-117375000D03*
%TO.P,J3,2,Pin_2*%
%TO.N,GND*%
X154800000Y-117375000D03*
%TO.P,J3,3,Pin_3*%
%TO.N,Pin 16 SCL1*%
X153550000Y-117375000D03*
%TO.P,J3,4,Pin_4*%
%TO.N,Pin 17 SDA1*%
X152300000Y-117375000D03*
%TD*%
%TO.P,J2,4,Pin_4*%
%TO.N,Pin 17 SDA1*%
X152274000Y-121820000D03*
%TO.P,J2,3,Pin_3*%
%TO.N,Pin 16 SCL1*%
X153524000Y-121820000D03*
%TO.P,J2,2,Pin_2*%
%TO.N,+3.3V*%
X154774000Y-121820000D03*
%TO.P,J2,1,Pin_1*%
%TO.N,GND*%
X156024000Y-121820000D03*
%TD*%
D20*
%TO.P,C1,1*%
%TO.N,+9V*%
X100506000Y-118999000D03*
%TO.P,C1,2*%
%TO.N,GND*%
X103456000Y-118999000D03*
%TD*%
D21*
%TO.P,C5,1*%
%TO.N,Net-(C5-Pad1)*%
X167458000Y-110588000D03*
%TO.P,C5,2*%
%TO.N,Net-(Q1-S)*%
X167458000Y-107638000D03*
%TD*%
D22*
%TO.P,Gain1,1,1*%
%TO.N,Net-(Gain1-Pad1)*%
X171998000Y-122595000D03*
%TO.P,Gain1,2,2*%
%TO.N,Net-(Gain1-Pad2)*%
X174498000Y-127595000D03*
%TO.P,Gain1,3,3*%
X176998000Y-122595000D03*
%TD*%
%TO.P,Vol1,3,3*%
%TO.N,GND1*%
X161701000Y-118217000D03*
%TO.P,Vol1,2,2*%
%TO.N,Net-(U2--)*%
X164201000Y-113217000D03*
%TO.P,Vol1,1,1*%
%TO.N,Net-(C5-Pad1)*%
X166701000Y-118217000D03*
%TD*%
D23*
%TO.P,R1,1*%
%TO.N,Net-(Q1-G)*%
X174719500Y-107833000D03*
%TO.P,R1,2*%
%TO.N,GND1*%
X171794500Y-107833000D03*
%TD*%
D24*
%TO.P,C6,1*%
%TO.N,+9V*%
X162583000Y-134122000D03*
%TO.P,C6,2*%
%TO.N,GND1*%
X157183000Y-134122000D03*
%TD*%
D25*
%TO.P,C3,1*%
%TO.N,Net-(J1-Pin_1)*%
X152736000Y-139573000D03*
%TO.P,C3,2*%
%TO.N,GND*%
X148336000Y-139573000D03*
%TD*%
D26*
%TO.P,C7,1*%
%TO.N,Net-(C7-Pad1)*%
X168016000Y-135646000D03*
%TO.P,C7,2*%
%TO.N,Net-(J6-Pin_1)*%
X175416000Y-135646000D03*
%TD*%
D27*
%TO.P,R2,1*%
%TO.N,Net-(Q1-S)*%
X163267000Y-110702500D03*
%TO.P,R2,2*%
%TO.N,GND1*%
X163267000Y-107777500D03*
%TD*%
D23*
%TO.P,R3,1*%
%TO.N,Net-(C7-Pad1)*%
X164051500Y-139583000D03*
%TO.P,R3,2*%
%TO.N,Net-(C8-Pad2)*%
X161126500Y-139583000D03*
%TD*%
D28*
%TO.P,U2,1,GAIN*%
%TO.N,Net-(Gain1-Pad1)*%
X168519000Y-121422000D03*
D29*
%TO.P,U2,2,-*%
%TO.N,Net-(U2--)*%
X165979000Y-121422000D03*
%TO.P,U2,3,+*%
%TO.N,GND1*%
X163439000Y-121422000D03*
%TO.P,U2,4,GND*%
X160899000Y-121422000D03*
%TO.P,U2,5*%
%TO.N,Net-(C7-Pad1)*%
X160899000Y-129042000D03*
%TO.P,U2,6,V+*%
%TO.N,+9V*%
X163439000Y-129042000D03*
%TO.P,U2,7,BYPASS*%
%TO.N,Net-(U2-BYPASS)*%
X165979000Y-129042000D03*
%TO.P,U2,8,GAIN*%
%TO.N,Net-(Gain1-Pad2)*%
X168519000Y-129042000D03*
%TD*%
D21*
%TO.P,C4,1*%
%TO.N,Net-(U2-BYPASS)*%
X157425000Y-127950000D03*
%TO.P,C4,2*%
%TO.N,GND1*%
X157425000Y-125000000D03*
%TD*%
D20*
%TO.P,C8,1*%
%TO.N,GND1*%
X156077000Y-139583000D03*
%TO.P,C8,2*%
%TO.N,Net-(C8-Pad2)*%
X159027000Y-139583000D03*
%TD*%
D30*
%TO.P,Q1,1,D*%
%TO.N,+9V*%
X175035000Y-112532000D03*
D31*
%TO.P,Q1,2,G*%
%TO.N,Net-(Q1-G)*%
X173765000Y-113802000D03*
%TO.P,Q1,3,S*%
%TO.N,Net-(Q1-S)*%
X172495000Y-112532000D03*
%TD*%
D32*
%TO.N,Net-(SW2-B)*%
X152591000Y-113284000D02*
X153800000Y-112075000D01*
X144399000Y-113284000D02*
X152591000Y-113284000D01*
X142113000Y-115570000D02*
X144399000Y-113284000D01*
%TO.N,GND*%
X155008000Y-112117000D02*
X155050000Y-112075000D01*
X155008000Y-115978000D02*
X155008000Y-112117000D01*
%TO.N,Net-(Q1-S)*%
X172495000Y-111770000D02*
X168363000Y-107638000D01*
%TO.N,+9V*%
X114640000Y-105285000D02*
X114640000Y-103614000D01*
X107800000Y-112125000D02*
X114640000Y-105285000D01*
X106869000Y-112125000D02*
X107800000Y-112125000D01*
X103364000Y-115630000D02*
X106869000Y-112125000D01*
X103364000Y-116180000D02*
X103364000Y-115630000D01*
%TO.N,Pin 2*%
X112636000Y-129286000D02*
X113157000Y-129286000D01*
X102150000Y-126050000D02*
X109400000Y-126050000D01*
X109400000Y-126050000D02*
X112636000Y-129286000D01*
X101525000Y-125425000D02*
X102150000Y-126050000D01*
%TO.N,GND*%
X100300000Y-124175000D02*
X100250000Y-124225000D01*
X100250000Y-124225000D02*
X100250000Y-122350000D01*
X100250000Y-125783148D02*
X100250000Y-124225000D01*
X101525000Y-124175000D02*
X100300000Y-124175000D01*
%TO.N,+5V*%
X105664000Y-122125000D02*
X108790000Y-118999000D01*
X104325000Y-122125000D02*
X105664000Y-122125000D01*
X103525000Y-122925000D02*
X104325000Y-122125000D01*
X101525000Y-122925000D02*
X103525000Y-122925000D01*
%TO.N,GND*%
X104648000Y-120102000D02*
X104648000Y-118999000D01*
X101250000Y-121350000D02*
X103400000Y-121350000D01*
X103400000Y-121350000D02*
X104648000Y-120102000D01*
X106299000Y-127508000D02*
X101974852Y-127508000D01*
X101974852Y-127508000D02*
X100250000Y-125783148D01*
X100250000Y-122350000D02*
X101250000Y-121350000D01*
%TO.N,+9V*%
X99225000Y-127575000D02*
X99225000Y-120280000D01*
X100100000Y-128450000D02*
X99225000Y-127575000D01*
X101475000Y-128450000D02*
X100100000Y-128450000D01*
X103581000Y-130556000D02*
X101475000Y-128450000D01*
X99225000Y-120280000D02*
X100506000Y-118999000D01*
X106680000Y-130556000D02*
X103581000Y-130556000D01*
%TO.N,GND*%
X151638000Y-130683000D02*
X150766000Y-130683000D01*
X153850000Y-128471000D02*
X151638000Y-130683000D01*
X153850000Y-125350000D02*
X153850000Y-128471000D01*
X155674000Y-122351000D02*
X155674000Y-123526000D01*
X157548000Y-120477000D02*
X155674000Y-122351000D01*
X157548000Y-117248000D02*
X157548000Y-120477000D01*
X155674000Y-123526000D02*
X153850000Y-125350000D01*
X155008000Y-115978000D02*
X156278000Y-115978000D01*
X156278000Y-115978000D02*
X157548000Y-117248000D01*
%TO.N,+3.3V*%
X153907000Y-123175000D02*
X154774000Y-122308000D01*
X145669000Y-121539000D02*
X147305000Y-123175000D01*
X156050000Y-118238000D02*
X156050000Y-117375000D01*
X122682000Y-121539000D02*
X145669000Y-121539000D01*
X147305000Y-123175000D02*
X153907000Y-123175000D01*
X154774000Y-122308000D02*
X154774000Y-119514000D01*
X154774000Y-119514000D02*
X156050000Y-118238000D01*
X119443500Y-118300500D02*
X122682000Y-121539000D01*
%TO.N,Pin 17 SDA1*%
X150944000Y-117375000D02*
X152300000Y-117375000D01*
X150094000Y-118225000D02*
X150944000Y-117375000D01*
X137148000Y-118225000D02*
X150094000Y-118225000D01*
X134493000Y-115570000D02*
X137148000Y-118225000D01*
%TO.N,Pin 16 SCL1*%
X153103000Y-116232000D02*
X153550000Y-116679000D01*
X149801000Y-116232000D02*
X153103000Y-116232000D01*
X148883000Y-117150000D02*
X149801000Y-116232000D01*
X138613000Y-117150000D02*
X148883000Y-117150000D01*
X153550000Y-116679000D02*
X153550000Y-117375000D01*
X137033000Y-115570000D02*
X138613000Y-117150000D01*
%TO.N,GND1*%
X174019000Y-119771000D02*
X173404000Y-119156000D01*
X173404669Y-124265000D02*
X174019000Y-123650669D01*
X174019000Y-123650669D02*
X174019000Y-119771000D01*
X158160000Y-124265000D02*
X173404669Y-124265000D01*
X157425000Y-125000000D02*
X158160000Y-124265000D01*
X173404000Y-119156000D02*
X173404000Y-117485000D01*
%TO.N,Net-(U2-BYPASS)*%
X157978000Y-127215000D02*
X157978000Y-127397000D01*
X157978000Y-127397000D02*
X157425000Y-127950000D01*
X163439000Y-126502000D02*
X165979000Y-129042000D01*
X157978000Y-127215000D02*
X158691000Y-126502000D01*
X158691000Y-126502000D02*
X163439000Y-126502000D01*
%TO.N,Pin 17 SDA1*%
X152300000Y-121794000D02*
X152274000Y-121820000D01*
X152300000Y-117375000D02*
X152300000Y-121794000D01*
%TO.N,Pin 16 SCL1*%
X153550000Y-121794000D02*
X153524000Y-121820000D01*
X153550000Y-117375000D02*
X153550000Y-121794000D01*
%TO.N,GND*%
X154800000Y-116186000D02*
X154800000Y-117375000D01*
X155008000Y-115978000D02*
X154800000Y-116186000D01*
%TO.N,+9V*%
X105664000Y-130556000D02*
X106680000Y-130556000D01*
X104394000Y-131826000D02*
X105664000Y-130556000D01*
X111633000Y-144526000D02*
X104394000Y-137287000D01*
X175641000Y-140335000D02*
X171450000Y-144526000D01*
X171450000Y-144526000D02*
X111633000Y-144526000D01*
X175641000Y-138313000D02*
X175641000Y-140335000D01*
X104394000Y-137287000D02*
X104394000Y-131826000D01*
%TO.N,HP VGND*%
X111633000Y-142494000D02*
X108602000Y-139463000D01*
X108602000Y-139463000D02*
X108146000Y-139463000D01*
X114173000Y-142494000D02*
X111633000Y-142494000D01*
%TO.N,HP Line*%
X109003000Y-138213000D02*
X108146000Y-138213000D01*
X111506000Y-140716000D02*
X109003000Y-138213000D01*
X119253000Y-142494000D02*
X117475000Y-140716000D01*
X117475000Y-140716000D02*
X111506000Y-140716000D01*
%TO.N,Net-(J1-Pin_1)*%
X150663000Y-142621000D02*
X153584000Y-139700000D01*
X147218400Y-142621000D02*
X150663000Y-142621000D01*
X139369800Y-134772400D02*
X147218400Y-142621000D01*
X153584000Y-139700000D02*
X150766000Y-136882000D01*
X150766000Y-136882000D02*
X150766000Y-133183000D01*
X108396400Y-134772400D02*
X139369800Y-134772400D01*
X106680000Y-133056000D02*
X108396400Y-134772400D01*
%TO.N,GND*%
X149860000Y-130683000D02*
X150766000Y-130683000D01*
X148590000Y-131953000D02*
X149860000Y-130683000D01*
X149184000Y-139700000D02*
X148590000Y-139106000D01*
X148132800Y-139700000D02*
X149184000Y-139700000D01*
X141579600Y-133146800D02*
X148132800Y-139700000D01*
X108585000Y-127508000D02*
X109347000Y-128270000D01*
X109347000Y-128270000D02*
X109347000Y-130556000D01*
X106299000Y-127508000D02*
X108585000Y-127508000D01*
X148590000Y-139106000D02*
X148590000Y-131953000D01*
X109347000Y-130556000D02*
X111937800Y-133146800D01*
X111937800Y-133146800D02*
X141579600Y-133146800D01*
%TO.N,Pin 2*%
X117729000Y-129286000D02*
X119253000Y-130810000D01*
X113157000Y-129286000D02*
X117729000Y-129286000D01*
%TO.N,+9V*%
X100506000Y-118530000D02*
X103491000Y-115545000D01*
X100506000Y-118999000D02*
X100506000Y-118530000D01*
%TO.N,GND*%
X104648000Y-117856000D02*
X104648000Y-118999000D01*
X105791000Y-116713000D02*
X104648000Y-117856000D01*
X105791000Y-115062000D02*
X105791000Y-116713000D01*
X107315000Y-113538000D02*
X105791000Y-115062000D01*
X110617000Y-113538000D02*
X107315000Y-113538000D01*
X111379000Y-112776000D02*
X110617000Y-113538000D01*
%TO.N,+5V*%
X108790000Y-116244000D02*
X108091000Y-115545000D01*
X108790000Y-118999000D02*
X108790000Y-116244000D01*
X108790000Y-118999000D02*
X110363000Y-118999000D01*
X110363000Y-118999000D02*
X111633000Y-117729000D01*
X111633000Y-117729000D02*
X111633000Y-115570000D01*
%TO.N,GND*%
X104648000Y-118999000D02*
X105840000Y-118999000D01*
X103456000Y-118999000D02*
X104648000Y-118999000D01*
%TO.N,+9V*%
X175641000Y-138313000D02*
X178210000Y-138313000D01*
X172368000Y-138313000D02*
X175641000Y-138313000D01*
%TO.N,GND*%
X115890000Y-108265000D02*
X115890000Y-103614000D01*
X111379000Y-112776000D02*
X115890000Y-108265000D01*
%TO.N,Net-(J8-Pin_2)*%
X117140000Y-108677069D02*
X117140000Y-103614000D01*
X120222931Y-111760000D02*
X117140000Y-108677069D01*
X123063000Y-111760000D02*
X120222931Y-111760000D01*
%TO.N,Net-(J8-Pin_1)*%
X118390000Y-107483298D02*
X118390000Y-103614000D01*
X120126702Y-109220000D02*
X118390000Y-107483298D01*
X123063000Y-109220000D02*
X120126702Y-109220000D01*
D33*
%TO.N,Line in R*%
X123444000Y-104902000D02*
X123083000Y-104541000D01*
X123555000Y-104902000D02*
X123444000Y-104902000D01*
X124325000Y-105672000D02*
X123555000Y-104902000D01*
X124325000Y-110482000D02*
X124325000Y-105672000D01*
X123083000Y-104541000D02*
X123083000Y-103632000D01*
X125603000Y-111760000D02*
X124325000Y-110482000D01*
D32*
%TO.N,Line in R GND*%
X125603000Y-104902000D02*
X125603000Y-109220000D01*
X124333000Y-103632000D02*
X125603000Y-104902000D01*
%TO.N,Line OUT R*%
X128270000Y-106172000D02*
X128270000Y-103632000D01*
X129794000Y-107696000D02*
X128270000Y-106172000D01*
X129794000Y-110109000D02*
X129794000Y-107696000D01*
X128143000Y-111760000D02*
X129794000Y-110109000D01*
%TO.N,GND1*%
X129520000Y-105771000D02*
X129520000Y-103632000D01*
X130937000Y-107188000D02*
X129520000Y-105771000D01*
X130937000Y-111506000D02*
X130937000Y-107188000D01*
X130683000Y-111760000D02*
X130937000Y-111506000D01*
%TO.N,Net-(Q1-G)*%
X174719500Y-105758500D02*
X174719500Y-107833000D01*
X173863000Y-104902000D02*
X174719500Y-105758500D01*
X172974000Y-104902000D02*
X173863000Y-104902000D01*
X171069000Y-102997000D02*
X172974000Y-104902000D01*
X160909000Y-102997000D02*
X171069000Y-102997000D01*
X156464000Y-107442000D02*
X160909000Y-102997000D01*
X146431000Y-107442000D02*
X156464000Y-107442000D01*
X143637000Y-110236000D02*
X146431000Y-107442000D01*
X135890000Y-110236000D02*
X143637000Y-110236000D01*
X134366000Y-111760000D02*
X135890000Y-110236000D01*
X133223000Y-111760000D02*
X134366000Y-111760000D01*
%TO.N,GND1*%
X171794500Y-105862500D02*
X171794500Y-107833000D01*
X170326000Y-104394000D02*
X171794500Y-105862500D01*
X162306000Y-104394000D02*
X170326000Y-104394000D01*
X147701000Y-108839000D02*
X157861000Y-108839000D01*
X136525000Y-113538000D02*
X138303000Y-111760000D01*
X138303000Y-111760000D02*
X144780000Y-111760000D01*
X157861000Y-108839000D02*
X162306000Y-104394000D01*
X132461000Y-113538000D02*
X136525000Y-113538000D01*
X130683000Y-111760000D02*
X132461000Y-113538000D01*
X144780000Y-111760000D02*
X147701000Y-108839000D01*
%TO.N,+9V*%
X178806000Y-116850000D02*
X178806000Y-116303000D01*
X180711000Y-118755000D02*
X178806000Y-116850000D01*
X180711000Y-129589000D02*
X180711000Y-118755000D01*
X178806000Y-116303000D02*
X175035000Y-112532000D01*
X179099000Y-131201000D02*
X180711000Y-129589000D01*
X178210000Y-138313000D02*
X179099000Y-137424000D01*
X171860000Y-137805000D02*
X172368000Y-138313000D01*
X171860000Y-134249000D02*
X171860000Y-137805000D01*
X163599000Y-133106000D02*
X170717000Y-133106000D01*
X170717000Y-133106000D02*
X171860000Y-134249000D01*
X162583000Y-134122000D02*
X163599000Y-133106000D01*
X179099000Y-137424000D02*
X179099000Y-131201000D01*
%TO.N,Net-(J6-Pin_1)*%
X178933000Y-121510000D02*
X174908000Y-117485000D01*
X178933000Y-128700000D02*
X178933000Y-121510000D01*
X177067000Y-130566000D02*
X178933000Y-128700000D01*
X174908000Y-117485000D02*
X174654000Y-117485000D01*
X177067000Y-133995000D02*
X177067000Y-130566000D01*
X175416000Y-135646000D02*
X177067000Y-133995000D01*
%TO.N,Net-(C7-Pad1)*%
X164411000Y-139251000D02*
X168016000Y-135646000D01*
X163967500Y-139251000D02*
X164411000Y-139251000D01*
%TO.N,GND1*%
X170016500Y-106055000D02*
X171794500Y-107833000D01*
X163267000Y-106888500D02*
X164100500Y-106055000D01*
X163267000Y-107777500D02*
X163267000Y-106888500D01*
X164100500Y-106055000D02*
X170016500Y-106055000D01*
%TO.N,Net-(Q1-G)*%
X173765000Y-108787500D02*
X173765000Y-113802000D01*
X174719500Y-107833000D02*
X173765000Y-108787500D01*
%TO.N,Net-(Q1-S)*%
X168363000Y-107638000D02*
X167458000Y-107638000D01*
X172495000Y-112532000D02*
X172495000Y-111770000D01*
D33*
%TO.N,Batt Vref*%
X147614000Y-128183000D02*
X150766000Y-128183000D01*
X146812000Y-127381000D02*
X147614000Y-128183000D01*
D32*
%TO.N,+9V*%
X163439000Y-133266000D02*
X162583000Y-134122000D01*
X163439000Y-129042000D02*
X163439000Y-133266000D01*
%TO.N,GND*%
X111556000Y-130887000D02*
X111633000Y-130810000D01*
X114173000Y-115570000D02*
X111379000Y-112776000D01*
%TO.N,Net-(Gain1-Pad1)*%
X170825000Y-121422000D02*
X171998000Y-122595000D01*
X168519000Y-121422000D02*
X170825000Y-121422000D01*
%TO.N,Net-(U2--)*%
X164201000Y-118429000D02*
X164537000Y-118765000D01*
X164537000Y-118765000D02*
X164537000Y-119019000D01*
X164201000Y-118429000D02*
X164201000Y-113217000D01*
X164537000Y-119019000D02*
X165979000Y-120461000D01*
X165979000Y-120461000D02*
X165979000Y-121422000D01*
%TO.N,Net-(C7-Pad1)*%
X160899000Y-131201000D02*
X159883000Y-132217000D01*
X159883000Y-132217000D02*
X159883000Y-134851000D01*
X159883000Y-134851000D02*
X164139500Y-139107500D01*
X160899000Y-129042000D02*
X160899000Y-131201000D01*
%TO.N,Net-(Gain1-Pad2)*%
X174498000Y-127595000D02*
X173188000Y-128905000D01*
X174498000Y-125095000D02*
X176998000Y-122595000D01*
X174498000Y-127595000D02*
X174498000Y-125095000D01*
X172583000Y-129042000D02*
X168519000Y-129042000D01*
X172720000Y-128905000D02*
X172583000Y-129042000D01*
X173188000Y-128905000D02*
X172720000Y-128905000D01*
D33*
%TO.N,Batt Vref*%
X146812000Y-125799588D02*
X146812000Y-127381000D01*
X116447631Y-113665000D02*
X115451000Y-114661631D01*
X115451000Y-114661631D02*
X115451000Y-121547000D01*
X119888000Y-113665000D02*
X116447631Y-113665000D01*
X121793000Y-115570000D02*
X119888000Y-113665000D01*
X117475000Y-123571000D02*
X144583412Y-123571000D01*
X115451000Y-121547000D02*
X117475000Y-123571000D01*
X144583412Y-123571000D02*
X146812000Y-125799588D01*
%TO.N,+3.3V*%
X116713000Y-115570000D02*
X119443500Y-118300500D01*
D32*
%TO.N,GND1*%
X160821000Y-121422000D02*
X160899000Y-121422000D01*
X161701000Y-120620000D02*
X160899000Y-121422000D01*
X157183000Y-134122000D02*
X155438000Y-132377000D01*
X163439000Y-121422000D02*
X160899000Y-121422000D01*
X156581000Y-124470000D02*
X157773000Y-124470000D01*
X161235000Y-116050000D02*
X161701000Y-116516000D01*
X161701000Y-116516000D02*
X161701000Y-120620000D01*
X157183000Y-134122000D02*
X156077000Y-135228000D01*
X161235000Y-109809500D02*
X161235000Y-116050000D01*
X155438000Y-125613000D02*
X156581000Y-124470000D01*
X163267000Y-107777500D02*
X161235000Y-109809500D01*
X157773000Y-124470000D02*
X160821000Y-121422000D01*
X155438000Y-132377000D02*
X155438000Y-125613000D01*
X156077000Y-135228000D02*
X156077000Y-139251000D01*
X163791500Y-107638000D02*
X163775000Y-107654500D01*
%TO.N,HP VGND*%
X114173000Y-142494000D02*
X114046000Y-142621000D01*
%TO.N,Line in R GND*%
X125603000Y-109220000D02*
X125349000Y-108966000D01*
%TO.N,Net-(Q1-S)*%
X166331500Y-107638000D02*
X163267000Y-110702500D01*
X167458000Y-107638000D02*
X166331500Y-107638000D01*
%TO.N,Net-(C5-Pad1)*%
X167458000Y-110588000D02*
X166701000Y-111345000D01*
X166701000Y-116516000D02*
X166701000Y-118217000D01*
X166741000Y-116476000D02*
X166701000Y-116516000D01*
X166701000Y-111345000D02*
X166701000Y-116516000D01*
%TO.N,Net-(C8-Pad2)*%
X159027000Y-139251000D02*
X161042500Y-139251000D01*
%TD*%
%TA.AperFunction,Conductor*%
%TO.N,GND1*%
G36*
X166588163Y-108680784D02*
G01*
X166596785Y-108683641D01*
X166655203Y-108702999D01*
X166757991Y-108713500D01*
X168158008Y-108713499D01*
X168169888Y-108712285D01*
X168238580Y-108725053D01*
X168270173Y-108747962D01*
X171427381Y-111905170D01*
X171460866Y-111966493D01*
X171455882Y-112036185D01*
X171450701Y-112048120D01*
X171417597Y-112114604D01*
X171417596Y-112114607D01*
X171359244Y-112319689D01*
X171339848Y-112529016D01*
X171339571Y-112532000D01*
X171359244Y-112744310D01*
X171416102Y-112944143D01*
X171417596Y-112949392D01*
X171417596Y-112949394D01*
X171512632Y-113140253D01*
X171641127Y-113310406D01*
X171641128Y-113310407D01*
X171798698Y-113454052D01*
X171979981Y-113566298D01*
X172178802Y-113643321D01*
X172388390Y-113682500D01*
X172388392Y-113682500D01*
X172485571Y-113682500D01*
X172552610Y-113702185D01*
X172598365Y-113754989D01*
X172607383Y-113796445D01*
X172609042Y-113796292D01*
X172612510Y-113833716D01*
X172629244Y-114014310D01*
X172669033Y-114154153D01*
X172687596Y-114219392D01*
X172687596Y-114219394D01*
X172782632Y-114410253D01*
X172910710Y-114579854D01*
X172911128Y-114580407D01*
X173068698Y-114724052D01*
X173249981Y-114836298D01*
X173448802Y-114913321D01*
X173658390Y-114952500D01*
X173658392Y-114952500D01*
X173871608Y-114952500D01*
X173871610Y-114952500D01*
X174081198Y-114913321D01*
X174280019Y-114836298D01*
X174461302Y-114724052D01*
X174618872Y-114580407D01*
X174747366Y-114410255D01*
X174757927Y-114389045D01*
X174842403Y-114219394D01*
X174842403Y-114219393D01*
X174842405Y-114219389D01*
X174900756Y-114014310D01*
X174911473Y-113898651D01*
X174937257Y-113833716D01*
X174994057Y-113793028D01*
X175063838Y-113789508D01*
X175122624Y-113822413D01*
X177919181Y-116618970D01*
X177952666Y-116680293D01*
X177955500Y-116706651D01*
X177955500Y-116812911D01*
X177955295Y-116817945D01*
X177950798Y-116873163D01*
X177961729Y-116953392D01*
X177970486Y-117033913D01*
X177970710Y-117034930D01*
X177975525Y-117055473D01*
X177975773Y-117056470D01*
X177987156Y-117087453D01*
X178003700Y-117132486D01*
X178022799Y-117189169D01*
X178029557Y-117209223D01*
X178030001Y-117210185D01*
X178039146Y-117229266D01*
X178039564Y-117230109D01*
X178083184Y-117298353D01*
X178124930Y-117367736D01*
X178125538Y-117368536D01*
X178138578Y-117385216D01*
X178139201Y-117385991D01*
X178196458Y-117443248D01*
X178252149Y-117502040D01*
X178252950Y-117502720D01*
X178270118Y-117516907D01*
X179059857Y-118306646D01*
X179824181Y-119070969D01*
X179857666Y-119132292D01*
X179860500Y-119158650D01*
X179860500Y-120955226D01*
X179840815Y-121022265D01*
X179788011Y-121068020D01*
X179718853Y-121077964D01*
X179655297Y-121048939D01*
X179630250Y-121019155D01*
X179614070Y-120992264D01*
X179613409Y-120991395D01*
X179600541Y-120974934D01*
X179599802Y-120974014D01*
X179599801Y-120974013D01*
X179599800Y-120974011D01*
X179542539Y-120916750D01*
X179486849Y-120857959D01*
X179486088Y-120857312D01*
X179468881Y-120843092D01*
X177503142Y-118877353D01*
X175535607Y-116909818D01*
X175532204Y-116906126D01*
X175501173Y-116869593D01*
X175496337Y-116863900D01*
X175431891Y-116814909D01*
X175368754Y-116764158D01*
X175368748Y-116764155D01*
X175367854Y-116763583D01*
X175350019Y-116752520D01*
X175349064Y-116751946D01*
X175275560Y-116717939D01*
X175203027Y-116681966D01*
X175201981Y-116681582D01*
X175182160Y-116674602D01*
X175181164Y-116674266D01*
X175102073Y-116656858D01*
X175023494Y-116637315D01*
X175022584Y-116637191D01*
X175001506Y-116634610D01*
X175000501Y-116634501D01*
X175000497Y-116634500D01*
X175000492Y-116634500D01*
X174919532Y-116634500D01*
X174917926Y-116634456D01*
X174866793Y-116633070D01*
X174844381Y-116630407D01*
X174746019Y-116609500D01*
X174561981Y-116609500D01*
X174381966Y-116647763D01*
X174381961Y-116647765D01*
X174213839Y-116722618D01*
X174101460Y-116804266D01*
X174035653Y-116827745D01*
X173967599Y-116811919D01*
X173955690Y-116804266D01*
X173843908Y-116723053D01*
X173843909Y-116723053D01*
X173675884Y-116648242D01*
X173675876Y-116648240D01*
X173495966Y-116610000D01*
X173312034Y-116610000D01*
X173132124Y-116648240D01*
X173132122Y-116648240D01*
X172985896Y-116713344D01*
X173404000Y-117131447D01*
X173495331Y-117222778D01*
X173431088Y-117210000D01*
X173376912Y-117210000D01*
X173296700Y-117225955D01*
X173205736Y-117286736D01*
X173144955Y-117377700D01*
X173123612Y-117485000D01*
X173144955Y-117592300D01*
X173205736Y-117683264D01*
X173296700Y-117744045D01*
X173376912Y-117760000D01*
X173431088Y-117760000D01*
X173495329Y-117747221D01*
X172985897Y-118256654D01*
X172985897Y-118256655D01*
X173132115Y-118321757D01*
X173132123Y-118321759D01*
X173312033Y-118359999D01*
X173312034Y-118360000D01*
X173495966Y-118360000D01*
X173495966Y-118359999D01*
X173675876Y-118321759D01*
X173675884Y-118321757D01*
X173843909Y-118246946D01*
X173955689Y-118165733D01*
X174021496Y-118142253D01*
X174089549Y-118158078D01*
X174101452Y-118165727D01*
X174143553Y-118196315D01*
X174213839Y-118247381D01*
X174381961Y-118322234D01*
X174381966Y-118322236D01*
X174481688Y-118343433D01*
X174549839Y-118357919D01*
X174611321Y-118391112D01*
X174611739Y-118391528D01*
X177306904Y-121086693D01*
X177340389Y-121148016D01*
X177335405Y-121217708D01*
X177293533Y-121273641D01*
X177228069Y-121298058D01*
X177208416Y-121297902D01*
X176998002Y-121279494D01*
X176997998Y-121279494D01*
X176769570Y-121299478D01*
X176769563Y-121299479D01*
X176548074Y-121358827D01*
X176548070Y-121358829D01*
X176340247Y-121455738D01*
X176152409Y-121587264D01*
X176152407Y-121587265D01*
X176152404Y-121587268D01*
X175990268Y-121749404D01*
X175990265Y-121749407D01*
X175990264Y-121749409D01*
X175900403Y-121877743D01*
X175858738Y-121937247D01*
X175761830Y-122145068D01*
X175761827Y-122145074D01*
X175702479Y-122366563D01*
X175702478Y-122366570D01*
X175682494Y-122594997D01*
X175682494Y-122595002D01*
X175686522Y-122641047D01*
X175672755Y-122709547D01*
X175650675Y-122739534D01*
X173922830Y-124467380D01*
X173919127Y-124470794D01*
X173887164Y-124497945D01*
X173876898Y-124506665D01*
X173827909Y-124571108D01*
X173777155Y-124634249D01*
X173776649Y-124635041D01*
X173765469Y-124653066D01*
X173764944Y-124653938D01*
X173730939Y-124727439D01*
X173694963Y-124799980D01*
X173694582Y-124801017D01*
X173687580Y-124820906D01*
X173687267Y-124821833D01*
X173669858Y-124900926D01*
X173650314Y-124979513D01*
X173650191Y-124980416D01*
X173647607Y-125001516D01*
X173647500Y-125002501D01*
X173647500Y-125083468D01*
X173645306Y-125164438D01*
X173645389Y-125165447D01*
X173647500Y-125187649D01*
X173647500Y-126540811D01*
X173627815Y-126607850D01*
X173611181Y-126628492D01*
X173490268Y-126749404D01*
X173490265Y-126749407D01*
X173490264Y-126749409D01*
X173395322Y-126885000D01*
X173358738Y-126937247D01*
X173261830Y-127145068D01*
X173261827Y-127145074D01*
X173202479Y-127366563D01*
X173202478Y-127366570D01*
X173182494Y-127594997D01*
X173182494Y-127595002D01*
X173186522Y-127641048D01*
X173172755Y-127709548D01*
X173150675Y-127739535D01*
X172872030Y-128018181D01*
X172810707Y-128051666D01*
X172784349Y-128054500D01*
X172757087Y-128054500D01*
X172752052Y-128054295D01*
X172696835Y-128049798D01*
X172696828Y-128049799D01*
X172616607Y-128060729D01*
X172536092Y-128069485D01*
X172535131Y-128069697D01*
X172514471Y-128074538D01*
X172513534Y-128074771D01*
X172437513Y-128102700D01*
X172360784Y-128128553D01*
X172359920Y-128128953D01*
X172340721Y-128138152D01*
X172339877Y-128138571D01*
X172287610Y-128171980D01*
X172220828Y-128191500D01*
X169559048Y-128191500D01*
X169492009Y-128171815D01*
X169471371Y-128155185D01*
X169358139Y-128041953D01*
X169358138Y-128041952D01*
X169358137Y-128041951D01*
X169171734Y-127911432D01*
X169171732Y-127911431D01*
X168965497Y-127815261D01*
X168965488Y-127815258D01*
X168745697Y-127756366D01*
X168745693Y-127756365D01*
X168745692Y-127756365D01*
X168745691Y-127756364D01*
X168745686Y-127756364D01*
X168519002Y-127736532D01*
X168518998Y-127736532D01*
X168292313Y-127756364D01*
X168292302Y-127756366D01*
X168072511Y-127815258D01*
X168072502Y-127815261D01*
X167866267Y-127911431D01*
X167866265Y-127911432D01*
X167679858Y-128041954D01*
X167518954Y-128202858D01*
X167388432Y-128389265D01*
X167388431Y-128389267D01*
X167361382Y-128447275D01*
X167315209Y-128499714D01*
X167248016Y-128518866D01*
X167181135Y-128498650D01*
X167136618Y-128447275D01*
X167123270Y-128418650D01*
X167109568Y-128389266D01*
X166979047Y-128202861D01*
X166979045Y-128202858D01*
X166818141Y-128041954D01*
X166631734Y-127911432D01*
X166631732Y-127911431D01*
X166425497Y-127815261D01*
X166425488Y-127815258D01*
X166205697Y-127756366D01*
X166205693Y-127756365D01*
X166205692Y-127756365D01*
X166205691Y-127756364D01*
X166205686Y-127756364D01*
X165979002Y-127736532D01*
X165978994Y-127736532D01*
X165942178Y-127739752D01*
X165873678Y-127725984D01*
X165843693Y-127703905D01*
X164987227Y-126847439D01*
X164066607Y-125926818D01*
X164063204Y-125923126D01*
X164027336Y-125880899D01*
X163962891Y-125831909D01*
X163899759Y-125781162D01*
X163899758Y-125781161D01*
X163899754Y-125781158D01*
X163899748Y-125781155D01*
X163898854Y-125780583D01*
X163881019Y-125769520D01*
X163880064Y-125768946D01*
X163806560Y-125734939D01*
X163734027Y-125698966D01*
X163732981Y-125698582D01*
X163713160Y-125691602D01*
X163712164Y-125691266D01*
X163633073Y-125673858D01*
X163554494Y-125654315D01*
X163553584Y-125654191D01*
X163532506Y-125651610D01*
X163531501Y-125651501D01*
X163531497Y-125651500D01*
X163531492Y-125651500D01*
X163450531Y-125651500D01*
X163369564Y-125649306D01*
X163368520Y-125649391D01*
X163346352Y-125651500D01*
X158928633Y-125651500D01*
X158861594Y-125631815D01*
X158815839Y-125579011D01*
X158805895Y-125509853D01*
X158810927Y-125488497D01*
X158814504Y-125477700D01*
X158814506Y-125477690D01*
X158824999Y-125374986D01*
X158825000Y-125374973D01*
X158825000Y-125250000D01*
X157675000Y-125250000D01*
X157675000Y-126074999D01*
X157707424Y-126107423D01*
X157740909Y-126168746D01*
X157735925Y-126238438D01*
X157707424Y-126282785D01*
X157402830Y-126587380D01*
X157399127Y-126590794D01*
X157356898Y-126626665D01*
X157307909Y-126691108D01*
X157257155Y-126754249D01*
X157256649Y-126755041D01*
X157245469Y-126773066D01*
X157244941Y-126773943D01*
X157231698Y-126802568D01*
X157185683Y-126855145D01*
X157119160Y-126874500D01*
X156724998Y-126874500D01*
X156724980Y-126874501D01*
X156622203Y-126885000D01*
X156622200Y-126885001D01*
X156455668Y-126940185D01*
X156455663Y-126940187D01*
X156306342Y-127032289D01*
X156182289Y-127156342D01*
X156090187Y-127305663D01*
X156090185Y-127305668D01*
X156070007Y-127366563D01*
X156035001Y-127472203D01*
X156035001Y-127472204D01*
X156035000Y-127472204D01*
X156024500Y-127574983D01*
X156024500Y-128325001D01*
X156024501Y-128325019D01*
X156035000Y-128427796D01*
X156035001Y-128427799D01*
X156090185Y-128594331D01*
X156090187Y-128594336D01*
X156117561Y-128638716D01*
X156182288Y-128743656D01*
X156306344Y-128867712D01*
X156455666Y-128959814D01*
X156622203Y-129014999D01*
X156724991Y-129025500D01*
X158125008Y-129025499D01*
X158227797Y-129014999D01*
X158394334Y-128959814D01*
X158543656Y-128867712D01*
X158667712Y-128743656D01*
X158759814Y-128594334D01*
X158814999Y-128427797D01*
X158825500Y-128325009D01*
X158825499Y-127621650D01*
X158845183Y-127554612D01*
X158861813Y-127533975D01*
X159006971Y-127388816D01*
X159068293Y-127355334D01*
X159094651Y-127352500D01*
X163035349Y-127352500D01*
X163102388Y-127372185D01*
X163123030Y-127388819D01*
X163280430Y-127546219D01*
X163313915Y-127607542D01*
X163308931Y-127677234D01*
X163267059Y-127733167D01*
X163217451Y-127754646D01*
X163217537Y-127754964D01*
X163215390Y-127755539D01*
X163214296Y-127756013D01*
X163212322Y-127756361D01*
X162992511Y-127815258D01*
X162992502Y-127815261D01*
X162786267Y-127911431D01*
X162786265Y-127911432D01*
X162599858Y-128041954D01*
X162438954Y-128202858D01*
X162308432Y-128389265D01*
X162308431Y-128389267D01*
X162281382Y-128447275D01*
X162235209Y-128499714D01*
X162168016Y-128518866D01*
X162101135Y-128498650D01*
X162056618Y-128447275D01*
X162043270Y-128418650D01*
X162029568Y-128389266D01*
X161899047Y-128202861D01*
X161899045Y-128202858D01*
X161738141Y-128041954D01*
X161551734Y-127911432D01*
X161551732Y-127911431D01*
X161345497Y-127815261D01*
X161345488Y-127815258D01*
X161125697Y-127756366D01*
X161125693Y-127756365D01*
X161125692Y-127756365D01*
X161125691Y-127756364D01*
X161125686Y-127756364D01*
X160899002Y-127736532D01*
X160898998Y-127736532D01*
X160672313Y-127756364D01*
X160672302Y-127756366D01*
X160452511Y-127815258D01*
X160452502Y-127815261D01*
X160246267Y-127911431D01*
X160246265Y-127911432D01*
X160059858Y-128041954D01*
X159898954Y-128202858D01*
X159768432Y-128389265D01*
X159768431Y-128389267D01*
X159672261Y-128595502D01*
X159672258Y-128595511D01*
X159613366Y-128815302D01*
X159613364Y-128815313D01*
X159593532Y-129041998D01*
X159593532Y-129042001D01*
X159613364Y-129268686D01*
X159613366Y-129268697D01*
X159672258Y-129488488D01*
X159672261Y-129488497D01*
X159768431Y-129694732D01*
X159768432Y-129694734D01*
X159898951Y-129881137D01*
X159898952Y-129881138D01*
X159898953Y-129881139D01*
X160012182Y-129994368D01*
X160045666Y-130055689D01*
X160048500Y-130082048D01*
X160048500Y-130797348D01*
X160028815Y-130864387D01*
X160012181Y-130885029D01*
X159307830Y-131589380D01*
X159304127Y-131592794D01*
X159261898Y-131628665D01*
X159212909Y-131693108D01*
X159162155Y-131756249D01*
X159161649Y-131757041D01*
X159150469Y-131775066D01*
X159149944Y-131775938D01*
X159115939Y-131849439D01*
X159079963Y-131921980D01*
X159079582Y-131923017D01*
X159072580Y-131942906D01*
X159072267Y-131943833D01*
X159054858Y-132022926D01*
X159035314Y-132101513D01*
X159035191Y-132102416D01*
X159032607Y-132123516D01*
X159032500Y-132124501D01*
X159032500Y-132205468D01*
X159030306Y-132286438D01*
X159030389Y-132287447D01*
X159032500Y-132309649D01*
X159032500Y-132725988D01*
X159012815Y-132793027D01*
X158960011Y-132838782D01*
X158890853Y-132848726D01*
X158869498Y-132843694D01*
X158835704Y-132832496D01*
X158835690Y-132832493D01*
X158732986Y-132822000D01*
X157433000Y-132822000D01*
X157433000Y-135421999D01*
X158732972Y-135421999D01*
X158732986Y-135421998D01*
X158835697Y-135411505D01*
X159002119Y-135356358D01*
X159002123Y-135356356D01*
X159036000Y-135335460D01*
X159103392Y-135317018D01*
X159170056Y-135337939D01*
X159199810Y-135365948D01*
X159202541Y-135369540D01*
X159215578Y-135386216D01*
X159216201Y-135386991D01*
X159273459Y-135444249D01*
X159329152Y-135503042D01*
X159329983Y-135503747D01*
X159347119Y-135517908D01*
X161906063Y-138076852D01*
X161939548Y-138138175D01*
X161934564Y-138207867D01*
X161892692Y-138263800D01*
X161827228Y-138288217D01*
X161765553Y-138274800D01*
X161764882Y-138276240D01*
X161758336Y-138273187D01*
X161758334Y-138273186D01*
X161591797Y-138218001D01*
X161591795Y-138218000D01*
X161489010Y-138207500D01*
X160763998Y-138207500D01*
X160763980Y-138207501D01*
X160661203Y-138218000D01*
X160661200Y-138218001D01*
X160494668Y-138273185D01*
X160494663Y-138273187D01*
X160345341Y-138365290D01*
X160339681Y-138369766D01*
X160338638Y-138368447D01*
X160285128Y-138397666D01*
X160258770Y-138400500D01*
X159932230Y-138400500D01*
X159865191Y-138380815D01*
X159844549Y-138364181D01*
X159820657Y-138340289D01*
X159820656Y-138340288D01*
X159716817Y-138276240D01*
X159671336Y-138248187D01*
X159671331Y-138248185D01*
X159640797Y-138238067D01*
X159504797Y-138193001D01*
X159504795Y-138193000D01*
X159402010Y-138182500D01*
X158651998Y-138182500D01*
X158651980Y-138182501D01*
X158549203Y-138193000D01*
X158549200Y-138193001D01*
X158382668Y-138248185D01*
X158382663Y-138248187D01*
X158233342Y-138340289D01*
X158109289Y-138464342D01*
X158017187Y-138613663D01*
X158017185Y-138613668D01*
X158008902Y-138638666D01*
X157962001Y-138780203D01*
X157962001Y-138780204D01*
X157962000Y-138780204D01*
X157951500Y-138882983D01*
X157951500Y-140283001D01*
X157951501Y-140283018D01*
X157962000Y-140385796D01*
X157962001Y-140385799D01*
X158017185Y-140552331D01*
X158017187Y-140552336D01*
X158035994Y-140582827D01*
X158109288Y-140701656D01*
X158233344Y-140825712D01*
X158382666Y-140917814D01*
X158549203Y-140972999D01*
X158651991Y-140983500D01*
X159402008Y-140983499D01*
X159402016Y-140983498D01*
X159402019Y-140983498D01*
X159458302Y-140977748D01*
X159504797Y-140972999D01*
X159671334Y-140917814D01*
X159820656Y-140825712D01*
X159944712Y-140701656D01*
X159985171Y-140636060D01*
X160037119Y-140589336D01*
X160106081Y-140578113D01*
X160170163Y-140605956D01*
X160196249Y-140636061D01*
X160202047Y-140645462D01*
X160221288Y-140676656D01*
X160345344Y-140800712D01*
X160494666Y-140892814D01*
X160661203Y-140947999D01*
X160763991Y-140958500D01*
X161489008Y-140958499D01*
X161489016Y-140958498D01*
X161489019Y-140958498D01*
X161545302Y-140952748D01*
X161591797Y-140947999D01*
X161758334Y-140892814D01*
X161907656Y-140800712D01*
X162031712Y-140676656D01*
X162123814Y-140527334D01*
X162178999Y-140360797D01*
X162189500Y-140258009D01*
X162189499Y-138907992D01*
X162187656Y-138889954D01*
X162178999Y-138805203D01*
X162178998Y-138805200D01*
X162166113Y-138766315D01*
X162123814Y-138638666D01*
X162123810Y-138638659D01*
X162120760Y-138632118D01*
X162123417Y-138630878D01*
X162108487Y-138576332D01*
X162129404Y-138509667D01*
X162183042Y-138464893D01*
X162252372Y-138456225D01*
X162315382Y-138486416D01*
X162320147Y-138490936D01*
X162952181Y-139122970D01*
X162985666Y-139184293D01*
X162988500Y-139210651D01*
X162988500Y-140258001D01*
X162988501Y-140258019D01*
X162999000Y-140360796D01*
X162999001Y-140360799D01*
X163054185Y-140527331D01*
X163054187Y-140527336D01*
X163069604Y-140552331D01*
X163146288Y-140676656D01*
X163270344Y-140800712D01*
X163419666Y-140892814D01*
X163586203Y-140947999D01*
X163688991Y-140958500D01*
X164414008Y-140958499D01*
X164414016Y-140958498D01*
X164414019Y-140958498D01*
X164470302Y-140952748D01*
X164516797Y-140947999D01*
X164683334Y-140892814D01*
X164832656Y-140800712D01*
X164956712Y-140676656D01*
X165048814Y-140527334D01*
X165103999Y-140360797D01*
X165114500Y-140258009D01*
X165114499Y-139801649D01*
X165134183Y-139734611D01*
X165150813Y-139713974D01*
X167431969Y-137432817D01*
X167493292Y-137399333D01*
X167519650Y-137396499D01*
X170016002Y-137396499D01*
X170016008Y-137396499D01*
X170118797Y-137385999D01*
X170285334Y-137330814D01*
X170434656Y-137238712D01*
X170558712Y-137114656D01*
X170650814Y-136965334D01*
X170705999Y-136798797D01*
X170716500Y-136696009D01*
X170716499Y-134607649D01*
X170736184Y-134540611D01*
X170788987Y-134494856D01*
X170858146Y-134484912D01*
X170921702Y-134513937D01*
X170928180Y-134519969D01*
X170973181Y-134564970D01*
X171006666Y-134626293D01*
X171009500Y-134652651D01*
X171009500Y-137767911D01*
X171009295Y-137772945D01*
X171004798Y-137828163D01*
X171015729Y-137908392D01*
X171024486Y-137988913D01*
X171024710Y-137989930D01*
X171029525Y-138010473D01*
X171029773Y-138011470D01*
X171057700Y-138087486D01*
X171083557Y-138164223D01*
X171084001Y-138165185D01*
X171093146Y-138184266D01*
X171093564Y-138185109D01*
X171093567Y-138185114D01*
X171093568Y-138185116D01*
X171130154Y-138242355D01*
X171137184Y-138253353D01*
X171178930Y-138322736D01*
X171179538Y-138323536D01*
X171192578Y-138340216D01*
X171193201Y-138340991D01*
X171250459Y-138398249D01*
X171306152Y-138457042D01*
X171306983Y-138457747D01*
X171324119Y-138471908D01*
X171740391Y-138888180D01*
X171743784Y-138891860D01*
X171748784Y-138897746D01*
X171779663Y-138934101D01*
X171779664Y-138934102D01*
X171815341Y-138961221D01*
X171844118Y-138983097D01*
X171907246Y-139033841D01*
X171907247Y-139033841D01*
X171907248Y-139033842D01*
X171908157Y-139034423D01*
X171926009Y-139045497D01*
X171926931Y-139046051D01*
X171926933Y-139046052D01*
X171926936Y-139046054D01*
X172000444Y-139080062D01*
X172072978Y-139116036D01*
X172072979Y-139116036D01*
X172072981Y-139116037D01*
X172074057Y-139116433D01*
X172093856Y-139123402D01*
X172094830Y-139123730D01*
X172094833Y-139123732D01*
X172094835Y-139123732D01*
X172094837Y-139123733D01*
X172173923Y-139141140D01*
X172252508Y-139160685D01*
X172253570Y-139160829D01*
X172274375Y-139163377D01*
X172275502Y-139163499D01*
X172275503Y-139163500D01*
X172275504Y-139163500D01*
X172356469Y-139163500D01*
X172437432Y-139165693D01*
X172437432Y-139165692D01*
X172437435Y-139165693D01*
X172438479Y-139165608D01*
X172460648Y-139163500D01*
X174666500Y-139163500D01*
X174733539Y-139183185D01*
X174779294Y-139235989D01*
X174790500Y-139287500D01*
X174790500Y-139931348D01*
X174770815Y-139998387D01*
X174754181Y-140019029D01*
X172226753Y-142546456D01*
X172165430Y-142579941D01*
X172138117Y-142582771D01*
X155022526Y-142450943D01*
X154955640Y-142430743D01*
X154910293Y-142377588D01*
X154899483Y-142327474D01*
X154892642Y-140706157D01*
X154912043Y-140639039D01*
X154964653Y-140593062D01*
X155033769Y-140582827D01*
X155097447Y-140611583D01*
X155122178Y-140640540D01*
X155159682Y-140701343D01*
X155283654Y-140825315D01*
X155432875Y-140917356D01*
X155432880Y-140917358D01*
X155599302Y-140972505D01*
X155599309Y-140972506D01*
X155702019Y-140982999D01*
X155826999Y-140982999D01*
X155827000Y-140982998D01*
X155827000Y-139833000D01*
X156327000Y-139833000D01*
X156327000Y-140982999D01*
X156451972Y-140982999D01*
X156451986Y-140982998D01*
X156554697Y-140972505D01*
X156721119Y-140917358D01*
X156721124Y-140917356D01*
X156870345Y-140825315D01*
X156994315Y-140701345D01*
X157086356Y-140552124D01*
X157086358Y-140552119D01*
X157141505Y-140385697D01*
X157141506Y-140385690D01*
X157151999Y-140282986D01*
X157152000Y-140282973D01*
X157152000Y-139833000D01*
X156327000Y-139833000D01*
X155827000Y-139833000D01*
X155827000Y-138183000D01*
X156327000Y-138183000D01*
X156327000Y-139333000D01*
X157151999Y-139333000D01*
X157151999Y-138883028D01*
X157151998Y-138883013D01*
X157141505Y-138780302D01*
X157086358Y-138613880D01*
X157086356Y-138613875D01*
X156994315Y-138464654D01*
X156870345Y-138340684D01*
X156721124Y-138248643D01*
X156721119Y-138248641D01*
X156554697Y-138193494D01*
X156554690Y-138193493D01*
X156451986Y-138183000D01*
X156327000Y-138183000D01*
X155827000Y-138183000D01*
X155702027Y-138183000D01*
X155702012Y-138183001D01*
X155599302Y-138193494D01*
X155432880Y-138248641D01*
X155432875Y-138248643D01*
X155283654Y-138340684D01*
X155159683Y-138464655D01*
X155159680Y-138464659D01*
X155112769Y-138540714D01*
X155060821Y-138587439D01*
X154991859Y-138598660D01*
X154927777Y-138570817D01*
X154888921Y-138512748D01*
X154883232Y-138476144D01*
X154875000Y-136525000D01*
X154761603Y-135050843D01*
X154776088Y-134982494D01*
X154825227Y-134932824D01*
X154893419Y-134917605D01*
X154959014Y-134941670D01*
X154994543Y-134985164D01*
X154994851Y-134984975D01*
X154996276Y-134987286D01*
X154997621Y-134988932D01*
X154998641Y-134991119D01*
X155090684Y-135140345D01*
X155214654Y-135264315D01*
X155363875Y-135356356D01*
X155363880Y-135356358D01*
X155530302Y-135411505D01*
X155530309Y-135411506D01*
X155633019Y-135421999D01*
X156932999Y-135421999D01*
X156933000Y-135421998D01*
X156933000Y-134372000D01*
X154933000Y-134372000D01*
X154915994Y-134389006D01*
X154854671Y-134422490D01*
X154784979Y-134417505D01*
X154729046Y-134375633D01*
X154704679Y-134310835D01*
X154670923Y-133872000D01*
X154933000Y-133872000D01*
X156933000Y-133872000D01*
X156933000Y-132822000D01*
X155633028Y-132822000D01*
X155633012Y-132822001D01*
X155530302Y-132832494D01*
X155363880Y-132887641D01*
X155363875Y-132887643D01*
X155214654Y-132979684D01*
X155090684Y-133103654D01*
X154998643Y-133252875D01*
X154998641Y-133252880D01*
X154943494Y-133419302D01*
X154943493Y-133419309D01*
X154933000Y-133522013D01*
X154933000Y-133872000D01*
X154670923Y-133872000D01*
X154631577Y-133360504D01*
X154600248Y-132953221D01*
X154600088Y-132946769D01*
X154659286Y-130778625D01*
X154667209Y-130738277D01*
X154667414Y-130737735D01*
X154687563Y-130684280D01*
X154687565Y-130684275D01*
X154687566Y-130684269D01*
X154687567Y-130684269D01*
X154718633Y-130543800D01*
X154718633Y-130543797D01*
X154718635Y-130543789D01*
X154929564Y-127731405D01*
X155043920Y-125421398D01*
X155066894Y-125355418D01*
X155075074Y-125345169D01*
X155159668Y-125250000D01*
X156025001Y-125250000D01*
X156025001Y-125374986D01*
X156035494Y-125477697D01*
X156090641Y-125644119D01*
X156090643Y-125644124D01*
X156182684Y-125793345D01*
X156306654Y-125917315D01*
X156455875Y-126009356D01*
X156455880Y-126009358D01*
X156622302Y-126064505D01*
X156622309Y-126064506D01*
X156725019Y-126074999D01*
X157174999Y-126074999D01*
X157175000Y-126074998D01*
X157175000Y-125250000D01*
X156025001Y-125250000D01*
X155159668Y-125250000D01*
X155213534Y-125189401D01*
X155215990Y-125186797D01*
X155813322Y-124589465D01*
X155874642Y-124555982D01*
X155944333Y-124560966D01*
X156000267Y-124602837D01*
X156024684Y-124668302D01*
X156025000Y-124677148D01*
X156025000Y-124750000D01*
X158824999Y-124750000D01*
X158824999Y-124625028D01*
X158824998Y-124625013D01*
X158814505Y-124522302D01*
X158759358Y-124355880D01*
X158759356Y-124355875D01*
X158667315Y-124206654D01*
X158543345Y-124082684D01*
X158394124Y-123990643D01*
X158394119Y-123990641D01*
X158227697Y-123935494D01*
X158227690Y-123935493D01*
X158124986Y-123925000D01*
X157759662Y-123925000D01*
X157692623Y-123905315D01*
X157646868Y-123852511D01*
X157636924Y-123783353D01*
X157657678Y-123730465D01*
X157759013Y-123583956D01*
X157763692Y-123578007D01*
X157829701Y-123503921D01*
X158175918Y-122981199D01*
X159421922Y-121179751D01*
X159476246Y-121135814D01*
X159545701Y-121128221D01*
X159608236Y-121159384D01*
X159619725Y-121172000D01*
X160583314Y-121172000D01*
X160571359Y-121183955D01*
X160513835Y-121296852D01*
X160494014Y-121422000D01*
X160513835Y-121547148D01*
X160571359Y-121660045D01*
X160583314Y-121672000D01*
X159620128Y-121672000D01*
X159672730Y-121868317D01*
X159672734Y-121868326D01*
X159768865Y-122074482D01*
X159899342Y-122260820D01*
X160060179Y-122421657D01*
X160246517Y-122552134D01*
X160452673Y-122648265D01*
X160452682Y-122648269D01*
X160648999Y-122700872D01*
X160649000Y-122700871D01*
X160649000Y-121737686D01*
X160660955Y-121749641D01*
X160773852Y-121807165D01*
X160867519Y-121822000D01*
X160930481Y-121822000D01*
X161024148Y-121807165D01*
X161137045Y-121749641D01*
X161149000Y-121737686D01*
X161149000Y-122700872D01*
X161345317Y-122648269D01*
X161345326Y-122648265D01*
X161551482Y-122552134D01*
X161737820Y-122421657D01*
X161898657Y-122260820D01*
X162029134Y-122074481D01*
X162029135Y-122074479D01*
X162056618Y-122015543D01*
X162102790Y-121963103D01*
X162169983Y-121943951D01*
X162236864Y-121964166D01*
X162281382Y-122015543D01*
X162308864Y-122074479D01*
X162308865Y-122074481D01*
X162439342Y-122260820D01*
X162600179Y-122421657D01*
X162786517Y-122552134D01*
X162992673Y-122648265D01*
X162992682Y-122648269D01*
X163188999Y-122700872D01*
X163189000Y-122700871D01*
X163189000Y-121737686D01*
X163200955Y-121749641D01*
X163313852Y-121807165D01*
X163407519Y-121822000D01*
X163470481Y-121822000D01*
X163564148Y-121807165D01*
X163677045Y-121749641D01*
X163689000Y-121737686D01*
X163689000Y-122700872D01*
X163885317Y-122648269D01*
X163885326Y-122648265D01*
X164091482Y-122552134D01*
X164277820Y-122421657D01*
X164438657Y-122260820D01*
X164569132Y-122074484D01*
X164596341Y-122016134D01*
X164642513Y-121963695D01*
X164709707Y-121944542D01*
X164776588Y-121964757D01*
X164821106Y-122016133D01*
X164848431Y-122074732D01*
X164848432Y-122074734D01*
X164978954Y-122261141D01*
X165139858Y-122422045D01*
X165139861Y-122422047D01*
X165326266Y-122552568D01*
X165532504Y-122648739D01*
X165532509Y-122648740D01*
X165532511Y-122648741D01*
X165585415Y-122662916D01*
X165752308Y-122707635D01*
X165914230Y-122721801D01*
X165978998Y-122727468D01*
X165979000Y-122727468D01*
X165979002Y-122727468D01*
X166035807Y-122722498D01*
X166205692Y-122707635D01*
X166425496Y-122648739D01*
X166631734Y-122552568D01*
X166818139Y-122422047D01*
X166979047Y-122261139D01*
X166996272Y-122236539D01*
X167050848Y-122192913D01*
X167120346Y-122185718D01*
X167182701Y-122217239D01*
X167218116Y-122277468D01*
X167221138Y-122294406D01*
X167224908Y-122329483D01*
X167275202Y-122464328D01*
X167275206Y-122464335D01*
X167361452Y-122579544D01*
X167361455Y-122579547D01*
X167476664Y-122665793D01*
X167476671Y-122665797D01*
X167611517Y-122716091D01*
X167611516Y-122716091D01*
X167618444Y-122716835D01*
X167671127Y-122722500D01*
X169366872Y-122722499D01*
X169426483Y-122716091D01*
X169561331Y-122665796D01*
X169676546Y-122579546D01*
X169762796Y-122464331D01*
X169782397Y-122411779D01*
X169804258Y-122353167D01*
X169846129Y-122297233D01*
X169911593Y-122272816D01*
X169920440Y-122272500D01*
X170421349Y-122272500D01*
X170488388Y-122292185D01*
X170509030Y-122308819D01*
X170650675Y-122450464D01*
X170684160Y-122511787D01*
X170686522Y-122548951D01*
X170682494Y-122594997D01*
X170682494Y-122595002D01*
X170702478Y-122823429D01*
X170702479Y-122823436D01*
X170761827Y-123044925D01*
X170761828Y-123044927D01*
X170761829Y-123044930D01*
X170858738Y-123252753D01*
X170990264Y-123440591D01*
X171152409Y-123602736D01*
X171340247Y-123734262D01*
X171548070Y-123831171D01*
X171769565Y-123890521D01*
X171932732Y-123904796D01*
X171997998Y-123910506D01*
X171998000Y-123910506D01*
X171998002Y-123910506D01*
X172057335Y-123905315D01*
X172226435Y-123890521D01*
X172447930Y-123831171D01*
X172655753Y-123734262D01*
X172843591Y-123602736D01*
X173005736Y-123440591D01*
X173137262Y-123252753D01*
X173234171Y-123044930D01*
X173293521Y-122823435D01*
X173313506Y-122595000D01*
X173312072Y-122578614D01*
X173303607Y-122481847D01*
X173293521Y-122366565D01*
X173234171Y-122145070D01*
X173137262Y-121937247D01*
X173005736Y-121749409D01*
X172843591Y-121587264D01*
X172655753Y-121455738D01*
X172447930Y-121358829D01*
X172447927Y-121358828D01*
X172447925Y-121358827D01*
X172226436Y-121299479D01*
X172226429Y-121299478D01*
X171998002Y-121279494D01*
X171997997Y-121279494D01*
X171951951Y-121283522D01*
X171883451Y-121269755D01*
X171853464Y-121247675D01*
X171654728Y-121048939D01*
X171452607Y-120846818D01*
X171449204Y-120843126D01*
X171413336Y-120800899D01*
X171348891Y-120751909D01*
X171285759Y-120701162D01*
X171285758Y-120701161D01*
X171285754Y-120701158D01*
X171285748Y-120701155D01*
X171284854Y-120700583D01*
X171267019Y-120689520D01*
X171266064Y-120688946D01*
X171192560Y-120654939D01*
X171120027Y-120618966D01*
X171118981Y-120618582D01*
X171099160Y-120611602D01*
X171098164Y-120611266D01*
X171019073Y-120593858D01*
X170940494Y-120574315D01*
X170939584Y-120574191D01*
X170918506Y-120571610D01*
X170917501Y-120571501D01*
X170917497Y-120571500D01*
X170917492Y-120571500D01*
X170836531Y-120571500D01*
X170755564Y-120569306D01*
X170754520Y-120569391D01*
X170732352Y-120571500D01*
X169920440Y-120571500D01*
X169853401Y-120551815D01*
X169807646Y-120499011D01*
X169804258Y-120490833D01*
X169762797Y-120379671D01*
X169762793Y-120379664D01*
X169676547Y-120264455D01*
X169676544Y-120264452D01*
X169561335Y-120178206D01*
X169561328Y-120178202D01*
X169426482Y-120127908D01*
X169426483Y-120127908D01*
X169366883Y-120121501D01*
X169366881Y-120121500D01*
X169366873Y-120121500D01*
X169366864Y-120121500D01*
X167671129Y-120121500D01*
X167671123Y-120121501D01*
X167611516Y-120127908D01*
X167476671Y-120178202D01*
X167476664Y-120178206D01*
X167361455Y-120264452D01*
X167361452Y-120264455D01*
X167275206Y-120379664D01*
X167275202Y-120379671D01*
X167224908Y-120514516D01*
X167221137Y-120549596D01*
X167194398Y-120614146D01*
X167137006Y-120653994D01*
X167067180Y-120656487D01*
X167007092Y-120620834D01*
X166996273Y-120607462D01*
X166979045Y-120582858D01*
X166863773Y-120467586D01*
X166830288Y-120406263D01*
X166828589Y-120396645D01*
X166823270Y-120357607D01*
X166816944Y-120299438D01*
X166814514Y-120277090D01*
X166814513Y-120277088D01*
X166814513Y-120277084D01*
X166814280Y-120276026D01*
X166809497Y-120255621D01*
X166809227Y-120254532D01*
X166781299Y-120178513D01*
X166775583Y-120161550D01*
X166755444Y-120101779D01*
X166755441Y-120101775D01*
X166755441Y-120101773D01*
X166755006Y-120100831D01*
X166745895Y-120081818D01*
X166745433Y-120080887D01*
X166745432Y-120080884D01*
X166701815Y-120012646D01*
X166660070Y-119943264D01*
X166660069Y-119943263D01*
X166660068Y-119943261D01*
X166659457Y-119942458D01*
X166646493Y-119925874D01*
X166645804Y-119925018D01*
X166645800Y-119925011D01*
X166588539Y-119867750D01*
X166532849Y-119808959D01*
X166532088Y-119808312D01*
X166514881Y-119794092D01*
X166451272Y-119730483D01*
X166417787Y-119669160D01*
X166422771Y-119599468D01*
X166464643Y-119543535D01*
X166530107Y-119519118D01*
X166549753Y-119519273D01*
X166682166Y-119530858D01*
X166700999Y-119532506D01*
X166701000Y-119532506D01*
X166701002Y-119532506D01*
X166758108Y-119527509D01*
X166929435Y-119512521D01*
X167150930Y-119453171D01*
X167358753Y-119356262D01*
X167546591Y-119224736D01*
X167708736Y-119062591D01*
X167840262Y-118874753D01*
X167937171Y-118666930D01*
X167996521Y-118445435D01*
X168014482Y-118240140D01*
X168016506Y-118217002D01*
X168016506Y-118216997D01*
X168006977Y-118108078D01*
X167996521Y-117988565D01*
X167937171Y-117767070D01*
X167840262Y-117559247D01*
X167788274Y-117485000D01*
X172524180Y-117485000D01*
X172543406Y-117667926D01*
X172543407Y-117667928D01*
X172600243Y-117842853D01*
X172634045Y-117901400D01*
X173050447Y-117485000D01*
X172634044Y-117068597D01*
X172634044Y-117068598D01*
X172600244Y-117127143D01*
X172543407Y-117302071D01*
X172543406Y-117302073D01*
X172524180Y-117485000D01*
X167788274Y-117485000D01*
X167708736Y-117371409D01*
X167587819Y-117250492D01*
X167554334Y-117189169D01*
X167551500Y-117162811D01*
X167551500Y-116756200D01*
X167555165Y-116726274D01*
X167588684Y-116591494D01*
X167593693Y-116406567D01*
X167558832Y-116224886D01*
X167558831Y-116224883D01*
X167556962Y-116218795D01*
X167551500Y-116182398D01*
X167551500Y-111787499D01*
X167571185Y-111720460D01*
X167623989Y-111674705D01*
X167675500Y-111663499D01*
X168158002Y-111663499D01*
X168158008Y-111663499D01*
X168260797Y-111652999D01*
X168427334Y-111597814D01*
X168576656Y-111505712D01*
X168700712Y-111381656D01*
X168792814Y-111232334D01*
X168847999Y-111065797D01*
X168858500Y-110963009D01*
X168858499Y-110212992D01*
X168852460Y-110153878D01*
X168847999Y-110110203D01*
X168847998Y-110110200D01*
X168827750Y-110049096D01*
X168792814Y-109943666D01*
X168700712Y-109794344D01*
X168576656Y-109670288D01*
X168462610Y-109599944D01*
X168427336Y-109578187D01*
X168427331Y-109578185D01*
X168425862Y-109577698D01*
X168260797Y-109523001D01*
X168260795Y-109523000D01*
X168158010Y-109512500D01*
X166757998Y-109512500D01*
X166757981Y-109512501D01*
X166655203Y-109523000D01*
X166655200Y-109523001D01*
X166488668Y-109578185D01*
X166488663Y-109578187D01*
X166339342Y-109670289D01*
X166215289Y-109794342D01*
X166123187Y-109943663D01*
X166123185Y-109943668D01*
X166108255Y-109988724D01*
X166068001Y-110110203D01*
X166068001Y-110110204D01*
X166068000Y-110110204D01*
X166057500Y-110212983D01*
X166057500Y-110744347D01*
X166037815Y-110811386D01*
X166032234Y-110819364D01*
X166030918Y-110821096D01*
X165980155Y-110884248D01*
X165979649Y-110885041D01*
X165968469Y-110903066D01*
X165967944Y-110903938D01*
X165933939Y-110977439D01*
X165897963Y-111049980D01*
X165897582Y-111051017D01*
X165890580Y-111070906D01*
X165890267Y-111071833D01*
X165872858Y-111150926D01*
X165853314Y-111229513D01*
X165853191Y-111230416D01*
X165850607Y-111251516D01*
X165850500Y-111252501D01*
X165850500Y-111333468D01*
X165848306Y-111414438D01*
X165848389Y-111415447D01*
X165850500Y-111437649D01*
X165850500Y-116504468D01*
X165848306Y-116585438D01*
X165848389Y-116586447D01*
X165850500Y-116608649D01*
X165850500Y-117162811D01*
X165830815Y-117229850D01*
X165814181Y-117250492D01*
X165693268Y-117371404D01*
X165693265Y-117371407D01*
X165693264Y-117371409D01*
X165591385Y-117516907D01*
X165561738Y-117559247D01*
X165464830Y-117767068D01*
X165464827Y-117767074D01*
X165405479Y-117988563D01*
X165405478Y-117988569D01*
X165393086Y-118130215D01*
X165367633Y-118195283D01*
X165311042Y-118236262D01*
X165241280Y-118240140D01*
X165181877Y-118207088D01*
X165157625Y-118182836D01*
X165146539Y-118171749D01*
X165086226Y-118108078D01*
X165088283Y-118106129D01*
X165056850Y-118058198D01*
X165051500Y-118022166D01*
X165051500Y-114271189D01*
X165071185Y-114204150D01*
X165087819Y-114183508D01*
X165141370Y-114129957D01*
X165208736Y-114062591D01*
X165340262Y-113874753D01*
X165437171Y-113666930D01*
X165496521Y-113445435D01*
X165511509Y-113274108D01*
X165516506Y-113217002D01*
X165516506Y-113216997D01*
X165505819Y-113094847D01*
X165496521Y-112988565D01*
X165437171Y-112767070D01*
X165340262Y-112559247D01*
X165208736Y-112371409D01*
X165046591Y-112209264D01*
X164858753Y-112077738D01*
X164650930Y-111980829D01*
X164650927Y-111980828D01*
X164650925Y-111980827D01*
X164429436Y-111921479D01*
X164429429Y-111921478D01*
X164296481Y-111909847D01*
X164231412Y-111884395D01*
X164190433Y-111827804D01*
X164186555Y-111758042D01*
X164221009Y-111697258D01*
X164242187Y-111680783D01*
X164360656Y-111607712D01*
X164484712Y-111483656D01*
X164576814Y-111334334D01*
X164631999Y-111167797D01*
X164642500Y-111065009D01*
X164642499Y-110581149D01*
X164662183Y-110514111D01*
X164678813Y-110493474D01*
X166461480Y-108710807D01*
X166522801Y-108677324D01*
X166588163Y-108680784D01*
G37*
%TD.AperFunction*%
%TA.AperFunction,Conductor*%
G36*
X163111359Y-121183955D02*
G01*
X163053835Y-121296852D01*
X163034014Y-121422000D01*
X163053835Y-121547148D01*
X163111359Y-121660045D01*
X163123314Y-121672000D01*
X161214686Y-121672000D01*
X161226641Y-121660045D01*
X161284165Y-121547148D01*
X161303986Y-121422000D01*
X161284165Y-121296852D01*
X161226641Y-121183955D01*
X161214686Y-121172000D01*
X163123314Y-121172000D01*
X163111359Y-121183955D01*
G37*
%TD.AperFunction*%
%TA.AperFunction,Conductor*%
G36*
X170732388Y-103867185D02*
G01*
X170753030Y-103883819D01*
X172346385Y-105477173D01*
X172349788Y-105480865D01*
X172385662Y-105523099D01*
X172450126Y-105572104D01*
X172497043Y-105609817D01*
X172513247Y-105622842D01*
X172513252Y-105622844D01*
X172514163Y-105623427D01*
X172531955Y-105634463D01*
X172532933Y-105635052D01*
X172532936Y-105635054D01*
X172606429Y-105669055D01*
X172678979Y-105705037D01*
X172678982Y-105705037D01*
X172678987Y-105705040D01*
X172680019Y-105705419D01*
X172699853Y-105712402D01*
X172700835Y-105712733D01*
X172779916Y-105730139D01*
X172858506Y-105749684D01*
X172858510Y-105749684D01*
X172858514Y-105749685D01*
X172859604Y-105749833D01*
X172880375Y-105752377D01*
X172881502Y-105752499D01*
X172881503Y-105752500D01*
X172881504Y-105752500D01*
X172962469Y-105752500D01*
X173043432Y-105754693D01*
X173043432Y-105754692D01*
X173043435Y-105754693D01*
X173044479Y-105754608D01*
X173066648Y-105752500D01*
X173459349Y-105752500D01*
X173526388Y-105772185D01*
X173547030Y-105788819D01*
X173832681Y-106074469D01*
X173866166Y-106135792D01*
X173869000Y-106162150D01*
X173869000Y-106633270D01*
X173849315Y-106700309D01*
X173832681Y-106720951D01*
X173814289Y-106739342D01*
X173722187Y-106888663D01*
X173722185Y-106888668D01*
X173699370Y-106957519D01*
X173667001Y-107055203D01*
X173667001Y-107055204D01*
X173667000Y-107055204D01*
X173656500Y-107157983D01*
X173656500Y-107641848D01*
X173636815Y-107708887D01*
X173620181Y-107729529D01*
X173189830Y-108159880D01*
X173186127Y-108163294D01*
X173143898Y-108199165D01*
X173094908Y-108263609D01*
X173077647Y-108285083D01*
X173020304Y-108325001D01*
X172950482Y-108327581D01*
X172890349Y-108292002D01*
X172858997Y-108229561D01*
X172857000Y-108207395D01*
X172857000Y-108083000D01*
X172044500Y-108083000D01*
X172044500Y-109207999D01*
X172156972Y-109207999D01*
X172156986Y-109207998D01*
X172259697Y-109197505D01*
X172426119Y-109142358D01*
X172426124Y-109142356D01*
X172575345Y-109050315D01*
X172702819Y-108922842D01*
X172764142Y-108889357D01*
X172833834Y-108894341D01*
X172889767Y-108936213D01*
X172914184Y-109001677D01*
X172914500Y-109010523D01*
X172914500Y-110687349D01*
X172894815Y-110754388D01*
X172842011Y-110800143D01*
X172772853Y-110810087D01*
X172709297Y-110781062D01*
X172702819Y-110775030D01*
X171347469Y-109419680D01*
X171313984Y-109358357D01*
X171318968Y-109288665D01*
X171360840Y-109232732D01*
X171426304Y-109208315D01*
X171435150Y-109207999D01*
X171544499Y-109207999D01*
X171544500Y-109207998D01*
X171544500Y-108083000D01*
X170732001Y-108083000D01*
X170732001Y-108504850D01*
X170712316Y-108571889D01*
X170659512Y-108617644D01*
X170590354Y-108627588D01*
X170526798Y-108598563D01*
X170520320Y-108592531D01*
X169767848Y-107840059D01*
X169510789Y-107583000D01*
X170732000Y-107583000D01*
X171544500Y-107583000D01*
X171544500Y-106458000D01*
X172044500Y-106458000D01*
X172044500Y-107583000D01*
X172856999Y-107583000D01*
X172856999Y-107158028D01*
X172856998Y-107158013D01*
X172846505Y-107055302D01*
X172791358Y-106888880D01*
X172791356Y-106888875D01*
X172699315Y-106739654D01*
X172575345Y-106615684D01*
X172426124Y-106523643D01*
X172426119Y-106523641D01*
X172259697Y-106468494D01*
X172259690Y-106468493D01*
X172156986Y-106458000D01*
X172044500Y-106458000D01*
X171544500Y-106458000D01*
X171432027Y-106458000D01*
X171432012Y-106458001D01*
X171329302Y-106468494D01*
X171162880Y-106523641D01*
X171162875Y-106523643D01*
X171013654Y-106615684D01*
X170889684Y-106739654D01*
X170797643Y-106888875D01*
X170797641Y-106888880D01*
X170742494Y-107055302D01*
X170742493Y-107055309D01*
X170732000Y-107158013D01*
X170732000Y-107583000D01*
X169510789Y-107583000D01*
X168990607Y-107062818D01*
X168987204Y-107059126D01*
X168951336Y-107016899D01*
X168886891Y-106967909D01*
X168823759Y-106917162D01*
X168823758Y-106917161D01*
X168823754Y-106917158D01*
X168823748Y-106917155D01*
X168822854Y-106916583D01*
X168805019Y-106905520D01*
X168804064Y-106904946D01*
X168743503Y-106876927D01*
X168707067Y-106848204D01*
X168705820Y-106849452D01*
X168576657Y-106720289D01*
X168576656Y-106720288D01*
X168427334Y-106628186D01*
X168260797Y-106573001D01*
X168260795Y-106573000D01*
X168158010Y-106562500D01*
X166757998Y-106562500D01*
X166757981Y-106562501D01*
X166655203Y-106573000D01*
X166655200Y-106573001D01*
X166488668Y-106628185D01*
X166488663Y-106628187D01*
X166339337Y-106720292D01*
X166301403Y-106758226D01*
X166240079Y-106791710D01*
X166230577Y-106793392D01*
X166228123Y-106793726D01*
X166147586Y-106802486D01*
X166146734Y-106802674D01*
X166126035Y-106807524D01*
X166125027Y-106807774D01*
X166049031Y-106835694D01*
X165972276Y-106861556D01*
X165971374Y-106861973D01*
X165952273Y-106871127D01*
X165951386Y-106871567D01*
X165951385Y-106871567D01*
X165951384Y-106871568D01*
X165902018Y-106903122D01*
X165883158Y-106915177D01*
X165813768Y-106956927D01*
X165812989Y-106957519D01*
X165796264Y-106970595D01*
X165795513Y-106971198D01*
X165738269Y-107028441D01*
X165679456Y-107084153D01*
X165678846Y-107084871D01*
X165664591Y-107102119D01*
X164775528Y-107991181D01*
X164714205Y-108024666D01*
X164687847Y-108027500D01*
X163517000Y-108027500D01*
X163517000Y-108839999D01*
X163627349Y-108839999D01*
X163694388Y-108859684D01*
X163740143Y-108912488D01*
X163750087Y-108981646D01*
X163721062Y-109045202D01*
X163715030Y-109051680D01*
X163163528Y-109603181D01*
X163102205Y-109636666D01*
X163075847Y-109639500D01*
X162591998Y-109639500D01*
X162591980Y-109639501D01*
X162489203Y-109650000D01*
X162489200Y-109650001D01*
X162322668Y-109705185D01*
X162322663Y-109705187D01*
X162173342Y-109797289D01*
X162049289Y-109921342D01*
X161957187Y-110070663D01*
X161957186Y-110070666D01*
X161902001Y-110237203D01*
X161902001Y-110237204D01*
X161902000Y-110237204D01*
X161891500Y-110339983D01*
X161891500Y-111065001D01*
X161891501Y-111065019D01*
X161902000Y-111167796D01*
X161902001Y-111167799D01*
X161957185Y-111334331D01*
X161957187Y-111334336D01*
X161990231Y-111387909D01*
X162049288Y-111483656D01*
X162173344Y-111607712D01*
X162322666Y-111699814D01*
X162489203Y-111754999D01*
X162591991Y-111765500D01*
X163653518Y-111765499D01*
X163720557Y-111785183D01*
X163766312Y-111837987D01*
X163776256Y-111907146D01*
X163747231Y-111970702D01*
X163705923Y-112001881D01*
X163543247Y-112077737D01*
X163454395Y-112139953D01*
X163355409Y-112209264D01*
X163355407Y-112209265D01*
X163355404Y-112209268D01*
X163193268Y-112371404D01*
X163193265Y-112371407D01*
X163193264Y-112371409D01*
X163061738Y-112559247D01*
X162999815Y-112692043D01*
X162964830Y-112767068D01*
X162964827Y-112767074D01*
X162905479Y-112988563D01*
X162905478Y-112988570D01*
X162885494Y-113216997D01*
X162885494Y-113217002D01*
X162905478Y-113445429D01*
X162905479Y-113445436D01*
X162964827Y-113666925D01*
X162964828Y-113666927D01*
X162964829Y-113666930D01*
X163061738Y-113874753D01*
X163193264Y-114062591D01*
X163193268Y-114062595D01*
X163314181Y-114183508D01*
X163347666Y-114244831D01*
X163350500Y-114271189D01*
X163350500Y-118391911D01*
X163350295Y-118396945D01*
X163345798Y-118452163D01*
X163356729Y-118532392D01*
X163365486Y-118612913D01*
X163365710Y-118613930D01*
X163370525Y-118634473D01*
X163370773Y-118635470D01*
X163398700Y-118711486D01*
X163424557Y-118788223D01*
X163425001Y-118789185D01*
X163434146Y-118808266D01*
X163434564Y-118809109D01*
X163434567Y-118809114D01*
X163434568Y-118809116D01*
X163476522Y-118874753D01*
X163478184Y-118877353D01*
X163519930Y-118946736D01*
X163520540Y-118947539D01*
X163533544Y-118964175D01*
X163534195Y-118964984D01*
X163591458Y-119022246D01*
X163647151Y-119081041D01*
X163652276Y-119085394D01*
X163650795Y-119087137D01*
X163688460Y-119132833D01*
X163697704Y-119168141D01*
X163701486Y-119202909D01*
X163701716Y-119203954D01*
X163706525Y-119224473D01*
X163706773Y-119225470D01*
X163717952Y-119255898D01*
X163734700Y-119301486D01*
X163758506Y-119372138D01*
X163760557Y-119378223D01*
X163761001Y-119379185D01*
X163770146Y-119398266D01*
X163770564Y-119399109D01*
X163770567Y-119399114D01*
X163770568Y-119399116D01*
X163802520Y-119449104D01*
X163814184Y-119467353D01*
X163855930Y-119536736D01*
X163856538Y-119537536D01*
X163869578Y-119554216D01*
X163870201Y-119554991D01*
X163927458Y-119612248D01*
X163983149Y-119671040D01*
X163983950Y-119671720D01*
X164001118Y-119685907D01*
X164872070Y-120556859D01*
X164905555Y-120618182D01*
X164900571Y-120687874D01*
X164885964Y-120715663D01*
X164848435Y-120769260D01*
X164848432Y-120769265D01*
X164848432Y-120769266D01*
X164848315Y-120769518D01*
X164821106Y-120827867D01*
X164774933Y-120880306D01*
X164707739Y-120899457D01*
X164640858Y-120879241D01*
X164596342Y-120827865D01*
X164569135Y-120769520D01*
X164569134Y-120769518D01*
X164438657Y-120583179D01*
X164277820Y-120422342D01*
X164091482Y-120291865D01*
X163885328Y-120195734D01*
X163689000Y-120143127D01*
X163689000Y-121106314D01*
X163677045Y-121094359D01*
X163564148Y-121036835D01*
X163470481Y-121022000D01*
X163407519Y-121022000D01*
X163313852Y-121036835D01*
X163200955Y-121094359D01*
X163189000Y-121106314D01*
X163189000Y-120143127D01*
X162992671Y-120195734D01*
X162786517Y-120291865D01*
X162600179Y-120422342D01*
X162439342Y-120583179D01*
X162308865Y-120769517D01*
X162281382Y-120828457D01*
X162235210Y-120880896D01*
X162168016Y-120900048D01*
X162101135Y-120879832D01*
X162056618Y-120828457D01*
X162029134Y-120769517D01*
X161898657Y-120583179D01*
X161737820Y-120422342D01*
X161551482Y-120291865D01*
X161345328Y-120195734D01*
X161149000Y-120143127D01*
X161149000Y-121106314D01*
X161137045Y-121094359D01*
X161024148Y-121036835D01*
X160930481Y-121022000D01*
X160867519Y-121022000D01*
X160773852Y-121036835D01*
X160660955Y-121094359D01*
X160649000Y-121106314D01*
X160649000Y-120143127D01*
X160452671Y-120195734D01*
X160246517Y-120291865D01*
X160060179Y-120422342D01*
X159899338Y-120583183D01*
X159874106Y-120619219D01*
X159819529Y-120662844D01*
X159750031Y-120670036D01*
X159687676Y-120638514D01*
X159652263Y-120578284D01*
X159648533Y-120548704D01*
X159637187Y-118217000D01*
X160385996Y-118217000D01*
X160405973Y-118445343D01*
X160405975Y-118445353D01*
X160465297Y-118666750D01*
X160465301Y-118666759D01*
X160562172Y-118874500D01*
X160562173Y-118874502D01*
X160614793Y-118949651D01*
X160614794Y-118949652D01*
X161256549Y-118307896D01*
X161257327Y-118318265D01*
X161306887Y-118444541D01*
X161391465Y-118550599D01*
X161503547Y-118627016D01*
X161611299Y-118660253D01*
X160968346Y-119303205D01*
X161043502Y-119355828D01*
X161251240Y-119452698D01*
X161251249Y-119452702D01*
X161472646Y-119512024D01*
X161472656Y-119512026D01*
X161700999Y-119532004D01*
X161701001Y-119532004D01*
X161929343Y-119512026D01*
X161929353Y-119512024D01*
X162150750Y-119452702D01*
X162150759Y-119452698D01*
X162358499Y-119355828D01*
X162433652Y-119303205D01*
X161789232Y-118658784D01*
X161835138Y-118651865D01*
X161957357Y-118593007D01*
X162056798Y-118500740D01*
X162124625Y-118383260D01*
X162142499Y-118304946D01*
X162787205Y-118949652D01*
X162839828Y-118874499D01*
X162936698Y-118666759D01*
X162936702Y-118666750D01*
X162996024Y-118445353D01*
X162996026Y-118445343D01*
X163016004Y-118217000D01*
X163016004Y-118216999D01*
X162996026Y-117988656D01*
X162996024Y-117988646D01*
X162936702Y-117767249D01*
X162936698Y-117767240D01*
X162839828Y-117559502D01*
X162787204Y-117484346D01*
X162145449Y-118126101D01*
X162144673Y-118115735D01*
X162095113Y-117989459D01*
X162010535Y-117883401D01*
X161898453Y-117806984D01*
X161790700Y-117773746D01*
X162433652Y-117130794D01*
X162433651Y-117130793D01*
X162358502Y-117078173D01*
X162358500Y-117078172D01*
X162150759Y-116981301D01*
X162150750Y-116981297D01*
X161929353Y-116921975D01*
X161929343Y-116921973D01*
X161701001Y-116901996D01*
X161700999Y-116901996D01*
X161472656Y-116921973D01*
X161472646Y-116921975D01*
X161251249Y-116981297D01*
X161251240Y-116981301D01*
X161043495Y-117078174D01*
X160968346Y-117130792D01*
X161612769Y-117775215D01*
X161566862Y-117782135D01*
X161444643Y-117840993D01*
X161345202Y-117933260D01*
X161277375Y-118050740D01*
X161259500Y-118129054D01*
X160614792Y-117484346D01*
X160562174Y-117559495D01*
X160465301Y-117767240D01*
X160465297Y-117767249D01*
X160405975Y-117988646D01*
X160405973Y-117988656D01*
X160385996Y-118216999D01*
X160385996Y-118217000D01*
X159637187Y-118217000D01*
X159600000Y-110575000D01*
X159560744Y-110493469D01*
X159014209Y-109358357D01*
X158373425Y-108027500D01*
X161892001Y-108027500D01*
X161892001Y-108139986D01*
X161902494Y-108242697D01*
X161957641Y-108409119D01*
X161957643Y-108409124D01*
X162049684Y-108558345D01*
X162173654Y-108682315D01*
X162322875Y-108774356D01*
X162322880Y-108774358D01*
X162489302Y-108829505D01*
X162489309Y-108829506D01*
X162592019Y-108839999D01*
X163016999Y-108839999D01*
X163017000Y-108839998D01*
X163017000Y-108027500D01*
X161892001Y-108027500D01*
X158373425Y-108027500D01*
X158132684Y-107527500D01*
X161892000Y-107527500D01*
X163017000Y-107527500D01*
X163017000Y-106715000D01*
X163517000Y-106715000D01*
X163517000Y-107527500D01*
X164641999Y-107527500D01*
X164641999Y-107415028D01*
X164641998Y-107415013D01*
X164631505Y-107312302D01*
X164576358Y-107145880D01*
X164576356Y-107145875D01*
X164484315Y-106996654D01*
X164360345Y-106872684D01*
X164211124Y-106780643D01*
X164211119Y-106780641D01*
X164044697Y-106725494D01*
X164044690Y-106725493D01*
X163941986Y-106715000D01*
X163517000Y-106715000D01*
X163017000Y-106715000D01*
X162592028Y-106715000D01*
X162592012Y-106715001D01*
X162489302Y-106725494D01*
X162322880Y-106780641D01*
X162322875Y-106780643D01*
X162173654Y-106872684D01*
X162049684Y-106996654D01*
X161957643Y-107145875D01*
X161957641Y-107145880D01*
X161902494Y-107312302D01*
X161902493Y-107312309D01*
X161892000Y-107415013D01*
X161892000Y-107527500D01*
X158132684Y-107527500D01*
X158030092Y-107314424D01*
X158018746Y-107245485D01*
X158046473Y-107181353D01*
X158055014Y-107172084D01*
X160639592Y-104639199D01*
X161411288Y-103882938D01*
X161472946Y-103850074D01*
X161498079Y-103847500D01*
X170665349Y-103847500D01*
X170732388Y-103867185D01*
G37*
%TD.AperFunction*%
%TA.AperFunction,Conductor*%
G36*
X173669871Y-117397318D02*
G01*
X173703356Y-117458641D01*
X173698372Y-117528333D01*
X173669871Y-117572680D01*
X173666221Y-117576329D01*
X173684388Y-117485000D01*
X173666221Y-117393668D01*
X173669871Y-117397318D01*
G37*
%TD.AperFunction*%
%TD*%
%TA.AperFunction,Conductor*%
%TO.N,GND*%
G36*
X105857039Y-115949685D02*
G01*
X105902794Y-116002489D01*
X105914000Y-116054000D01*
X105914000Y-117559000D01*
X105966000Y-117559000D01*
X106033039Y-117578685D01*
X106078794Y-117631489D01*
X106090000Y-117683000D01*
X106090000Y-118749000D01*
X106914999Y-118749000D01*
X106914999Y-118299028D01*
X106914998Y-118299013D01*
X106904505Y-118196302D01*
X106849358Y-118029880D01*
X106849356Y-118029875D01*
X106757315Y-117880654D01*
X106668020Y-117791359D01*
X106634535Y-117730036D01*
X106639519Y-117660344D01*
X106681390Y-117604411D01*
X106739272Y-117561081D01*
X106804737Y-117536664D01*
X106873010Y-117551516D01*
X106887887Y-117561077D01*
X106971076Y-117623352D01*
X106971668Y-117623795D01*
X106971671Y-117623797D01*
X106992295Y-117631489D01*
X107106517Y-117674091D01*
X107166127Y-117680500D01*
X107774178Y-117680499D01*
X107841217Y-117700183D01*
X107886972Y-117752987D01*
X107896916Y-117822146D01*
X107874869Y-117873450D01*
X107876080Y-117874197D01*
X107780187Y-118029663D01*
X107780185Y-118029668D01*
X107764829Y-118076011D01*
X107725001Y-118196203D01*
X107725001Y-118196204D01*
X107725000Y-118196204D01*
X107714500Y-118298983D01*
X107714500Y-118820347D01*
X107694815Y-118887386D01*
X107678181Y-118908028D01*
X107126680Y-119459528D01*
X107065357Y-119493013D01*
X106995665Y-119488029D01*
X106939732Y-119446157D01*
X106915315Y-119380693D01*
X106914999Y-119371846D01*
X106915000Y-119249000D01*
X106090000Y-119249000D01*
X106090000Y-120444848D01*
X106070315Y-120511887D01*
X106053681Y-120532529D01*
X105348030Y-121238181D01*
X105286707Y-121271666D01*
X105260349Y-121274500D01*
X104362087Y-121274500D01*
X104357052Y-121274295D01*
X104301835Y-121269798D01*
X104301828Y-121269799D01*
X104221607Y-121280729D01*
X104141092Y-121289485D01*
X104140131Y-121289697D01*
X104119471Y-121294538D01*
X104118534Y-121294771D01*
X104042513Y-121322700D01*
X103965784Y-121348553D01*
X103964920Y-121348953D01*
X103945704Y-121358160D01*
X103944885Y-121358566D01*
X103876646Y-121402184D01*
X103807259Y-121443933D01*
X103806494Y-121444515D01*
X103789791Y-121457572D01*
X103789012Y-121458199D01*
X103731750Y-121515459D01*
X103672956Y-121571153D01*
X103672322Y-121571899D01*
X103658093Y-121589116D01*
X103209030Y-122038181D01*
X103147707Y-122071666D01*
X103121349Y-122074500D01*
X101747665Y-122074500D01*
X101721884Y-122071790D01*
X101617019Y-122049500D01*
X101432981Y-122049500D01*
X101252966Y-122087763D01*
X101252961Y-122087765D01*
X101084839Y-122162619D01*
X101084834Y-122162621D01*
X100935951Y-122270791D01*
X100935949Y-122270793D01*
X100812804Y-122407561D01*
X100720786Y-122566940D01*
X100720783Y-122566946D01*
X100666329Y-122734540D01*
X100663915Y-122741971D01*
X100644678Y-122925000D01*
X100663915Y-123108029D01*
X100663916Y-123108032D01*
X100720783Y-123283053D01*
X100720786Y-123283059D01*
X100812802Y-123442436D01*
X100812806Y-123442441D01*
X100835280Y-123467402D01*
X100865509Y-123530395D01*
X100856883Y-123599730D01*
X100835280Y-123633344D01*
X100813212Y-123657853D01*
X100813208Y-123657858D01*
X100721244Y-123817144D01*
X100721241Y-123817150D01*
X100664407Y-123992071D01*
X100664406Y-123992073D01*
X100645180Y-124175000D01*
X100664406Y-124357926D01*
X100664407Y-124357928D01*
X100721241Y-124532849D01*
X100721244Y-124532855D01*
X100813210Y-124692143D01*
X100813209Y-124692143D01*
X100835279Y-124716654D01*
X100865509Y-124779646D01*
X100856884Y-124848981D01*
X100835282Y-124882595D01*
X100812806Y-124907558D01*
X100812802Y-124907563D01*
X100720786Y-125066940D01*
X100720783Y-125066946D01*
X100663916Y-125241967D01*
X100663915Y-125241971D01*
X100644678Y-125425000D01*
X100663915Y-125608029D01*
X100663916Y-125608032D01*
X100720783Y-125783053D01*
X100720786Y-125783059D01*
X100812805Y-125942440D01*
X100935950Y-126079207D01*
X101007466Y-126131166D01*
X101076039Y-126180987D01*
X101090835Y-126193624D01*
X101522391Y-126625180D01*
X101525784Y-126628860D01*
X101543564Y-126649792D01*
X101561663Y-126671101D01*
X101561664Y-126671102D01*
X101587983Y-126691108D01*
X101626118Y-126720097D01*
X101689246Y-126770841D01*
X101689247Y-126770841D01*
X101689248Y-126770842D01*
X101690157Y-126771423D01*
X101708009Y-126782497D01*
X101708931Y-126783051D01*
X101708933Y-126783052D01*
X101708936Y-126783054D01*
X101782444Y-126817062D01*
X101854978Y-126853036D01*
X101854979Y-126853036D01*
X101854981Y-126853037D01*
X101856057Y-126853433D01*
X101875856Y-126860402D01*
X101876830Y-126860730D01*
X101876833Y-126860732D01*
X101876835Y-126860732D01*
X101876837Y-126860733D01*
X101955923Y-126878140D01*
X102034508Y-126897685D01*
X102035570Y-126897829D01*
X102056375Y-126900377D01*
X102057502Y-126900499D01*
X102057503Y-126900500D01*
X102057504Y-126900500D01*
X102138469Y-126900500D01*
X102219432Y-126902693D01*
X102219432Y-126902692D01*
X102219435Y-126902693D01*
X102220479Y-126902608D01*
X102242648Y-126900500D01*
X108996349Y-126900500D01*
X109063388Y-126920185D01*
X109084030Y-126936819D01*
X111497740Y-129350529D01*
X111531225Y-129411852D01*
X111526241Y-129481544D01*
X111484369Y-129537477D01*
X111420872Y-129561738D01*
X111413020Y-129562425D01*
X111413013Y-129562426D01*
X111199729Y-129619575D01*
X111199720Y-129619579D01*
X110999591Y-129712900D01*
X110999589Y-129712901D01*
X110818700Y-129839560D01*
X110662560Y-129995700D01*
X110535901Y-130176589D01*
X110535900Y-130176591D01*
X110442579Y-130376720D01*
X110442575Y-130376729D01*
X110393468Y-130559999D01*
X110393469Y-130560000D01*
X111189804Y-130560000D01*
X111166155Y-130596799D01*
X111125000Y-130736961D01*
X111125000Y-130883039D01*
X111166155Y-131023201D01*
X111189804Y-131060000D01*
X110393469Y-131060000D01*
X110442575Y-131243270D01*
X110442580Y-131243284D01*
X110535899Y-131443407D01*
X110535900Y-131443409D01*
X110662563Y-131624301D01*
X110818698Y-131780436D01*
X110999590Y-131907099D01*
X110999592Y-131907100D01*
X111199715Y-132000419D01*
X111199729Y-132000424D01*
X111382999Y-132049531D01*
X111383000Y-132049530D01*
X111383000Y-131254297D01*
X111488408Y-131302435D01*
X111596666Y-131318000D01*
X111669334Y-131318000D01*
X111777592Y-131302435D01*
X111883000Y-131254297D01*
X111883000Y-132049531D01*
X112066270Y-132000424D01*
X112066284Y-132000419D01*
X112266407Y-131907100D01*
X112266409Y-131907099D01*
X112447301Y-131780436D01*
X112603436Y-131624301D01*
X112730097Y-131443412D01*
X112790340Y-131314219D01*
X112836512Y-131261780D01*
X112903706Y-131242627D01*
X112970587Y-131262842D01*
X113015105Y-131314218D01*
X113075466Y-131443662D01*
X113075468Y-131443666D01*
X113202170Y-131624615D01*
X113202175Y-131624621D01*
X113358378Y-131780824D01*
X113358384Y-131780829D01*
X113539333Y-131907531D01*
X113539335Y-131907532D01*
X113539338Y-131907534D01*
X113739550Y-132000894D01*
X113952932Y-132058070D01*
X114110123Y-132071822D01*
X114172998Y-132077323D01*
X114173000Y-132077323D01*
X114173002Y-132077323D01*
X114228017Y-132072509D01*
X114393068Y-132058070D01*
X114606450Y-132000894D01*
X114806662Y-131907534D01*
X114987620Y-131780826D01*
X115143826Y-131624620D01*
X115270534Y-131443662D01*
X115330618Y-131314811D01*
X115376790Y-131262371D01*
X115443983Y-131243219D01*
X115510865Y-131263435D01*
X115555382Y-131314811D01*
X115615464Y-131443658D01*
X115615468Y-131443666D01*
X115742170Y-131624615D01*
X115742175Y-131624621D01*
X115898378Y-131780824D01*
X115898384Y-131780829D01*
X116079333Y-131907531D01*
X116079335Y-131907532D01*
X116079338Y-131907534D01*
X116279550Y-132000894D01*
X116492932Y-132058070D01*
X116650123Y-132071822D01*
X116712998Y-132077323D01*
X116713000Y-132077323D01*
X116713002Y-132077323D01*
X116768017Y-132072509D01*
X116933068Y-132058070D01*
X117146450Y-132000894D01*
X117346662Y-131907534D01*
X117527620Y-131780826D01*
X117683826Y-131624620D01*
X117810534Y-131443662D01*
X117870618Y-131314811D01*
X117916790Y-131262371D01*
X117983983Y-131243219D01*
X118050865Y-131263435D01*
X118095382Y-131314811D01*
X118155464Y-131443658D01*
X118155468Y-131443666D01*
X118282170Y-131624615D01*
X118282175Y-131624621D01*
X118438378Y-131780824D01*
X118438384Y-131780829D01*
X118619333Y-131907531D01*
X118619335Y-131907532D01*
X118619338Y-131907534D01*
X118819550Y-132000894D01*
X119032932Y-132058070D01*
X119190123Y-132071822D01*
X119252998Y-132077323D01*
X119253000Y-132077323D01*
X119253002Y-132077323D01*
X119308017Y-132072509D01*
X119473068Y-132058070D01*
X119686450Y-132000894D01*
X119886662Y-131907534D01*
X120067620Y-131780826D01*
X120223826Y-131624620D01*
X120350534Y-131443662D01*
X120410618Y-131314811D01*
X120456790Y-131262371D01*
X120523983Y-131243219D01*
X120590865Y-131263435D01*
X120635382Y-131314811D01*
X120695464Y-131443658D01*
X120695468Y-131443666D01*
X120822170Y-131624615D01*
X120822175Y-131624621D01*
X120978378Y-131780824D01*
X120978384Y-131780829D01*
X121159333Y-131907531D01*
X121159335Y-131907532D01*
X121159338Y-131907534D01*
X121359550Y-132000894D01*
X121572932Y-132058070D01*
X121730123Y-132071822D01*
X121792998Y-132077323D01*
X121793000Y-132077323D01*
X121793002Y-132077323D01*
X121848017Y-132072509D01*
X122013068Y-132058070D01*
X122226450Y-132000894D01*
X122426662Y-131907534D01*
X122607620Y-131780826D01*
X122763826Y-131624620D01*
X122890534Y-131443662D01*
X122950618Y-131314811D01*
X122996790Y-131262371D01*
X123063983Y-131243219D01*
X123130865Y-131263435D01*
X123175382Y-131314811D01*
X123235464Y-131443658D01*
X123235468Y-131443666D01*
X123362170Y-131624615D01*
X123362175Y-131624621D01*
X123518378Y-131780824D01*
X123518384Y-131780829D01*
X123699333Y-131907531D01*
X123699335Y-131907532D01*
X123699338Y-131907534D01*
X123899550Y-132000894D01*
X124112932Y-132058070D01*
X124270123Y-132071822D01*
X124332998Y-132077323D01*
X124333000Y-132077323D01*
X124333002Y-132077323D01*
X124388017Y-132072509D01*
X124553068Y-132058070D01*
X124766450Y-132000894D01*
X124966662Y-131907534D01*
X125147620Y-131780826D01*
X125303826Y-131624620D01*
X125430534Y-131443662D01*
X125490618Y-131314811D01*
X125536790Y-131262371D01*
X125603983Y-131243219D01*
X125670865Y-131263435D01*
X125715382Y-131314811D01*
X125775464Y-131443658D01*
X125775468Y-131443666D01*
X125902170Y-131624615D01*
X125902175Y-131624621D01*
X126058378Y-131780824D01*
X126058384Y-131780829D01*
X126239333Y-131907531D01*
X126239335Y-131907532D01*
X126239338Y-131907534D01*
X126439550Y-132000894D01*
X126652932Y-132058070D01*
X126810123Y-132071822D01*
X126872998Y-132077323D01*
X126873000Y-132077323D01*
X126873002Y-132077323D01*
X126928017Y-132072509D01*
X127093068Y-132058070D01*
X127306450Y-132000894D01*
X127506662Y-131907534D01*
X127687620Y-131780826D01*
X127843826Y-131624620D01*
X127970534Y-131443662D01*
X128030618Y-131314811D01*
X128076790Y-131262371D01*
X128143983Y-131243219D01*
X128210865Y-131263435D01*
X128255382Y-131314811D01*
X128315464Y-131443658D01*
X128315468Y-131443666D01*
X128442170Y-131624615D01*
X128442175Y-131624621D01*
X128598378Y-131780824D01*
X128598384Y-131780829D01*
X128779333Y-131907531D01*
X128779335Y-131907532D01*
X128779338Y-131907534D01*
X128979550Y-132000894D01*
X129192932Y-132058070D01*
X129350123Y-132071822D01*
X129412998Y-132077323D01*
X129413000Y-132077323D01*
X129413002Y-132077323D01*
X129468017Y-132072509D01*
X129633068Y-132058070D01*
X129846450Y-132000894D01*
X130046662Y-131907534D01*
X130227620Y-131780826D01*
X130383826Y-131624620D01*
X130510534Y-131443662D01*
X130570618Y-131314811D01*
X130616790Y-131262371D01*
X130683983Y-131243219D01*
X130750865Y-131263435D01*
X130795382Y-131314811D01*
X130855464Y-131443658D01*
X130855468Y-131443666D01*
X130982170Y-131624615D01*
X130982175Y-131624621D01*
X131138378Y-131780824D01*
X131138384Y-131780829D01*
X131319333Y-131907531D01*
X131319335Y-131907532D01*
X131319338Y-131907534D01*
X131519550Y-132000894D01*
X131732932Y-132058070D01*
X131890123Y-132071822D01*
X131952998Y-132077323D01*
X131953000Y-132077323D01*
X131953002Y-132077323D01*
X132008017Y-132072509D01*
X132173068Y-132058070D01*
X132386450Y-132000894D01*
X132586662Y-131907534D01*
X132767620Y-131780826D01*
X132923826Y-131624620D01*
X133050534Y-131443662D01*
X133110618Y-131314811D01*
X133156790Y-131262371D01*
X133223983Y-131243219D01*
X133290865Y-131263435D01*
X133335382Y-131314811D01*
X133395464Y-131443658D01*
X133395468Y-131443666D01*
X133522170Y-131624615D01*
X133522175Y-131624621D01*
X133678378Y-131780824D01*
X133678384Y-131780829D01*
X133859333Y-131907531D01*
X133859335Y-131907532D01*
X133859338Y-131907534D01*
X134059550Y-132000894D01*
X134272932Y-132058070D01*
X134430123Y-132071822D01*
X134492998Y-132077323D01*
X134493000Y-132077323D01*
X134493002Y-132077323D01*
X134548017Y-132072509D01*
X134713068Y-132058070D01*
X134926450Y-132000894D01*
X135126662Y-131907534D01*
X135307620Y-131780826D01*
X135463826Y-131624620D01*
X135590534Y-131443662D01*
X135650618Y-131314811D01*
X135696790Y-131262371D01*
X135763983Y-131243219D01*
X135830865Y-131263435D01*
X135875382Y-131314811D01*
X135935464Y-131443658D01*
X135935468Y-131443666D01*
X136062170Y-131624615D01*
X136062175Y-131624621D01*
X136218378Y-131780824D01*
X136218384Y-131780829D01*
X136399333Y-131907531D01*
X136399335Y-131907532D01*
X136399338Y-131907534D01*
X136599550Y-132000894D01*
X136812932Y-132058070D01*
X136970123Y-132071822D01*
X137032998Y-132077323D01*
X137033000Y-132077323D01*
X137033002Y-132077323D01*
X137088017Y-132072509D01*
X137253068Y-132058070D01*
X137466450Y-132000894D01*
X137666662Y-131907534D01*
X137847620Y-131780826D01*
X138003826Y-131624620D01*
X138130534Y-131443662D01*
X138190618Y-131314811D01*
X138236790Y-131262371D01*
X138303983Y-131243219D01*
X138370865Y-131263435D01*
X138415382Y-131314811D01*
X138475464Y-131443658D01*
X138475468Y-131443666D01*
X138602170Y-131624615D01*
X138602175Y-131624621D01*
X138758378Y-131780824D01*
X138758384Y-131780829D01*
X138939333Y-131907531D01*
X138939335Y-131907532D01*
X138939338Y-131907534D01*
X139139550Y-132000894D01*
X139352932Y-132058070D01*
X139510123Y-132071822D01*
X139572998Y-132077323D01*
X139573000Y-132077323D01*
X139573002Y-132077323D01*
X139628017Y-132072509D01*
X139793068Y-132058070D01*
X140006450Y-132000894D01*
X140206662Y-131907534D01*
X140387620Y-131780826D01*
X140543826Y-131624620D01*
X140670534Y-131443662D01*
X140730618Y-131314811D01*
X140776790Y-131262371D01*
X140843983Y-131243219D01*
X140910865Y-131263435D01*
X140955382Y-131314811D01*
X141015464Y-131443658D01*
X141015468Y-131443666D01*
X141142170Y-131624615D01*
X141142175Y-131624621D01*
X141298378Y-131780824D01*
X141298384Y-131780829D01*
X141479333Y-131907531D01*
X141479335Y-131907532D01*
X141479338Y-131907534D01*
X141679550Y-132000894D01*
X141892932Y-132058070D01*
X142050123Y-132071822D01*
X142112998Y-132077323D01*
X142113000Y-132077323D01*
X142113002Y-132077323D01*
X142168017Y-132072509D01*
X142333068Y-132058070D01*
X142546450Y-132000894D01*
X142746662Y-131907534D01*
X142927620Y-131780826D01*
X143083826Y-131624620D01*
X143210534Y-131443662D01*
X143270618Y-131314811D01*
X143316790Y-131262371D01*
X143383983Y-131243219D01*
X143450865Y-131263435D01*
X143495382Y-131314811D01*
X143555464Y-131443658D01*
X143555468Y-131443666D01*
X143682170Y-131624615D01*
X143682175Y-131624621D01*
X143838378Y-131780824D01*
X143838384Y-131780829D01*
X144019333Y-131907531D01*
X144019335Y-131907532D01*
X144019338Y-131907534D01*
X144219550Y-132000894D01*
X144432932Y-132058070D01*
X144590123Y-132071822D01*
X144652998Y-132077323D01*
X144653000Y-132077323D01*
X144653002Y-132077323D01*
X144708017Y-132072509D01*
X144873068Y-132058070D01*
X145086450Y-132000894D01*
X145286662Y-131907534D01*
X145467620Y-131780826D01*
X145623826Y-131624620D01*
X145750534Y-131443662D01*
X145843894Y-131243450D01*
X145901070Y-131030068D01*
X145920323Y-130810000D01*
X145913622Y-130733411D01*
X145904793Y-130632489D01*
X145901070Y-130589932D01*
X145843894Y-130376550D01*
X145750534Y-130176339D01*
X145623826Y-129995380D01*
X145467620Y-129839174D01*
X145467616Y-129839171D01*
X145467615Y-129839170D01*
X145286666Y-129712468D01*
X145286662Y-129712466D01*
X145230628Y-129686337D01*
X145086450Y-129619106D01*
X145086447Y-129619105D01*
X145086445Y-129619104D01*
X144873070Y-129561930D01*
X144873062Y-129561929D01*
X144653002Y-129542677D01*
X144652998Y-129542677D01*
X144432937Y-129561929D01*
X144432929Y-129561930D01*
X144219554Y-129619104D01*
X144219548Y-129619107D01*
X144019340Y-129712465D01*
X144019338Y-129712466D01*
X143838377Y-129839175D01*
X143682175Y-129995377D01*
X143555466Y-130176338D01*
X143555465Y-130176340D01*
X143495382Y-130305189D01*
X143449209Y-130357628D01*
X143382016Y-130376780D01*
X143315135Y-130356564D01*
X143270618Y-130305189D01*
X143232084Y-130222554D01*
X143210534Y-130176339D01*
X143083826Y-129995380D01*
X142927620Y-129839174D01*
X142927616Y-129839171D01*
X142927615Y-129839170D01*
X142746666Y-129712468D01*
X142746662Y-129712466D01*
X142690628Y-129686337D01*
X142546450Y-129619106D01*
X142546447Y-129619105D01*
X142546445Y-129619104D01*
X142333070Y-129561930D01*
X142333062Y-129561929D01*
X142113002Y-129542677D01*
X142112998Y-129542677D01*
X141892937Y-129561929D01*
X141892929Y-129561930D01*
X141679554Y-129619104D01*
X141679548Y-129619107D01*
X141479340Y-129712465D01*
X141479338Y-129712466D01*
X141298377Y-129839175D01*
X141142175Y-129995377D01*
X141015466Y-130176338D01*
X141015465Y-130176340D01*
X140955382Y-130305189D01*
X140909209Y-130357628D01*
X140842016Y-130376780D01*
X140775135Y-130356564D01*
X140730618Y-130305189D01*
X140692084Y-130222554D01*
X140670534Y-130176339D01*
X140543826Y-129995380D01*
X140387620Y-129839174D01*
X140387616Y-129839171D01*
X140387615Y-129839170D01*
X140206666Y-129712468D01*
X140206662Y-129712466D01*
X140150628Y-129686337D01*
X140006450Y-129619106D01*
X140006447Y-129619105D01*
X140006445Y-129619104D01*
X139793070Y-129561930D01*
X139793062Y-129561929D01*
X139573002Y-129542677D01*
X139572998Y-129542677D01*
X139352937Y-129561929D01*
X139352929Y-129561930D01*
X139139554Y-129619104D01*
X139139548Y-129619107D01*
X138939340Y-129712465D01*
X138939338Y-129712466D01*
X138758377Y-129839175D01*
X138602175Y-129995377D01*
X138475466Y-130176338D01*
X138475465Y-130176340D01*
X138415382Y-130305189D01*
X138369209Y-130357628D01*
X138302016Y-130376780D01*
X138235135Y-130356564D01*
X138190618Y-130305189D01*
X138152084Y-130222554D01*
X138130534Y-130176339D01*
X138003826Y-129995380D01*
X137847620Y-129839174D01*
X137847616Y-129839171D01*
X137847615Y-129839170D01*
X137666666Y-129712468D01*
X137666662Y-129712466D01*
X137610628Y-129686337D01*
X137466450Y-129619106D01*
X137466447Y-129619105D01*
X137466445Y-129619104D01*
X137253070Y-129561930D01*
X137253062Y-129561929D01*
X137033002Y-129542677D01*
X137032998Y-129542677D01*
X136812937Y-129561929D01*
X136812929Y-129561930D01*
X136599554Y-129619104D01*
X136599548Y-129619107D01*
X136399340Y-129712465D01*
X136399338Y-129712466D01*
X136218377Y-129839175D01*
X136062175Y-129995377D01*
X135935466Y-130176338D01*
X135935465Y-130176340D01*
X135875382Y-130305189D01*
X135829209Y-130357628D01*
X135762016Y-130376780D01*
X135695135Y-130356564D01*
X135650618Y-130305189D01*
X135612084Y-130222554D01*
X135590534Y-130176339D01*
X135463826Y-129995380D01*
X135307620Y-129839174D01*
X135307616Y-129839171D01*
X135307615Y-129839170D01*
X135126666Y-129712468D01*
X135126662Y-129712466D01*
X135070628Y-129686337D01*
X134926450Y-129619106D01*
X134926447Y-129619105D01*
X134926445Y-129619104D01*
X134713070Y-129561930D01*
X134713062Y-129561929D01*
X134493002Y-129542677D01*
X134492998Y-129542677D01*
X134272937Y-129561929D01*
X134272929Y-129561930D01*
X134059554Y-129619104D01*
X134059548Y-129619107D01*
X133859340Y-129712465D01*
X133859338Y-129712466D01*
X133678377Y-129839175D01*
X133522175Y-129995377D01*
X133395466Y-130176338D01*
X133395465Y-130176340D01*
X133335382Y-130305189D01*
X133289209Y-130357628D01*
X133222016Y-130376780D01*
X133155135Y-130356564D01*
X133110618Y-130305189D01*
X133072084Y-130222554D01*
X133050534Y-130176339D01*
X132923826Y-129995380D01*
X132767620Y-129839174D01*
X132767616Y-129839171D01*
X132767615Y-129839170D01*
X132586666Y-129712468D01*
X132586662Y-129712466D01*
X132530628Y-129686337D01*
X132386450Y-129619106D01*
X132386447Y-129619105D01*
X132386445Y-129619104D01*
X132173070Y-129561930D01*
X132173062Y-129561929D01*
X131953002Y-129542677D01*
X131952998Y-129542677D01*
X131732937Y-129561929D01*
X131732929Y-129561930D01*
X131519554Y-129619104D01*
X131519548Y-129619107D01*
X131319340Y-129712465D01*
X131319338Y-129712466D01*
X131138377Y-129839175D01*
X130982175Y-129995377D01*
X130855466Y-130176338D01*
X130855465Y-130176340D01*
X130795382Y-130305189D01*
X130749209Y-130357628D01*
X130682016Y-130376780D01*
X130615135Y-130356564D01*
X130570618Y-130305189D01*
X130532084Y-130222554D01*
X130510534Y-130176339D01*
X130383826Y-129995380D01*
X130227620Y-129839174D01*
X130227616Y-129839171D01*
X130227615Y-129839170D01*
X130046666Y-129712468D01*
X130046662Y-129712466D01*
X129990628Y-129686337D01*
X129846450Y-129619106D01*
X129846447Y-129619105D01*
X129846445Y-129619104D01*
X129633070Y-129561930D01*
X129633062Y-129561929D01*
X129413002Y-129542677D01*
X129412998Y-129542677D01*
X129192937Y-129561929D01*
X129192929Y-129561930D01*
X128979554Y-129619104D01*
X128979548Y-129619107D01*
X128779340Y-129712465D01*
X128779338Y-129712466D01*
X128598377Y-129839175D01*
X128442175Y-129995377D01*
X128315466Y-130176338D01*
X128315465Y-130176340D01*
X128255382Y-130305189D01*
X128209209Y-130357628D01*
X128142016Y-130376780D01*
X128075135Y-130356564D01*
X128030618Y-130305189D01*
X127992084Y-130222554D01*
X127970534Y-130176339D01*
X127843826Y-129995380D01*
X127687620Y-129839174D01*
X127687616Y-129839171D01*
X127687615Y-129839170D01*
X127506666Y-129712468D01*
X127506662Y-129712466D01*
X127450628Y-129686337D01*
X127306450Y-129619106D01*
X127306447Y-129619105D01*
X127306445Y-129619104D01*
X127093070Y-129561930D01*
X127093062Y-129561929D01*
X126873002Y-129542677D01*
X126872998Y-129542677D01*
X126652937Y-129561929D01*
X126652929Y-129561930D01*
X126439554Y-129619104D01*
X126439548Y-129619107D01*
X126239340Y-129712465D01*
X126239338Y-129712466D01*
X126058377Y-129839175D01*
X125902175Y-129995377D01*
X125775466Y-130176338D01*
X125775465Y-130176340D01*
X125715382Y-130305189D01*
X125669209Y-130357628D01*
X125602016Y-130376780D01*
X125535135Y-130356564D01*
X125490618Y-130305189D01*
X125452084Y-130222554D01*
X125430534Y-130176339D01*
X125303826Y-129995380D01*
X125147620Y-129839174D01*
X125147616Y-129839171D01*
X125147615Y-129839170D01*
X124966666Y-129712468D01*
X124966662Y-129712466D01*
X124910628Y-129686337D01*
X124766450Y-129619106D01*
X124766447Y-129619105D01*
X124766445Y-129619104D01*
X124553070Y-129561930D01*
X124553062Y-129561929D01*
X124333002Y-129542677D01*
X124332998Y-129542677D01*
X124112937Y-129561929D01*
X124112929Y-129561930D01*
X123899554Y-129619104D01*
X123899548Y-129619107D01*
X123699340Y-129712465D01*
X123699338Y-129712466D01*
X123518377Y-129839175D01*
X123362175Y-129995377D01*
X123235466Y-130176338D01*
X123235465Y-130176340D01*
X123175382Y-130305189D01*
X123129209Y-130357628D01*
X123062016Y-130376780D01*
X122995135Y-130356564D01*
X122950618Y-130305189D01*
X122912084Y-130222554D01*
X122890534Y-130176339D01*
X122763826Y-129995380D01*
X122607620Y-129839174D01*
X122607616Y-129839171D01*
X122607615Y-129839170D01*
X122426666Y-129712468D01*
X122426662Y-129712466D01*
X122370628Y-129686337D01*
X122226450Y-129619106D01*
X122226447Y-129619105D01*
X122226445Y-129619104D01*
X122013070Y-129561930D01*
X122013062Y-129561929D01*
X121793002Y-129542677D01*
X121792998Y-129542677D01*
X121572937Y-129561929D01*
X121572929Y-129561930D01*
X121359554Y-129619104D01*
X121359548Y-129619107D01*
X121159340Y-129712465D01*
X121159338Y-129712466D01*
X120978377Y-129839175D01*
X120822175Y-129995377D01*
X120695466Y-130176338D01*
X120695465Y-130176340D01*
X120635382Y-130305189D01*
X120589209Y-130357628D01*
X120522016Y-130376780D01*
X120455135Y-130356564D01*
X120410618Y-130305189D01*
X120372084Y-130222554D01*
X120350534Y-130176339D01*
X120223826Y-129995380D01*
X120067620Y-129839174D01*
X120067616Y-129839171D01*
X120067615Y-129839170D01*
X119886666Y-129712468D01*
X119886662Y-129712466D01*
X119830628Y-129686337D01*
X119686450Y-129619106D01*
X119686447Y-129619105D01*
X119686445Y-129619104D01*
X119473070Y-129561930D01*
X119473062Y-129561929D01*
X119253002Y-129542677D01*
X119252993Y-129542677D01*
X119251255Y-129542829D01*
X119250499Y-129542677D01*
X119247587Y-129542677D01*
X119247587Y-129542091D01*
X119182756Y-129529061D01*
X119152771Y-129506982D01*
X118765887Y-129120098D01*
X118356607Y-128710818D01*
X118353204Y-128707126D01*
X118317336Y-128664899D01*
X118252891Y-128615909D01*
X118189759Y-128565162D01*
X118189758Y-128565161D01*
X118189754Y-128565158D01*
X118189748Y-128565155D01*
X118188854Y-128564583D01*
X118171019Y-128553520D01*
X118170064Y-128552946D01*
X118096560Y-128518939D01*
X118024027Y-128482966D01*
X118022981Y-128482582D01*
X118003160Y-128475602D01*
X118002164Y-128475266D01*
X117923073Y-128457858D01*
X117844494Y-128438315D01*
X117843584Y-128438191D01*
X117822506Y-128435610D01*
X117821501Y-128435501D01*
X117821497Y-128435500D01*
X117821492Y-128435500D01*
X117740531Y-128435500D01*
X117659564Y-128433306D01*
X117658520Y-128433391D01*
X117636352Y-128435500D01*
X113039651Y-128435500D01*
X112972612Y-128415815D01*
X112951970Y-128399181D01*
X111492975Y-126940186D01*
X110027607Y-125474818D01*
X110024204Y-125471126D01*
X110022201Y-125468769D01*
X109988337Y-125428900D01*
X109923891Y-125379909D01*
X109860754Y-125329158D01*
X109860748Y-125329155D01*
X109859854Y-125328583D01*
X109842019Y-125317520D01*
X109841064Y-125316946D01*
X109767560Y-125282939D01*
X109695027Y-125246966D01*
X109693981Y-125246582D01*
X109674160Y-125239602D01*
X109673164Y-125239266D01*
X109594073Y-125221858D01*
X109515494Y-125202315D01*
X109514584Y-125202191D01*
X109493506Y-125199610D01*
X109492501Y-125199501D01*
X109492497Y-125199500D01*
X109492492Y-125199500D01*
X109411531Y-125199500D01*
X109330564Y-125197306D01*
X109329520Y-125197391D01*
X109307352Y-125199500D01*
X102553650Y-125199500D01*
X102486611Y-125179815D01*
X102465969Y-125163181D01*
X102285412Y-124982624D01*
X102265706Y-124956943D01*
X102237196Y-124907562D01*
X102237191Y-124907555D01*
X102214719Y-124882597D01*
X102184490Y-124819605D01*
X102193116Y-124750270D01*
X102214722Y-124716652D01*
X102236789Y-124692143D01*
X102328755Y-124532855D01*
X102328758Y-124532849D01*
X102385592Y-124357928D01*
X102385593Y-124357926D01*
X102404819Y-124175000D01*
X102385593Y-123992073D01*
X102385591Y-123992068D01*
X102367965Y-123937817D01*
X102365970Y-123867976D01*
X102402051Y-123808143D01*
X102464752Y-123777316D01*
X102485896Y-123775500D01*
X103487913Y-123775500D01*
X103492948Y-123775705D01*
X103512562Y-123777301D01*
X103548167Y-123780201D01*
X103628392Y-123769270D01*
X103708910Y-123760514D01*
X103708914Y-123760512D01*
X103710036Y-123760266D01*
X103730307Y-123755515D01*
X103731462Y-123755228D01*
X103731462Y-123755227D01*
X103731468Y-123755227D01*
X103807486Y-123727299D01*
X103884221Y-123701444D01*
X103884227Y-123701439D01*
X103885351Y-123700920D01*
X103904123Y-123691923D01*
X103905112Y-123691433D01*
X103905116Y-123691432D01*
X103973353Y-123647815D01*
X104042736Y-123606070D01*
X104042741Y-123606065D01*
X104043669Y-123605360D01*
X104060076Y-123592533D01*
X104060986Y-123591802D01*
X104060986Y-123591801D01*
X104060989Y-123591800D01*
X104089617Y-123563170D01*
X104118248Y-123534541D01*
X104145490Y-123508735D01*
X104177041Y-123478849D01*
X104177044Y-123478845D01*
X104177751Y-123478012D01*
X104191905Y-123460882D01*
X104640969Y-123011819D01*
X104702292Y-122978334D01*
X104728650Y-122975500D01*
X105626913Y-122975500D01*
X105631948Y-122975705D01*
X105651562Y-122977301D01*
X105687167Y-122980201D01*
X105767392Y-122969270D01*
X105847910Y-122960514D01*
X105847914Y-122960512D01*
X105849036Y-122960266D01*
X105869307Y-122955515D01*
X105870462Y-122955228D01*
X105870462Y-122955227D01*
X105870468Y-122955227D01*
X105946486Y-122927299D01*
X106023221Y-122901444D01*
X106023227Y-122901439D01*
X106024351Y-122900920D01*
X106043123Y-122891923D01*
X106044112Y-122891433D01*
X106044116Y-122891432D01*
X106112353Y-122847815D01*
X106181736Y-122806070D01*
X106181741Y-122806065D01*
X106182669Y-122805360D01*
X106199076Y-122792533D01*
X106199986Y-122791802D01*
X106199986Y-122791801D01*
X106199989Y-122791800D01*
X106228618Y-122763170D01*
X106257249Y-122734540D01*
X106301127Y-122692976D01*
X106316041Y-122678849D01*
X106316047Y-122678839D01*
X106316768Y-122677991D01*
X106330907Y-122660879D01*
X108555969Y-120435818D01*
X108617292Y-120402333D01*
X108643650Y-120399499D01*
X109165002Y-120399499D01*
X109165008Y-120399499D01*
X109267797Y-120388999D01*
X109434334Y-120333814D01*
X109583656Y-120241712D01*
X109707712Y-120117656D01*
X109799814Y-119968334D01*
X109811028Y-119934494D01*
X109850801Y-119877050D01*
X109915317Y-119850228D01*
X109928733Y-119849500D01*
X110325913Y-119849500D01*
X110330948Y-119849705D01*
X110386164Y-119854201D01*
X110386165Y-119854200D01*
X110386167Y-119854201D01*
X110401172Y-119852156D01*
X110470253Y-119862607D01*
X110522719Y-119908749D01*
X110541911Y-119975931D01*
X110530296Y-120027424D01*
X110442108Y-120216543D01*
X110442104Y-120216554D01*
X110384930Y-120429929D01*
X110384929Y-120429937D01*
X110365677Y-120649997D01*
X110365677Y-120650002D01*
X110384929Y-120870062D01*
X110384930Y-120870070D01*
X110442104Y-121083445D01*
X110442105Y-121083447D01*
X110442106Y-121083450D01*
X110491986Y-121190418D01*
X110535466Y-121283662D01*
X110535468Y-121283666D01*
X110662170Y-121464615D01*
X110662175Y-121464621D01*
X110818378Y-121620824D01*
X110818384Y-121620829D01*
X110999333Y-121747531D01*
X110999335Y-121747532D01*
X110999338Y-121747534D01*
X111118748Y-121803215D01*
X111128189Y-121807618D01*
X111180628Y-121853790D01*
X111199780Y-121920984D01*
X111179564Y-121987865D01*
X111128189Y-122032382D01*
X110999340Y-122092465D01*
X110999338Y-122092466D01*
X110818377Y-122219175D01*
X110662175Y-122375377D01*
X110535466Y-122556338D01*
X110535465Y-122556340D01*
X110442107Y-122756548D01*
X110442104Y-122756554D01*
X110384930Y-122969929D01*
X110384929Y-122969937D01*
X110365677Y-123189997D01*
X110365677Y-123190002D01*
X110384929Y-123410062D01*
X110384930Y-123410070D01*
X110442104Y-123623445D01*
X110442105Y-123623447D01*
X110442106Y-123623450D01*
X110528229Y-123808143D01*
X110535466Y-123823662D01*
X110535468Y-123823666D01*
X110662170Y-124004615D01*
X110662175Y-124004621D01*
X110818378Y-124160824D01*
X110818384Y-124160829D01*
X110999333Y-124287531D01*
X110999335Y-124287532D01*
X110999338Y-124287534D01*
X111199550Y-124380894D01*
X111412932Y-124438070D01*
X111549296Y-124450000D01*
X111632998Y-124457323D01*
X111633000Y-124457323D01*
X111633002Y-124457323D01*
X111688017Y-124452509D01*
X111853068Y-124438070D01*
X112066450Y-124380894D01*
X112266662Y-124287534D01*
X112447620Y-124160826D01*
X112603826Y-124004620D01*
X112730534Y-123823662D01*
X112823894Y-123623450D01*
X112881070Y-123410068D01*
X112900323Y-123190000D01*
X112881070Y-122969932D01*
X112823894Y-122756550D01*
X112730534Y-122556339D01*
X112629368Y-122411858D01*
X112603827Y-122375381D01*
X112533261Y-122304815D01*
X112447620Y-122219174D01*
X112447616Y-122219171D01*
X112447615Y-122219170D01*
X112266666Y-122092468D01*
X112266658Y-122092464D01*
X112137811Y-122032382D01*
X112085371Y-121986210D01*
X112066219Y-121919017D01*
X112086435Y-121852135D01*
X112137811Y-121807618D01*
X112143802Y-121804824D01*
X112266662Y-121747534D01*
X112447620Y-121620826D01*
X112603826Y-121464620D01*
X112730534Y-121283662D01*
X112823894Y-121083450D01*
X112881070Y-120870068D01*
X112896708Y-120691316D01*
X112900323Y-120650002D01*
X112900323Y-120649997D01*
X112881070Y-120429937D01*
X112881070Y-120429932D01*
X112823894Y-120216550D01*
X112730534Y-120016339D01*
X112655199Y-119908749D01*
X112603827Y-119835381D01*
X112529657Y-119761211D01*
X112447620Y-119679174D01*
X112447616Y-119679171D01*
X112447615Y-119679170D01*
X112266666Y-119552468D01*
X112266662Y-119552466D01*
X112242332Y-119541121D01*
X112066450Y-119459106D01*
X112066447Y-119459105D01*
X112066445Y-119459104D01*
X111853070Y-119401930D01*
X111853062Y-119401929D01*
X111633002Y-119382677D01*
X111632998Y-119382677D01*
X111478271Y-119396213D01*
X111409771Y-119382446D01*
X111359588Y-119333831D01*
X111343655Y-119265802D01*
X111367031Y-119199958D01*
X111379777Y-119185010D01*
X112208192Y-118356595D01*
X112211859Y-118353215D01*
X112254100Y-118317337D01*
X112303097Y-118252881D01*
X112353841Y-118189754D01*
X112353842Y-118189751D01*
X112354480Y-118188753D01*
X112365406Y-118171138D01*
X112366043Y-118170077D01*
X112366054Y-118170064D01*
X112400066Y-118096547D01*
X112436036Y-118024021D01*
X112436039Y-118024008D01*
X112436452Y-118022886D01*
X112443389Y-118003183D01*
X112443727Y-118002177D01*
X112443732Y-118002167D01*
X112461141Y-117923073D01*
X112480684Y-117844495D01*
X112480683Y-117844495D01*
X112480685Y-117844491D01*
X112480830Y-117843426D01*
X112483371Y-117822677D01*
X112483500Y-117821497D01*
X112483500Y-117740531D01*
X112485693Y-117659564D01*
X112485608Y-117658520D01*
X112483500Y-117636352D01*
X112483500Y-116556308D01*
X112503185Y-116489269D01*
X112519819Y-116468627D01*
X112526347Y-116462099D01*
X112603826Y-116384620D01*
X112730534Y-116203662D01*
X112790894Y-116074218D01*
X112837066Y-116021779D01*
X112904259Y-116002627D01*
X112971141Y-116022843D01*
X113015658Y-116074219D01*
X113075899Y-116203407D01*
X113075900Y-116203409D01*
X113202563Y-116384301D01*
X113358698Y-116540436D01*
X113539590Y-116667099D01*
X113539592Y-116667100D01*
X113739715Y-116760419D01*
X113739729Y-116760424D01*
X113922999Y-116809531D01*
X113923000Y-116809530D01*
X113923000Y-116014297D01*
X114028408Y-116062435D01*
X114136666Y-116078000D01*
X114209334Y-116078000D01*
X114317592Y-116062435D01*
X114423000Y-116014297D01*
X114423000Y-116809530D01*
X114494406Y-116790397D01*
X114564256Y-116792060D01*
X114622118Y-116831222D01*
X114649623Y-116895450D01*
X114650500Y-116910172D01*
X114650500Y-121637191D01*
X114650501Y-121637200D01*
X114659791Y-121677908D01*
X114660955Y-121684763D01*
X114665632Y-121726259D01*
X114679420Y-121765662D01*
X114681345Y-121772345D01*
X114690639Y-121813061D01*
X114708759Y-121850688D01*
X114711421Y-121857114D01*
X114725212Y-121896525D01*
X114747422Y-121931872D01*
X114750787Y-121937959D01*
X114768910Y-121975589D01*
X114794940Y-122008229D01*
X114798966Y-122013904D01*
X114812603Y-122035606D01*
X114821184Y-122049262D01*
X114853174Y-122081252D01*
X116845184Y-124073262D01*
X116972738Y-124200816D01*
X117008089Y-124223028D01*
X117013765Y-124227055D01*
X117046411Y-124253090D01*
X117046412Y-124253091D01*
X117067548Y-124263269D01*
X117084035Y-124271208D01*
X117090112Y-124274567D01*
X117102419Y-124282300D01*
X117125477Y-124296789D01*
X117164891Y-124310581D01*
X117171320Y-124313244D01*
X117208941Y-124331361D01*
X117249641Y-124340650D01*
X117256328Y-124342576D01*
X117295742Y-124356367D01*
X117295745Y-124356368D01*
X117337241Y-124361043D01*
X117344093Y-124362207D01*
X117384806Y-124371500D01*
X117430046Y-124371500D01*
X144200472Y-124371500D01*
X144267511Y-124391185D01*
X144288153Y-124407819D01*
X145975181Y-126094847D01*
X146008666Y-126156170D01*
X146011500Y-126182528D01*
X146011500Y-127471191D01*
X146011501Y-127471200D01*
X146020791Y-127511908D01*
X146021955Y-127518763D01*
X146026632Y-127560259D01*
X146040420Y-127599662D01*
X146042345Y-127606345D01*
X146051639Y-127647061D01*
X146069759Y-127684688D01*
X146072421Y-127691114D01*
X146086212Y-127730525D01*
X146108422Y-127765872D01*
X146111787Y-127771959D01*
X146129910Y-127809589D01*
X146155940Y-127842229D01*
X146159966Y-127847904D01*
X146174558Y-127871126D01*
X146182184Y-127883262D01*
X146214174Y-127915252D01*
X146984184Y-128685262D01*
X147111738Y-128812816D01*
X147147089Y-128835028D01*
X147152765Y-128839055D01*
X147185411Y-128865090D01*
X147185412Y-128865091D01*
X147206548Y-128875269D01*
X147223035Y-128883208D01*
X147229112Y-128886567D01*
X147246635Y-128897577D01*
X147264477Y-128908789D01*
X147303891Y-128922581D01*
X147310320Y-128925244D01*
X147347941Y-128943361D01*
X147388641Y-128952650D01*
X147395328Y-128954576D01*
X147434742Y-128968367D01*
X147434745Y-128968368D01*
X147476241Y-128973043D01*
X147483093Y-128974207D01*
X147523806Y-128983500D01*
X147569046Y-128983500D01*
X149488309Y-128983500D01*
X149555348Y-129003185D01*
X149589884Y-129036376D01*
X149602508Y-129054405D01*
X149769596Y-129221493D01*
X149852406Y-129279477D01*
X149896031Y-129334054D01*
X149903225Y-129403552D01*
X149871702Y-129465907D01*
X149811473Y-129501321D01*
X149785915Y-129504965D01*
X149250002Y-129524999D01*
X149250000Y-129524999D01*
X149250000Y-129525000D01*
X147619780Y-130809997D01*
X147125000Y-131200000D01*
X147125000Y-133700001D01*
X147723009Y-136889384D01*
X147725125Y-136910794D01*
X147739506Y-138147558D01*
X147720602Y-138214822D01*
X147668333Y-138261188D01*
X147615514Y-138273000D01*
X147036028Y-138273000D01*
X147036012Y-138273001D01*
X146933302Y-138283494D01*
X146766880Y-138338641D01*
X146766875Y-138338643D01*
X146617654Y-138430684D01*
X146493684Y-138554654D01*
X146401643Y-138703875D01*
X146401641Y-138703880D01*
X146346494Y-138870302D01*
X146346493Y-138870309D01*
X146336000Y-138973013D01*
X146336000Y-139323000D01*
X147670830Y-139323000D01*
X147525830Y-139823000D01*
X146336001Y-139823000D01*
X146336001Y-140172971D01*
X146336002Y-140172991D01*
X146341861Y-140230352D01*
X146329091Y-140299044D01*
X146281209Y-140349928D01*
X146213419Y-140366848D01*
X146147243Y-140344431D01*
X146130822Y-140330633D01*
X143110352Y-137310163D01*
X139997407Y-134197218D01*
X139994004Y-134193526D01*
X139958136Y-134151299D01*
X139893691Y-134102309D01*
X139830559Y-134051562D01*
X139830558Y-134051561D01*
X139830554Y-134051558D01*
X139830548Y-134051555D01*
X139829654Y-134050983D01*
X139811819Y-134039920D01*
X139810864Y-134039346D01*
X139737360Y-134005339D01*
X139664827Y-133969366D01*
X139663781Y-133968982D01*
X139643960Y-133962002D01*
X139642964Y-133961666D01*
X139563873Y-133944258D01*
X139485294Y-133924715D01*
X139484384Y-133924591D01*
X139463306Y-133922010D01*
X139462301Y-133921901D01*
X139462297Y-133921900D01*
X139462292Y-133921900D01*
X139381331Y-133921900D01*
X139300364Y-133919706D01*
X139299320Y-133919791D01*
X139277152Y-133921900D01*
X108800050Y-133921900D01*
X108733011Y-133902215D01*
X108712369Y-133885581D01*
X108202179Y-133375390D01*
X108168694Y-133314067D01*
X108166332Y-133276901D01*
X108168453Y-133252666D01*
X108185659Y-133056000D01*
X108165063Y-132820592D01*
X108103903Y-132592337D01*
X108004035Y-132378171D01*
X108004034Y-132378169D01*
X107868494Y-132184597D01*
X107721295Y-132037398D01*
X107687810Y-131976075D01*
X107692794Y-131906383D01*
X107734666Y-131850450D01*
X107743880Y-131844178D01*
X107749334Y-131840814D01*
X107898656Y-131748712D01*
X108022712Y-131624656D01*
X108114814Y-131475334D01*
X108169999Y-131308797D01*
X108180500Y-131206009D01*
X108180499Y-129905992D01*
X108173673Y-129839174D01*
X108169999Y-129803203D01*
X108169998Y-129803200D01*
X108114814Y-129636666D01*
X108022712Y-129487344D01*
X107898656Y-129363288D01*
X107800415Y-129302693D01*
X107749336Y-129271187D01*
X107749331Y-129271185D01*
X107716790Y-129260402D01*
X107582797Y-129216001D01*
X107582795Y-129216000D01*
X107480010Y-129205500D01*
X105879998Y-129205500D01*
X105879981Y-129205501D01*
X105777203Y-129216000D01*
X105777200Y-129216001D01*
X105610668Y-129271185D01*
X105610663Y-129271187D01*
X105461342Y-129363289D01*
X105337289Y-129487342D01*
X105337288Y-129487344D01*
X105255726Y-129619579D01*
X105241395Y-129642813D01*
X105239600Y-129641706D01*
X105200313Y-129686337D01*
X105134092Y-129705500D01*
X103984651Y-129705500D01*
X103917612Y-129685815D01*
X103896970Y-129669181D01*
X103040603Y-128812814D01*
X102102607Y-127874818D01*
X102099204Y-127871126D01*
X102063336Y-127828899D01*
X101998891Y-127779909D01*
X101935759Y-127729162D01*
X101935758Y-127729161D01*
X101935754Y-127729158D01*
X101935748Y-127729155D01*
X101934854Y-127728583D01*
X101917019Y-127717520D01*
X101916064Y-127716946D01*
X101842560Y-127682939D01*
X101770027Y-127646966D01*
X101768981Y-127646582D01*
X101749160Y-127639602D01*
X101748164Y-127639266D01*
X101669073Y-127621858D01*
X101590494Y-127602315D01*
X101589584Y-127602191D01*
X101568506Y-127599610D01*
X101567501Y-127599501D01*
X101567497Y-127599500D01*
X101567492Y-127599500D01*
X101486531Y-127599500D01*
X101405564Y-127597306D01*
X101404520Y-127597391D01*
X101382352Y-127599500D01*
X100503651Y-127599500D01*
X100436612Y-127579815D01*
X100415970Y-127563181D01*
X100111819Y-127259030D01*
X100078334Y-127197707D01*
X100075500Y-127171349D01*
X100075500Y-120683649D01*
X100095185Y-120616610D01*
X100111815Y-120595972D01*
X100271969Y-120435817D01*
X100333292Y-120402333D01*
X100359650Y-120399499D01*
X100881002Y-120399499D01*
X100881008Y-120399499D01*
X100983797Y-120388999D01*
X101150334Y-120333814D01*
X101299656Y-120241712D01*
X101423712Y-120117656D01*
X101515814Y-119968334D01*
X101570999Y-119801797D01*
X101581500Y-119699009D01*
X101581500Y-119249000D01*
X102381001Y-119249000D01*
X102381001Y-119698986D01*
X102391494Y-119801697D01*
X102446641Y-119968119D01*
X102446643Y-119968124D01*
X102538684Y-120117345D01*
X102662654Y-120241315D01*
X102811875Y-120333356D01*
X102811880Y-120333358D01*
X102978302Y-120388505D01*
X102978309Y-120388506D01*
X103081019Y-120398999D01*
X103205999Y-120398999D01*
X103206000Y-120398998D01*
X103206000Y-119249000D01*
X102381001Y-119249000D01*
X101581500Y-119249000D01*
X101581499Y-118708649D01*
X101601183Y-118641611D01*
X101617813Y-118620974D01*
X102194503Y-118044284D01*
X102255824Y-118010801D01*
X102325516Y-118015785D01*
X102381449Y-118057657D01*
X102405866Y-118123121D01*
X102399889Y-118170968D01*
X102391495Y-118196300D01*
X102391493Y-118196309D01*
X102381000Y-118299013D01*
X102381000Y-118749000D01*
X103582000Y-118749000D01*
X103649039Y-118768685D01*
X103694794Y-118821489D01*
X103706000Y-118873000D01*
X103706000Y-120398999D01*
X103830972Y-120398999D01*
X103830986Y-120398998D01*
X103933697Y-120388505D01*
X104100119Y-120333358D01*
X104100124Y-120333356D01*
X104249345Y-120241315D01*
X104373315Y-120117345D01*
X104465356Y-119968124D01*
X104465358Y-119968119D01*
X104520505Y-119801697D01*
X104520506Y-119801689D01*
X104524642Y-119761211D01*
X104551038Y-119696519D01*
X104608218Y-119656368D01*
X104678029Y-119653504D01*
X104738306Y-119688838D01*
X104769912Y-119751151D01*
X104771358Y-119761211D01*
X104775494Y-119801697D01*
X104830641Y-119968119D01*
X104830643Y-119968124D01*
X104922684Y-120117345D01*
X105046654Y-120241315D01*
X105195875Y-120333356D01*
X105195880Y-120333358D01*
X105362302Y-120388505D01*
X105362309Y-120388506D01*
X105465019Y-120398999D01*
X105589999Y-120398999D01*
X105590000Y-120398998D01*
X105590000Y-117720000D01*
X105538000Y-117720000D01*
X105470961Y-117700315D01*
X105425206Y-117647511D01*
X105414000Y-117596000D01*
X105414000Y-116054000D01*
X105433685Y-115986961D01*
X105486489Y-115941206D01*
X105538000Y-115930000D01*
X105790000Y-115930000D01*
X105857039Y-115949685D01*
G37*
%TD.AperFunction*%
%TA.AperFunction,Conductor*%
G36*
X157442403Y-109709185D02*
G01*
X157488158Y-109761989D01*
X157499363Y-109813128D01*
X157499485Y-109853658D01*
X157500000Y-110025000D01*
X157525000Y-113575000D01*
X158476795Y-113575000D01*
X158543834Y-113594685D01*
X158589589Y-113647489D01*
X158600792Y-113698203D01*
X158649757Y-121312224D01*
X158630504Y-121379388D01*
X158629140Y-121381494D01*
X157408259Y-123224784D01*
X157354829Y-123269806D01*
X157314968Y-123279900D01*
X156150000Y-123374999D01*
X156149999Y-123375000D01*
X154550000Y-125175000D01*
X154549999Y-125175001D01*
X154425000Y-127700000D01*
X154214551Y-130505983D01*
X154189907Y-130571362D01*
X154133829Y-130613040D01*
X154064121Y-130617783D01*
X154030275Y-130604879D01*
X151925001Y-129425000D01*
X151924998Y-129424999D01*
X151860388Y-129427415D01*
X151792660Y-129410249D01*
X151744965Y-129359191D01*
X151732445Y-129290452D01*
X151759075Y-129225857D01*
X151768075Y-129215821D01*
X151813054Y-129170842D01*
X151929495Y-129054401D01*
X152065035Y-128860830D01*
X152164903Y-128646663D01*
X152226063Y-128418408D01*
X152246659Y-128183000D01*
X152226063Y-127947592D01*
X152167536Y-127729162D01*
X152164905Y-127719344D01*
X152164904Y-127719343D01*
X152164903Y-127719337D01*
X152065035Y-127505171D01*
X152041249Y-127471200D01*
X151929494Y-127311597D01*
X151762402Y-127144505D01*
X151568830Y-127008965D01*
X151568828Y-127008964D01*
X151421333Y-126940186D01*
X151354663Y-126909097D01*
X151354659Y-126909096D01*
X151354655Y-126909094D01*
X151126413Y-126847938D01*
X151126403Y-126847936D01*
X150949966Y-126832500D01*
X150582034Y-126832500D01*
X150405596Y-126847936D01*
X150405586Y-126847938D01*
X150177344Y-126909094D01*
X150177335Y-126909098D01*
X149963171Y-127008964D01*
X149963169Y-127008965D01*
X149769597Y-127144505D01*
X149602508Y-127311594D01*
X149589884Y-127329624D01*
X149535307Y-127373248D01*
X149488309Y-127382500D01*
X147996940Y-127382500D01*
X147929901Y-127362815D01*
X147909259Y-127346181D01*
X147648819Y-127085741D01*
X147615334Y-127024418D01*
X147612500Y-126998060D01*
X147612500Y-125709393D01*
X147612499Y-125709390D01*
X147603203Y-125668664D01*
X147602044Y-125661839D01*
X147597368Y-125620333D01*
X147583574Y-125580912D01*
X147581652Y-125574243D01*
X147572359Y-125533527D01*
X147554245Y-125495914D01*
X147551583Y-125489486D01*
X147537789Y-125450066D01*
X147515563Y-125414694D01*
X147512213Y-125408632D01*
X147494091Y-125371001D01*
X147468049Y-125338345D01*
X147464038Y-125332692D01*
X147450017Y-125310378D01*
X147441818Y-125297328D01*
X145085674Y-122941184D01*
X145085671Y-122941182D01*
X145050316Y-122918966D01*
X145044641Y-122914940D01*
X145012001Y-122888910D01*
X144974371Y-122870787D01*
X144968284Y-122867422D01*
X144932937Y-122845212D01*
X144893526Y-122831421D01*
X144887100Y-122828759D01*
X144849473Y-122810639D01*
X144808757Y-122801345D01*
X144802074Y-122799420D01*
X144762671Y-122785632D01*
X144721175Y-122780955D01*
X144714320Y-122779791D01*
X144673612Y-122770501D01*
X144673608Y-122770500D01*
X144673606Y-122770500D01*
X144673603Y-122770500D01*
X117857940Y-122770500D01*
X117790901Y-122750815D01*
X117770259Y-122734181D01*
X116287819Y-121251741D01*
X116254334Y-121190418D01*
X116251500Y-121164060D01*
X116251500Y-116914977D01*
X116271185Y-116847938D01*
X116323989Y-116802183D01*
X116393147Y-116792239D01*
X116407581Y-116795200D01*
X116492932Y-116818070D01*
X116643264Y-116831222D01*
X116712998Y-116837323D01*
X116712999Y-116837323D01*
X116712999Y-116837322D01*
X116713000Y-116837323D01*
X116779763Y-116831481D01*
X116848260Y-116845247D01*
X116878250Y-116867328D01*
X118649363Y-118638441D01*
X118672861Y-118675197D01*
X118674080Y-118674593D01*
X118677064Y-118680610D01*
X118677068Y-118680616D01*
X118776700Y-118836489D01*
X122054385Y-122114173D01*
X122057788Y-122117865D01*
X122093663Y-122160100D01*
X122109122Y-122171851D01*
X122158126Y-122209104D01*
X122194781Y-122238568D01*
X122221247Y-122259842D01*
X122221252Y-122259844D01*
X122222163Y-122260427D01*
X122239955Y-122271463D01*
X122240933Y-122272052D01*
X122240936Y-122272054D01*
X122314429Y-122306055D01*
X122386979Y-122342037D01*
X122386982Y-122342037D01*
X122386987Y-122342040D01*
X122388019Y-122342419D01*
X122407853Y-122349402D01*
X122408835Y-122349733D01*
X122487916Y-122367139D01*
X122566506Y-122386684D01*
X122566510Y-122386684D01*
X122566514Y-122386685D01*
X122567604Y-122386833D01*
X122588375Y-122389377D01*
X122589502Y-122389499D01*
X122589503Y-122389500D01*
X122589504Y-122389500D01*
X122670469Y-122389500D01*
X122751432Y-122391693D01*
X122751432Y-122391692D01*
X122751435Y-122391693D01*
X122752479Y-122391608D01*
X122774648Y-122389500D01*
X145265349Y-122389500D01*
X145332388Y-122409185D01*
X145353030Y-122425819D01*
X146677391Y-123750180D01*
X146680784Y-123753860D01*
X146698564Y-123774792D01*
X146716663Y-123796101D01*
X146716664Y-123796102D01*
X146732505Y-123808143D01*
X146781118Y-123845097D01*
X146844246Y-123895841D01*
X146844247Y-123895841D01*
X146844248Y-123895842D01*
X146845157Y-123896423D01*
X146863009Y-123907497D01*
X146863928Y-123908050D01*
X146863934Y-123908053D01*
X146863936Y-123908054D01*
X146928268Y-123937817D01*
X146937452Y-123942066D01*
X147009983Y-123978038D01*
X147011110Y-123978452D01*
X147030776Y-123985376D01*
X147031830Y-123985730D01*
X147031833Y-123985732D01*
X147060619Y-123992068D01*
X147110925Y-124003141D01*
X147189505Y-124022684D01*
X147190594Y-124022832D01*
X147211375Y-124025377D01*
X147212502Y-124025499D01*
X147212503Y-124025500D01*
X147212504Y-124025500D01*
X147293469Y-124025500D01*
X147374432Y-124027693D01*
X147374432Y-124027692D01*
X147374435Y-124027693D01*
X147375479Y-124027608D01*
X147397648Y-124025500D01*
X153869913Y-124025500D01*
X153874948Y-124025705D01*
X153894562Y-124027301D01*
X153930167Y-124030201D01*
X154010392Y-124019270D01*
X154090910Y-124010514D01*
X154090914Y-124010512D01*
X154092036Y-124010266D01*
X154112307Y-124005515D01*
X154113462Y-124005228D01*
X154113462Y-124005227D01*
X154113468Y-124005227D01*
X154189486Y-123977299D01*
X154266221Y-123951444D01*
X154266227Y-123951439D01*
X154267351Y-123950920D01*
X154286123Y-123941923D01*
X154287112Y-123941433D01*
X154287116Y-123941432D01*
X154355353Y-123897815D01*
X154424736Y-123856070D01*
X154424741Y-123856065D01*
X154425669Y-123855360D01*
X154442076Y-123842533D01*
X154442986Y-123841802D01*
X154442986Y-123841801D01*
X154442989Y-123841800D01*
X154471618Y-123813170D01*
X154500249Y-123784540D01*
X154534649Y-123751954D01*
X154559041Y-123728849D01*
X154559045Y-123728842D01*
X154559757Y-123728005D01*
X154573904Y-123710883D01*
X155349192Y-122935595D01*
X155352859Y-122932215D01*
X155395100Y-122896337D01*
X155433965Y-122845211D01*
X155444090Y-122831892D01*
X155470191Y-122799420D01*
X155494842Y-122768754D01*
X155494845Y-122768747D01*
X155495451Y-122767799D01*
X155506449Y-122750069D01*
X155507051Y-122749069D01*
X155507052Y-122749066D01*
X155507054Y-122749064D01*
X155533003Y-122692974D01*
X155579016Y-122640398D01*
X155646151Y-122621042D01*
X155695979Y-122631762D01*
X155752122Y-122656759D01*
X155932033Y-122694999D01*
X155932034Y-122695000D01*
X156115966Y-122695000D01*
X156115966Y-122694999D01*
X156295876Y-122656759D01*
X156295883Y-122656757D01*
X156442101Y-122591655D01*
X156442101Y-122591654D01*
X155932668Y-122082221D01*
X155996912Y-122095000D01*
X156051088Y-122095000D01*
X156131300Y-122079045D01*
X156222264Y-122018264D01*
X156283045Y-121927300D01*
X156304388Y-121820000D01*
X156377553Y-121820000D01*
X156793953Y-122236401D01*
X156793954Y-122236401D01*
X156827756Y-122177854D01*
X156884592Y-122002928D01*
X156884593Y-122002926D01*
X156903819Y-121820000D01*
X156884593Y-121637073D01*
X156884592Y-121637071D01*
X156827755Y-121462144D01*
X156793953Y-121403598D01*
X156377553Y-121819999D01*
X156377553Y-121820000D01*
X156304388Y-121820000D01*
X156283045Y-121712700D01*
X156222264Y-121621736D01*
X156131300Y-121560955D01*
X156051088Y-121545000D01*
X155996912Y-121545000D01*
X155932667Y-121557778D01*
X156442102Y-121048344D01*
X156442101Y-121048343D01*
X156295884Y-120983242D01*
X156295876Y-120983240D01*
X156115966Y-120945000D01*
X155932038Y-120945000D01*
X155774280Y-120978531D01*
X155704613Y-120973214D01*
X155648880Y-120931076D01*
X155624775Y-120865496D01*
X155624500Y-120857240D01*
X155624500Y-119917649D01*
X155644185Y-119850610D01*
X155660815Y-119829972D01*
X156625185Y-118865601D01*
X156628854Y-118862219D01*
X156671100Y-118826337D01*
X156720104Y-118761872D01*
X156770842Y-118698753D01*
X156770842Y-118698751D01*
X156770844Y-118698750D01*
X156771432Y-118697829D01*
X156782426Y-118680105D01*
X156783050Y-118679069D01*
X156783054Y-118679064D01*
X156817055Y-118605570D01*
X156853037Y-118533021D01*
X156853037Y-118533017D01*
X156853440Y-118531923D01*
X156860329Y-118512361D01*
X156860727Y-118511177D01*
X156860732Y-118511167D01*
X156878139Y-118432083D01*
X156897684Y-118353494D01*
X156897684Y-118353492D01*
X156897833Y-118352400D01*
X156900371Y-118331677D01*
X156900500Y-118330497D01*
X156900500Y-118249530D01*
X156901151Y-118225500D01*
X156902693Y-118168567D01*
X156902692Y-118168566D01*
X156902693Y-118168561D01*
X156902610Y-118167551D01*
X156900500Y-118145346D01*
X156900500Y-117610245D01*
X156906568Y-117571930D01*
X156911085Y-117558029D01*
X156930322Y-117375000D01*
X156911085Y-117191971D01*
X156874061Y-117078023D01*
X156854216Y-117016946D01*
X156854213Y-117016940D01*
X156762195Y-116857560D01*
X156639050Y-116720793D01*
X156639048Y-116720791D01*
X156490165Y-116612621D01*
X156490162Y-116612619D01*
X156490161Y-116612619D01*
X156407067Y-116575623D01*
X156322038Y-116537765D01*
X156322033Y-116537763D01*
X156142019Y-116499500D01*
X155957981Y-116499500D01*
X155777966Y-116537763D01*
X155777961Y-116537765D01*
X155609839Y-116612618D01*
X155497460Y-116694266D01*
X155431653Y-116717745D01*
X155363599Y-116701919D01*
X155351690Y-116694266D01*
X155239908Y-116613053D01*
X155239909Y-116613053D01*
X155071884Y-116538242D01*
X155071876Y-116538240D01*
X154891966Y-116500000D01*
X154708034Y-116500000D01*
X154521764Y-116539592D01*
X154521331Y-116537555D01*
X154461238Y-116539259D01*
X154401413Y-116503166D01*
X154376393Y-116462099D01*
X154352305Y-116396530D01*
X154326444Y-116319779D01*
X154325980Y-116318776D01*
X154316947Y-116299923D01*
X154316434Y-116298891D01*
X154316432Y-116298884D01*
X154272822Y-116230658D01*
X154231070Y-116161264D01*
X154231068Y-116161262D01*
X154231067Y-116161260D01*
X154230455Y-116160455D01*
X154217503Y-116143889D01*
X154216803Y-116143018D01*
X154216799Y-116143011D01*
X154159555Y-116085767D01*
X154137454Y-116062435D01*
X154103848Y-116026957D01*
X154103108Y-116026328D01*
X154085875Y-116012087D01*
X153937672Y-115863884D01*
X153730608Y-115656819D01*
X153727215Y-115653139D01*
X153691337Y-115610900D01*
X153665518Y-115591273D01*
X153626891Y-115561909D01*
X153563759Y-115511162D01*
X153563758Y-115511161D01*
X153563754Y-115511158D01*
X153563748Y-115511155D01*
X153562854Y-115510583D01*
X153545019Y-115499520D01*
X153544064Y-115498946D01*
X153470560Y-115464939D01*
X153398027Y-115428966D01*
X153396981Y-115428582D01*
X153377160Y-115421602D01*
X153376164Y-115421266D01*
X153297073Y-115403858D01*
X153218494Y-115384315D01*
X153217584Y-115384191D01*
X153196506Y-115381610D01*
X153195501Y-115381501D01*
X153195497Y-115381500D01*
X153195492Y-115381500D01*
X153114531Y-115381500D01*
X153033564Y-115379306D01*
X153032520Y-115379391D01*
X153010352Y-115381500D01*
X149838087Y-115381500D01*
X149833052Y-115381295D01*
X149777835Y-115376798D01*
X149777828Y-115376799D01*
X149697607Y-115387729D01*
X149617092Y-115396485D01*
X149616131Y-115396697D01*
X149595471Y-115401538D01*
X149594534Y-115401771D01*
X149518513Y-115429700D01*
X149441784Y-115455553D01*
X149440920Y-115455953D01*
X149421704Y-115465160D01*
X149420885Y-115465566D01*
X149352646Y-115509184D01*
X149283259Y-115550933D01*
X149282494Y-115551515D01*
X149265791Y-115564572D01*
X149265012Y-115565199D01*
X149207750Y-115622459D01*
X149148956Y-115678153D01*
X149148322Y-115678899D01*
X149134093Y-115696116D01*
X148567030Y-116263181D01*
X148505707Y-116296666D01*
X148479349Y-116299500D01*
X145900485Y-116299500D01*
X145833446Y-116279815D01*
X145787691Y-116227011D01*
X145777747Y-116157853D01*
X145788103Y-116123096D01*
X145835347Y-116021779D01*
X145843894Y-116003450D01*
X145901070Y-115790068D01*
X145920323Y-115570000D01*
X145915175Y-115511162D01*
X145911151Y-115465160D01*
X145901070Y-115349932D01*
X145843894Y-115136550D01*
X145750534Y-114936339D01*
X145661010Y-114808484D01*
X145623827Y-114755381D01*
X145547946Y-114679500D01*
X145467620Y-114599174D01*
X145467616Y-114599171D01*
X145467615Y-114599170D01*
X145286666Y-114472468D01*
X145286662Y-114472466D01*
X145216345Y-114439677D01*
X145086450Y-114379106D01*
X145086446Y-114379105D01*
X145086442Y-114379103D01*
X145083350Y-114378275D01*
X145082139Y-114377537D01*
X145081356Y-114377252D01*
X145081413Y-114377094D01*
X145023689Y-114341910D01*
X144993160Y-114279063D01*
X145001455Y-114209688D01*
X145045940Y-114155810D01*
X145112492Y-114134535D01*
X145115443Y-114134500D01*
X152553913Y-114134500D01*
X152558948Y-114134705D01*
X152578562Y-114136301D01*
X152614167Y-114139201D01*
X152694392Y-114128270D01*
X152774910Y-114119514D01*
X152774914Y-114119512D01*
X152776036Y-114119266D01*
X152796307Y-114114515D01*
X152797462Y-114114228D01*
X152797462Y-114114227D01*
X152797468Y-114114227D01*
X152873486Y-114086299D01*
X152950221Y-114060444D01*
X152950227Y-114060439D01*
X152951351Y-114059920D01*
X152970123Y-114050923D01*
X152971112Y-114050433D01*
X152971116Y-114050432D01*
X153039353Y-114006815D01*
X153108736Y-113965070D01*
X153108741Y-113965065D01*
X153109669Y-113964360D01*
X153126076Y-113951533D01*
X153126986Y-113950802D01*
X153126986Y-113950801D01*
X153126989Y-113950800D01*
X153155618Y-113922170D01*
X153184249Y-113893540D01*
X153215281Y-113864144D01*
X153243041Y-113837849D01*
X153243045Y-113837842D01*
X153243757Y-113837005D01*
X153257904Y-113819883D01*
X154234168Y-112843619D01*
X154248944Y-112830998D01*
X154352543Y-112755730D01*
X154418346Y-112732253D01*
X154486400Y-112748079D01*
X154498309Y-112755733D01*
X154610085Y-112836943D01*
X154610090Y-112836946D01*
X154778115Y-112911757D01*
X154778123Y-112911759D01*
X154958033Y-112949999D01*
X154958034Y-112950000D01*
X155141966Y-112950000D01*
X155141966Y-112949999D01*
X155321876Y-112911759D01*
X155321883Y-112911757D01*
X155468101Y-112846655D01*
X155468101Y-112846654D01*
X154958668Y-112337221D01*
X155022912Y-112350000D01*
X155077088Y-112350000D01*
X155157300Y-112334045D01*
X155248264Y-112273264D01*
X155309045Y-112182300D01*
X155330388Y-112075001D01*
X155403553Y-112075001D01*
X155819953Y-112491401D01*
X155819954Y-112491401D01*
X155853756Y-112432854D01*
X155910592Y-112257928D01*
X155910593Y-112257926D01*
X155929819Y-112075000D01*
X155910593Y-111892073D01*
X155910592Y-111892071D01*
X155853755Y-111717144D01*
X155819953Y-111658598D01*
X155403553Y-112074999D01*
X155403553Y-112075001D01*
X155330388Y-112075001D01*
X155330388Y-112075000D01*
X155309045Y-111967700D01*
X155248264Y-111876736D01*
X155157300Y-111815955D01*
X155077088Y-111800000D01*
X155022912Y-111800000D01*
X154958667Y-111812778D01*
X155468102Y-111303344D01*
X155468101Y-111303343D01*
X155321884Y-111238242D01*
X155321876Y-111238240D01*
X155141966Y-111200000D01*
X154958034Y-111200000D01*
X154778123Y-111238240D01*
X154778115Y-111238242D01*
X154610091Y-111313053D01*
X154498309Y-111394267D01*
X154432502Y-111417746D01*
X154364448Y-111401920D01*
X154352539Y-111394266D01*
X154240165Y-111312621D01*
X154240162Y-111312619D01*
X154240161Y-111312619D01*
X154179112Y-111285438D01*
X154072038Y-111237765D01*
X154072033Y-111237763D01*
X153892019Y-111199500D01*
X153707981Y-111199500D01*
X153527966Y-111237763D01*
X153527961Y-111237765D01*
X153359839Y-111312619D01*
X153359834Y-111312621D01*
X153210951Y-111420791D01*
X153210949Y-111420793D01*
X153087807Y-111557557D01*
X153087806Y-111557559D01*
X153059291Y-111606946D01*
X153039586Y-111632624D01*
X152275030Y-112397181D01*
X152213707Y-112430666D01*
X152187349Y-112433500D01*
X145608649Y-112433500D01*
X145541610Y-112413815D01*
X145495855Y-112361011D01*
X145485911Y-112291853D01*
X145514936Y-112228297D01*
X145520968Y-112221819D01*
X146755305Y-110987483D01*
X148016969Y-109725819D01*
X148078292Y-109692334D01*
X148104650Y-109689500D01*
X157375364Y-109689500D01*
X157442403Y-109709185D01*
G37*
%TD.AperFunction*%
%TA.AperFunction,Conductor*%
G36*
X155743612Y-121820000D02*
G01*
X155761778Y-121911331D01*
X155758128Y-121907681D01*
X155724643Y-121846358D01*
X155729627Y-121776666D01*
X155758128Y-121732319D01*
X155761778Y-121728668D01*
X155743612Y-121820000D01*
G37*
%TD.AperFunction*%
%TA.AperFunction,Conductor*%
G36*
X104573842Y-117551516D02*
G01*
X104588727Y-117561082D01*
X104671910Y-117623352D01*
X104671913Y-117623354D01*
X104806620Y-117673596D01*
X104806627Y-117673598D01*
X104841158Y-117677311D01*
X104905709Y-117704049D01*
X104945557Y-117761441D01*
X104948051Y-117831266D01*
X104925174Y-117877505D01*
X104922686Y-117880651D01*
X104830643Y-118029875D01*
X104830641Y-118029880D01*
X104775494Y-118196302D01*
X104775493Y-118196308D01*
X104771357Y-118236791D01*
X104744959Y-118301482D01*
X104687778Y-118341632D01*
X104617967Y-118344494D01*
X104557691Y-118309159D01*
X104526087Y-118246846D01*
X104524641Y-118236786D01*
X104520506Y-118196303D01*
X104465358Y-118029880D01*
X104465356Y-118029875D01*
X104373315Y-117880654D01*
X104318055Y-117825394D01*
X104284570Y-117764071D01*
X104289554Y-117694379D01*
X104331426Y-117638446D01*
X104348989Y-117628858D01*
X104348546Y-117628047D01*
X104356325Y-117623798D01*
X104356331Y-117623796D01*
X104440105Y-117561082D01*
X104505569Y-117536665D01*
X104573842Y-117551516D01*
G37*
%TD.AperFunction*%
%TA.AperFunction,Conductor*%
G36*
X115640281Y-104455469D02*
G01*
X115798035Y-104489000D01*
X115981965Y-104489000D01*
X116139719Y-104455469D01*
X116209387Y-104460785D01*
X116265120Y-104502922D01*
X116289225Y-104568502D01*
X116289500Y-104576759D01*
X116289500Y-108639980D01*
X116289295Y-108645014D01*
X116284798Y-108700232D01*
X116295729Y-108780461D01*
X116304486Y-108860982D01*
X116304710Y-108861999D01*
X116309525Y-108882542D01*
X116309773Y-108883539D01*
X116337700Y-108959555D01*
X116363557Y-109036292D01*
X116364001Y-109037254D01*
X116373146Y-109056335D01*
X116373564Y-109057178D01*
X116417184Y-109125422D01*
X116458930Y-109194805D01*
X116459538Y-109195605D01*
X116472578Y-109212285D01*
X116473201Y-109213060D01*
X116530459Y-109270318D01*
X116586150Y-109329109D01*
X116587010Y-109329840D01*
X116604123Y-109343980D01*
X119595316Y-112335173D01*
X119598719Y-112338865D01*
X119634593Y-112381099D01*
X119699057Y-112430104D01*
X119732827Y-112457249D01*
X119762178Y-112480842D01*
X119762183Y-112480844D01*
X119763094Y-112481427D01*
X119780886Y-112492463D01*
X119781864Y-112493052D01*
X119781867Y-112493054D01*
X119855360Y-112527055D01*
X119927910Y-112563037D01*
X119927913Y-112563037D01*
X119927918Y-112563040D01*
X119928950Y-112563419D01*
X119948784Y-112570402D01*
X119949766Y-112570733D01*
X120028847Y-112588139D01*
X120107437Y-112607684D01*
X120107441Y-112607684D01*
X120107445Y-112607685D01*
X120108535Y-112607833D01*
X120129306Y-112610377D01*
X120130433Y-112610499D01*
X120130434Y-112610500D01*
X120130435Y-112610500D01*
X120211400Y-112610500D01*
X120292363Y-112612693D01*
X120292363Y-112612692D01*
X120292366Y-112612693D01*
X120293410Y-112612608D01*
X120315579Y-112610500D01*
X122076692Y-112610500D01*
X122143731Y-112630185D01*
X122164373Y-112646819D01*
X122248378Y-112730824D01*
X122248384Y-112730829D01*
X122429333Y-112857531D01*
X122429335Y-112857532D01*
X122429338Y-112857534D01*
X122629550Y-112950894D01*
X122842932Y-113008070D01*
X123000123Y-113021822D01*
X123062998Y-113027323D01*
X123063000Y-113027323D01*
X123063002Y-113027323D01*
X123122346Y-113022131D01*
X123283068Y-113008070D01*
X123496450Y-112950894D01*
X123696662Y-112857534D01*
X123877620Y-112730826D01*
X124033826Y-112574620D01*
X124160534Y-112393662D01*
X124220618Y-112264811D01*
X124266790Y-112212371D01*
X124333983Y-112193219D01*
X124400865Y-112213435D01*
X124445382Y-112264811D01*
X124505464Y-112393658D01*
X124505468Y-112393666D01*
X124632170Y-112574615D01*
X124632175Y-112574621D01*
X124788378Y-112730824D01*
X124788384Y-112730829D01*
X124969333Y-112857531D01*
X124969335Y-112857532D01*
X124969338Y-112857534D01*
X125169550Y-112950894D01*
X125382932Y-113008070D01*
X125540123Y-113021822D01*
X125602998Y-113027323D01*
X125603000Y-113027323D01*
X125603002Y-113027323D01*
X125662346Y-113022131D01*
X125823068Y-113008070D01*
X126036450Y-112950894D01*
X126236662Y-112857534D01*
X126417620Y-112730826D01*
X126573826Y-112574620D01*
X126700534Y-112393662D01*
X126760618Y-112264811D01*
X126806790Y-112212371D01*
X126873983Y-112193219D01*
X126940865Y-112213435D01*
X126985382Y-112264811D01*
X127045464Y-112393658D01*
X127045468Y-112393666D01*
X127172170Y-112574615D01*
X127172175Y-112574621D01*
X127328378Y-112730824D01*
X127328384Y-112730829D01*
X127509333Y-112857531D01*
X127509335Y-112857532D01*
X127509338Y-112857534D01*
X127709550Y-112950894D01*
X127922932Y-113008070D01*
X128080123Y-113021822D01*
X128142998Y-113027323D01*
X128143000Y-113027323D01*
X128143002Y-113027323D01*
X128202346Y-113022131D01*
X128363068Y-113008070D01*
X128576450Y-112950894D01*
X128776662Y-112857534D01*
X128957620Y-112730826D01*
X129113826Y-112574620D01*
X129240534Y-112393662D01*
X129300618Y-112264811D01*
X129346790Y-112212371D01*
X129413983Y-112193219D01*
X129480865Y-112213435D01*
X129525382Y-112264811D01*
X129585464Y-112393658D01*
X129585468Y-112393666D01*
X129712170Y-112574615D01*
X129712175Y-112574621D01*
X129868378Y-112730824D01*
X129868384Y-112730829D01*
X130049333Y-112857531D01*
X130049335Y-112857532D01*
X130049338Y-112857534D01*
X130249550Y-112950894D01*
X130462932Y-113008070D01*
X130683000Y-113027323D01*
X130684727Y-113027171D01*
X130685480Y-113027323D01*
X130688414Y-113027323D01*
X130688414Y-113027912D01*
X130753225Y-113040929D01*
X130783228Y-113063017D01*
X131829233Y-114109021D01*
X131862718Y-114170344D01*
X131857734Y-114240036D01*
X131815862Y-114295969D01*
X131752362Y-114320230D01*
X131732935Y-114321929D01*
X131732929Y-114321930D01*
X131519554Y-114379104D01*
X131519548Y-114379107D01*
X131319340Y-114472465D01*
X131319338Y-114472466D01*
X131138377Y-114599175D01*
X130982175Y-114755377D01*
X130855466Y-114936338D01*
X130855465Y-114936340D01*
X130795382Y-115065189D01*
X130749209Y-115117628D01*
X130682016Y-115136780D01*
X130615135Y-115116564D01*
X130570618Y-115065189D01*
X130511154Y-114937669D01*
X130510534Y-114936339D01*
X130421010Y-114808484D01*
X130383827Y-114755381D01*
X130307946Y-114679500D01*
X130227620Y-114599174D01*
X130227616Y-114599171D01*
X130227615Y-114599170D01*
X130046666Y-114472468D01*
X130046662Y-114472466D01*
X129976345Y-114439677D01*
X129846450Y-114379106D01*
X129846447Y-114379105D01*
X129846445Y-114379104D01*
X129633070Y-114321930D01*
X129633062Y-114321929D01*
X129413002Y-114302677D01*
X129412998Y-114302677D01*
X129192937Y-114321929D01*
X129192929Y-114321930D01*
X128979554Y-114379104D01*
X128979548Y-114379107D01*
X128779340Y-114472465D01*
X128779338Y-114472466D01*
X128598377Y-114599175D01*
X128442175Y-114755377D01*
X128315466Y-114936338D01*
X128315465Y-114936340D01*
X128255382Y-115065189D01*
X128209209Y-115117628D01*
X128142016Y-115136780D01*
X128075135Y-115116564D01*
X128030618Y-115065189D01*
X127971154Y-114937669D01*
X127970534Y-114936339D01*
X127881010Y-114808484D01*
X127843827Y-114755381D01*
X127767946Y-114679500D01*
X127687620Y-114599174D01*
X127687616Y-114599171D01*
X127687615Y-114599170D01*
X127506666Y-114472468D01*
X127506662Y-114472466D01*
X127436345Y-114439677D01*
X127306450Y-114379106D01*
X127306447Y-114379105D01*
X127306445Y-114379104D01*
X127093070Y-114321930D01*
X127093062Y-114321929D01*
X126873002Y-114302677D01*
X126872998Y-114302677D01*
X126652937Y-114321929D01*
X126652929Y-114321930D01*
X126439554Y-114379104D01*
X126439548Y-114379107D01*
X126239340Y-114472465D01*
X126239338Y-114472466D01*
X126058377Y-114599175D01*
X125902175Y-114755377D01*
X125775466Y-114936338D01*
X125775465Y-114936340D01*
X125715382Y-115065189D01*
X125669209Y-115117628D01*
X125602016Y-115136780D01*
X125535135Y-115116564D01*
X125490618Y-115065189D01*
X125431154Y-114937669D01*
X125430534Y-114936339D01*
X125341010Y-114808484D01*
X125303827Y-114755381D01*
X125227946Y-114679500D01*
X125147620Y-114599174D01*
X125147616Y-114599171D01*
X125147615Y-114599170D01*
X124966666Y-114472468D01*
X124966662Y-114472466D01*
X124896345Y-114439677D01*
X124766450Y-114379106D01*
X124766447Y-114379105D01*
X124766445Y-114379104D01*
X124553070Y-114321930D01*
X124553062Y-114321929D01*
X124333002Y-114302677D01*
X124332998Y-114302677D01*
X124112937Y-114321929D01*
X124112929Y-114321930D01*
X123899554Y-114379104D01*
X123899548Y-114379107D01*
X123699340Y-114472465D01*
X123699338Y-114472466D01*
X123518377Y-114599175D01*
X123362175Y-114755377D01*
X123235466Y-114936338D01*
X123235465Y-114936340D01*
X123175382Y-115065189D01*
X123129209Y-115117628D01*
X123062016Y-115136780D01*
X122995135Y-115116564D01*
X122950618Y-115065189D01*
X122891154Y-114937669D01*
X122890534Y-114936339D01*
X122801010Y-114808484D01*
X122763827Y-114755381D01*
X122687946Y-114679500D01*
X122607620Y-114599174D01*
X122607616Y-114599171D01*
X122607615Y-114599170D01*
X122426666Y-114472468D01*
X122426662Y-114472466D01*
X122356345Y-114439677D01*
X122226450Y-114379106D01*
X122226447Y-114379105D01*
X122226445Y-114379104D01*
X122013070Y-114321930D01*
X122013062Y-114321929D01*
X121793002Y-114302677D01*
X121792996Y-114302677D01*
X121726235Y-114308517D01*
X121657735Y-114294750D01*
X121627748Y-114272670D01*
X120390262Y-113035184D01*
X120390259Y-113035182D01*
X120354904Y-113012966D01*
X120349229Y-113008940D01*
X120316589Y-112982910D01*
X120278959Y-112964787D01*
X120272872Y-112961422D01*
X120237525Y-112939212D01*
X120198114Y-112925421D01*
X120191688Y-112922759D01*
X120154061Y-112904639D01*
X120113345Y-112895345D01*
X120106662Y-112893420D01*
X120067259Y-112879632D01*
X120025763Y-112874955D01*
X120018908Y-112873791D01*
X119978200Y-112864501D01*
X119978196Y-112864500D01*
X119978194Y-112864500D01*
X119932954Y-112864500D01*
X116537825Y-112864500D01*
X116357437Y-112864500D01*
X116351519Y-112865850D01*
X116316720Y-112873791D01*
X116309866Y-112874955D01*
X116268375Y-112879632D01*
X116228972Y-112893419D01*
X116222290Y-112895344D01*
X116181570Y-112904639D01*
X116143951Y-112922755D01*
X116137526Y-112925416D01*
X116098114Y-112939208D01*
X116098107Y-112939212D01*
X116062751Y-112961427D01*
X116056664Y-112964791D01*
X116019041Y-112982910D01*
X115986400Y-113008941D01*
X115980727Y-113012966D01*
X115945370Y-113035183D01*
X115945366Y-113035186D01*
X114821186Y-114159366D01*
X114821183Y-114159370D01*
X114798966Y-114194727D01*
X114794941Y-114200400D01*
X114768910Y-114233041D01*
X114750791Y-114270664D01*
X114747427Y-114276751D01*
X114735991Y-114294953D01*
X114721508Y-114318003D01*
X114719250Y-114316584D01*
X114680558Y-114359410D01*
X114613125Y-114377700D01*
X114583602Y-114373502D01*
X114423000Y-114330467D01*
X114423000Y-115125702D01*
X114317592Y-115077565D01*
X114209334Y-115062000D01*
X114136666Y-115062000D01*
X114028408Y-115077565D01*
X113923000Y-115125702D01*
X113923000Y-114330468D01*
X113739718Y-114379579D01*
X113539591Y-114472900D01*
X113539589Y-114472901D01*
X113358700Y-114599560D01*
X113202560Y-114755700D01*
X113075901Y-114936589D01*
X113075900Y-114936591D01*
X113015658Y-115065781D01*
X112969485Y-115118220D01*
X112902292Y-115137372D01*
X112835411Y-115117156D01*
X112790894Y-115065781D01*
X112731154Y-114937669D01*
X112730534Y-114936339D01*
X112641010Y-114808484D01*
X112603827Y-114755381D01*
X112527946Y-114679500D01*
X112447620Y-114599174D01*
X112447616Y-114599171D01*
X112447615Y-114599170D01*
X112266666Y-114472468D01*
X112266662Y-114472466D01*
X112196345Y-114439677D01*
X112066450Y-114379106D01*
X112066447Y-114379105D01*
X112066445Y-114379104D01*
X111853070Y-114321930D01*
X111853062Y-114321929D01*
X111633002Y-114302677D01*
X111632998Y-114302677D01*
X111412937Y-114321929D01*
X111412929Y-114321930D01*
X111199554Y-114379104D01*
X111199548Y-114379107D01*
X110999340Y-114472465D01*
X110999338Y-114472466D01*
X110818377Y-114599175D01*
X110662175Y-114755377D01*
X110535466Y-114936338D01*
X110535465Y-114936340D01*
X110471965Y-115072517D01*
X110444169Y-115132127D01*
X110442107Y-115136548D01*
X110442104Y-115136554D01*
X110384930Y-115349929D01*
X110384929Y-115349937D01*
X110365677Y-115569997D01*
X110365677Y-115570002D01*
X110384929Y-115790062D01*
X110384930Y-115790070D01*
X110442104Y-116003445D01*
X110442105Y-116003447D01*
X110442106Y-116003450D01*
X110468515Y-116060084D01*
X110535466Y-116203662D01*
X110535468Y-116203666D01*
X110662170Y-116384615D01*
X110662175Y-116384621D01*
X110746181Y-116468627D01*
X110779666Y-116529950D01*
X110782500Y-116556308D01*
X110782500Y-117325349D01*
X110762815Y-117392388D01*
X110746181Y-117413030D01*
X110047030Y-118112181D01*
X109985707Y-118145666D01*
X109959349Y-118148500D01*
X109928733Y-118148500D01*
X109861694Y-118128815D01*
X109815939Y-118076011D01*
X109811028Y-118063506D01*
X109806495Y-118049829D01*
X109799814Y-118029666D01*
X109707712Y-117880344D01*
X109676819Y-117849451D01*
X109643334Y-117788128D01*
X109640500Y-117761770D01*
X109640500Y-116281087D01*
X109640705Y-116276052D01*
X109645201Y-116220836D01*
X109642826Y-116203407D01*
X109634270Y-116140607D01*
X109625514Y-116060090D01*
X109625513Y-116060088D01*
X109625513Y-116060084D01*
X109625280Y-116059026D01*
X109620497Y-116038621D01*
X109620227Y-116037532D01*
X109592299Y-115961513D01*
X109566444Y-115884779D01*
X109566441Y-115884775D01*
X109566441Y-115884773D01*
X109566006Y-115883831D01*
X109556895Y-115864818D01*
X109556432Y-115863884D01*
X109512822Y-115795658D01*
X109471070Y-115726264D01*
X109471068Y-115726262D01*
X109471067Y-115726260D01*
X109470455Y-115725455D01*
X109457503Y-115708889D01*
X109456803Y-115708018D01*
X109456799Y-115708011D01*
X109399556Y-115650768D01*
X109343848Y-115591957D01*
X109343042Y-115591273D01*
X109325878Y-115577090D01*
X109250817Y-115502028D01*
X109217333Y-115440704D01*
X109214499Y-115414347D01*
X109214499Y-115132129D01*
X109214498Y-115132123D01*
X109214497Y-115132116D01*
X109208091Y-115072517D01*
X109204168Y-115062000D01*
X109157797Y-114937671D01*
X109157793Y-114937664D01*
X109071547Y-114822455D01*
X109071544Y-114822452D01*
X108956335Y-114736206D01*
X108956328Y-114736202D01*
X108821482Y-114685908D01*
X108821483Y-114685908D01*
X108761883Y-114679501D01*
X108761881Y-114679500D01*
X108761873Y-114679500D01*
X108761864Y-114679500D01*
X107166129Y-114679500D01*
X107166123Y-114679501D01*
X107106516Y-114685908D01*
X106971671Y-114736202D01*
X106971669Y-114736204D01*
X106887894Y-114798918D01*
X106822430Y-114823335D01*
X106754157Y-114808484D01*
X106739272Y-114798918D01*
X106656088Y-114736646D01*
X106656086Y-114736645D01*
X106521379Y-114686403D01*
X106521372Y-114686401D01*
X106461844Y-114680000D01*
X105816150Y-114680000D01*
X105749111Y-114660315D01*
X105703356Y-114607511D01*
X105693412Y-114538353D01*
X105722437Y-114474797D01*
X105728469Y-114468319D01*
X107184969Y-113011819D01*
X107246292Y-112978334D01*
X107272650Y-112975500D01*
X107762913Y-112975500D01*
X107767948Y-112975705D01*
X107787562Y-112977301D01*
X107823167Y-112980201D01*
X107903392Y-112969270D01*
X107983910Y-112960514D01*
X107983914Y-112960512D01*
X107985036Y-112960266D01*
X108005307Y-112955515D01*
X108006462Y-112955228D01*
X108006462Y-112955227D01*
X108006468Y-112955227D01*
X108082486Y-112927299D01*
X108159221Y-112901444D01*
X108159227Y-112901439D01*
X108160351Y-112900920D01*
X108179123Y-112891923D01*
X108180112Y-112891433D01*
X108180116Y-112891432D01*
X108248353Y-112847815D01*
X108317736Y-112806070D01*
X108317741Y-112806065D01*
X108318669Y-112805360D01*
X108335076Y-112792533D01*
X108335986Y-112791802D01*
X108335986Y-112791801D01*
X108335989Y-112791800D01*
X108364618Y-112763170D01*
X108393249Y-112734540D01*
X108424281Y-112705144D01*
X108452041Y-112678849D01*
X108452045Y-112678842D01*
X108452757Y-112678005D01*
X108466904Y-112660883D01*
X115215185Y-105912601D01*
X115218852Y-105909221D01*
X115261100Y-105873337D01*
X115310104Y-105808872D01*
X115360842Y-105745753D01*
X115360842Y-105745751D01*
X115360844Y-105745750D01*
X115361432Y-105744829D01*
X115372426Y-105727105D01*
X115373050Y-105726069D01*
X115373054Y-105726064D01*
X115407055Y-105652570D01*
X115443037Y-105580021D01*
X115443037Y-105580017D01*
X115443440Y-105578923D01*
X115450329Y-105559361D01*
X115450727Y-105558177D01*
X115450732Y-105558167D01*
X115468139Y-105479083D01*
X115487684Y-105400494D01*
X115487684Y-105400492D01*
X115487833Y-105399400D01*
X115490371Y-105378677D01*
X115490500Y-105377497D01*
X115490500Y-105296530D01*
X115492693Y-105215563D01*
X115492608Y-105214520D01*
X115490500Y-105192352D01*
X115490500Y-104576759D01*
X115510185Y-104509720D01*
X115562989Y-104463965D01*
X115632147Y-104454021D01*
X115640281Y-104455469D01*
G37*
%TD.AperFunction*%
%TA.AperFunction,Conductor*%
G36*
X154769612Y-112075000D02*
G01*
X154787778Y-112166331D01*
X154784128Y-112162681D01*
X154750643Y-112101358D01*
X154755627Y-112031666D01*
X154784128Y-111987319D01*
X154787778Y-111983668D01*
X154769612Y-112075000D01*
G37*
%TD.AperFunction*%
%TD*%
M02*
