%TF.GenerationSoftware,KiCad,Pcbnew,7.0.9*%
%TF.CreationDate,2024-08-05T23:00:28+10:00*%
%TF.ProjectId,AFPI Device V1.1,41465049-2044-4657-9669-63652056312e,rev?*%
%TF.SameCoordinates,Original*%
%TF.FileFunction,Legend,Top*%
%TF.FilePolarity,Positive*%
%FSLAX46Y46*%
G04 Gerber Fmt 4.6, Leading zero omitted, Abs format (unit mm)*
G04 Created by KiCad (PCBNEW 7.0.9) date 2024-08-05 23:00:28*
%MOMM*%
%LPD*%
G01*
G04 APERTURE LIST*
%ADD10C,0.150000*%
%ADD11C,0.127000*%
%ADD12C,0.101600*%
%ADD13C,0.120000*%
%ADD14C,0.100000*%
G04 APERTURE END LIST*
D10*
X132614160Y-103499104D02*
X133090350Y-103499104D01*
X132518922Y-103784819D02*
X132852255Y-102784819D01*
X132852255Y-102784819D02*
X133185588Y-103784819D01*
X133852255Y-103261009D02*
X133518922Y-103261009D01*
X133518922Y-103784819D02*
X133518922Y-102784819D01*
X133518922Y-102784819D02*
X133995112Y-102784819D01*
X134376065Y-103784819D02*
X134376065Y-102784819D01*
X134376065Y-102784819D02*
X134757017Y-102784819D01*
X134757017Y-102784819D02*
X134852255Y-102832438D01*
X134852255Y-102832438D02*
X134899874Y-102880057D01*
X134899874Y-102880057D02*
X134947493Y-102975295D01*
X134947493Y-102975295D02*
X134947493Y-103118152D01*
X134947493Y-103118152D02*
X134899874Y-103213390D01*
X134899874Y-103213390D02*
X134852255Y-103261009D01*
X134852255Y-103261009D02*
X134757017Y-103308628D01*
X134757017Y-103308628D02*
X134376065Y-103308628D01*
X135376065Y-103784819D02*
X135376065Y-102784819D01*
X136614160Y-103784819D02*
X136614160Y-102784819D01*
X136614160Y-102784819D02*
X136852255Y-102784819D01*
X136852255Y-102784819D02*
X136995112Y-102832438D01*
X136995112Y-102832438D02*
X137090350Y-102927676D01*
X137090350Y-102927676D02*
X137137969Y-103022914D01*
X137137969Y-103022914D02*
X137185588Y-103213390D01*
X137185588Y-103213390D02*
X137185588Y-103356247D01*
X137185588Y-103356247D02*
X137137969Y-103546723D01*
X137137969Y-103546723D02*
X137090350Y-103641961D01*
X137090350Y-103641961D02*
X136995112Y-103737200D01*
X136995112Y-103737200D02*
X136852255Y-103784819D01*
X136852255Y-103784819D02*
X136614160Y-103784819D01*
X137995112Y-103737200D02*
X137899874Y-103784819D01*
X137899874Y-103784819D02*
X137709398Y-103784819D01*
X137709398Y-103784819D02*
X137614160Y-103737200D01*
X137614160Y-103737200D02*
X137566541Y-103641961D01*
X137566541Y-103641961D02*
X137566541Y-103261009D01*
X137566541Y-103261009D02*
X137614160Y-103165771D01*
X137614160Y-103165771D02*
X137709398Y-103118152D01*
X137709398Y-103118152D02*
X137899874Y-103118152D01*
X137899874Y-103118152D02*
X137995112Y-103165771D01*
X137995112Y-103165771D02*
X138042731Y-103261009D01*
X138042731Y-103261009D02*
X138042731Y-103356247D01*
X138042731Y-103356247D02*
X137566541Y-103451485D01*
X138376065Y-103118152D02*
X138614160Y-103784819D01*
X138614160Y-103784819D02*
X138852255Y-103118152D01*
X139233208Y-103784819D02*
X139233208Y-103118152D01*
X139233208Y-102784819D02*
X139185589Y-102832438D01*
X139185589Y-102832438D02*
X139233208Y-102880057D01*
X139233208Y-102880057D02*
X139280827Y-102832438D01*
X139280827Y-102832438D02*
X139233208Y-102784819D01*
X139233208Y-102784819D02*
X139233208Y-102880057D01*
X140137969Y-103737200D02*
X140042731Y-103784819D01*
X140042731Y-103784819D02*
X139852255Y-103784819D01*
X139852255Y-103784819D02*
X139757017Y-103737200D01*
X139757017Y-103737200D02*
X139709398Y-103689580D01*
X139709398Y-103689580D02*
X139661779Y-103594342D01*
X139661779Y-103594342D02*
X139661779Y-103308628D01*
X139661779Y-103308628D02*
X139709398Y-103213390D01*
X139709398Y-103213390D02*
X139757017Y-103165771D01*
X139757017Y-103165771D02*
X139852255Y-103118152D01*
X139852255Y-103118152D02*
X140042731Y-103118152D01*
X140042731Y-103118152D02*
X140137969Y-103165771D01*
X140947493Y-103737200D02*
X140852255Y-103784819D01*
X140852255Y-103784819D02*
X140661779Y-103784819D01*
X140661779Y-103784819D02*
X140566541Y-103737200D01*
X140566541Y-103737200D02*
X140518922Y-103641961D01*
X140518922Y-103641961D02*
X140518922Y-103261009D01*
X140518922Y-103261009D02*
X140566541Y-103165771D01*
X140566541Y-103165771D02*
X140661779Y-103118152D01*
X140661779Y-103118152D02*
X140852255Y-103118152D01*
X140852255Y-103118152D02*
X140947493Y-103165771D01*
X140947493Y-103165771D02*
X140995112Y-103261009D01*
X140995112Y-103261009D02*
X140995112Y-103356247D01*
X140995112Y-103356247D02*
X140518922Y-103451485D01*
X142042732Y-102784819D02*
X142376065Y-103784819D01*
X142376065Y-103784819D02*
X142709398Y-102784819D01*
X143566541Y-103784819D02*
X142995113Y-103784819D01*
X143280827Y-103784819D02*
X143280827Y-102784819D01*
X143280827Y-102784819D02*
X143185589Y-102927676D01*
X143185589Y-102927676D02*
X143090351Y-103022914D01*
X143090351Y-103022914D02*
X142995113Y-103070533D01*
X143995113Y-103689580D02*
X144042732Y-103737200D01*
X144042732Y-103737200D02*
X143995113Y-103784819D01*
X143995113Y-103784819D02*
X143947494Y-103737200D01*
X143947494Y-103737200D02*
X143995113Y-103689580D01*
X143995113Y-103689580D02*
X143995113Y-103784819D01*
X144995112Y-103784819D02*
X144423684Y-103784819D01*
X144709398Y-103784819D02*
X144709398Y-102784819D01*
X144709398Y-102784819D02*
X144614160Y-102927676D01*
X144614160Y-102927676D02*
X144518922Y-103022914D01*
X144518922Y-103022914D02*
X144423684Y-103070533D01*
X132614160Y-105109104D02*
X133090350Y-105109104D01*
X132518922Y-105394819D02*
X132852255Y-104394819D01*
X132852255Y-104394819D02*
X133185588Y-105394819D01*
X133661779Y-105394819D02*
X133566541Y-105347200D01*
X133566541Y-105347200D02*
X133518922Y-105251961D01*
X133518922Y-105251961D02*
X133518922Y-104394819D01*
X134423684Y-105347200D02*
X134328446Y-105394819D01*
X134328446Y-105394819D02*
X134137970Y-105394819D01*
X134137970Y-105394819D02*
X134042732Y-105347200D01*
X134042732Y-105347200D02*
X133995113Y-105251961D01*
X133995113Y-105251961D02*
X133995113Y-104871009D01*
X133995113Y-104871009D02*
X134042732Y-104775771D01*
X134042732Y-104775771D02*
X134137970Y-104728152D01*
X134137970Y-104728152D02*
X134328446Y-104728152D01*
X134328446Y-104728152D02*
X134423684Y-104775771D01*
X134423684Y-104775771D02*
X134471303Y-104871009D01*
X134471303Y-104871009D02*
X134471303Y-104966247D01*
X134471303Y-104966247D02*
X133995113Y-105061485D01*
X134804637Y-105394819D02*
X135328446Y-104728152D01*
X134804637Y-104728152D02*
X135328446Y-105394819D01*
X136423685Y-105347200D02*
X136566542Y-105394819D01*
X136566542Y-105394819D02*
X136804637Y-105394819D01*
X136804637Y-105394819D02*
X136899875Y-105347200D01*
X136899875Y-105347200D02*
X136947494Y-105299580D01*
X136947494Y-105299580D02*
X136995113Y-105204342D01*
X136995113Y-105204342D02*
X136995113Y-105109104D01*
X136995113Y-105109104D02*
X136947494Y-105013866D01*
X136947494Y-105013866D02*
X136899875Y-104966247D01*
X136899875Y-104966247D02*
X136804637Y-104918628D01*
X136804637Y-104918628D02*
X136614161Y-104871009D01*
X136614161Y-104871009D02*
X136518923Y-104823390D01*
X136518923Y-104823390D02*
X136471304Y-104775771D01*
X136471304Y-104775771D02*
X136423685Y-104680533D01*
X136423685Y-104680533D02*
X136423685Y-104585295D01*
X136423685Y-104585295D02*
X136471304Y-104490057D01*
X136471304Y-104490057D02*
X136518923Y-104442438D01*
X136518923Y-104442438D02*
X136614161Y-104394819D01*
X136614161Y-104394819D02*
X136852256Y-104394819D01*
X136852256Y-104394819D02*
X136995113Y-104442438D01*
X137280828Y-104728152D02*
X137661780Y-104728152D01*
X137423685Y-104394819D02*
X137423685Y-105251961D01*
X137423685Y-105251961D02*
X137471304Y-105347200D01*
X137471304Y-105347200D02*
X137566542Y-105394819D01*
X137566542Y-105394819D02*
X137661780Y-105394819D01*
X138376066Y-105347200D02*
X138280828Y-105394819D01*
X138280828Y-105394819D02*
X138090352Y-105394819D01*
X138090352Y-105394819D02*
X137995114Y-105347200D01*
X137995114Y-105347200D02*
X137947495Y-105251961D01*
X137947495Y-105251961D02*
X137947495Y-104871009D01*
X137947495Y-104871009D02*
X137995114Y-104775771D01*
X137995114Y-104775771D02*
X138090352Y-104728152D01*
X138090352Y-104728152D02*
X138280828Y-104728152D01*
X138280828Y-104728152D02*
X138376066Y-104775771D01*
X138376066Y-104775771D02*
X138423685Y-104871009D01*
X138423685Y-104871009D02*
X138423685Y-104966247D01*
X138423685Y-104966247D02*
X137947495Y-105061485D01*
X138757019Y-104728152D02*
X138947495Y-105394819D01*
X138947495Y-105394819D02*
X139137971Y-104918628D01*
X139137971Y-104918628D02*
X139328447Y-105394819D01*
X139328447Y-105394819D02*
X139518923Y-104728152D01*
X140328447Y-105394819D02*
X140328447Y-104871009D01*
X140328447Y-104871009D02*
X140280828Y-104775771D01*
X140280828Y-104775771D02*
X140185590Y-104728152D01*
X140185590Y-104728152D02*
X139995114Y-104728152D01*
X139995114Y-104728152D02*
X139899876Y-104775771D01*
X140328447Y-105347200D02*
X140233209Y-105394819D01*
X140233209Y-105394819D02*
X139995114Y-105394819D01*
X139995114Y-105394819D02*
X139899876Y-105347200D01*
X139899876Y-105347200D02*
X139852257Y-105251961D01*
X139852257Y-105251961D02*
X139852257Y-105156723D01*
X139852257Y-105156723D02*
X139899876Y-105061485D01*
X139899876Y-105061485D02*
X139995114Y-105013866D01*
X139995114Y-105013866D02*
X140233209Y-105013866D01*
X140233209Y-105013866D02*
X140328447Y-104966247D01*
X140804638Y-105394819D02*
X140804638Y-104728152D01*
X140804638Y-104918628D02*
X140852257Y-104823390D01*
X140852257Y-104823390D02*
X140899876Y-104775771D01*
X140899876Y-104775771D02*
X140995114Y-104728152D01*
X140995114Y-104728152D02*
X141090352Y-104728152D01*
X141280829Y-104728152D02*
X141661781Y-104728152D01*
X141423686Y-104394819D02*
X141423686Y-105251961D01*
X141423686Y-105251961D02*
X141471305Y-105347200D01*
X141471305Y-105347200D02*
X141566543Y-105394819D01*
X141566543Y-105394819D02*
X141661781Y-105394819D01*
X142995115Y-105728152D02*
X142995115Y-104299580D01*
X144423687Y-105109104D02*
X144899877Y-105109104D01*
X144328449Y-105394819D02*
X144661782Y-104394819D01*
X144661782Y-104394819D02*
X144995115Y-105394819D01*
X145757020Y-104728152D02*
X145757020Y-105394819D01*
X145328449Y-104728152D02*
X145328449Y-105251961D01*
X145328449Y-105251961D02*
X145376068Y-105347200D01*
X145376068Y-105347200D02*
X145471306Y-105394819D01*
X145471306Y-105394819D02*
X145614163Y-105394819D01*
X145614163Y-105394819D02*
X145709401Y-105347200D01*
X145709401Y-105347200D02*
X145757020Y-105299580D01*
X146661782Y-104728152D02*
X146661782Y-105537676D01*
X146661782Y-105537676D02*
X146614163Y-105632914D01*
X146614163Y-105632914D02*
X146566544Y-105680533D01*
X146566544Y-105680533D02*
X146471306Y-105728152D01*
X146471306Y-105728152D02*
X146328449Y-105728152D01*
X146328449Y-105728152D02*
X146233211Y-105680533D01*
X146661782Y-105347200D02*
X146566544Y-105394819D01*
X146566544Y-105394819D02*
X146376068Y-105394819D01*
X146376068Y-105394819D02*
X146280830Y-105347200D01*
X146280830Y-105347200D02*
X146233211Y-105299580D01*
X146233211Y-105299580D02*
X146185592Y-105204342D01*
X146185592Y-105204342D02*
X146185592Y-104918628D01*
X146185592Y-104918628D02*
X146233211Y-104823390D01*
X146233211Y-104823390D02*
X146280830Y-104775771D01*
X146280830Y-104775771D02*
X146376068Y-104728152D01*
X146376068Y-104728152D02*
X146566544Y-104728152D01*
X146566544Y-104728152D02*
X146661782Y-104775771D01*
X147566544Y-104728152D02*
X147566544Y-105394819D01*
X147137973Y-104728152D02*
X147137973Y-105251961D01*
X147137973Y-105251961D02*
X147185592Y-105347200D01*
X147185592Y-105347200D02*
X147280830Y-105394819D01*
X147280830Y-105394819D02*
X147423687Y-105394819D01*
X147423687Y-105394819D02*
X147518925Y-105347200D01*
X147518925Y-105347200D02*
X147566544Y-105299580D01*
X147995116Y-105347200D02*
X148090354Y-105394819D01*
X148090354Y-105394819D02*
X148280830Y-105394819D01*
X148280830Y-105394819D02*
X148376068Y-105347200D01*
X148376068Y-105347200D02*
X148423687Y-105251961D01*
X148423687Y-105251961D02*
X148423687Y-105204342D01*
X148423687Y-105204342D02*
X148376068Y-105109104D01*
X148376068Y-105109104D02*
X148280830Y-105061485D01*
X148280830Y-105061485D02*
X148137973Y-105061485D01*
X148137973Y-105061485D02*
X148042735Y-105013866D01*
X148042735Y-105013866D02*
X147995116Y-104918628D01*
X147995116Y-104918628D02*
X147995116Y-104871009D01*
X147995116Y-104871009D02*
X148042735Y-104775771D01*
X148042735Y-104775771D02*
X148137973Y-104728152D01*
X148137973Y-104728152D02*
X148280830Y-104728152D01*
X148280830Y-104728152D02*
X148376068Y-104775771D01*
X148709402Y-104728152D02*
X149090354Y-104728152D01*
X148852259Y-104394819D02*
X148852259Y-105251961D01*
X148852259Y-105251961D02*
X148899878Y-105347200D01*
X148899878Y-105347200D02*
X148995116Y-105394819D01*
X148995116Y-105394819D02*
X149090354Y-105394819D01*
X150137974Y-104490057D02*
X150185593Y-104442438D01*
X150185593Y-104442438D02*
X150280831Y-104394819D01*
X150280831Y-104394819D02*
X150518926Y-104394819D01*
X150518926Y-104394819D02*
X150614164Y-104442438D01*
X150614164Y-104442438D02*
X150661783Y-104490057D01*
X150661783Y-104490057D02*
X150709402Y-104585295D01*
X150709402Y-104585295D02*
X150709402Y-104680533D01*
X150709402Y-104680533D02*
X150661783Y-104823390D01*
X150661783Y-104823390D02*
X150090355Y-105394819D01*
X150090355Y-105394819D02*
X150709402Y-105394819D01*
X151328450Y-104394819D02*
X151423688Y-104394819D01*
X151423688Y-104394819D02*
X151518926Y-104442438D01*
X151518926Y-104442438D02*
X151566545Y-104490057D01*
X151566545Y-104490057D02*
X151614164Y-104585295D01*
X151614164Y-104585295D02*
X151661783Y-104775771D01*
X151661783Y-104775771D02*
X151661783Y-105013866D01*
X151661783Y-105013866D02*
X151614164Y-105204342D01*
X151614164Y-105204342D02*
X151566545Y-105299580D01*
X151566545Y-105299580D02*
X151518926Y-105347200D01*
X151518926Y-105347200D02*
X151423688Y-105394819D01*
X151423688Y-105394819D02*
X151328450Y-105394819D01*
X151328450Y-105394819D02*
X151233212Y-105347200D01*
X151233212Y-105347200D02*
X151185593Y-105299580D01*
X151185593Y-105299580D02*
X151137974Y-105204342D01*
X151137974Y-105204342D02*
X151090355Y-105013866D01*
X151090355Y-105013866D02*
X151090355Y-104775771D01*
X151090355Y-104775771D02*
X151137974Y-104585295D01*
X151137974Y-104585295D02*
X151185593Y-104490057D01*
X151185593Y-104490057D02*
X151233212Y-104442438D01*
X151233212Y-104442438D02*
X151328450Y-104394819D01*
X152042736Y-104490057D02*
X152090355Y-104442438D01*
X152090355Y-104442438D02*
X152185593Y-104394819D01*
X152185593Y-104394819D02*
X152423688Y-104394819D01*
X152423688Y-104394819D02*
X152518926Y-104442438D01*
X152518926Y-104442438D02*
X152566545Y-104490057D01*
X152566545Y-104490057D02*
X152614164Y-104585295D01*
X152614164Y-104585295D02*
X152614164Y-104680533D01*
X152614164Y-104680533D02*
X152566545Y-104823390D01*
X152566545Y-104823390D02*
X151995117Y-105394819D01*
X151995117Y-105394819D02*
X152614164Y-105394819D01*
X153471307Y-104728152D02*
X153471307Y-105394819D01*
X153233212Y-104347200D02*
X152995117Y-105061485D01*
X152995117Y-105061485D02*
X153614164Y-105061485D01*
X100618819Y-113791904D02*
X101428342Y-113791904D01*
X101428342Y-113791904D02*
X101523580Y-113744285D01*
X101523580Y-113744285D02*
X101571200Y-113696666D01*
X101571200Y-113696666D02*
X101618819Y-113601428D01*
X101618819Y-113601428D02*
X101618819Y-113410952D01*
X101618819Y-113410952D02*
X101571200Y-113315714D01*
X101571200Y-113315714D02*
X101523580Y-113268095D01*
X101523580Y-113268095D02*
X101428342Y-113220476D01*
X101428342Y-113220476D02*
X100618819Y-113220476D01*
X101618819Y-112220476D02*
X101618819Y-112791904D01*
X101618819Y-112506190D02*
X100618819Y-112506190D01*
X100618819Y-112506190D02*
X100761676Y-112601428D01*
X100761676Y-112601428D02*
X100856914Y-112696666D01*
X100856914Y-112696666D02*
X100904533Y-112791904D01*
X107148333Y-121208580D02*
X107100714Y-121256200D01*
X107100714Y-121256200D02*
X106957857Y-121303819D01*
X106957857Y-121303819D02*
X106862619Y-121303819D01*
X106862619Y-121303819D02*
X106719762Y-121256200D01*
X106719762Y-121256200D02*
X106624524Y-121160961D01*
X106624524Y-121160961D02*
X106576905Y-121065723D01*
X106576905Y-121065723D02*
X106529286Y-120875247D01*
X106529286Y-120875247D02*
X106529286Y-120732390D01*
X106529286Y-120732390D02*
X106576905Y-120541914D01*
X106576905Y-120541914D02*
X106624524Y-120446676D01*
X106624524Y-120446676D02*
X106719762Y-120351438D01*
X106719762Y-120351438D02*
X106862619Y-120303819D01*
X106862619Y-120303819D02*
X106957857Y-120303819D01*
X106957857Y-120303819D02*
X107100714Y-120351438D01*
X107100714Y-120351438D02*
X107148333Y-120399057D01*
X107529286Y-120399057D02*
X107576905Y-120351438D01*
X107576905Y-120351438D02*
X107672143Y-120303819D01*
X107672143Y-120303819D02*
X107910238Y-120303819D01*
X107910238Y-120303819D02*
X108005476Y-120351438D01*
X108005476Y-120351438D02*
X108053095Y-120399057D01*
X108053095Y-120399057D02*
X108100714Y-120494295D01*
X108100714Y-120494295D02*
X108100714Y-120589533D01*
X108100714Y-120589533D02*
X108053095Y-120732390D01*
X108053095Y-120732390D02*
X107481667Y-121303819D01*
X107481667Y-121303819D02*
X108100714Y-121303819D01*
X111391795Y-133162959D02*
X111391795Y-133972482D01*
X111391795Y-133972482D02*
X111439414Y-134067720D01*
X111439414Y-134067720D02*
X111487033Y-134115340D01*
X111487033Y-134115340D02*
X111582271Y-134162959D01*
X111582271Y-134162959D02*
X111772747Y-134162959D01*
X111772747Y-134162959D02*
X111867985Y-134115340D01*
X111867985Y-134115340D02*
X111915604Y-134067720D01*
X111915604Y-134067720D02*
X111963223Y-133972482D01*
X111963223Y-133972482D02*
X111963223Y-133162959D01*
X112344176Y-133162959D02*
X112963223Y-133162959D01*
X112963223Y-133162959D02*
X112629890Y-133543911D01*
X112629890Y-133543911D02*
X112772747Y-133543911D01*
X112772747Y-133543911D02*
X112867985Y-133591530D01*
X112867985Y-133591530D02*
X112915604Y-133639149D01*
X112915604Y-133639149D02*
X112963223Y-133734387D01*
X112963223Y-133734387D02*
X112963223Y-133972482D01*
X112963223Y-133972482D02*
X112915604Y-134067720D01*
X112915604Y-134067720D02*
X112867985Y-134115340D01*
X112867985Y-134115340D02*
X112772747Y-134162959D01*
X112772747Y-134162959D02*
X112487033Y-134162959D01*
X112487033Y-134162959D02*
X112391795Y-134115340D01*
X112391795Y-134115340D02*
X112344176Y-134067720D01*
D11*
X145070031Y-128795718D02*
X145070031Y-129231147D01*
X145070031Y-129013432D02*
X144308031Y-129013432D01*
X144308031Y-129013432D02*
X144416888Y-129086004D01*
X144416888Y-129086004D02*
X144489460Y-129158575D01*
X144489460Y-129158575D02*
X144525746Y-129231147D01*
X144380603Y-128505433D02*
X144344317Y-128469147D01*
X144344317Y-128469147D02*
X144308031Y-128396576D01*
X144308031Y-128396576D02*
X144308031Y-128215147D01*
X144308031Y-128215147D02*
X144344317Y-128142576D01*
X144344317Y-128142576D02*
X144380603Y-128106290D01*
X144380603Y-128106290D02*
X144453174Y-128070004D01*
X144453174Y-128070004D02*
X144525746Y-128070004D01*
X144525746Y-128070004D02*
X144634603Y-128106290D01*
X144634603Y-128106290D02*
X145070031Y-128541718D01*
X145070031Y-128541718D02*
X145070031Y-128070004D01*
X145070031Y-127162862D02*
X144308031Y-127162862D01*
X144308031Y-127162862D02*
X144852317Y-126908862D01*
X144852317Y-126908862D02*
X144308031Y-126654862D01*
X144308031Y-126654862D02*
X145070031Y-126654862D01*
X145070031Y-126292005D02*
X144308031Y-126292005D01*
X145033746Y-125965434D02*
X145070031Y-125856577D01*
X145070031Y-125856577D02*
X145070031Y-125675148D01*
X145070031Y-125675148D02*
X145033746Y-125602577D01*
X145033746Y-125602577D02*
X144997460Y-125566291D01*
X144997460Y-125566291D02*
X144924888Y-125530005D01*
X144924888Y-125530005D02*
X144852317Y-125530005D01*
X144852317Y-125530005D02*
X144779746Y-125566291D01*
X144779746Y-125566291D02*
X144743460Y-125602577D01*
X144743460Y-125602577D02*
X144707174Y-125675148D01*
X144707174Y-125675148D02*
X144670888Y-125820291D01*
X144670888Y-125820291D02*
X144634603Y-125892862D01*
X144634603Y-125892862D02*
X144598317Y-125929148D01*
X144598317Y-125929148D02*
X144525746Y-125965434D01*
X144525746Y-125965434D02*
X144453174Y-125965434D01*
X144453174Y-125965434D02*
X144380603Y-125929148D01*
X144380603Y-125929148D02*
X144344317Y-125892862D01*
X144344317Y-125892862D02*
X144308031Y-125820291D01*
X144308031Y-125820291D02*
X144308031Y-125638862D01*
X144308031Y-125638862D02*
X144344317Y-125530005D01*
X144308031Y-125058291D02*
X144308031Y-124913148D01*
X144308031Y-124913148D02*
X144344317Y-124840577D01*
X144344317Y-124840577D02*
X144416888Y-124768005D01*
X144416888Y-124768005D02*
X144562031Y-124731720D01*
X144562031Y-124731720D02*
X144816031Y-124731720D01*
X144816031Y-124731720D02*
X144961174Y-124768005D01*
X144961174Y-124768005D02*
X145033746Y-124840577D01*
X145033746Y-124840577D02*
X145070031Y-124913148D01*
X145070031Y-124913148D02*
X145070031Y-125058291D01*
X145070031Y-125058291D02*
X145033746Y-125130863D01*
X145033746Y-125130863D02*
X144961174Y-125203434D01*
X144961174Y-125203434D02*
X144816031Y-125239720D01*
X144816031Y-125239720D02*
X144562031Y-125239720D01*
X144562031Y-125239720D02*
X144416888Y-125203434D01*
X144416888Y-125203434D02*
X144344317Y-125130863D01*
X144344317Y-125130863D02*
X144308031Y-125058291D01*
X133458857Y-114010911D02*
X133096000Y-114010911D01*
X133096000Y-114010911D02*
X133096000Y-113248911D01*
X132295646Y-120893477D02*
X132331931Y-120784620D01*
X132331931Y-120784620D02*
X132331931Y-120603191D01*
X132331931Y-120603191D02*
X132295646Y-120530620D01*
X132295646Y-120530620D02*
X132259360Y-120494334D01*
X132259360Y-120494334D02*
X132186788Y-120458048D01*
X132186788Y-120458048D02*
X132114217Y-120458048D01*
X132114217Y-120458048D02*
X132041646Y-120494334D01*
X132041646Y-120494334D02*
X132005360Y-120530620D01*
X132005360Y-120530620D02*
X131969074Y-120603191D01*
X131969074Y-120603191D02*
X131932788Y-120748334D01*
X131932788Y-120748334D02*
X131896503Y-120820905D01*
X131896503Y-120820905D02*
X131860217Y-120857191D01*
X131860217Y-120857191D02*
X131787646Y-120893477D01*
X131787646Y-120893477D02*
X131715074Y-120893477D01*
X131715074Y-120893477D02*
X131642503Y-120857191D01*
X131642503Y-120857191D02*
X131606217Y-120820905D01*
X131606217Y-120820905D02*
X131569931Y-120748334D01*
X131569931Y-120748334D02*
X131569931Y-120566905D01*
X131569931Y-120566905D02*
X131606217Y-120458048D01*
X132331931Y-120131477D02*
X131569931Y-120131477D01*
X131569931Y-120131477D02*
X131569931Y-119950048D01*
X131569931Y-119950048D02*
X131606217Y-119841191D01*
X131606217Y-119841191D02*
X131678788Y-119768620D01*
X131678788Y-119768620D02*
X131751360Y-119732334D01*
X131751360Y-119732334D02*
X131896503Y-119696048D01*
X131896503Y-119696048D02*
X132005360Y-119696048D01*
X132005360Y-119696048D02*
X132150503Y-119732334D01*
X132150503Y-119732334D02*
X132223074Y-119768620D01*
X132223074Y-119768620D02*
X132295646Y-119841191D01*
X132295646Y-119841191D02*
X132331931Y-119950048D01*
X132331931Y-119950048D02*
X132331931Y-120131477D01*
X132114217Y-119405763D02*
X132114217Y-119042906D01*
X132331931Y-119478334D02*
X131569931Y-119224334D01*
X131569931Y-119224334D02*
X132331931Y-118970334D01*
X132331931Y-117736620D02*
X132331931Y-118172049D01*
X132331931Y-117954334D02*
X131569931Y-117954334D01*
X131569931Y-117954334D02*
X131678788Y-118026906D01*
X131678788Y-118026906D02*
X131751360Y-118099477D01*
X131751360Y-118099477D02*
X131787646Y-118172049D01*
X131896503Y-117301192D02*
X131860217Y-117373763D01*
X131860217Y-117373763D02*
X131823931Y-117410049D01*
X131823931Y-117410049D02*
X131751360Y-117446335D01*
X131751360Y-117446335D02*
X131715074Y-117446335D01*
X131715074Y-117446335D02*
X131642503Y-117410049D01*
X131642503Y-117410049D02*
X131606217Y-117373763D01*
X131606217Y-117373763D02*
X131569931Y-117301192D01*
X131569931Y-117301192D02*
X131569931Y-117156049D01*
X131569931Y-117156049D02*
X131606217Y-117083478D01*
X131606217Y-117083478D02*
X131642503Y-117047192D01*
X131642503Y-117047192D02*
X131715074Y-117010906D01*
X131715074Y-117010906D02*
X131751360Y-117010906D01*
X131751360Y-117010906D02*
X131823931Y-117047192D01*
X131823931Y-117047192D02*
X131860217Y-117083478D01*
X131860217Y-117083478D02*
X131896503Y-117156049D01*
X131896503Y-117156049D02*
X131896503Y-117301192D01*
X131896503Y-117301192D02*
X131932788Y-117373763D01*
X131932788Y-117373763D02*
X131969074Y-117410049D01*
X131969074Y-117410049D02*
X132041646Y-117446335D01*
X132041646Y-117446335D02*
X132186788Y-117446335D01*
X132186788Y-117446335D02*
X132259360Y-117410049D01*
X132259360Y-117410049D02*
X132295646Y-117373763D01*
X132295646Y-117373763D02*
X132331931Y-117301192D01*
X132331931Y-117301192D02*
X132331931Y-117156049D01*
X132331931Y-117156049D02*
X132295646Y-117083478D01*
X132295646Y-117083478D02*
X132259360Y-117047192D01*
X132259360Y-117047192D02*
X132186788Y-117010906D01*
X132186788Y-117010906D02*
X132041646Y-117010906D01*
X132041646Y-117010906D02*
X131969074Y-117047192D01*
X131969074Y-117047192D02*
X131932788Y-117083478D01*
X131932788Y-117083478D02*
X131896503Y-117156049D01*
X119593831Y-121728047D02*
X118831831Y-121728047D01*
X118831831Y-121728047D02*
X119376117Y-121474047D01*
X119376117Y-121474047D02*
X118831831Y-121220047D01*
X118831831Y-121220047D02*
X119593831Y-121220047D01*
X119521260Y-120421761D02*
X119557546Y-120458047D01*
X119557546Y-120458047D02*
X119593831Y-120566904D01*
X119593831Y-120566904D02*
X119593831Y-120639476D01*
X119593831Y-120639476D02*
X119557546Y-120748333D01*
X119557546Y-120748333D02*
X119484974Y-120820904D01*
X119484974Y-120820904D02*
X119412403Y-120857190D01*
X119412403Y-120857190D02*
X119267260Y-120893476D01*
X119267260Y-120893476D02*
X119158403Y-120893476D01*
X119158403Y-120893476D02*
X119013260Y-120857190D01*
X119013260Y-120857190D02*
X118940688Y-120820904D01*
X118940688Y-120820904D02*
X118868117Y-120748333D01*
X118868117Y-120748333D02*
X118831831Y-120639476D01*
X118831831Y-120639476D02*
X118831831Y-120566904D01*
X118831831Y-120566904D02*
X118868117Y-120458047D01*
X118868117Y-120458047D02*
X118904403Y-120421761D01*
X119593831Y-119732333D02*
X119593831Y-120095190D01*
X119593831Y-120095190D02*
X118831831Y-120095190D01*
X119593831Y-119478333D02*
X118831831Y-119478333D01*
X119593831Y-119042904D02*
X119158403Y-119369476D01*
X118831831Y-119042904D02*
X119267260Y-119478333D01*
X118904403Y-118172048D02*
X118868117Y-118135762D01*
X118868117Y-118135762D02*
X118831831Y-118063191D01*
X118831831Y-118063191D02*
X118831831Y-117881762D01*
X118831831Y-117881762D02*
X118868117Y-117809191D01*
X118868117Y-117809191D02*
X118904403Y-117772905D01*
X118904403Y-117772905D02*
X118976974Y-117736619D01*
X118976974Y-117736619D02*
X119049546Y-117736619D01*
X119049546Y-117736619D02*
X119158403Y-117772905D01*
X119158403Y-117772905D02*
X119593831Y-118208333D01*
X119593831Y-118208333D02*
X119593831Y-117736619D01*
X118831831Y-117482619D02*
X118831831Y-117010905D01*
X118831831Y-117010905D02*
X119122117Y-117264905D01*
X119122117Y-117264905D02*
X119122117Y-117156048D01*
X119122117Y-117156048D02*
X119158403Y-117083477D01*
X119158403Y-117083477D02*
X119194688Y-117047191D01*
X119194688Y-117047191D02*
X119267260Y-117010905D01*
X119267260Y-117010905D02*
X119448688Y-117010905D01*
X119448688Y-117010905D02*
X119521260Y-117047191D01*
X119521260Y-117047191D02*
X119557546Y-117083477D01*
X119557546Y-117083477D02*
X119593831Y-117156048D01*
X119593831Y-117156048D02*
X119593831Y-117373762D01*
X119593831Y-117373762D02*
X119557546Y-117446334D01*
X119557546Y-117446334D02*
X119521260Y-117482619D01*
X129032471Y-128868291D02*
X129032471Y-129013433D01*
X129032471Y-129013433D02*
X129068757Y-129086005D01*
X129068757Y-129086005D02*
X129105043Y-129122291D01*
X129105043Y-129122291D02*
X129213900Y-129194862D01*
X129213900Y-129194862D02*
X129359043Y-129231148D01*
X129359043Y-129231148D02*
X129649328Y-129231148D01*
X129649328Y-129231148D02*
X129721900Y-129194862D01*
X129721900Y-129194862D02*
X129758186Y-129158576D01*
X129758186Y-129158576D02*
X129794471Y-129086005D01*
X129794471Y-129086005D02*
X129794471Y-128940862D01*
X129794471Y-128940862D02*
X129758186Y-128868291D01*
X129758186Y-128868291D02*
X129721900Y-128832005D01*
X129721900Y-128832005D02*
X129649328Y-128795719D01*
X129649328Y-128795719D02*
X129467900Y-128795719D01*
X129467900Y-128795719D02*
X129395328Y-128832005D01*
X129395328Y-128832005D02*
X129359043Y-128868291D01*
X129359043Y-128868291D02*
X129322757Y-128940862D01*
X129322757Y-128940862D02*
X129322757Y-129086005D01*
X129322757Y-129086005D02*
X129359043Y-129158576D01*
X129359043Y-129158576D02*
X129395328Y-129194862D01*
X129395328Y-129194862D02*
X129467900Y-129231148D01*
X129794471Y-127888577D02*
X129032471Y-127888577D01*
X129032471Y-127888577D02*
X129576757Y-127634577D01*
X129576757Y-127634577D02*
X129032471Y-127380577D01*
X129032471Y-127380577D02*
X129794471Y-127380577D01*
X129395328Y-127017720D02*
X129395328Y-126763720D01*
X129794471Y-126654863D02*
X129794471Y-127017720D01*
X129794471Y-127017720D02*
X129032471Y-127017720D01*
X129032471Y-127017720D02*
X129032471Y-126654863D01*
X129794471Y-126328291D02*
X129032471Y-126328291D01*
X129032471Y-126328291D02*
X129576757Y-126074291D01*
X129576757Y-126074291D02*
X129032471Y-125820291D01*
X129032471Y-125820291D02*
X129794471Y-125820291D01*
X129721900Y-125022005D02*
X129758186Y-125058291D01*
X129758186Y-125058291D02*
X129794471Y-125167148D01*
X129794471Y-125167148D02*
X129794471Y-125239720D01*
X129794471Y-125239720D02*
X129758186Y-125348577D01*
X129758186Y-125348577D02*
X129685614Y-125421148D01*
X129685614Y-125421148D02*
X129613043Y-125457434D01*
X129613043Y-125457434D02*
X129467900Y-125493720D01*
X129467900Y-125493720D02*
X129359043Y-125493720D01*
X129359043Y-125493720D02*
X129213900Y-125457434D01*
X129213900Y-125457434D02*
X129141328Y-125421148D01*
X129141328Y-125421148D02*
X129068757Y-125348577D01*
X129068757Y-125348577D02*
X129032471Y-125239720D01*
X129032471Y-125239720D02*
X129032471Y-125167148D01*
X129032471Y-125167148D02*
X129068757Y-125058291D01*
X129068757Y-125058291D02*
X129105043Y-125022005D01*
X129758186Y-124731720D02*
X129794471Y-124622863D01*
X129794471Y-124622863D02*
X129794471Y-124441434D01*
X129794471Y-124441434D02*
X129758186Y-124368863D01*
X129758186Y-124368863D02*
X129721900Y-124332577D01*
X129721900Y-124332577D02*
X129649328Y-124296291D01*
X129649328Y-124296291D02*
X129576757Y-124296291D01*
X129576757Y-124296291D02*
X129504186Y-124332577D01*
X129504186Y-124332577D02*
X129467900Y-124368863D01*
X129467900Y-124368863D02*
X129431614Y-124441434D01*
X129431614Y-124441434D02*
X129395328Y-124586577D01*
X129395328Y-124586577D02*
X129359043Y-124659148D01*
X129359043Y-124659148D02*
X129322757Y-124695434D01*
X129322757Y-124695434D02*
X129250186Y-124731720D01*
X129250186Y-124731720D02*
X129177614Y-124731720D01*
X129177614Y-124731720D02*
X129105043Y-124695434D01*
X129105043Y-124695434D02*
X129068757Y-124659148D01*
X129068757Y-124659148D02*
X129032471Y-124586577D01*
X129032471Y-124586577D02*
X129032471Y-124405148D01*
X129032471Y-124405148D02*
X129068757Y-124296291D01*
D12*
X111012151Y-142472266D02*
X111181485Y-142980266D01*
X111181485Y-142980266D02*
X111350818Y-142472266D01*
X111786247Y-142496456D02*
X111737866Y-142472266D01*
X111737866Y-142472266D02*
X111665295Y-142472266D01*
X111665295Y-142472266D02*
X111592723Y-142496456D01*
X111592723Y-142496456D02*
X111544342Y-142544837D01*
X111544342Y-142544837D02*
X111520152Y-142593218D01*
X111520152Y-142593218D02*
X111495961Y-142689980D01*
X111495961Y-142689980D02*
X111495961Y-142762552D01*
X111495961Y-142762552D02*
X111520152Y-142859314D01*
X111520152Y-142859314D02*
X111544342Y-142907695D01*
X111544342Y-142907695D02*
X111592723Y-142956076D01*
X111592723Y-142956076D02*
X111665295Y-142980266D01*
X111665295Y-142980266D02*
X111713676Y-142980266D01*
X111713676Y-142980266D02*
X111786247Y-142956076D01*
X111786247Y-142956076D02*
X111810438Y-142931885D01*
X111810438Y-142931885D02*
X111810438Y-142762552D01*
X111810438Y-142762552D02*
X111713676Y-142762552D01*
X112028152Y-142980266D02*
X112028152Y-142472266D01*
X112028152Y-142472266D02*
X112318438Y-142980266D01*
X112318438Y-142980266D02*
X112318438Y-142472266D01*
X112560342Y-142980266D02*
X112560342Y-142472266D01*
X112560342Y-142472266D02*
X112681294Y-142472266D01*
X112681294Y-142472266D02*
X112753866Y-142496456D01*
X112753866Y-142496456D02*
X112802247Y-142544837D01*
X112802247Y-142544837D02*
X112826437Y-142593218D01*
X112826437Y-142593218D02*
X112850628Y-142689980D01*
X112850628Y-142689980D02*
X112850628Y-142762552D01*
X112850628Y-142762552D02*
X112826437Y-142859314D01*
X112826437Y-142859314D02*
X112802247Y-142907695D01*
X112802247Y-142907695D02*
X112753866Y-142956076D01*
X112753866Y-142956076D02*
X112681294Y-142980266D01*
X112681294Y-142980266D02*
X112560342Y-142980266D01*
D11*
X116426451Y-118135762D02*
X116426451Y-117664048D01*
X116426451Y-117664048D02*
X116716737Y-117918048D01*
X116716737Y-117918048D02*
X116716737Y-117809191D01*
X116716737Y-117809191D02*
X116753023Y-117736620D01*
X116753023Y-117736620D02*
X116789308Y-117700334D01*
X116789308Y-117700334D02*
X116861880Y-117664048D01*
X116861880Y-117664048D02*
X117043308Y-117664048D01*
X117043308Y-117664048D02*
X117115880Y-117700334D01*
X117115880Y-117700334D02*
X117152166Y-117736620D01*
X117152166Y-117736620D02*
X117188451Y-117809191D01*
X117188451Y-117809191D02*
X117188451Y-118026905D01*
X117188451Y-118026905D02*
X117152166Y-118099477D01*
X117152166Y-118099477D02*
X117115880Y-118135762D01*
X116426451Y-117446334D02*
X117188451Y-117192334D01*
X117188451Y-117192334D02*
X116426451Y-116938334D01*
X124371208Y-121365191D02*
X124407494Y-121256334D01*
X124407494Y-121256334D02*
X124443780Y-121220048D01*
X124443780Y-121220048D02*
X124516351Y-121183762D01*
X124516351Y-121183762D02*
X124625208Y-121183762D01*
X124625208Y-121183762D02*
X124697780Y-121220048D01*
X124697780Y-121220048D02*
X124734066Y-121256334D01*
X124734066Y-121256334D02*
X124770351Y-121328905D01*
X124770351Y-121328905D02*
X124770351Y-121619191D01*
X124770351Y-121619191D02*
X124008351Y-121619191D01*
X124008351Y-121619191D02*
X124008351Y-121365191D01*
X124008351Y-121365191D02*
X124044637Y-121292620D01*
X124044637Y-121292620D02*
X124080923Y-121256334D01*
X124080923Y-121256334D02*
X124153494Y-121220048D01*
X124153494Y-121220048D02*
X124226066Y-121220048D01*
X124226066Y-121220048D02*
X124298637Y-121256334D01*
X124298637Y-121256334D02*
X124334923Y-121292620D01*
X124334923Y-121292620D02*
X124371208Y-121365191D01*
X124371208Y-121365191D02*
X124371208Y-121619191D01*
X124697780Y-120421762D02*
X124734066Y-120458048D01*
X124734066Y-120458048D02*
X124770351Y-120566905D01*
X124770351Y-120566905D02*
X124770351Y-120639477D01*
X124770351Y-120639477D02*
X124734066Y-120748334D01*
X124734066Y-120748334D02*
X124661494Y-120820905D01*
X124661494Y-120820905D02*
X124588923Y-120857191D01*
X124588923Y-120857191D02*
X124443780Y-120893477D01*
X124443780Y-120893477D02*
X124334923Y-120893477D01*
X124334923Y-120893477D02*
X124189780Y-120857191D01*
X124189780Y-120857191D02*
X124117208Y-120820905D01*
X124117208Y-120820905D02*
X124044637Y-120748334D01*
X124044637Y-120748334D02*
X124008351Y-120639477D01*
X124008351Y-120639477D02*
X124008351Y-120566905D01*
X124008351Y-120566905D02*
X124044637Y-120458048D01*
X124044637Y-120458048D02*
X124080923Y-120421762D01*
X124770351Y-119732334D02*
X124770351Y-120095191D01*
X124770351Y-120095191D02*
X124008351Y-120095191D01*
X124770351Y-119478334D02*
X124008351Y-119478334D01*
X124770351Y-119042905D02*
X124334923Y-119369477D01*
X124008351Y-119042905D02*
X124443780Y-119478334D01*
X124080923Y-118172049D02*
X124044637Y-118135763D01*
X124044637Y-118135763D02*
X124008351Y-118063192D01*
X124008351Y-118063192D02*
X124008351Y-117881763D01*
X124008351Y-117881763D02*
X124044637Y-117809192D01*
X124044637Y-117809192D02*
X124080923Y-117772906D01*
X124080923Y-117772906D02*
X124153494Y-117736620D01*
X124153494Y-117736620D02*
X124226066Y-117736620D01*
X124226066Y-117736620D02*
X124334923Y-117772906D01*
X124334923Y-117772906D02*
X124770351Y-118208334D01*
X124770351Y-118208334D02*
X124770351Y-117736620D01*
X124770351Y-117010906D02*
X124770351Y-117446335D01*
X124770351Y-117228620D02*
X124008351Y-117228620D01*
X124008351Y-117228620D02*
X124117208Y-117301192D01*
X124117208Y-117301192D02*
X124189780Y-117373763D01*
X124189780Y-117373763D02*
X124226066Y-117446335D01*
X138383917Y-136162977D02*
X138311346Y-136126691D01*
X138311346Y-136126691D02*
X138202488Y-136126691D01*
X138202488Y-136126691D02*
X138093631Y-136162977D01*
X138093631Y-136162977D02*
X138021060Y-136235548D01*
X138021060Y-136235548D02*
X137984774Y-136308120D01*
X137984774Y-136308120D02*
X137948488Y-136453263D01*
X137948488Y-136453263D02*
X137948488Y-136562120D01*
X137948488Y-136562120D02*
X137984774Y-136707263D01*
X137984774Y-136707263D02*
X138021060Y-136779834D01*
X138021060Y-136779834D02*
X138093631Y-136852406D01*
X138093631Y-136852406D02*
X138202488Y-136888691D01*
X138202488Y-136888691D02*
X138275060Y-136888691D01*
X138275060Y-136888691D02*
X138383917Y-136852406D01*
X138383917Y-136852406D02*
X138420203Y-136816120D01*
X138420203Y-136816120D02*
X138420203Y-136562120D01*
X138420203Y-136562120D02*
X138275060Y-136562120D01*
X138746774Y-136888691D02*
X138746774Y-136126691D01*
X138746774Y-136126691D02*
X139182203Y-136888691D01*
X139182203Y-136888691D02*
X139182203Y-136126691D01*
X139545060Y-136888691D02*
X139545060Y-136126691D01*
X139545060Y-136126691D02*
X139726489Y-136126691D01*
X139726489Y-136126691D02*
X139835346Y-136162977D01*
X139835346Y-136162977D02*
X139907917Y-136235548D01*
X139907917Y-136235548D02*
X139944203Y-136308120D01*
X139944203Y-136308120D02*
X139980489Y-136453263D01*
X139980489Y-136453263D02*
X139980489Y-136562120D01*
X139980489Y-136562120D02*
X139944203Y-136707263D01*
X139944203Y-136707263D02*
X139907917Y-136779834D01*
X139907917Y-136779834D02*
X139835346Y-136852406D01*
X139835346Y-136852406D02*
X139726489Y-136888691D01*
X139726489Y-136888691D02*
X139545060Y-136888691D01*
X135331200Y-110081531D02*
X135476343Y-110081531D01*
X135476343Y-110081531D02*
X135548914Y-110117817D01*
X135548914Y-110117817D02*
X135621486Y-110190388D01*
X135621486Y-110190388D02*
X135657771Y-110335531D01*
X135657771Y-110335531D02*
X135657771Y-110589531D01*
X135657771Y-110589531D02*
X135621486Y-110734674D01*
X135621486Y-110734674D02*
X135548914Y-110807246D01*
X135548914Y-110807246D02*
X135476343Y-110843531D01*
X135476343Y-110843531D02*
X135331200Y-110843531D01*
X135331200Y-110843531D02*
X135258629Y-110807246D01*
X135258629Y-110807246D02*
X135186057Y-110734674D01*
X135186057Y-110734674D02*
X135149771Y-110589531D01*
X135149771Y-110589531D02*
X135149771Y-110335531D01*
X135149771Y-110335531D02*
X135186057Y-110190388D01*
X135186057Y-110190388D02*
X135258629Y-110117817D01*
X135258629Y-110117817D02*
X135331200Y-110081531D01*
X135984343Y-110081531D02*
X135984343Y-110698388D01*
X135984343Y-110698388D02*
X136020629Y-110770960D01*
X136020629Y-110770960D02*
X136056915Y-110807246D01*
X136056915Y-110807246D02*
X136129486Y-110843531D01*
X136129486Y-110843531D02*
X136274629Y-110843531D01*
X136274629Y-110843531D02*
X136347200Y-110807246D01*
X136347200Y-110807246D02*
X136383486Y-110770960D01*
X136383486Y-110770960D02*
X136419772Y-110698388D01*
X136419772Y-110698388D02*
X136419772Y-110081531D01*
X136673772Y-110081531D02*
X137109201Y-110081531D01*
X136891486Y-110843531D02*
X136891486Y-110081531D01*
X111339557Y-128795719D02*
X111303271Y-128868291D01*
X111303271Y-128868291D02*
X111303271Y-128977148D01*
X111303271Y-128977148D02*
X111339557Y-129086005D01*
X111339557Y-129086005D02*
X111412128Y-129158576D01*
X111412128Y-129158576D02*
X111484700Y-129194862D01*
X111484700Y-129194862D02*
X111629843Y-129231148D01*
X111629843Y-129231148D02*
X111738700Y-129231148D01*
X111738700Y-129231148D02*
X111883843Y-129194862D01*
X111883843Y-129194862D02*
X111956414Y-129158576D01*
X111956414Y-129158576D02*
X112028986Y-129086005D01*
X112028986Y-129086005D02*
X112065271Y-128977148D01*
X112065271Y-128977148D02*
X112065271Y-128904576D01*
X112065271Y-128904576D02*
X112028986Y-128795719D01*
X112028986Y-128795719D02*
X111992700Y-128759433D01*
X111992700Y-128759433D02*
X111738700Y-128759433D01*
X111738700Y-128759433D02*
X111738700Y-128904576D01*
X112065271Y-128432862D02*
X111303271Y-128432862D01*
X111303271Y-128432862D02*
X112065271Y-127997433D01*
X112065271Y-127997433D02*
X111303271Y-127997433D01*
X112065271Y-127634576D02*
X111303271Y-127634576D01*
X111303271Y-127634576D02*
X111303271Y-127453147D01*
X111303271Y-127453147D02*
X111339557Y-127344290D01*
X111339557Y-127344290D02*
X111412128Y-127271719D01*
X111412128Y-127271719D02*
X111484700Y-127235433D01*
X111484700Y-127235433D02*
X111629843Y-127199147D01*
X111629843Y-127199147D02*
X111738700Y-127199147D01*
X111738700Y-127199147D02*
X111883843Y-127235433D01*
X111883843Y-127235433D02*
X111956414Y-127271719D01*
X111956414Y-127271719D02*
X112028986Y-127344290D01*
X112028986Y-127344290D02*
X112065271Y-127453147D01*
X112065271Y-127453147D02*
X112065271Y-127634576D01*
X125838857Y-114010911D02*
X125584857Y-113648054D01*
X125403428Y-114010911D02*
X125403428Y-113248911D01*
X125403428Y-113248911D02*
X125693714Y-113248911D01*
X125693714Y-113248911D02*
X125766285Y-113285197D01*
X125766285Y-113285197D02*
X125802571Y-113321483D01*
X125802571Y-113321483D02*
X125838857Y-113394054D01*
X125838857Y-113394054D02*
X125838857Y-113502911D01*
X125838857Y-113502911D02*
X125802571Y-113575483D01*
X125802571Y-113575483D02*
X125766285Y-113611768D01*
X125766285Y-113611768D02*
X125693714Y-113648054D01*
X125693714Y-113648054D02*
X125403428Y-113648054D01*
X145084546Y-121002333D02*
X145120831Y-120893476D01*
X145120831Y-120893476D02*
X145120831Y-120712047D01*
X145120831Y-120712047D02*
X145084546Y-120639476D01*
X145084546Y-120639476D02*
X145048260Y-120603190D01*
X145048260Y-120603190D02*
X144975688Y-120566904D01*
X144975688Y-120566904D02*
X144903117Y-120566904D01*
X144903117Y-120566904D02*
X144830546Y-120603190D01*
X144830546Y-120603190D02*
X144794260Y-120639476D01*
X144794260Y-120639476D02*
X144757974Y-120712047D01*
X144757974Y-120712047D02*
X144721688Y-120857190D01*
X144721688Y-120857190D02*
X144685403Y-120929761D01*
X144685403Y-120929761D02*
X144649117Y-120966047D01*
X144649117Y-120966047D02*
X144576546Y-121002333D01*
X144576546Y-121002333D02*
X144503974Y-121002333D01*
X144503974Y-121002333D02*
X144431403Y-120966047D01*
X144431403Y-120966047D02*
X144395117Y-120929761D01*
X144395117Y-120929761D02*
X144358831Y-120857190D01*
X144358831Y-120857190D02*
X144358831Y-120675761D01*
X144358831Y-120675761D02*
X144395117Y-120566904D01*
X145048260Y-119804904D02*
X145084546Y-119841190D01*
X145084546Y-119841190D02*
X145120831Y-119950047D01*
X145120831Y-119950047D02*
X145120831Y-120022619D01*
X145120831Y-120022619D02*
X145084546Y-120131476D01*
X145084546Y-120131476D02*
X145011974Y-120204047D01*
X145011974Y-120204047D02*
X144939403Y-120240333D01*
X144939403Y-120240333D02*
X144794260Y-120276619D01*
X144794260Y-120276619D02*
X144685403Y-120276619D01*
X144685403Y-120276619D02*
X144540260Y-120240333D01*
X144540260Y-120240333D02*
X144467688Y-120204047D01*
X144467688Y-120204047D02*
X144395117Y-120131476D01*
X144395117Y-120131476D02*
X144358831Y-120022619D01*
X144358831Y-120022619D02*
X144358831Y-119950047D01*
X144358831Y-119950047D02*
X144395117Y-119841190D01*
X144395117Y-119841190D02*
X144431403Y-119804904D01*
X145120831Y-119478333D02*
X144358831Y-119478333D01*
X145120831Y-119042904D02*
X144685403Y-119369476D01*
X144358831Y-119042904D02*
X144794260Y-119478333D01*
X145120831Y-117736619D02*
X145120831Y-118172048D01*
X145120831Y-117954333D02*
X144358831Y-117954333D01*
X144358831Y-117954333D02*
X144467688Y-118026905D01*
X144467688Y-118026905D02*
X144540260Y-118099476D01*
X144540260Y-118099476D02*
X144576546Y-118172048D01*
X144358831Y-117482619D02*
X144358831Y-117010905D01*
X144358831Y-117010905D02*
X144649117Y-117264905D01*
X144649117Y-117264905D02*
X144649117Y-117156048D01*
X144649117Y-117156048D02*
X144685403Y-117083477D01*
X144685403Y-117083477D02*
X144721688Y-117047191D01*
X144721688Y-117047191D02*
X144794260Y-117010905D01*
X144794260Y-117010905D02*
X144975688Y-117010905D01*
X144975688Y-117010905D02*
X145048260Y-117047191D01*
X145048260Y-117047191D02*
X145084546Y-117083477D01*
X145084546Y-117083477D02*
X145120831Y-117156048D01*
X145120831Y-117156048D02*
X145120831Y-117373762D01*
X145120831Y-117373762D02*
X145084546Y-117446334D01*
X145084546Y-117446334D02*
X145048260Y-117482619D01*
X128378857Y-114010911D02*
X128124857Y-113648054D01*
X127943428Y-114010911D02*
X127943428Y-113248911D01*
X127943428Y-113248911D02*
X128233714Y-113248911D01*
X128233714Y-113248911D02*
X128306285Y-113285197D01*
X128306285Y-113285197D02*
X128342571Y-113321483D01*
X128342571Y-113321483D02*
X128378857Y-113394054D01*
X128378857Y-113394054D02*
X128378857Y-113502911D01*
X128378857Y-113502911D02*
X128342571Y-113575483D01*
X128342571Y-113575483D02*
X128306285Y-113611768D01*
X128306285Y-113611768D02*
X128233714Y-113648054D01*
X128233714Y-113648054D02*
X127943428Y-113648054D01*
X137912203Y-141239711D02*
X138383917Y-141239711D01*
X138383917Y-141239711D02*
X138129917Y-141529997D01*
X138129917Y-141529997D02*
X138238774Y-141529997D01*
X138238774Y-141529997D02*
X138311346Y-141566283D01*
X138311346Y-141566283D02*
X138347631Y-141602568D01*
X138347631Y-141602568D02*
X138383917Y-141675140D01*
X138383917Y-141675140D02*
X138383917Y-141856568D01*
X138383917Y-141856568D02*
X138347631Y-141929140D01*
X138347631Y-141929140D02*
X138311346Y-141965426D01*
X138311346Y-141965426D02*
X138238774Y-142001711D01*
X138238774Y-142001711D02*
X138021060Y-142001711D01*
X138021060Y-142001711D02*
X137948488Y-141965426D01*
X137948488Y-141965426D02*
X137912203Y-141929140D01*
X138710488Y-141929140D02*
X138746774Y-141965426D01*
X138746774Y-141965426D02*
X138710488Y-142001711D01*
X138710488Y-142001711D02*
X138674202Y-141965426D01*
X138674202Y-141965426D02*
X138710488Y-141929140D01*
X138710488Y-141929140D02*
X138710488Y-142001711D01*
X139000774Y-141239711D02*
X139472488Y-141239711D01*
X139472488Y-141239711D02*
X139218488Y-141529997D01*
X139218488Y-141529997D02*
X139327345Y-141529997D01*
X139327345Y-141529997D02*
X139399917Y-141566283D01*
X139399917Y-141566283D02*
X139436202Y-141602568D01*
X139436202Y-141602568D02*
X139472488Y-141675140D01*
X139472488Y-141675140D02*
X139472488Y-141856568D01*
X139472488Y-141856568D02*
X139436202Y-141929140D01*
X139436202Y-141929140D02*
X139399917Y-141965426D01*
X139399917Y-141965426D02*
X139327345Y-142001711D01*
X139327345Y-142001711D02*
X139109631Y-142001711D01*
X139109631Y-142001711D02*
X139037059Y-141965426D01*
X139037059Y-141965426D02*
X139000774Y-141929140D01*
X139690202Y-141239711D02*
X139944202Y-142001711D01*
X139944202Y-142001711D02*
X140198202Y-141239711D01*
X114310159Y-138041851D02*
X114310159Y-137279851D01*
X114310159Y-137642708D02*
X114745588Y-137642708D01*
X114745588Y-138041851D02*
X114745588Y-137279851D01*
X115108445Y-137642708D02*
X115362445Y-137642708D01*
X115471302Y-138041851D02*
X115108445Y-138041851D01*
X115108445Y-138041851D02*
X115108445Y-137279851D01*
X115108445Y-137279851D02*
X115471302Y-137279851D01*
X115761588Y-137824137D02*
X116124446Y-137824137D01*
X115689017Y-138041851D02*
X115943017Y-137279851D01*
X115943017Y-137279851D02*
X116197017Y-138041851D01*
X116451017Y-138041851D02*
X116451017Y-137279851D01*
X116451017Y-137279851D02*
X116632446Y-137279851D01*
X116632446Y-137279851D02*
X116741303Y-137316137D01*
X116741303Y-137316137D02*
X116813874Y-137388708D01*
X116813874Y-137388708D02*
X116850160Y-137461280D01*
X116850160Y-137461280D02*
X116886446Y-137606423D01*
X116886446Y-137606423D02*
X116886446Y-137715280D01*
X116886446Y-137715280D02*
X116850160Y-137860423D01*
X116850160Y-137860423D02*
X116813874Y-137932994D01*
X116813874Y-137932994D02*
X116741303Y-138005566D01*
X116741303Y-138005566D02*
X116632446Y-138041851D01*
X116632446Y-138041851D02*
X116451017Y-138041851D01*
X117213017Y-138041851D02*
X117213017Y-137279851D01*
X117213017Y-137279851D02*
X117503303Y-137279851D01*
X117503303Y-137279851D02*
X117575874Y-137316137D01*
X117575874Y-137316137D02*
X117612160Y-137352423D01*
X117612160Y-137352423D02*
X117648446Y-137424994D01*
X117648446Y-137424994D02*
X117648446Y-137533851D01*
X117648446Y-137533851D02*
X117612160Y-137606423D01*
X117612160Y-137606423D02*
X117575874Y-137642708D01*
X117575874Y-137642708D02*
X117503303Y-137678994D01*
X117503303Y-137678994D02*
X117213017Y-137678994D01*
X117975017Y-138041851D02*
X117975017Y-137279851D01*
X117975017Y-137642708D02*
X118410446Y-137642708D01*
X118410446Y-138041851D02*
X118410446Y-137279851D01*
X118918446Y-137279851D02*
X119063589Y-137279851D01*
X119063589Y-137279851D02*
X119136160Y-137316137D01*
X119136160Y-137316137D02*
X119208732Y-137388708D01*
X119208732Y-137388708D02*
X119245017Y-137533851D01*
X119245017Y-137533851D02*
X119245017Y-137787851D01*
X119245017Y-137787851D02*
X119208732Y-137932994D01*
X119208732Y-137932994D02*
X119136160Y-138005566D01*
X119136160Y-138005566D02*
X119063589Y-138041851D01*
X119063589Y-138041851D02*
X118918446Y-138041851D01*
X118918446Y-138041851D02*
X118845875Y-138005566D01*
X118845875Y-138005566D02*
X118773303Y-137932994D01*
X118773303Y-137932994D02*
X118737017Y-137787851D01*
X118737017Y-137787851D02*
X118737017Y-137533851D01*
X118737017Y-137533851D02*
X118773303Y-137388708D01*
X118773303Y-137388708D02*
X118845875Y-137316137D01*
X118845875Y-137316137D02*
X118918446Y-137279851D01*
X119571589Y-138041851D02*
X119571589Y-137279851D01*
X119571589Y-137279851D02*
X120007018Y-138041851D01*
X120007018Y-138041851D02*
X120007018Y-137279851D01*
X120369875Y-137642708D02*
X120623875Y-137642708D01*
X120732732Y-138041851D02*
X120369875Y-138041851D01*
X120369875Y-138041851D02*
X120369875Y-137279851D01*
X120369875Y-137279851D02*
X120732732Y-137279851D01*
X121023018Y-138005566D02*
X121131876Y-138041851D01*
X121131876Y-138041851D02*
X121313304Y-138041851D01*
X121313304Y-138041851D02*
X121385876Y-138005566D01*
X121385876Y-138005566D02*
X121422161Y-137969280D01*
X121422161Y-137969280D02*
X121458447Y-137896708D01*
X121458447Y-137896708D02*
X121458447Y-137824137D01*
X121458447Y-137824137D02*
X121422161Y-137751566D01*
X121422161Y-137751566D02*
X121385876Y-137715280D01*
X121385876Y-137715280D02*
X121313304Y-137678994D01*
X121313304Y-137678994D02*
X121168161Y-137642708D01*
X121168161Y-137642708D02*
X121095590Y-137606423D01*
X121095590Y-137606423D02*
X121059304Y-137570137D01*
X121059304Y-137570137D02*
X121023018Y-137497566D01*
X121023018Y-137497566D02*
X121023018Y-137424994D01*
X121023018Y-137424994D02*
X121059304Y-137352423D01*
X121059304Y-137352423D02*
X121095590Y-137316137D01*
X121095590Y-137316137D02*
X121168161Y-137279851D01*
X121168161Y-137279851D02*
X121349590Y-137279851D01*
X121349590Y-137279851D02*
X121458447Y-137316137D01*
X123298857Y-114010911D02*
X122936000Y-114010911D01*
X122936000Y-114010911D02*
X122936000Y-113248911D01*
D12*
X111849988Y-140061806D02*
X111849988Y-139553806D01*
X111849988Y-139553806D02*
X111970940Y-139553806D01*
X111970940Y-139553806D02*
X112043512Y-139577996D01*
X112043512Y-139577996D02*
X112091893Y-139626377D01*
X112091893Y-139626377D02*
X112116083Y-139674758D01*
X112116083Y-139674758D02*
X112140274Y-139771520D01*
X112140274Y-139771520D02*
X112140274Y-139844092D01*
X112140274Y-139844092D02*
X112116083Y-139940854D01*
X112116083Y-139940854D02*
X112091893Y-139989235D01*
X112091893Y-139989235D02*
X112043512Y-140037616D01*
X112043512Y-140037616D02*
X111970940Y-140061806D01*
X111970940Y-140061806D02*
X111849988Y-140061806D01*
X112454750Y-139553806D02*
X112551512Y-139553806D01*
X112551512Y-139553806D02*
X112599893Y-139577996D01*
X112599893Y-139577996D02*
X112648274Y-139626377D01*
X112648274Y-139626377D02*
X112672464Y-139723139D01*
X112672464Y-139723139D02*
X112672464Y-139892473D01*
X112672464Y-139892473D02*
X112648274Y-139989235D01*
X112648274Y-139989235D02*
X112599893Y-140037616D01*
X112599893Y-140037616D02*
X112551512Y-140061806D01*
X112551512Y-140061806D02*
X112454750Y-140061806D01*
X112454750Y-140061806D02*
X112406369Y-140037616D01*
X112406369Y-140037616D02*
X112357988Y-139989235D01*
X112357988Y-139989235D02*
X112333797Y-139892473D01*
X112333797Y-139892473D02*
X112333797Y-139723139D01*
X112333797Y-139723139D02*
X112357988Y-139626377D01*
X112357988Y-139626377D02*
X112406369Y-139577996D01*
X112406369Y-139577996D02*
X112454750Y-139553806D01*
X113277226Y-140061806D02*
X113277226Y-139553806D01*
X113277226Y-139553806D02*
X113567512Y-140061806D01*
X113567512Y-140061806D02*
X113567512Y-139553806D01*
X113906178Y-139553806D02*
X114002940Y-139553806D01*
X114002940Y-139553806D02*
X114051321Y-139577996D01*
X114051321Y-139577996D02*
X114099702Y-139626377D01*
X114099702Y-139626377D02*
X114123892Y-139723139D01*
X114123892Y-139723139D02*
X114123892Y-139892473D01*
X114123892Y-139892473D02*
X114099702Y-139989235D01*
X114099702Y-139989235D02*
X114051321Y-140037616D01*
X114051321Y-140037616D02*
X114002940Y-140061806D01*
X114002940Y-140061806D02*
X113906178Y-140061806D01*
X113906178Y-140061806D02*
X113857797Y-140037616D01*
X113857797Y-140037616D02*
X113809416Y-139989235D01*
X113809416Y-139989235D02*
X113785225Y-139892473D01*
X113785225Y-139892473D02*
X113785225Y-139723139D01*
X113785225Y-139723139D02*
X113809416Y-139626377D01*
X113809416Y-139626377D02*
X113857797Y-139577996D01*
X113857797Y-139577996D02*
X113906178Y-139553806D01*
X114269034Y-139553806D02*
X114559320Y-139553806D01*
X114414177Y-140061806D02*
X114414177Y-139553806D01*
X115091511Y-140037616D02*
X115164083Y-140061806D01*
X115164083Y-140061806D02*
X115285035Y-140061806D01*
X115285035Y-140061806D02*
X115333416Y-140037616D01*
X115333416Y-140037616D02*
X115357607Y-140013425D01*
X115357607Y-140013425D02*
X115381797Y-139965044D01*
X115381797Y-139965044D02*
X115381797Y-139916663D01*
X115381797Y-139916663D02*
X115357607Y-139868282D01*
X115357607Y-139868282D02*
X115333416Y-139844092D01*
X115333416Y-139844092D02*
X115285035Y-139819901D01*
X115285035Y-139819901D02*
X115188273Y-139795711D01*
X115188273Y-139795711D02*
X115139892Y-139771520D01*
X115139892Y-139771520D02*
X115115702Y-139747330D01*
X115115702Y-139747330D02*
X115091511Y-139698949D01*
X115091511Y-139698949D02*
X115091511Y-139650568D01*
X115091511Y-139650568D02*
X115115702Y-139602187D01*
X115115702Y-139602187D02*
X115139892Y-139577996D01*
X115139892Y-139577996D02*
X115188273Y-139553806D01*
X115188273Y-139553806D02*
X115309226Y-139553806D01*
X115309226Y-139553806D02*
X115381797Y-139577996D01*
X115599512Y-140061806D02*
X115599512Y-139553806D01*
X115599512Y-139795711D02*
X115889798Y-139795711D01*
X115889798Y-140061806D02*
X115889798Y-139553806D01*
X116228464Y-139553806D02*
X116325226Y-139553806D01*
X116325226Y-139553806D02*
X116373607Y-139577996D01*
X116373607Y-139577996D02*
X116421988Y-139626377D01*
X116421988Y-139626377D02*
X116446178Y-139723139D01*
X116446178Y-139723139D02*
X116446178Y-139892473D01*
X116446178Y-139892473D02*
X116421988Y-139989235D01*
X116421988Y-139989235D02*
X116373607Y-140037616D01*
X116373607Y-140037616D02*
X116325226Y-140061806D01*
X116325226Y-140061806D02*
X116228464Y-140061806D01*
X116228464Y-140061806D02*
X116180083Y-140037616D01*
X116180083Y-140037616D02*
X116131702Y-139989235D01*
X116131702Y-139989235D02*
X116107511Y-139892473D01*
X116107511Y-139892473D02*
X116107511Y-139723139D01*
X116107511Y-139723139D02*
X116131702Y-139626377D01*
X116131702Y-139626377D02*
X116180083Y-139577996D01*
X116180083Y-139577996D02*
X116228464Y-139553806D01*
X116954178Y-140061806D02*
X116784844Y-139819901D01*
X116663892Y-140061806D02*
X116663892Y-139553806D01*
X116663892Y-139553806D02*
X116857416Y-139553806D01*
X116857416Y-139553806D02*
X116905797Y-139577996D01*
X116905797Y-139577996D02*
X116929987Y-139602187D01*
X116929987Y-139602187D02*
X116954178Y-139650568D01*
X116954178Y-139650568D02*
X116954178Y-139723139D01*
X116954178Y-139723139D02*
X116929987Y-139771520D01*
X116929987Y-139771520D02*
X116905797Y-139795711D01*
X116905797Y-139795711D02*
X116857416Y-139819901D01*
X116857416Y-139819901D02*
X116663892Y-139819901D01*
X117099320Y-139553806D02*
X117389606Y-139553806D01*
X117244463Y-140061806D02*
X117244463Y-139553806D01*
X117873416Y-139553806D02*
X118042750Y-140061806D01*
X118042750Y-140061806D02*
X118212083Y-139553806D01*
X118647512Y-139577996D02*
X118599131Y-139553806D01*
X118599131Y-139553806D02*
X118526560Y-139553806D01*
X118526560Y-139553806D02*
X118453988Y-139577996D01*
X118453988Y-139577996D02*
X118405607Y-139626377D01*
X118405607Y-139626377D02*
X118381417Y-139674758D01*
X118381417Y-139674758D02*
X118357226Y-139771520D01*
X118357226Y-139771520D02*
X118357226Y-139844092D01*
X118357226Y-139844092D02*
X118381417Y-139940854D01*
X118381417Y-139940854D02*
X118405607Y-139989235D01*
X118405607Y-139989235D02*
X118453988Y-140037616D01*
X118453988Y-140037616D02*
X118526560Y-140061806D01*
X118526560Y-140061806D02*
X118574941Y-140061806D01*
X118574941Y-140061806D02*
X118647512Y-140037616D01*
X118647512Y-140037616D02*
X118671703Y-140013425D01*
X118671703Y-140013425D02*
X118671703Y-139844092D01*
X118671703Y-139844092D02*
X118574941Y-139844092D01*
X118889417Y-140061806D02*
X118889417Y-139553806D01*
X118889417Y-139553806D02*
X119179703Y-140061806D01*
X119179703Y-140061806D02*
X119179703Y-139553806D01*
X119421607Y-140061806D02*
X119421607Y-139553806D01*
X119421607Y-139553806D02*
X119542559Y-139553806D01*
X119542559Y-139553806D02*
X119615131Y-139577996D01*
X119615131Y-139577996D02*
X119663512Y-139626377D01*
X119663512Y-139626377D02*
X119687702Y-139674758D01*
X119687702Y-139674758D02*
X119711893Y-139771520D01*
X119711893Y-139771520D02*
X119711893Y-139844092D01*
X119711893Y-139844092D02*
X119687702Y-139940854D01*
X119687702Y-139940854D02*
X119663512Y-139989235D01*
X119663512Y-139989235D02*
X119615131Y-140037616D01*
X119615131Y-140037616D02*
X119542559Y-140061806D01*
X119542559Y-140061806D02*
X119421607Y-140061806D01*
X120244083Y-139553806D02*
X120534369Y-139553806D01*
X120389226Y-140061806D02*
X120389226Y-139553806D01*
X120800465Y-139553806D02*
X120897227Y-139553806D01*
X120897227Y-139553806D02*
X120945608Y-139577996D01*
X120945608Y-139577996D02*
X120993989Y-139626377D01*
X120993989Y-139626377D02*
X121018179Y-139723139D01*
X121018179Y-139723139D02*
X121018179Y-139892473D01*
X121018179Y-139892473D02*
X120993989Y-139989235D01*
X120993989Y-139989235D02*
X120945608Y-140037616D01*
X120945608Y-140037616D02*
X120897227Y-140061806D01*
X120897227Y-140061806D02*
X120800465Y-140061806D01*
X120800465Y-140061806D02*
X120752084Y-140037616D01*
X120752084Y-140037616D02*
X120703703Y-139989235D01*
X120703703Y-139989235D02*
X120679512Y-139892473D01*
X120679512Y-139892473D02*
X120679512Y-139723139D01*
X120679512Y-139723139D02*
X120703703Y-139626377D01*
X120703703Y-139626377D02*
X120752084Y-139577996D01*
X120752084Y-139577996D02*
X120800465Y-139553806D01*
X121889036Y-139577996D02*
X121840655Y-139553806D01*
X121840655Y-139553806D02*
X121768084Y-139553806D01*
X121768084Y-139553806D02*
X121695512Y-139577996D01*
X121695512Y-139577996D02*
X121647131Y-139626377D01*
X121647131Y-139626377D02*
X121622941Y-139674758D01*
X121622941Y-139674758D02*
X121598750Y-139771520D01*
X121598750Y-139771520D02*
X121598750Y-139844092D01*
X121598750Y-139844092D02*
X121622941Y-139940854D01*
X121622941Y-139940854D02*
X121647131Y-139989235D01*
X121647131Y-139989235D02*
X121695512Y-140037616D01*
X121695512Y-140037616D02*
X121768084Y-140061806D01*
X121768084Y-140061806D02*
X121816465Y-140061806D01*
X121816465Y-140061806D02*
X121889036Y-140037616D01*
X121889036Y-140037616D02*
X121913227Y-140013425D01*
X121913227Y-140013425D02*
X121913227Y-139844092D01*
X121913227Y-139844092D02*
X121816465Y-139844092D01*
X122130941Y-140061806D02*
X122130941Y-139553806D01*
X122130941Y-139553806D02*
X122421227Y-140061806D01*
X122421227Y-140061806D02*
X122421227Y-139553806D01*
X122663131Y-140061806D02*
X122663131Y-139553806D01*
X122663131Y-139553806D02*
X122784083Y-139553806D01*
X122784083Y-139553806D02*
X122856655Y-139577996D01*
X122856655Y-139577996D02*
X122905036Y-139626377D01*
X122905036Y-139626377D02*
X122929226Y-139674758D01*
X122929226Y-139674758D02*
X122953417Y-139771520D01*
X122953417Y-139771520D02*
X122953417Y-139844092D01*
X122953417Y-139844092D02*
X122929226Y-139940854D01*
X122929226Y-139940854D02*
X122905036Y-139989235D01*
X122905036Y-139989235D02*
X122856655Y-140037616D01*
X122856655Y-140037616D02*
X122784083Y-140061806D01*
X122784083Y-140061806D02*
X122663131Y-140061806D01*
X123171131Y-140013425D02*
X123195321Y-140037616D01*
X123195321Y-140037616D02*
X123171131Y-140061806D01*
X123171131Y-140061806D02*
X123146940Y-140037616D01*
X123146940Y-140037616D02*
X123171131Y-140013425D01*
X123171131Y-140013425D02*
X123171131Y-140061806D01*
X123171131Y-139868282D02*
X123146940Y-139577996D01*
X123146940Y-139577996D02*
X123171131Y-139553806D01*
X123171131Y-139553806D02*
X123195321Y-139577996D01*
X123195321Y-139577996D02*
X123171131Y-139868282D01*
X123171131Y-139868282D02*
X123171131Y-139553806D01*
X118023398Y-142980266D02*
X117854064Y-142738361D01*
X117733112Y-142980266D02*
X117733112Y-142472266D01*
X117733112Y-142472266D02*
X117926636Y-142472266D01*
X117926636Y-142472266D02*
X117975017Y-142496456D01*
X117975017Y-142496456D02*
X117999207Y-142520647D01*
X117999207Y-142520647D02*
X118023398Y-142569028D01*
X118023398Y-142569028D02*
X118023398Y-142641599D01*
X118023398Y-142641599D02*
X117999207Y-142689980D01*
X117999207Y-142689980D02*
X117975017Y-142714171D01*
X117975017Y-142714171D02*
X117926636Y-142738361D01*
X117926636Y-142738361D02*
X117733112Y-142738361D01*
D11*
X127358611Y-121873190D02*
X127358611Y-122236047D01*
X127358611Y-122236047D02*
X126596611Y-122236047D01*
X127358611Y-121183761D02*
X126995754Y-121437761D01*
X127358611Y-121619190D02*
X126596611Y-121619190D01*
X126596611Y-121619190D02*
X126596611Y-121328904D01*
X126596611Y-121328904D02*
X126632897Y-121256333D01*
X126632897Y-121256333D02*
X126669183Y-121220047D01*
X126669183Y-121220047D02*
X126741754Y-121183761D01*
X126741754Y-121183761D02*
X126850611Y-121183761D01*
X126850611Y-121183761D02*
X126923183Y-121220047D01*
X126923183Y-121220047D02*
X126959468Y-121256333D01*
X126959468Y-121256333D02*
X126995754Y-121328904D01*
X126995754Y-121328904D02*
X126995754Y-121619190D01*
X127286040Y-120421761D02*
X127322326Y-120458047D01*
X127322326Y-120458047D02*
X127358611Y-120566904D01*
X127358611Y-120566904D02*
X127358611Y-120639476D01*
X127358611Y-120639476D02*
X127322326Y-120748333D01*
X127322326Y-120748333D02*
X127249754Y-120820904D01*
X127249754Y-120820904D02*
X127177183Y-120857190D01*
X127177183Y-120857190D02*
X127032040Y-120893476D01*
X127032040Y-120893476D02*
X126923183Y-120893476D01*
X126923183Y-120893476D02*
X126778040Y-120857190D01*
X126778040Y-120857190D02*
X126705468Y-120820904D01*
X126705468Y-120820904D02*
X126632897Y-120748333D01*
X126632897Y-120748333D02*
X126596611Y-120639476D01*
X126596611Y-120639476D02*
X126596611Y-120566904D01*
X126596611Y-120566904D02*
X126632897Y-120458047D01*
X126632897Y-120458047D02*
X126669183Y-120421761D01*
X127358611Y-119732333D02*
X127358611Y-120095190D01*
X127358611Y-120095190D02*
X126596611Y-120095190D01*
X127358611Y-119478333D02*
X126596611Y-119478333D01*
X127358611Y-119042904D02*
X126923183Y-119369476D01*
X126596611Y-119042904D02*
X127032040Y-119478333D01*
X126669183Y-118172048D02*
X126632897Y-118135762D01*
X126632897Y-118135762D02*
X126596611Y-118063191D01*
X126596611Y-118063191D02*
X126596611Y-117881762D01*
X126596611Y-117881762D02*
X126632897Y-117809191D01*
X126632897Y-117809191D02*
X126669183Y-117772905D01*
X126669183Y-117772905D02*
X126741754Y-117736619D01*
X126741754Y-117736619D02*
X126814326Y-117736619D01*
X126814326Y-117736619D02*
X126923183Y-117772905D01*
X126923183Y-117772905D02*
X127358611Y-118208333D01*
X127358611Y-118208333D02*
X127358611Y-117736619D01*
X126596611Y-117264905D02*
X126596611Y-117192334D01*
X126596611Y-117192334D02*
X126632897Y-117119762D01*
X126632897Y-117119762D02*
X126669183Y-117083477D01*
X126669183Y-117083477D02*
X126741754Y-117047191D01*
X126741754Y-117047191D02*
X126886897Y-117010905D01*
X126886897Y-117010905D02*
X127068326Y-117010905D01*
X127068326Y-117010905D02*
X127213468Y-117047191D01*
X127213468Y-117047191D02*
X127286040Y-117083477D01*
X127286040Y-117083477D02*
X127322326Y-117119762D01*
X127322326Y-117119762D02*
X127358611Y-117192334D01*
X127358611Y-117192334D02*
X127358611Y-117264905D01*
X127358611Y-117264905D02*
X127322326Y-117337477D01*
X127322326Y-117337477D02*
X127286040Y-117373762D01*
X127286040Y-117373762D02*
X127213468Y-117410048D01*
X127213468Y-117410048D02*
X127068326Y-117446334D01*
X127068326Y-117446334D02*
X126886897Y-117446334D01*
X126886897Y-117446334D02*
X126741754Y-117410048D01*
X126741754Y-117410048D02*
X126669183Y-117373762D01*
X126669183Y-117373762D02*
X126632897Y-117337477D01*
X126632897Y-117337477D02*
X126596611Y-117264905D01*
X120352457Y-110846071D02*
X120352457Y-110084071D01*
X120715314Y-110846071D02*
X120715314Y-110084071D01*
X120715314Y-110084071D02*
X121150743Y-110846071D01*
X121150743Y-110846071D02*
X121150743Y-110084071D01*
X139385511Y-120893476D02*
X140147511Y-120639476D01*
X140147511Y-120639476D02*
X139385511Y-120385476D01*
X139385511Y-119986333D02*
X139385511Y-119841190D01*
X139385511Y-119841190D02*
X139421797Y-119768619D01*
X139421797Y-119768619D02*
X139494368Y-119696047D01*
X139494368Y-119696047D02*
X139639511Y-119659762D01*
X139639511Y-119659762D02*
X139893511Y-119659762D01*
X139893511Y-119659762D02*
X140038654Y-119696047D01*
X140038654Y-119696047D02*
X140111226Y-119768619D01*
X140111226Y-119768619D02*
X140147511Y-119841190D01*
X140147511Y-119841190D02*
X140147511Y-119986333D01*
X140147511Y-119986333D02*
X140111226Y-120058905D01*
X140111226Y-120058905D02*
X140038654Y-120131476D01*
X140038654Y-120131476D02*
X139893511Y-120167762D01*
X139893511Y-120167762D02*
X139639511Y-120167762D01*
X139639511Y-120167762D02*
X139494368Y-120131476D01*
X139494368Y-120131476D02*
X139421797Y-120058905D01*
X139421797Y-120058905D02*
X139385511Y-119986333D01*
X140147511Y-118970333D02*
X140147511Y-119333190D01*
X140147511Y-119333190D02*
X139385511Y-119333190D01*
X140147511Y-117736619D02*
X140147511Y-118172048D01*
X140147511Y-117954333D02*
X139385511Y-117954333D01*
X139385511Y-117954333D02*
X139494368Y-118026905D01*
X139494368Y-118026905D02*
X139566940Y-118099476D01*
X139566940Y-118099476D02*
X139603226Y-118172048D01*
X139385511Y-117047191D02*
X139385511Y-117410048D01*
X139385511Y-117410048D02*
X139748368Y-117446334D01*
X139748368Y-117446334D02*
X139712083Y-117410048D01*
X139712083Y-117410048D02*
X139675797Y-117337477D01*
X139675797Y-117337477D02*
X139675797Y-117156048D01*
X139675797Y-117156048D02*
X139712083Y-117083477D01*
X139712083Y-117083477D02*
X139748368Y-117047191D01*
X139748368Y-117047191D02*
X139820940Y-117010905D01*
X139820940Y-117010905D02*
X140002368Y-117010905D01*
X140002368Y-117010905D02*
X140074940Y-117047191D01*
X140074940Y-117047191D02*
X140111226Y-117083477D01*
X140111226Y-117083477D02*
X140147511Y-117156048D01*
X140147511Y-117156048D02*
X140147511Y-117337477D01*
X140147511Y-117337477D02*
X140111226Y-117410048D01*
X140111226Y-117410048D02*
X140074940Y-117446334D01*
X140045911Y-128795718D02*
X140045911Y-129231147D01*
X140045911Y-129013432D02*
X139283911Y-129013432D01*
X139283911Y-129013432D02*
X139392768Y-129086004D01*
X139392768Y-129086004D02*
X139465340Y-129158575D01*
X139465340Y-129158575D02*
X139501626Y-129231147D01*
X139283911Y-128324004D02*
X139283911Y-128251433D01*
X139283911Y-128251433D02*
X139320197Y-128178861D01*
X139320197Y-128178861D02*
X139356483Y-128142576D01*
X139356483Y-128142576D02*
X139429054Y-128106290D01*
X139429054Y-128106290D02*
X139574197Y-128070004D01*
X139574197Y-128070004D02*
X139755626Y-128070004D01*
X139755626Y-128070004D02*
X139900768Y-128106290D01*
X139900768Y-128106290D02*
X139973340Y-128142576D01*
X139973340Y-128142576D02*
X140009626Y-128178861D01*
X140009626Y-128178861D02*
X140045911Y-128251433D01*
X140045911Y-128251433D02*
X140045911Y-128324004D01*
X140045911Y-128324004D02*
X140009626Y-128396576D01*
X140009626Y-128396576D02*
X139973340Y-128432861D01*
X139973340Y-128432861D02*
X139900768Y-128469147D01*
X139900768Y-128469147D02*
X139755626Y-128505433D01*
X139755626Y-128505433D02*
X139574197Y-128505433D01*
X139574197Y-128505433D02*
X139429054Y-128469147D01*
X139429054Y-128469147D02*
X139356483Y-128432861D01*
X139356483Y-128432861D02*
X139320197Y-128396576D01*
X139320197Y-128396576D02*
X139283911Y-128324004D01*
X140009626Y-127199148D02*
X140045911Y-127090291D01*
X140045911Y-127090291D02*
X140045911Y-126908862D01*
X140045911Y-126908862D02*
X140009626Y-126836291D01*
X140009626Y-126836291D02*
X139973340Y-126800005D01*
X139973340Y-126800005D02*
X139900768Y-126763719D01*
X139900768Y-126763719D02*
X139828197Y-126763719D01*
X139828197Y-126763719D02*
X139755626Y-126800005D01*
X139755626Y-126800005D02*
X139719340Y-126836291D01*
X139719340Y-126836291D02*
X139683054Y-126908862D01*
X139683054Y-126908862D02*
X139646768Y-127054005D01*
X139646768Y-127054005D02*
X139610483Y-127126576D01*
X139610483Y-127126576D02*
X139574197Y-127162862D01*
X139574197Y-127162862D02*
X139501626Y-127199148D01*
X139501626Y-127199148D02*
X139429054Y-127199148D01*
X139429054Y-127199148D02*
X139356483Y-127162862D01*
X139356483Y-127162862D02*
X139320197Y-127126576D01*
X139320197Y-127126576D02*
X139283911Y-127054005D01*
X139283911Y-127054005D02*
X139283911Y-126872576D01*
X139283911Y-126872576D02*
X139320197Y-126763719D01*
X140045911Y-126437148D02*
X139283911Y-126437148D01*
X139283911Y-126437148D02*
X139283911Y-126255719D01*
X139283911Y-126255719D02*
X139320197Y-126146862D01*
X139320197Y-126146862D02*
X139392768Y-126074291D01*
X139392768Y-126074291D02*
X139465340Y-126038005D01*
X139465340Y-126038005D02*
X139610483Y-126001719D01*
X139610483Y-126001719D02*
X139719340Y-126001719D01*
X139719340Y-126001719D02*
X139864483Y-126038005D01*
X139864483Y-126038005D02*
X139937054Y-126074291D01*
X139937054Y-126074291D02*
X140009626Y-126146862D01*
X140009626Y-126146862D02*
X140045911Y-126255719D01*
X140045911Y-126255719D02*
X140045911Y-126437148D01*
X139973340Y-125239719D02*
X140009626Y-125276005D01*
X140009626Y-125276005D02*
X140045911Y-125384862D01*
X140045911Y-125384862D02*
X140045911Y-125457434D01*
X140045911Y-125457434D02*
X140009626Y-125566291D01*
X140009626Y-125566291D02*
X139937054Y-125638862D01*
X139937054Y-125638862D02*
X139864483Y-125675148D01*
X139864483Y-125675148D02*
X139719340Y-125711434D01*
X139719340Y-125711434D02*
X139610483Y-125711434D01*
X139610483Y-125711434D02*
X139465340Y-125675148D01*
X139465340Y-125675148D02*
X139392768Y-125638862D01*
X139392768Y-125638862D02*
X139320197Y-125566291D01*
X139320197Y-125566291D02*
X139283911Y-125457434D01*
X139283911Y-125457434D02*
X139283911Y-125384862D01*
X139283911Y-125384862D02*
X139320197Y-125276005D01*
X139320197Y-125276005D02*
X139356483Y-125239719D01*
X140009626Y-124949434D02*
X140045911Y-124840577D01*
X140045911Y-124840577D02*
X140045911Y-124659148D01*
X140045911Y-124659148D02*
X140009626Y-124586577D01*
X140009626Y-124586577D02*
X139973340Y-124550291D01*
X139973340Y-124550291D02*
X139900768Y-124514005D01*
X139900768Y-124514005D02*
X139828197Y-124514005D01*
X139828197Y-124514005D02*
X139755626Y-124550291D01*
X139755626Y-124550291D02*
X139719340Y-124586577D01*
X139719340Y-124586577D02*
X139683054Y-124659148D01*
X139683054Y-124659148D02*
X139646768Y-124804291D01*
X139646768Y-124804291D02*
X139610483Y-124876862D01*
X139610483Y-124876862D02*
X139574197Y-124913148D01*
X139574197Y-124913148D02*
X139501626Y-124949434D01*
X139501626Y-124949434D02*
X139429054Y-124949434D01*
X139429054Y-124949434D02*
X139356483Y-124913148D01*
X139356483Y-124913148D02*
X139320197Y-124876862D01*
X139320197Y-124876862D02*
X139283911Y-124804291D01*
X139283911Y-124804291D02*
X139283911Y-124622862D01*
X139283911Y-124622862D02*
X139320197Y-124514005D01*
X111161031Y-117627762D02*
X111161031Y-117990619D01*
X111161031Y-117990619D02*
X111523888Y-118026905D01*
X111523888Y-118026905D02*
X111487603Y-117990619D01*
X111487603Y-117990619D02*
X111451317Y-117918048D01*
X111451317Y-117918048D02*
X111451317Y-117736619D01*
X111451317Y-117736619D02*
X111487603Y-117664048D01*
X111487603Y-117664048D02*
X111523888Y-117627762D01*
X111523888Y-117627762D02*
X111596460Y-117591476D01*
X111596460Y-117591476D02*
X111777888Y-117591476D01*
X111777888Y-117591476D02*
X111850460Y-117627762D01*
X111850460Y-117627762D02*
X111886746Y-117664048D01*
X111886746Y-117664048D02*
X111923031Y-117736619D01*
X111923031Y-117736619D02*
X111923031Y-117918048D01*
X111923031Y-117918048D02*
X111886746Y-117990619D01*
X111886746Y-117990619D02*
X111850460Y-118026905D01*
X111415031Y-117337476D02*
X111923031Y-117156048D01*
X111923031Y-117156048D02*
X111415031Y-116974619D01*
X134586363Y-129086005D02*
X134550077Y-129158576D01*
X134550077Y-129158576D02*
X134513791Y-129194862D01*
X134513791Y-129194862D02*
X134441220Y-129231148D01*
X134441220Y-129231148D02*
X134404934Y-129231148D01*
X134404934Y-129231148D02*
X134332363Y-129194862D01*
X134332363Y-129194862D02*
X134296077Y-129158576D01*
X134296077Y-129158576D02*
X134259791Y-129086005D01*
X134259791Y-129086005D02*
X134259791Y-128940862D01*
X134259791Y-128940862D02*
X134296077Y-128868291D01*
X134296077Y-128868291D02*
X134332363Y-128832005D01*
X134332363Y-128832005D02*
X134404934Y-128795719D01*
X134404934Y-128795719D02*
X134441220Y-128795719D01*
X134441220Y-128795719D02*
X134513791Y-128832005D01*
X134513791Y-128832005D02*
X134550077Y-128868291D01*
X134550077Y-128868291D02*
X134586363Y-128940862D01*
X134586363Y-128940862D02*
X134586363Y-129086005D01*
X134586363Y-129086005D02*
X134622648Y-129158576D01*
X134622648Y-129158576D02*
X134658934Y-129194862D01*
X134658934Y-129194862D02*
X134731506Y-129231148D01*
X134731506Y-129231148D02*
X134876648Y-129231148D01*
X134876648Y-129231148D02*
X134949220Y-129194862D01*
X134949220Y-129194862D02*
X134985506Y-129158576D01*
X134985506Y-129158576D02*
X135021791Y-129086005D01*
X135021791Y-129086005D02*
X135021791Y-128940862D01*
X135021791Y-128940862D02*
X134985506Y-128868291D01*
X134985506Y-128868291D02*
X134949220Y-128832005D01*
X134949220Y-128832005D02*
X134876648Y-128795719D01*
X134876648Y-128795719D02*
X134731506Y-128795719D01*
X134731506Y-128795719D02*
X134658934Y-128832005D01*
X134658934Y-128832005D02*
X134622648Y-128868291D01*
X134622648Y-128868291D02*
X134586363Y-128940862D01*
X135021791Y-127888577D02*
X134259791Y-127888577D01*
X134259791Y-127888577D02*
X134259791Y-127707148D01*
X134259791Y-127707148D02*
X134296077Y-127598291D01*
X134296077Y-127598291D02*
X134368648Y-127525720D01*
X134368648Y-127525720D02*
X134441220Y-127489434D01*
X134441220Y-127489434D02*
X134586363Y-127453148D01*
X134586363Y-127453148D02*
X134695220Y-127453148D01*
X134695220Y-127453148D02*
X134840363Y-127489434D01*
X134840363Y-127489434D02*
X134912934Y-127525720D01*
X134912934Y-127525720D02*
X134985506Y-127598291D01*
X134985506Y-127598291D02*
X135021791Y-127707148D01*
X135021791Y-127707148D02*
X135021791Y-127888577D01*
X134259791Y-126981434D02*
X134259791Y-126836291D01*
X134259791Y-126836291D02*
X134296077Y-126763720D01*
X134296077Y-126763720D02*
X134368648Y-126691148D01*
X134368648Y-126691148D02*
X134513791Y-126654863D01*
X134513791Y-126654863D02*
X134767791Y-126654863D01*
X134767791Y-126654863D02*
X134912934Y-126691148D01*
X134912934Y-126691148D02*
X134985506Y-126763720D01*
X134985506Y-126763720D02*
X135021791Y-126836291D01*
X135021791Y-126836291D02*
X135021791Y-126981434D01*
X135021791Y-126981434D02*
X134985506Y-127054006D01*
X134985506Y-127054006D02*
X134912934Y-127126577D01*
X134912934Y-127126577D02*
X134767791Y-127162863D01*
X134767791Y-127162863D02*
X134513791Y-127162863D01*
X134513791Y-127162863D02*
X134368648Y-127126577D01*
X134368648Y-127126577D02*
X134296077Y-127054006D01*
X134296077Y-127054006D02*
X134259791Y-126981434D01*
X134259791Y-126328291D02*
X134876648Y-126328291D01*
X134876648Y-126328291D02*
X134949220Y-126292005D01*
X134949220Y-126292005D02*
X134985506Y-126255720D01*
X134985506Y-126255720D02*
X135021791Y-126183148D01*
X135021791Y-126183148D02*
X135021791Y-126038005D01*
X135021791Y-126038005D02*
X134985506Y-125965434D01*
X134985506Y-125965434D02*
X134949220Y-125929148D01*
X134949220Y-125929148D02*
X134876648Y-125892862D01*
X134876648Y-125892862D02*
X134259791Y-125892862D01*
X134259791Y-125638862D02*
X134259791Y-125203434D01*
X135021791Y-125421148D02*
X134259791Y-125421148D01*
D12*
X120695478Y-142980266D02*
X120453573Y-142980266D01*
X120453573Y-142980266D02*
X120453573Y-142472266D01*
D11*
X113823677Y-117047191D02*
X113787391Y-117119763D01*
X113787391Y-117119763D02*
X113787391Y-117228620D01*
X113787391Y-117228620D02*
X113823677Y-117337477D01*
X113823677Y-117337477D02*
X113896248Y-117410048D01*
X113896248Y-117410048D02*
X113968820Y-117446334D01*
X113968820Y-117446334D02*
X114113963Y-117482620D01*
X114113963Y-117482620D02*
X114222820Y-117482620D01*
X114222820Y-117482620D02*
X114367963Y-117446334D01*
X114367963Y-117446334D02*
X114440534Y-117410048D01*
X114440534Y-117410048D02*
X114513106Y-117337477D01*
X114513106Y-117337477D02*
X114549391Y-117228620D01*
X114549391Y-117228620D02*
X114549391Y-117156048D01*
X114549391Y-117156048D02*
X114513106Y-117047191D01*
X114513106Y-117047191D02*
X114476820Y-117010905D01*
X114476820Y-117010905D02*
X114222820Y-117010905D01*
X114222820Y-117010905D02*
X114222820Y-117156048D01*
X127285931Y-107645671D02*
X126923074Y-107645671D01*
X126923074Y-107645671D02*
X126923074Y-106883671D01*
X127539931Y-107645671D02*
X127539931Y-106883671D01*
X127902788Y-107645671D02*
X127902788Y-106883671D01*
X127902788Y-106883671D02*
X128338217Y-107645671D01*
X128338217Y-107645671D02*
X128338217Y-106883671D01*
X128701074Y-107246528D02*
X128955074Y-107246528D01*
X129063931Y-107645671D02*
X128701074Y-107645671D01*
X128701074Y-107645671D02*
X128701074Y-106883671D01*
X128701074Y-106883671D02*
X129063931Y-106883671D01*
X142430971Y-128795718D02*
X142430971Y-129231147D01*
X142430971Y-129013432D02*
X141668971Y-129013432D01*
X141668971Y-129013432D02*
X141777828Y-129086004D01*
X141777828Y-129086004D02*
X141850400Y-129158575D01*
X141850400Y-129158575D02*
X141886686Y-129231147D01*
X142430971Y-128070004D02*
X142430971Y-128505433D01*
X142430971Y-128287718D02*
X141668971Y-128287718D01*
X141668971Y-128287718D02*
X141777828Y-128360290D01*
X141777828Y-128360290D02*
X141850400Y-128432861D01*
X141850400Y-128432861D02*
X141886686Y-128505433D01*
X142430971Y-127162862D02*
X141668971Y-127162862D01*
X141668971Y-127162862D02*
X142213257Y-126908862D01*
X142213257Y-126908862D02*
X141668971Y-126654862D01*
X141668971Y-126654862D02*
X142430971Y-126654862D01*
X141668971Y-126146862D02*
X141668971Y-126001719D01*
X141668971Y-126001719D02*
X141705257Y-125929148D01*
X141705257Y-125929148D02*
X141777828Y-125856576D01*
X141777828Y-125856576D02*
X141922971Y-125820291D01*
X141922971Y-125820291D02*
X142176971Y-125820291D01*
X142176971Y-125820291D02*
X142322114Y-125856576D01*
X142322114Y-125856576D02*
X142394686Y-125929148D01*
X142394686Y-125929148D02*
X142430971Y-126001719D01*
X142430971Y-126001719D02*
X142430971Y-126146862D01*
X142430971Y-126146862D02*
X142394686Y-126219434D01*
X142394686Y-126219434D02*
X142322114Y-126292005D01*
X142322114Y-126292005D02*
X142176971Y-126328291D01*
X142176971Y-126328291D02*
X141922971Y-126328291D01*
X141922971Y-126328291D02*
X141777828Y-126292005D01*
X141777828Y-126292005D02*
X141705257Y-126219434D01*
X141705257Y-126219434D02*
X141668971Y-126146862D01*
X142394686Y-125530005D02*
X142430971Y-125421148D01*
X142430971Y-125421148D02*
X142430971Y-125239719D01*
X142430971Y-125239719D02*
X142394686Y-125167148D01*
X142394686Y-125167148D02*
X142358400Y-125130862D01*
X142358400Y-125130862D02*
X142285828Y-125094576D01*
X142285828Y-125094576D02*
X142213257Y-125094576D01*
X142213257Y-125094576D02*
X142140686Y-125130862D01*
X142140686Y-125130862D02*
X142104400Y-125167148D01*
X142104400Y-125167148D02*
X142068114Y-125239719D01*
X142068114Y-125239719D02*
X142031828Y-125384862D01*
X142031828Y-125384862D02*
X141995543Y-125457433D01*
X141995543Y-125457433D02*
X141959257Y-125493719D01*
X141959257Y-125493719D02*
X141886686Y-125530005D01*
X141886686Y-125530005D02*
X141814114Y-125530005D01*
X141814114Y-125530005D02*
X141741543Y-125493719D01*
X141741543Y-125493719D02*
X141705257Y-125457433D01*
X141705257Y-125457433D02*
X141668971Y-125384862D01*
X141668971Y-125384862D02*
X141668971Y-125203433D01*
X141668971Y-125203433D02*
X141705257Y-125094576D01*
X142430971Y-124768005D02*
X141668971Y-124768005D01*
X137875918Y-138633671D02*
X138129918Y-139395671D01*
X138129918Y-139395671D02*
X138383918Y-138633671D01*
X138783061Y-138633671D02*
X138928204Y-138633671D01*
X138928204Y-138633671D02*
X139000775Y-138669957D01*
X139000775Y-138669957D02*
X139073347Y-138742528D01*
X139073347Y-138742528D02*
X139109632Y-138887671D01*
X139109632Y-138887671D02*
X139109632Y-139141671D01*
X139109632Y-139141671D02*
X139073347Y-139286814D01*
X139073347Y-139286814D02*
X139000775Y-139359386D01*
X139000775Y-139359386D02*
X138928204Y-139395671D01*
X138928204Y-139395671D02*
X138783061Y-139395671D01*
X138783061Y-139395671D02*
X138710490Y-139359386D01*
X138710490Y-139359386D02*
X138637918Y-139286814D01*
X138637918Y-139286814D02*
X138601632Y-139141671D01*
X138601632Y-139141671D02*
X138601632Y-138887671D01*
X138601632Y-138887671D02*
X138637918Y-138742528D01*
X138637918Y-138742528D02*
X138710490Y-138669957D01*
X138710490Y-138669957D02*
X138783061Y-138633671D01*
X139799061Y-139395671D02*
X139436204Y-139395671D01*
X139436204Y-139395671D02*
X139436204Y-138633671D01*
X141032775Y-139395671D02*
X140597346Y-139395671D01*
X140815061Y-139395671D02*
X140815061Y-138633671D01*
X140815061Y-138633671D02*
X140742489Y-138742528D01*
X140742489Y-138742528D02*
X140669918Y-138815100D01*
X140669918Y-138815100D02*
X140597346Y-138851386D01*
X141722203Y-138633671D02*
X141359346Y-138633671D01*
X141359346Y-138633671D02*
X141323060Y-138996528D01*
X141323060Y-138996528D02*
X141359346Y-138960243D01*
X141359346Y-138960243D02*
X141431918Y-138923957D01*
X141431918Y-138923957D02*
X141613346Y-138923957D01*
X141613346Y-138923957D02*
X141685918Y-138960243D01*
X141685918Y-138960243D02*
X141722203Y-138996528D01*
X141722203Y-138996528D02*
X141758489Y-139069100D01*
X141758489Y-139069100D02*
X141758489Y-139250528D01*
X141758489Y-139250528D02*
X141722203Y-139323100D01*
X141722203Y-139323100D02*
X141685918Y-139359386D01*
X141685918Y-139359386D02*
X141613346Y-139395671D01*
X141613346Y-139395671D02*
X141431918Y-139395671D01*
X141431918Y-139395671D02*
X141359346Y-139359386D01*
X141359346Y-139359386D02*
X141323060Y-139323100D01*
X131569931Y-129267433D02*
X131569931Y-128759433D01*
X131569931Y-128759433D02*
X132331931Y-129086005D01*
X132331931Y-127888577D02*
X131569931Y-127888577D01*
X131569931Y-127888577D02*
X131569931Y-127707148D01*
X131569931Y-127707148D02*
X131606217Y-127598291D01*
X131606217Y-127598291D02*
X131678788Y-127525720D01*
X131678788Y-127525720D02*
X131751360Y-127489434D01*
X131751360Y-127489434D02*
X131896503Y-127453148D01*
X131896503Y-127453148D02*
X132005360Y-127453148D01*
X132005360Y-127453148D02*
X132150503Y-127489434D01*
X132150503Y-127489434D02*
X132223074Y-127525720D01*
X132223074Y-127525720D02*
X132295646Y-127598291D01*
X132295646Y-127598291D02*
X132331931Y-127707148D01*
X132331931Y-127707148D02*
X132331931Y-127888577D01*
X132331931Y-127126577D02*
X131569931Y-127126577D01*
X132331931Y-126763720D02*
X131569931Y-126763720D01*
X131569931Y-126763720D02*
X132331931Y-126328291D01*
X132331931Y-126328291D02*
X131569931Y-126328291D01*
X129808986Y-120857191D02*
X129845271Y-120748334D01*
X129845271Y-120748334D02*
X129845271Y-120566905D01*
X129845271Y-120566905D02*
X129808986Y-120494334D01*
X129808986Y-120494334D02*
X129772700Y-120458048D01*
X129772700Y-120458048D02*
X129700128Y-120421762D01*
X129700128Y-120421762D02*
X129627557Y-120421762D01*
X129627557Y-120421762D02*
X129554986Y-120458048D01*
X129554986Y-120458048D02*
X129518700Y-120494334D01*
X129518700Y-120494334D02*
X129482414Y-120566905D01*
X129482414Y-120566905D02*
X129446128Y-120712048D01*
X129446128Y-120712048D02*
X129409843Y-120784619D01*
X129409843Y-120784619D02*
X129373557Y-120820905D01*
X129373557Y-120820905D02*
X129300986Y-120857191D01*
X129300986Y-120857191D02*
X129228414Y-120857191D01*
X129228414Y-120857191D02*
X129155843Y-120820905D01*
X129155843Y-120820905D02*
X129119557Y-120784619D01*
X129119557Y-120784619D02*
X129083271Y-120712048D01*
X129083271Y-120712048D02*
X129083271Y-120530619D01*
X129083271Y-120530619D02*
X129119557Y-120421762D01*
X129772700Y-119659762D02*
X129808986Y-119696048D01*
X129808986Y-119696048D02*
X129845271Y-119804905D01*
X129845271Y-119804905D02*
X129845271Y-119877477D01*
X129845271Y-119877477D02*
X129808986Y-119986334D01*
X129808986Y-119986334D02*
X129736414Y-120058905D01*
X129736414Y-120058905D02*
X129663843Y-120095191D01*
X129663843Y-120095191D02*
X129518700Y-120131477D01*
X129518700Y-120131477D02*
X129409843Y-120131477D01*
X129409843Y-120131477D02*
X129264700Y-120095191D01*
X129264700Y-120095191D02*
X129192128Y-120058905D01*
X129192128Y-120058905D02*
X129119557Y-119986334D01*
X129119557Y-119986334D02*
X129083271Y-119877477D01*
X129083271Y-119877477D02*
X129083271Y-119804905D01*
X129083271Y-119804905D02*
X129119557Y-119696048D01*
X129119557Y-119696048D02*
X129155843Y-119659762D01*
X129845271Y-118970334D02*
X129845271Y-119333191D01*
X129845271Y-119333191D02*
X129083271Y-119333191D01*
X129845271Y-117736620D02*
X129845271Y-118172049D01*
X129845271Y-117954334D02*
X129083271Y-117954334D01*
X129083271Y-117954334D02*
X129192128Y-118026906D01*
X129192128Y-118026906D02*
X129264700Y-118099477D01*
X129264700Y-118099477D02*
X129300986Y-118172049D01*
X129845271Y-117373763D02*
X129845271Y-117228620D01*
X129845271Y-117228620D02*
X129808986Y-117156049D01*
X129808986Y-117156049D02*
X129772700Y-117119763D01*
X129772700Y-117119763D02*
X129663843Y-117047192D01*
X129663843Y-117047192D02*
X129518700Y-117010906D01*
X129518700Y-117010906D02*
X129228414Y-117010906D01*
X129228414Y-117010906D02*
X129155843Y-117047192D01*
X129155843Y-117047192D02*
X129119557Y-117083478D01*
X129119557Y-117083478D02*
X129083271Y-117156049D01*
X129083271Y-117156049D02*
X129083271Y-117301192D01*
X129083271Y-117301192D02*
X129119557Y-117373763D01*
X129119557Y-117373763D02*
X129155843Y-117410049D01*
X129155843Y-117410049D02*
X129228414Y-117446335D01*
X129228414Y-117446335D02*
X129409843Y-117446335D01*
X129409843Y-117446335D02*
X129482414Y-117410049D01*
X129482414Y-117410049D02*
X129518700Y-117373763D01*
X129518700Y-117373763D02*
X129554986Y-117301192D01*
X129554986Y-117301192D02*
X129554986Y-117156049D01*
X129554986Y-117156049D02*
X129518700Y-117083478D01*
X129518700Y-117083478D02*
X129482414Y-117047192D01*
X129482414Y-117047192D02*
X129409843Y-117010906D01*
X113040885Y-121003531D02*
X113040885Y-120241531D01*
X113040885Y-120241531D02*
X113294885Y-120785817D01*
X113294885Y-120785817D02*
X113548885Y-120241531D01*
X113548885Y-120241531D02*
X113548885Y-121003531D01*
X113911742Y-121003531D02*
X113911742Y-120241531D01*
X114710028Y-120930960D02*
X114673742Y-120967246D01*
X114673742Y-120967246D02*
X114564885Y-121003531D01*
X114564885Y-121003531D02*
X114492313Y-121003531D01*
X114492313Y-121003531D02*
X114383456Y-120967246D01*
X114383456Y-120967246D02*
X114310885Y-120894674D01*
X114310885Y-120894674D02*
X114274599Y-120822103D01*
X114274599Y-120822103D02*
X114238313Y-120676960D01*
X114238313Y-120676960D02*
X114238313Y-120568103D01*
X114238313Y-120568103D02*
X114274599Y-120422960D01*
X114274599Y-120422960D02*
X114310885Y-120350388D01*
X114310885Y-120350388D02*
X114383456Y-120277817D01*
X114383456Y-120277817D02*
X114492313Y-120241531D01*
X114492313Y-120241531D02*
X114564885Y-120241531D01*
X114564885Y-120241531D02*
X114673742Y-120277817D01*
X114673742Y-120277817D02*
X114710028Y-120314103D01*
X113440028Y-122866077D02*
X113367457Y-122829791D01*
X113367457Y-122829791D02*
X113258599Y-122829791D01*
X113258599Y-122829791D02*
X113149742Y-122866077D01*
X113149742Y-122866077D02*
X113077171Y-122938648D01*
X113077171Y-122938648D02*
X113040885Y-123011220D01*
X113040885Y-123011220D02*
X113004599Y-123156363D01*
X113004599Y-123156363D02*
X113004599Y-123265220D01*
X113004599Y-123265220D02*
X113040885Y-123410363D01*
X113040885Y-123410363D02*
X113077171Y-123482934D01*
X113077171Y-123482934D02*
X113149742Y-123555506D01*
X113149742Y-123555506D02*
X113258599Y-123591791D01*
X113258599Y-123591791D02*
X113331171Y-123591791D01*
X113331171Y-123591791D02*
X113440028Y-123555506D01*
X113440028Y-123555506D02*
X113476314Y-123519220D01*
X113476314Y-123519220D02*
X113476314Y-123265220D01*
X113476314Y-123265220D02*
X113331171Y-123265220D01*
X113802885Y-123591791D02*
X113802885Y-122829791D01*
X113802885Y-122829791D02*
X114238314Y-123591791D01*
X114238314Y-123591791D02*
X114238314Y-122829791D01*
X114601171Y-123591791D02*
X114601171Y-122829791D01*
X114601171Y-122829791D02*
X114782600Y-122829791D01*
X114782600Y-122829791D02*
X114891457Y-122866077D01*
X114891457Y-122866077D02*
X114964028Y-122938648D01*
X114964028Y-122938648D02*
X115000314Y-123011220D01*
X115000314Y-123011220D02*
X115036600Y-123156363D01*
X115036600Y-123156363D02*
X115036600Y-123265220D01*
X115036600Y-123265220D02*
X115000314Y-123410363D01*
X115000314Y-123410363D02*
X114964028Y-123482934D01*
X114964028Y-123482934D02*
X114891457Y-123555506D01*
X114891457Y-123555506D02*
X114782600Y-123591791D01*
X114782600Y-123591791D02*
X114601171Y-123591791D01*
X130882571Y-113285197D02*
X130810000Y-113248911D01*
X130810000Y-113248911D02*
X130701142Y-113248911D01*
X130701142Y-113248911D02*
X130592285Y-113285197D01*
X130592285Y-113285197D02*
X130519714Y-113357768D01*
X130519714Y-113357768D02*
X130483428Y-113430340D01*
X130483428Y-113430340D02*
X130447142Y-113575483D01*
X130447142Y-113575483D02*
X130447142Y-113684340D01*
X130447142Y-113684340D02*
X130483428Y-113829483D01*
X130483428Y-113829483D02*
X130519714Y-113902054D01*
X130519714Y-113902054D02*
X130592285Y-113974626D01*
X130592285Y-113974626D02*
X130701142Y-114010911D01*
X130701142Y-114010911D02*
X130773714Y-114010911D01*
X130773714Y-114010911D02*
X130882571Y-113974626D01*
X130882571Y-113974626D02*
X130918857Y-113938340D01*
X130918857Y-113938340D02*
X130918857Y-113684340D01*
X130918857Y-113684340D02*
X130773714Y-113684340D01*
D10*
X151013095Y-109529819D02*
X151013095Y-108529819D01*
X151013095Y-109006009D02*
X151584523Y-109006009D01*
X151584523Y-109529819D02*
X151584523Y-108529819D01*
X152203571Y-109529819D02*
X152108333Y-109482200D01*
X152108333Y-109482200D02*
X152060714Y-109434580D01*
X152060714Y-109434580D02*
X152013095Y-109339342D01*
X152013095Y-109339342D02*
X152013095Y-109053628D01*
X152013095Y-109053628D02*
X152060714Y-108958390D01*
X152060714Y-108958390D02*
X152108333Y-108910771D01*
X152108333Y-108910771D02*
X152203571Y-108863152D01*
X152203571Y-108863152D02*
X152346428Y-108863152D01*
X152346428Y-108863152D02*
X152441666Y-108910771D01*
X152441666Y-108910771D02*
X152489285Y-108958390D01*
X152489285Y-108958390D02*
X152536904Y-109053628D01*
X152536904Y-109053628D02*
X152536904Y-109339342D01*
X152536904Y-109339342D02*
X152489285Y-109434580D01*
X152489285Y-109434580D02*
X152441666Y-109482200D01*
X152441666Y-109482200D02*
X152346428Y-109529819D01*
X152346428Y-109529819D02*
X152203571Y-109529819D01*
X152965476Y-109529819D02*
X152965476Y-108863152D01*
X152965476Y-108958390D02*
X153013095Y-108910771D01*
X153013095Y-108910771D02*
X153108333Y-108863152D01*
X153108333Y-108863152D02*
X153251190Y-108863152D01*
X153251190Y-108863152D02*
X153346428Y-108910771D01*
X153346428Y-108910771D02*
X153394047Y-109006009D01*
X153394047Y-109006009D02*
X153394047Y-109529819D01*
X153394047Y-109006009D02*
X153441666Y-108910771D01*
X153441666Y-108910771D02*
X153536904Y-108863152D01*
X153536904Y-108863152D02*
X153679761Y-108863152D01*
X153679761Y-108863152D02*
X153775000Y-108910771D01*
X153775000Y-108910771D02*
X153822619Y-109006009D01*
X153822619Y-109006009D02*
X153822619Y-109529819D01*
X154679761Y-109482200D02*
X154584523Y-109529819D01*
X154584523Y-109529819D02*
X154394047Y-109529819D01*
X154394047Y-109529819D02*
X154298809Y-109482200D01*
X154298809Y-109482200D02*
X154251190Y-109386961D01*
X154251190Y-109386961D02*
X154251190Y-109006009D01*
X154251190Y-109006009D02*
X154298809Y-108910771D01*
X154298809Y-108910771D02*
X154394047Y-108863152D01*
X154394047Y-108863152D02*
X154584523Y-108863152D01*
X154584523Y-108863152D02*
X154679761Y-108910771D01*
X154679761Y-108910771D02*
X154727380Y-109006009D01*
X154727380Y-109006009D02*
X154727380Y-109101247D01*
X154727380Y-109101247D02*
X154251190Y-109196485D01*
X155870238Y-109482200D02*
X156013095Y-109529819D01*
X156013095Y-109529819D02*
X156251190Y-109529819D01*
X156251190Y-109529819D02*
X156346428Y-109482200D01*
X156346428Y-109482200D02*
X156394047Y-109434580D01*
X156394047Y-109434580D02*
X156441666Y-109339342D01*
X156441666Y-109339342D02*
X156441666Y-109244104D01*
X156441666Y-109244104D02*
X156394047Y-109148866D01*
X156394047Y-109148866D02*
X156346428Y-109101247D01*
X156346428Y-109101247D02*
X156251190Y-109053628D01*
X156251190Y-109053628D02*
X156060714Y-109006009D01*
X156060714Y-109006009D02*
X155965476Y-108958390D01*
X155965476Y-108958390D02*
X155917857Y-108910771D01*
X155917857Y-108910771D02*
X155870238Y-108815533D01*
X155870238Y-108815533D02*
X155870238Y-108720295D01*
X155870238Y-108720295D02*
X155917857Y-108625057D01*
X155917857Y-108625057D02*
X155965476Y-108577438D01*
X155965476Y-108577438D02*
X156060714Y-108529819D01*
X156060714Y-108529819D02*
X156298809Y-108529819D01*
X156298809Y-108529819D02*
X156441666Y-108577438D01*
X156775000Y-108529819D02*
X157013095Y-109529819D01*
X157013095Y-109529819D02*
X157203571Y-108815533D01*
X157203571Y-108815533D02*
X157394047Y-109529819D01*
X157394047Y-109529819D02*
X157632143Y-108529819D01*
X149041667Y-111932200D02*
X149184524Y-111979819D01*
X149184524Y-111979819D02*
X149422619Y-111979819D01*
X149422619Y-111979819D02*
X149517857Y-111932200D01*
X149517857Y-111932200D02*
X149565476Y-111884580D01*
X149565476Y-111884580D02*
X149613095Y-111789342D01*
X149613095Y-111789342D02*
X149613095Y-111694104D01*
X149613095Y-111694104D02*
X149565476Y-111598866D01*
X149565476Y-111598866D02*
X149517857Y-111551247D01*
X149517857Y-111551247D02*
X149422619Y-111503628D01*
X149422619Y-111503628D02*
X149232143Y-111456009D01*
X149232143Y-111456009D02*
X149136905Y-111408390D01*
X149136905Y-111408390D02*
X149089286Y-111360771D01*
X149089286Y-111360771D02*
X149041667Y-111265533D01*
X149041667Y-111265533D02*
X149041667Y-111170295D01*
X149041667Y-111170295D02*
X149089286Y-111075057D01*
X149089286Y-111075057D02*
X149136905Y-111027438D01*
X149136905Y-111027438D02*
X149232143Y-110979819D01*
X149232143Y-110979819D02*
X149470238Y-110979819D01*
X149470238Y-110979819D02*
X149613095Y-111027438D01*
X149946429Y-110979819D02*
X150184524Y-111979819D01*
X150184524Y-111979819D02*
X150375000Y-111265533D01*
X150375000Y-111265533D02*
X150565476Y-111979819D01*
X150565476Y-111979819D02*
X150803572Y-110979819D01*
X151136905Y-111075057D02*
X151184524Y-111027438D01*
X151184524Y-111027438D02*
X151279762Y-110979819D01*
X151279762Y-110979819D02*
X151517857Y-110979819D01*
X151517857Y-110979819D02*
X151613095Y-111027438D01*
X151613095Y-111027438D02*
X151660714Y-111075057D01*
X151660714Y-111075057D02*
X151708333Y-111170295D01*
X151708333Y-111170295D02*
X151708333Y-111265533D01*
X151708333Y-111265533D02*
X151660714Y-111408390D01*
X151660714Y-111408390D02*
X151089286Y-111979819D01*
X151089286Y-111979819D02*
X151708333Y-111979819D01*
X102534819Y-134758380D02*
X101534819Y-134758380D01*
X101534819Y-134758380D02*
X102249104Y-134425047D01*
X102249104Y-134425047D02*
X101534819Y-134091714D01*
X101534819Y-134091714D02*
X102534819Y-134091714D01*
X102249104Y-133663142D02*
X102249104Y-133186952D01*
X102534819Y-133758380D02*
X101534819Y-133425047D01*
X101534819Y-133425047D02*
X102534819Y-133091714D01*
X102534819Y-132758380D02*
X101534819Y-132758380D01*
X102534819Y-132282190D02*
X101534819Y-132282190D01*
X101534819Y-132282190D02*
X102534819Y-131710762D01*
X102534819Y-131710762D02*
X101534819Y-131710762D01*
X102487200Y-130520285D02*
X102534819Y-130377428D01*
X102534819Y-130377428D02*
X102534819Y-130139333D01*
X102534819Y-130139333D02*
X102487200Y-130044095D01*
X102487200Y-130044095D02*
X102439580Y-129996476D01*
X102439580Y-129996476D02*
X102344342Y-129948857D01*
X102344342Y-129948857D02*
X102249104Y-129948857D01*
X102249104Y-129948857D02*
X102153866Y-129996476D01*
X102153866Y-129996476D02*
X102106247Y-130044095D01*
X102106247Y-130044095D02*
X102058628Y-130139333D01*
X102058628Y-130139333D02*
X102011009Y-130329809D01*
X102011009Y-130329809D02*
X101963390Y-130425047D01*
X101963390Y-130425047D02*
X101915771Y-130472666D01*
X101915771Y-130472666D02*
X101820533Y-130520285D01*
X101820533Y-130520285D02*
X101725295Y-130520285D01*
X101725295Y-130520285D02*
X101630057Y-130472666D01*
X101630057Y-130472666D02*
X101582438Y-130425047D01*
X101582438Y-130425047D02*
X101534819Y-130329809D01*
X101534819Y-130329809D02*
X101534819Y-130091714D01*
X101534819Y-130091714D02*
X101582438Y-129948857D01*
X101534819Y-129615523D02*
X102534819Y-129377428D01*
X102534819Y-129377428D02*
X101820533Y-129186952D01*
X101820533Y-129186952D02*
X102534819Y-128996476D01*
X102534819Y-128996476D02*
X101534819Y-128758381D01*
X101132200Y-133158332D02*
X101179819Y-133015475D01*
X101179819Y-133015475D02*
X101179819Y-132777380D01*
X101179819Y-132777380D02*
X101132200Y-132682142D01*
X101132200Y-132682142D02*
X101084580Y-132634523D01*
X101084580Y-132634523D02*
X100989342Y-132586904D01*
X100989342Y-132586904D02*
X100894104Y-132586904D01*
X100894104Y-132586904D02*
X100798866Y-132634523D01*
X100798866Y-132634523D02*
X100751247Y-132682142D01*
X100751247Y-132682142D02*
X100703628Y-132777380D01*
X100703628Y-132777380D02*
X100656009Y-132967856D01*
X100656009Y-132967856D02*
X100608390Y-133063094D01*
X100608390Y-133063094D02*
X100560771Y-133110713D01*
X100560771Y-133110713D02*
X100465533Y-133158332D01*
X100465533Y-133158332D02*
X100370295Y-133158332D01*
X100370295Y-133158332D02*
X100275057Y-133110713D01*
X100275057Y-133110713D02*
X100227438Y-133063094D01*
X100227438Y-133063094D02*
X100179819Y-132967856D01*
X100179819Y-132967856D02*
X100179819Y-132729761D01*
X100179819Y-132729761D02*
X100227438Y-132586904D01*
X100179819Y-132253570D02*
X101179819Y-132015475D01*
X101179819Y-132015475D02*
X100465533Y-131824999D01*
X100465533Y-131824999D02*
X101179819Y-131634523D01*
X101179819Y-131634523D02*
X100179819Y-131396428D01*
X101179819Y-130491666D02*
X101179819Y-131063094D01*
X101179819Y-130777380D02*
X100179819Y-130777380D01*
X100179819Y-130777380D02*
X100322676Y-130872618D01*
X100322676Y-130872618D02*
X100417914Y-130967856D01*
X100417914Y-130967856D02*
X100465533Y-131063094D01*
X127258333Y-106330895D02*
X127734523Y-106330895D01*
X127163095Y-106045180D02*
X127496428Y-107045180D01*
X127496428Y-107045180D02*
X127829761Y-106045180D01*
X128163095Y-107045180D02*
X128163095Y-106235657D01*
X128163095Y-106235657D02*
X128210714Y-106140419D01*
X128210714Y-106140419D02*
X128258333Y-106092800D01*
X128258333Y-106092800D02*
X128353571Y-106045180D01*
X128353571Y-106045180D02*
X128544047Y-106045180D01*
X128544047Y-106045180D02*
X128639285Y-106092800D01*
X128639285Y-106092800D02*
X128686904Y-106140419D01*
X128686904Y-106140419D02*
X128734523Y-106235657D01*
X128734523Y-106235657D02*
X128734523Y-107045180D01*
X130163095Y-107045180D02*
X130353571Y-107045180D01*
X130353571Y-107045180D02*
X130448809Y-106997561D01*
X130448809Y-106997561D02*
X130544047Y-106902323D01*
X130544047Y-106902323D02*
X130591666Y-106711847D01*
X130591666Y-106711847D02*
X130591666Y-106378514D01*
X130591666Y-106378514D02*
X130544047Y-106188038D01*
X130544047Y-106188038D02*
X130448809Y-106092800D01*
X130448809Y-106092800D02*
X130353571Y-106045180D01*
X130353571Y-106045180D02*
X130163095Y-106045180D01*
X130163095Y-106045180D02*
X130067857Y-106092800D01*
X130067857Y-106092800D02*
X129972619Y-106188038D01*
X129972619Y-106188038D02*
X129925000Y-106378514D01*
X129925000Y-106378514D02*
X129925000Y-106711847D01*
X129925000Y-106711847D02*
X129972619Y-106902323D01*
X129972619Y-106902323D02*
X130067857Y-106997561D01*
X130067857Y-106997561D02*
X130163095Y-107045180D01*
X151641666Y-115079819D02*
X151308333Y-114603628D01*
X151070238Y-115079819D02*
X151070238Y-114079819D01*
X151070238Y-114079819D02*
X151451190Y-114079819D01*
X151451190Y-114079819D02*
X151546428Y-114127438D01*
X151546428Y-114127438D02*
X151594047Y-114175057D01*
X151594047Y-114175057D02*
X151641666Y-114270295D01*
X151641666Y-114270295D02*
X151641666Y-114413152D01*
X151641666Y-114413152D02*
X151594047Y-114508390D01*
X151594047Y-114508390D02*
X151546428Y-114556009D01*
X151546428Y-114556009D02*
X151451190Y-114603628D01*
X151451190Y-114603628D02*
X151070238Y-114603628D01*
X152260714Y-114079819D02*
X152451190Y-114079819D01*
X152451190Y-114079819D02*
X152546428Y-114127438D01*
X152546428Y-114127438D02*
X152641666Y-114222676D01*
X152641666Y-114222676D02*
X152689285Y-114413152D01*
X152689285Y-114413152D02*
X152689285Y-114746485D01*
X152689285Y-114746485D02*
X152641666Y-114936961D01*
X152641666Y-114936961D02*
X152546428Y-115032200D01*
X152546428Y-115032200D02*
X152451190Y-115079819D01*
X152451190Y-115079819D02*
X152260714Y-115079819D01*
X152260714Y-115079819D02*
X152165476Y-115032200D01*
X152165476Y-115032200D02*
X152070238Y-114936961D01*
X152070238Y-114936961D02*
X152022619Y-114746485D01*
X152022619Y-114746485D02*
X152022619Y-114413152D01*
X152022619Y-114413152D02*
X152070238Y-114222676D01*
X152070238Y-114222676D02*
X152165476Y-114127438D01*
X152165476Y-114127438D02*
X152260714Y-114079819D01*
X152975000Y-114079819D02*
X153546428Y-114079819D01*
X153260714Y-115079819D02*
X153260714Y-114079819D01*
X154641667Y-114556009D02*
X154975000Y-114556009D01*
X155117857Y-115079819D02*
X154641667Y-115079819D01*
X154641667Y-115079819D02*
X154641667Y-114079819D01*
X154641667Y-114079819D02*
X155117857Y-114079819D01*
X155546429Y-115079819D02*
X155546429Y-114079819D01*
X155546429Y-114079819D02*
X156117857Y-115079819D01*
X156117857Y-115079819D02*
X156117857Y-114079819D01*
X157165476Y-114984580D02*
X157117857Y-115032200D01*
X157117857Y-115032200D02*
X156975000Y-115079819D01*
X156975000Y-115079819D02*
X156879762Y-115079819D01*
X156879762Y-115079819D02*
X156736905Y-115032200D01*
X156736905Y-115032200D02*
X156641667Y-114936961D01*
X156641667Y-114936961D02*
X156594048Y-114841723D01*
X156594048Y-114841723D02*
X156546429Y-114651247D01*
X156546429Y-114651247D02*
X156546429Y-114508390D01*
X156546429Y-114508390D02*
X156594048Y-114317914D01*
X156594048Y-114317914D02*
X156641667Y-114222676D01*
X156641667Y-114222676D02*
X156736905Y-114127438D01*
X156736905Y-114127438D02*
X156879762Y-114079819D01*
X156879762Y-114079819D02*
X156975000Y-114079819D01*
X156975000Y-114079819D02*
X157117857Y-114127438D01*
X157117857Y-114127438D02*
X157165476Y-114175057D01*
X149166666Y-116654819D02*
X149166666Y-117369104D01*
X149166666Y-117369104D02*
X149119047Y-117511961D01*
X149119047Y-117511961D02*
X149023809Y-117607200D01*
X149023809Y-117607200D02*
X148880952Y-117654819D01*
X148880952Y-117654819D02*
X148785714Y-117654819D01*
X149547619Y-116654819D02*
X150166666Y-116654819D01*
X150166666Y-116654819D02*
X149833333Y-117035771D01*
X149833333Y-117035771D02*
X149976190Y-117035771D01*
X149976190Y-117035771D02*
X150071428Y-117083390D01*
X150071428Y-117083390D02*
X150119047Y-117131009D01*
X150119047Y-117131009D02*
X150166666Y-117226247D01*
X150166666Y-117226247D02*
X150166666Y-117464342D01*
X150166666Y-117464342D02*
X150119047Y-117559580D01*
X150119047Y-117559580D02*
X150071428Y-117607200D01*
X150071428Y-117607200D02*
X149976190Y-117654819D01*
X149976190Y-117654819D02*
X149690476Y-117654819D01*
X149690476Y-117654819D02*
X149595238Y-117607200D01*
X149595238Y-117607200D02*
X149547619Y-117559580D01*
X147372619Y-120104819D02*
X147563095Y-120104819D01*
X147563095Y-120104819D02*
X147658333Y-120152438D01*
X147658333Y-120152438D02*
X147753571Y-120247676D01*
X147753571Y-120247676D02*
X147801190Y-120438152D01*
X147801190Y-120438152D02*
X147801190Y-120771485D01*
X147801190Y-120771485D02*
X147753571Y-120961961D01*
X147753571Y-120961961D02*
X147658333Y-121057200D01*
X147658333Y-121057200D02*
X147563095Y-121104819D01*
X147563095Y-121104819D02*
X147372619Y-121104819D01*
X147372619Y-121104819D02*
X147277381Y-121057200D01*
X147277381Y-121057200D02*
X147182143Y-120961961D01*
X147182143Y-120961961D02*
X147134524Y-120771485D01*
X147134524Y-120771485D02*
X147134524Y-120438152D01*
X147134524Y-120438152D02*
X147182143Y-120247676D01*
X147182143Y-120247676D02*
X147277381Y-120152438D01*
X147277381Y-120152438D02*
X147372619Y-120104819D01*
X148705952Y-121104819D02*
X148229762Y-121104819D01*
X148229762Y-121104819D02*
X148229762Y-120104819D01*
X149039286Y-120581009D02*
X149372619Y-120581009D01*
X149515476Y-121104819D02*
X149039286Y-121104819D01*
X149039286Y-121104819D02*
X149039286Y-120104819D01*
X149039286Y-120104819D02*
X149515476Y-120104819D01*
X149944048Y-121104819D02*
X149944048Y-120104819D01*
X149944048Y-120104819D02*
X150182143Y-120104819D01*
X150182143Y-120104819D02*
X150325000Y-120152438D01*
X150325000Y-120152438D02*
X150420238Y-120247676D01*
X150420238Y-120247676D02*
X150467857Y-120342914D01*
X150467857Y-120342914D02*
X150515476Y-120533390D01*
X150515476Y-120533390D02*
X150515476Y-120676247D01*
X150515476Y-120676247D02*
X150467857Y-120866723D01*
X150467857Y-120866723D02*
X150420238Y-120961961D01*
X150420238Y-120961961D02*
X150325000Y-121057200D01*
X150325000Y-121057200D02*
X150182143Y-121104819D01*
X150182143Y-121104819D02*
X149944048Y-121104819D01*
X149291666Y-121804819D02*
X149291666Y-122519104D01*
X149291666Y-122519104D02*
X149244047Y-122661961D01*
X149244047Y-122661961D02*
X149148809Y-122757200D01*
X149148809Y-122757200D02*
X149005952Y-122804819D01*
X149005952Y-122804819D02*
X148910714Y-122804819D01*
X149720238Y-121900057D02*
X149767857Y-121852438D01*
X149767857Y-121852438D02*
X149863095Y-121804819D01*
X149863095Y-121804819D02*
X150101190Y-121804819D01*
X150101190Y-121804819D02*
X150196428Y-121852438D01*
X150196428Y-121852438D02*
X150244047Y-121900057D01*
X150244047Y-121900057D02*
X150291666Y-121995295D01*
X150291666Y-121995295D02*
X150291666Y-122090533D01*
X150291666Y-122090533D02*
X150244047Y-122233390D01*
X150244047Y-122233390D02*
X149672619Y-122804819D01*
X149672619Y-122804819D02*
X150291666Y-122804819D01*
X101814333Y-121263580D02*
X101766714Y-121311200D01*
X101766714Y-121311200D02*
X101623857Y-121358819D01*
X101623857Y-121358819D02*
X101528619Y-121358819D01*
X101528619Y-121358819D02*
X101385762Y-121311200D01*
X101385762Y-121311200D02*
X101290524Y-121215961D01*
X101290524Y-121215961D02*
X101242905Y-121120723D01*
X101242905Y-121120723D02*
X101195286Y-120930247D01*
X101195286Y-120930247D02*
X101195286Y-120787390D01*
X101195286Y-120787390D02*
X101242905Y-120596914D01*
X101242905Y-120596914D02*
X101290524Y-120501676D01*
X101290524Y-120501676D02*
X101385762Y-120406438D01*
X101385762Y-120406438D02*
X101528619Y-120358819D01*
X101528619Y-120358819D02*
X101623857Y-120358819D01*
X101623857Y-120358819D02*
X101766714Y-120406438D01*
X101766714Y-120406438D02*
X101814333Y-120454057D01*
X102766714Y-121358819D02*
X102195286Y-121358819D01*
X102481000Y-121358819D02*
X102481000Y-120358819D01*
X102481000Y-120358819D02*
X102385762Y-120501676D01*
X102385762Y-120501676D02*
X102290524Y-120596914D01*
X102290524Y-120596914D02*
X102195286Y-120644533D01*
X169759580Y-109516666D02*
X169807200Y-109564285D01*
X169807200Y-109564285D02*
X169854819Y-109707142D01*
X169854819Y-109707142D02*
X169854819Y-109802380D01*
X169854819Y-109802380D02*
X169807200Y-109945237D01*
X169807200Y-109945237D02*
X169711961Y-110040475D01*
X169711961Y-110040475D02*
X169616723Y-110088094D01*
X169616723Y-110088094D02*
X169426247Y-110135713D01*
X169426247Y-110135713D02*
X169283390Y-110135713D01*
X169283390Y-110135713D02*
X169092914Y-110088094D01*
X169092914Y-110088094D02*
X168997676Y-110040475D01*
X168997676Y-110040475D02*
X168902438Y-109945237D01*
X168902438Y-109945237D02*
X168854819Y-109802380D01*
X168854819Y-109802380D02*
X168854819Y-109707142D01*
X168854819Y-109707142D02*
X168902438Y-109564285D01*
X168902438Y-109564285D02*
X168950057Y-109516666D01*
X168854819Y-108611904D02*
X168854819Y-109088094D01*
X168854819Y-109088094D02*
X169331009Y-109135713D01*
X169331009Y-109135713D02*
X169283390Y-109088094D01*
X169283390Y-109088094D02*
X169235771Y-108992856D01*
X169235771Y-108992856D02*
X169235771Y-108754761D01*
X169235771Y-108754761D02*
X169283390Y-108659523D01*
X169283390Y-108659523D02*
X169331009Y-108611904D01*
X169331009Y-108611904D02*
X169426247Y-108564285D01*
X169426247Y-108564285D02*
X169664342Y-108564285D01*
X169664342Y-108564285D02*
X169759580Y-108611904D01*
X169759580Y-108611904D02*
X169807200Y-108659523D01*
X169807200Y-108659523D02*
X169854819Y-108754761D01*
X169854819Y-108754761D02*
X169854819Y-108992856D01*
X169854819Y-108992856D02*
X169807200Y-109088094D01*
X169807200Y-109088094D02*
X169759580Y-109135713D01*
X178560438Y-126452142D02*
X178512819Y-126547380D01*
X178512819Y-126547380D02*
X178512819Y-126690237D01*
X178512819Y-126690237D02*
X178560438Y-126833094D01*
X178560438Y-126833094D02*
X178655676Y-126928332D01*
X178655676Y-126928332D02*
X178750914Y-126975951D01*
X178750914Y-126975951D02*
X178941390Y-127023570D01*
X178941390Y-127023570D02*
X179084247Y-127023570D01*
X179084247Y-127023570D02*
X179274723Y-126975951D01*
X179274723Y-126975951D02*
X179369961Y-126928332D01*
X179369961Y-126928332D02*
X179465200Y-126833094D01*
X179465200Y-126833094D02*
X179512819Y-126690237D01*
X179512819Y-126690237D02*
X179512819Y-126594999D01*
X179512819Y-126594999D02*
X179465200Y-126452142D01*
X179465200Y-126452142D02*
X179417580Y-126404523D01*
X179417580Y-126404523D02*
X179084247Y-126404523D01*
X179084247Y-126404523D02*
X179084247Y-126594999D01*
X179512819Y-125547380D02*
X178989009Y-125547380D01*
X178989009Y-125547380D02*
X178893771Y-125594999D01*
X178893771Y-125594999D02*
X178846152Y-125690237D01*
X178846152Y-125690237D02*
X178846152Y-125880713D01*
X178846152Y-125880713D02*
X178893771Y-125975951D01*
X179465200Y-125547380D02*
X179512819Y-125642618D01*
X179512819Y-125642618D02*
X179512819Y-125880713D01*
X179512819Y-125880713D02*
X179465200Y-125975951D01*
X179465200Y-125975951D02*
X179369961Y-126023570D01*
X179369961Y-126023570D02*
X179274723Y-126023570D01*
X179274723Y-126023570D02*
X179179485Y-125975951D01*
X179179485Y-125975951D02*
X179131866Y-125880713D01*
X179131866Y-125880713D02*
X179131866Y-125642618D01*
X179131866Y-125642618D02*
X179084247Y-125547380D01*
X179512819Y-125071189D02*
X178846152Y-125071189D01*
X178512819Y-125071189D02*
X178560438Y-125118808D01*
X178560438Y-125118808D02*
X178608057Y-125071189D01*
X178608057Y-125071189D02*
X178560438Y-125023570D01*
X178560438Y-125023570D02*
X178512819Y-125071189D01*
X178512819Y-125071189D02*
X178608057Y-125071189D01*
X178846152Y-124594999D02*
X179512819Y-124594999D01*
X178941390Y-124594999D02*
X178893771Y-124547380D01*
X178893771Y-124547380D02*
X178846152Y-124452142D01*
X178846152Y-124452142D02*
X178846152Y-124309285D01*
X178846152Y-124309285D02*
X178893771Y-124214047D01*
X178893771Y-124214047D02*
X178989009Y-124166428D01*
X178989009Y-124166428D02*
X179512819Y-124166428D01*
X179512819Y-123166428D02*
X179512819Y-123737856D01*
X179512819Y-123452142D02*
X178512819Y-123452142D01*
X178512819Y-123452142D02*
X178655676Y-123547380D01*
X178655676Y-123547380D02*
X178750914Y-123642618D01*
X178750914Y-123642618D02*
X178798533Y-123737856D01*
X174705952Y-129879819D02*
X174134524Y-129879819D01*
X174420238Y-129879819D02*
X174420238Y-128879819D01*
X174420238Y-128879819D02*
X174325000Y-129022676D01*
X174325000Y-129022676D02*
X174229762Y-129117914D01*
X174229762Y-129117914D02*
X174134524Y-129165533D01*
X175134524Y-129879819D02*
X175134524Y-128879819D01*
X175229762Y-129498866D02*
X175515476Y-129879819D01*
X175515476Y-129213152D02*
X175134524Y-129594104D01*
X176277381Y-129356009D02*
X176420238Y-129403628D01*
X176420238Y-129403628D02*
X176467857Y-129451247D01*
X176467857Y-129451247D02*
X176515476Y-129546485D01*
X176515476Y-129546485D02*
X176515476Y-129689342D01*
X176515476Y-129689342D02*
X176467857Y-129784580D01*
X176467857Y-129784580D02*
X176420238Y-129832200D01*
X176420238Y-129832200D02*
X176325000Y-129879819D01*
X176325000Y-129879819D02*
X175944048Y-129879819D01*
X175944048Y-129879819D02*
X175944048Y-128879819D01*
X175944048Y-128879819D02*
X176277381Y-128879819D01*
X176277381Y-128879819D02*
X176372619Y-128927438D01*
X176372619Y-128927438D02*
X176420238Y-128975057D01*
X176420238Y-128975057D02*
X176467857Y-129070295D01*
X176467857Y-129070295D02*
X176467857Y-129165533D01*
X176467857Y-129165533D02*
X176420238Y-129260771D01*
X176420238Y-129260771D02*
X176372619Y-129308390D01*
X176372619Y-129308390D02*
X176277381Y-129356009D01*
X176277381Y-129356009D02*
X175944048Y-129356009D01*
X159095819Y-117240809D02*
X160095819Y-116907476D01*
X160095819Y-116907476D02*
X159095819Y-116574143D01*
X160095819Y-116097952D02*
X160048200Y-116193190D01*
X160048200Y-116193190D02*
X160000580Y-116240809D01*
X160000580Y-116240809D02*
X159905342Y-116288428D01*
X159905342Y-116288428D02*
X159619628Y-116288428D01*
X159619628Y-116288428D02*
X159524390Y-116240809D01*
X159524390Y-116240809D02*
X159476771Y-116193190D01*
X159476771Y-116193190D02*
X159429152Y-116097952D01*
X159429152Y-116097952D02*
X159429152Y-115955095D01*
X159429152Y-115955095D02*
X159476771Y-115859857D01*
X159476771Y-115859857D02*
X159524390Y-115812238D01*
X159524390Y-115812238D02*
X159619628Y-115764619D01*
X159619628Y-115764619D02*
X159905342Y-115764619D01*
X159905342Y-115764619D02*
X160000580Y-115812238D01*
X160000580Y-115812238D02*
X160048200Y-115859857D01*
X160048200Y-115859857D02*
X160095819Y-115955095D01*
X160095819Y-115955095D02*
X160095819Y-116097952D01*
X160095819Y-115193190D02*
X160048200Y-115288428D01*
X160048200Y-115288428D02*
X159952961Y-115336047D01*
X159952961Y-115336047D02*
X159095819Y-115336047D01*
X160095819Y-114288428D02*
X160095819Y-114859856D01*
X160095819Y-114574142D02*
X159095819Y-114574142D01*
X159095819Y-114574142D02*
X159238676Y-114669380D01*
X159238676Y-114669380D02*
X159333914Y-114764618D01*
X159333914Y-114764618D02*
X159381533Y-114859856D01*
X169215819Y-116812238D02*
X169215819Y-117383666D01*
X169215819Y-117097952D02*
X168215819Y-117097952D01*
X168215819Y-117097952D02*
X168358676Y-117193190D01*
X168358676Y-117193190D02*
X168453914Y-117288428D01*
X168453914Y-117288428D02*
X168501533Y-117383666D01*
X168215819Y-116193190D02*
X168215819Y-116097952D01*
X168215819Y-116097952D02*
X168263438Y-116002714D01*
X168263438Y-116002714D02*
X168311057Y-115955095D01*
X168311057Y-115955095D02*
X168406295Y-115907476D01*
X168406295Y-115907476D02*
X168596771Y-115859857D01*
X168596771Y-115859857D02*
X168834866Y-115859857D01*
X168834866Y-115859857D02*
X169025342Y-115907476D01*
X169025342Y-115907476D02*
X169120580Y-115955095D01*
X169120580Y-115955095D02*
X169168200Y-116002714D01*
X169168200Y-116002714D02*
X169215819Y-116097952D01*
X169215819Y-116097952D02*
X169215819Y-116193190D01*
X169215819Y-116193190D02*
X169168200Y-116288428D01*
X169168200Y-116288428D02*
X169120580Y-116336047D01*
X169120580Y-116336047D02*
X169025342Y-116383666D01*
X169025342Y-116383666D02*
X168834866Y-116431285D01*
X168834866Y-116431285D02*
X168596771Y-116431285D01*
X168596771Y-116431285D02*
X168406295Y-116383666D01*
X168406295Y-116383666D02*
X168311057Y-116336047D01*
X168311057Y-116336047D02*
X168263438Y-116288428D01*
X168263438Y-116288428D02*
X168215819Y-116193190D01*
X169215819Y-115431285D02*
X168215819Y-115431285D01*
X168834866Y-115336047D02*
X169215819Y-115050333D01*
X168549152Y-115050333D02*
X168930104Y-115431285D01*
X168692009Y-114288428D02*
X168739628Y-114145571D01*
X168739628Y-114145571D02*
X168787247Y-114097952D01*
X168787247Y-114097952D02*
X168882485Y-114050333D01*
X168882485Y-114050333D02*
X169025342Y-114050333D01*
X169025342Y-114050333D02*
X169120580Y-114097952D01*
X169120580Y-114097952D02*
X169168200Y-114145571D01*
X169168200Y-114145571D02*
X169215819Y-114240809D01*
X169215819Y-114240809D02*
X169215819Y-114621761D01*
X169215819Y-114621761D02*
X168215819Y-114621761D01*
X168215819Y-114621761D02*
X168215819Y-114288428D01*
X168215819Y-114288428D02*
X168263438Y-114193190D01*
X168263438Y-114193190D02*
X168311057Y-114145571D01*
X168311057Y-114145571D02*
X168406295Y-114097952D01*
X168406295Y-114097952D02*
X168501533Y-114097952D01*
X168501533Y-114097952D02*
X168596771Y-114145571D01*
X168596771Y-114145571D02*
X168644390Y-114193190D01*
X168644390Y-114193190D02*
X168692009Y-114288428D01*
X168692009Y-114288428D02*
X168692009Y-114621761D01*
X173090333Y-109197819D02*
X172757000Y-108721628D01*
X172518905Y-109197819D02*
X172518905Y-108197819D01*
X172518905Y-108197819D02*
X172899857Y-108197819D01*
X172899857Y-108197819D02*
X172995095Y-108245438D01*
X172995095Y-108245438D02*
X173042714Y-108293057D01*
X173042714Y-108293057D02*
X173090333Y-108388295D01*
X173090333Y-108388295D02*
X173090333Y-108531152D01*
X173090333Y-108531152D02*
X173042714Y-108626390D01*
X173042714Y-108626390D02*
X172995095Y-108674009D01*
X172995095Y-108674009D02*
X172899857Y-108721628D01*
X172899857Y-108721628D02*
X172518905Y-108721628D01*
X174042714Y-109197819D02*
X173471286Y-109197819D01*
X173757000Y-109197819D02*
X173757000Y-108197819D01*
X173757000Y-108197819D02*
X173661762Y-108340676D01*
X173661762Y-108340676D02*
X173566524Y-108435914D01*
X173566524Y-108435914D02*
X173471286Y-108483533D01*
X164483333Y-132584580D02*
X164435714Y-132632200D01*
X164435714Y-132632200D02*
X164292857Y-132679819D01*
X164292857Y-132679819D02*
X164197619Y-132679819D01*
X164197619Y-132679819D02*
X164054762Y-132632200D01*
X164054762Y-132632200D02*
X163959524Y-132536961D01*
X163959524Y-132536961D02*
X163911905Y-132441723D01*
X163911905Y-132441723D02*
X163864286Y-132251247D01*
X163864286Y-132251247D02*
X163864286Y-132108390D01*
X163864286Y-132108390D02*
X163911905Y-131917914D01*
X163911905Y-131917914D02*
X163959524Y-131822676D01*
X163959524Y-131822676D02*
X164054762Y-131727438D01*
X164054762Y-131727438D02*
X164197619Y-131679819D01*
X164197619Y-131679819D02*
X164292857Y-131679819D01*
X164292857Y-131679819D02*
X164435714Y-131727438D01*
X164435714Y-131727438D02*
X164483333Y-131775057D01*
X165340476Y-131679819D02*
X165150000Y-131679819D01*
X165150000Y-131679819D02*
X165054762Y-131727438D01*
X165054762Y-131727438D02*
X165007143Y-131775057D01*
X165007143Y-131775057D02*
X164911905Y-131917914D01*
X164911905Y-131917914D02*
X164864286Y-132108390D01*
X164864286Y-132108390D02*
X164864286Y-132489342D01*
X164864286Y-132489342D02*
X164911905Y-132584580D01*
X164911905Y-132584580D02*
X164959524Y-132632200D01*
X164959524Y-132632200D02*
X165054762Y-132679819D01*
X165054762Y-132679819D02*
X165245238Y-132679819D01*
X165245238Y-132679819D02*
X165340476Y-132632200D01*
X165340476Y-132632200D02*
X165388095Y-132584580D01*
X165388095Y-132584580D02*
X165435714Y-132489342D01*
X165435714Y-132489342D02*
X165435714Y-132251247D01*
X165435714Y-132251247D02*
X165388095Y-132156009D01*
X165388095Y-132156009D02*
X165340476Y-132108390D01*
X165340476Y-132108390D02*
X165245238Y-132060771D01*
X165245238Y-132060771D02*
X165054762Y-132060771D01*
X165054762Y-132060771D02*
X164959524Y-132108390D01*
X164959524Y-132108390D02*
X164911905Y-132156009D01*
X164911905Y-132156009D02*
X164864286Y-132251247D01*
X150369333Y-143632580D02*
X150321714Y-143680200D01*
X150321714Y-143680200D02*
X150178857Y-143727819D01*
X150178857Y-143727819D02*
X150083619Y-143727819D01*
X150083619Y-143727819D02*
X149940762Y-143680200D01*
X149940762Y-143680200D02*
X149845524Y-143584961D01*
X149845524Y-143584961D02*
X149797905Y-143489723D01*
X149797905Y-143489723D02*
X149750286Y-143299247D01*
X149750286Y-143299247D02*
X149750286Y-143156390D01*
X149750286Y-143156390D02*
X149797905Y-142965914D01*
X149797905Y-142965914D02*
X149845524Y-142870676D01*
X149845524Y-142870676D02*
X149940762Y-142775438D01*
X149940762Y-142775438D02*
X150083619Y-142727819D01*
X150083619Y-142727819D02*
X150178857Y-142727819D01*
X150178857Y-142727819D02*
X150321714Y-142775438D01*
X150321714Y-142775438D02*
X150369333Y-142823057D01*
X150702667Y-142727819D02*
X151321714Y-142727819D01*
X151321714Y-142727819D02*
X150988381Y-143108771D01*
X150988381Y-143108771D02*
X151131238Y-143108771D01*
X151131238Y-143108771D02*
X151226476Y-143156390D01*
X151226476Y-143156390D02*
X151274095Y-143204009D01*
X151274095Y-143204009D02*
X151321714Y-143299247D01*
X151321714Y-143299247D02*
X151321714Y-143537342D01*
X151321714Y-143537342D02*
X151274095Y-143632580D01*
X151274095Y-143632580D02*
X151226476Y-143680200D01*
X151226476Y-143680200D02*
X151131238Y-143727819D01*
X151131238Y-143727819D02*
X150845524Y-143727819D01*
X150845524Y-143727819D02*
X150750286Y-143680200D01*
X150750286Y-143680200D02*
X150702667Y-143632580D01*
X171549333Y-130705580D02*
X171501714Y-130753200D01*
X171501714Y-130753200D02*
X171358857Y-130800819D01*
X171358857Y-130800819D02*
X171263619Y-130800819D01*
X171263619Y-130800819D02*
X171120762Y-130753200D01*
X171120762Y-130753200D02*
X171025524Y-130657961D01*
X171025524Y-130657961D02*
X170977905Y-130562723D01*
X170977905Y-130562723D02*
X170930286Y-130372247D01*
X170930286Y-130372247D02*
X170930286Y-130229390D01*
X170930286Y-130229390D02*
X170977905Y-130038914D01*
X170977905Y-130038914D02*
X171025524Y-129943676D01*
X171025524Y-129943676D02*
X171120762Y-129848438D01*
X171120762Y-129848438D02*
X171263619Y-129800819D01*
X171263619Y-129800819D02*
X171358857Y-129800819D01*
X171358857Y-129800819D02*
X171501714Y-129848438D01*
X171501714Y-129848438D02*
X171549333Y-129896057D01*
X171882667Y-129800819D02*
X172549333Y-129800819D01*
X172549333Y-129800819D02*
X172120762Y-130800819D01*
X161901819Y-109406666D02*
X161425628Y-109739999D01*
X161901819Y-109978094D02*
X160901819Y-109978094D01*
X160901819Y-109978094D02*
X160901819Y-109597142D01*
X160901819Y-109597142D02*
X160949438Y-109501904D01*
X160949438Y-109501904D02*
X160997057Y-109454285D01*
X160997057Y-109454285D02*
X161092295Y-109406666D01*
X161092295Y-109406666D02*
X161235152Y-109406666D01*
X161235152Y-109406666D02*
X161330390Y-109454285D01*
X161330390Y-109454285D02*
X161378009Y-109501904D01*
X161378009Y-109501904D02*
X161425628Y-109597142D01*
X161425628Y-109597142D02*
X161425628Y-109978094D01*
X160997057Y-109025713D02*
X160949438Y-108978094D01*
X160949438Y-108978094D02*
X160901819Y-108882856D01*
X160901819Y-108882856D02*
X160901819Y-108644761D01*
X160901819Y-108644761D02*
X160949438Y-108549523D01*
X160949438Y-108549523D02*
X160997057Y-108501904D01*
X160997057Y-108501904D02*
X161092295Y-108454285D01*
X161092295Y-108454285D02*
X161187533Y-108454285D01*
X161187533Y-108454285D02*
X161330390Y-108501904D01*
X161330390Y-108501904D02*
X161901819Y-109073332D01*
X161901819Y-109073332D02*
X161901819Y-108454285D01*
X162422333Y-141857819D02*
X162089000Y-141381628D01*
X161850905Y-141857819D02*
X161850905Y-140857819D01*
X161850905Y-140857819D02*
X162231857Y-140857819D01*
X162231857Y-140857819D02*
X162327095Y-140905438D01*
X162327095Y-140905438D02*
X162374714Y-140953057D01*
X162374714Y-140953057D02*
X162422333Y-141048295D01*
X162422333Y-141048295D02*
X162422333Y-141191152D01*
X162422333Y-141191152D02*
X162374714Y-141286390D01*
X162374714Y-141286390D02*
X162327095Y-141334009D01*
X162327095Y-141334009D02*
X162231857Y-141381628D01*
X162231857Y-141381628D02*
X161850905Y-141381628D01*
X162755667Y-140857819D02*
X163374714Y-140857819D01*
X163374714Y-140857819D02*
X163041381Y-141238771D01*
X163041381Y-141238771D02*
X163184238Y-141238771D01*
X163184238Y-141238771D02*
X163279476Y-141286390D01*
X163279476Y-141286390D02*
X163327095Y-141334009D01*
X163327095Y-141334009D02*
X163374714Y-141429247D01*
X163374714Y-141429247D02*
X163374714Y-141667342D01*
X163374714Y-141667342D02*
X163327095Y-141762580D01*
X163327095Y-141762580D02*
X163279476Y-141810200D01*
X163279476Y-141810200D02*
X163184238Y-141857819D01*
X163184238Y-141857819D02*
X162898524Y-141857819D01*
X162898524Y-141857819D02*
X162803286Y-141810200D01*
X162803286Y-141810200D02*
X162755667Y-141762580D01*
X169954819Y-126036904D02*
X170764342Y-126036904D01*
X170764342Y-126036904D02*
X170859580Y-125989285D01*
X170859580Y-125989285D02*
X170907200Y-125941666D01*
X170907200Y-125941666D02*
X170954819Y-125846428D01*
X170954819Y-125846428D02*
X170954819Y-125655952D01*
X170954819Y-125655952D02*
X170907200Y-125560714D01*
X170907200Y-125560714D02*
X170859580Y-125513095D01*
X170859580Y-125513095D02*
X170764342Y-125465476D01*
X170764342Y-125465476D02*
X169954819Y-125465476D01*
X170050057Y-125036904D02*
X170002438Y-124989285D01*
X170002438Y-124989285D02*
X169954819Y-124894047D01*
X169954819Y-124894047D02*
X169954819Y-124655952D01*
X169954819Y-124655952D02*
X170002438Y-124560714D01*
X170002438Y-124560714D02*
X170050057Y-124513095D01*
X170050057Y-124513095D02*
X170145295Y-124465476D01*
X170145295Y-124465476D02*
X170240533Y-124465476D01*
X170240533Y-124465476D02*
X170383390Y-124513095D01*
X170383390Y-124513095D02*
X170954819Y-125084523D01*
X170954819Y-125084523D02*
X170954819Y-124465476D01*
X155934580Y-126641666D02*
X155982200Y-126689285D01*
X155982200Y-126689285D02*
X156029819Y-126832142D01*
X156029819Y-126832142D02*
X156029819Y-126927380D01*
X156029819Y-126927380D02*
X155982200Y-127070237D01*
X155982200Y-127070237D02*
X155886961Y-127165475D01*
X155886961Y-127165475D02*
X155791723Y-127213094D01*
X155791723Y-127213094D02*
X155601247Y-127260713D01*
X155601247Y-127260713D02*
X155458390Y-127260713D01*
X155458390Y-127260713D02*
X155267914Y-127213094D01*
X155267914Y-127213094D02*
X155172676Y-127165475D01*
X155172676Y-127165475D02*
X155077438Y-127070237D01*
X155077438Y-127070237D02*
X155029819Y-126927380D01*
X155029819Y-126927380D02*
X155029819Y-126832142D01*
X155029819Y-126832142D02*
X155077438Y-126689285D01*
X155077438Y-126689285D02*
X155125057Y-126641666D01*
X155363152Y-125784523D02*
X156029819Y-125784523D01*
X154982200Y-126022618D02*
X155696485Y-126260713D01*
X155696485Y-126260713D02*
X155696485Y-125641666D01*
X157283333Y-141934580D02*
X157235714Y-141982200D01*
X157235714Y-141982200D02*
X157092857Y-142029819D01*
X157092857Y-142029819D02*
X156997619Y-142029819D01*
X156997619Y-142029819D02*
X156854762Y-141982200D01*
X156854762Y-141982200D02*
X156759524Y-141886961D01*
X156759524Y-141886961D02*
X156711905Y-141791723D01*
X156711905Y-141791723D02*
X156664286Y-141601247D01*
X156664286Y-141601247D02*
X156664286Y-141458390D01*
X156664286Y-141458390D02*
X156711905Y-141267914D01*
X156711905Y-141267914D02*
X156759524Y-141172676D01*
X156759524Y-141172676D02*
X156854762Y-141077438D01*
X156854762Y-141077438D02*
X156997619Y-141029819D01*
X156997619Y-141029819D02*
X157092857Y-141029819D01*
X157092857Y-141029819D02*
X157235714Y-141077438D01*
X157235714Y-141077438D02*
X157283333Y-141125057D01*
X157854762Y-141458390D02*
X157759524Y-141410771D01*
X157759524Y-141410771D02*
X157711905Y-141363152D01*
X157711905Y-141363152D02*
X157664286Y-141267914D01*
X157664286Y-141267914D02*
X157664286Y-141220295D01*
X157664286Y-141220295D02*
X157711905Y-141125057D01*
X157711905Y-141125057D02*
X157759524Y-141077438D01*
X157759524Y-141077438D02*
X157854762Y-141029819D01*
X157854762Y-141029819D02*
X158045238Y-141029819D01*
X158045238Y-141029819D02*
X158140476Y-141077438D01*
X158140476Y-141077438D02*
X158188095Y-141125057D01*
X158188095Y-141125057D02*
X158235714Y-141220295D01*
X158235714Y-141220295D02*
X158235714Y-141267914D01*
X158235714Y-141267914D02*
X158188095Y-141363152D01*
X158188095Y-141363152D02*
X158140476Y-141410771D01*
X158140476Y-141410771D02*
X158045238Y-141458390D01*
X158045238Y-141458390D02*
X157854762Y-141458390D01*
X157854762Y-141458390D02*
X157759524Y-141506009D01*
X157759524Y-141506009D02*
X157711905Y-141553628D01*
X157711905Y-141553628D02*
X157664286Y-141648866D01*
X157664286Y-141648866D02*
X157664286Y-141839342D01*
X157664286Y-141839342D02*
X157711905Y-141934580D01*
X157711905Y-141934580D02*
X157759524Y-141982200D01*
X157759524Y-141982200D02*
X157854762Y-142029819D01*
X157854762Y-142029819D02*
X158045238Y-142029819D01*
X158045238Y-142029819D02*
X158140476Y-141982200D01*
X158140476Y-141982200D02*
X158188095Y-141934580D01*
X158188095Y-141934580D02*
X158235714Y-141839342D01*
X158235714Y-141839342D02*
X158235714Y-141648866D01*
X158235714Y-141648866D02*
X158188095Y-141553628D01*
X158188095Y-141553628D02*
X158140476Y-141506009D01*
X158140476Y-141506009D02*
X158045238Y-141458390D01*
X175574761Y-114987057D02*
X175479523Y-114939438D01*
X175479523Y-114939438D02*
X175384285Y-114844200D01*
X175384285Y-114844200D02*
X175241428Y-114701342D01*
X175241428Y-114701342D02*
X175146190Y-114653723D01*
X175146190Y-114653723D02*
X175050952Y-114653723D01*
X175098571Y-114891819D02*
X175003333Y-114844200D01*
X175003333Y-114844200D02*
X174908095Y-114748961D01*
X174908095Y-114748961D02*
X174860476Y-114558485D01*
X174860476Y-114558485D02*
X174860476Y-114225152D01*
X174860476Y-114225152D02*
X174908095Y-114034676D01*
X174908095Y-114034676D02*
X175003333Y-113939438D01*
X175003333Y-113939438D02*
X175098571Y-113891819D01*
X175098571Y-113891819D02*
X175289047Y-113891819D01*
X175289047Y-113891819D02*
X175384285Y-113939438D01*
X175384285Y-113939438D02*
X175479523Y-114034676D01*
X175479523Y-114034676D02*
X175527142Y-114225152D01*
X175527142Y-114225152D02*
X175527142Y-114558485D01*
X175527142Y-114558485D02*
X175479523Y-114748961D01*
X175479523Y-114748961D02*
X175384285Y-114844200D01*
X175384285Y-114844200D02*
X175289047Y-114891819D01*
X175289047Y-114891819D02*
X175098571Y-114891819D01*
X176479523Y-114891819D02*
X175908095Y-114891819D01*
X176193809Y-114891819D02*
X176193809Y-113891819D01*
X176193809Y-113891819D02*
X176098571Y-114034676D01*
X176098571Y-114034676D02*
X176003333Y-114129914D01*
X176003333Y-114129914D02*
X175908095Y-114177533D01*
D13*
%TO.C,U1*%
X102254000Y-117130000D02*
X102254000Y-111120000D01*
X102254000Y-111120000D02*
X103514000Y-111120000D01*
X109074000Y-111120000D02*
X107814000Y-111120000D01*
X109074000Y-114880000D02*
X109074000Y-111120000D01*
%TO.C,C2*%
X108026252Y-119909000D02*
X106603748Y-119909000D01*
X108026252Y-118089000D02*
X106603748Y-118089000D01*
D10*
%TO.C,U3*%
X145923000Y-143510000D02*
X110363000Y-143510000D01*
X145923000Y-132080000D02*
X145923000Y-114300000D01*
X145923000Y-114300000D02*
X110363000Y-114300000D01*
X145923000Y-106680000D02*
X145923000Y-143510000D01*
X134493000Y-113030000D02*
X126873000Y-113030000D01*
X134493000Y-107950000D02*
X134493000Y-113030000D01*
X126873000Y-113030000D02*
X126873000Y-107950000D01*
X126873000Y-107950000D02*
X134493000Y-107950000D01*
X126873000Y-107950000D02*
X121793000Y-107950000D01*
X125691900Y-141363700D02*
X110365540Y-141363700D01*
X125691900Y-135374380D02*
X125691900Y-141363700D01*
X121793000Y-113030000D02*
X126873000Y-113030000D01*
X121793000Y-107950000D02*
X121793000Y-113030000D01*
X110365540Y-135374380D02*
X125691900Y-135374380D01*
X110363000Y-143510000D02*
X110363000Y-106680000D01*
X110363000Y-132080000D02*
X145923000Y-132080000D01*
X110363000Y-114300000D02*
X110363000Y-132080000D01*
X110363000Y-106680000D02*
X145923000Y-106680000D01*
D14*
%TO.C,SW2*%
X152175000Y-113425000D02*
X156675000Y-113425000D01*
X156675000Y-113425000D02*
X156675000Y-110025000D01*
X156675000Y-110025000D02*
X152175000Y-110025000D01*
X152175000Y-110025000D02*
X152175000Y-113425000D01*
X156312132Y-112875000D02*
G75*
G03*
X156312132Y-112875000I-212132J0D01*
G01*
D13*
%TO.C,SW1*%
X106880000Y-135606000D02*
X106880000Y-134856000D01*
X106880000Y-134856000D02*
X103930000Y-134856000D01*
X103930000Y-134856000D02*
X103930000Y-131806000D01*
X106880000Y-128756000D02*
X103930000Y-128756000D01*
X109130000Y-132306000D02*
X109130000Y-131306000D01*
X109130000Y-131306000D02*
X108380000Y-131306000D01*
X108380000Y-131306000D02*
X108380000Y-132306000D01*
X108380000Y-133806000D02*
X108380000Y-135606000D01*
X109130000Y-135606000D02*
X109130000Y-133806000D01*
X109430000Y-127706000D02*
X108180000Y-127706000D01*
X109140000Y-127996000D02*
X103170000Y-127996000D01*
X109130000Y-128006000D02*
X108380000Y-128006000D01*
X103170000Y-127996000D02*
X103170000Y-135616000D01*
X108380000Y-132306000D02*
X109130000Y-132306000D01*
X106880000Y-128006000D02*
X106880000Y-128756000D01*
X108380000Y-128006000D02*
X108380000Y-129806000D01*
X109430000Y-128956000D02*
X109430000Y-127706000D01*
X108380000Y-135606000D02*
X109130000Y-135606000D01*
X109130000Y-129806000D02*
X109130000Y-128006000D01*
X109140000Y-135616000D02*
X109140000Y-127996000D01*
X103930000Y-128756000D02*
X103930000Y-131806000D01*
X109130000Y-133806000D02*
X108380000Y-133806000D01*
X103170000Y-135616000D02*
X109140000Y-135616000D01*
X108380000Y-129806000D02*
X109130000Y-129806000D01*
D14*
%TO.C,J3*%
X150675000Y-118725000D02*
X157675000Y-118725000D01*
X157675000Y-118725000D02*
X157675000Y-115325000D01*
X157675000Y-115325000D02*
X150675000Y-115325000D01*
X150675000Y-115325000D02*
X150675000Y-118725000D01*
X157287132Y-118225000D02*
G75*
G03*
X157287132Y-118225000I-212132J0D01*
G01*
%TO.C,J2*%
X157261132Y-122670000D02*
G75*
G03*
X157261132Y-122670000I-212132J0D01*
G01*
X150649000Y-123170000D02*
X157649000Y-123170000D01*
X157649000Y-123170000D02*
X157649000Y-119770000D01*
X157649000Y-119770000D02*
X150649000Y-119770000D01*
X150649000Y-119770000D02*
X150649000Y-123170000D01*
D13*
%TO.C,C1*%
X101269748Y-118089000D02*
X102692252Y-118089000D01*
X101269748Y-119909000D02*
X102692252Y-119909000D01*
%TO.C,C5*%
X166548000Y-109824252D02*
X166548000Y-108401748D01*
X168368000Y-109824252D02*
X168368000Y-108401748D01*
%TO.C,Gain1*%
X175982000Y-122181001D02*
G75*
G03*
X173012798Y-122181613I-1484000J-2913999D01*
G01*
X175562000Y-128187000D02*
G75*
G03*
X177411829Y-123611032I-1064000J3092000D01*
G01*
X171584000Y-123610000D02*
G75*
G03*
X171227925Y-125151863I2914000J-1485000D01*
G01*
X171228000Y-125095000D02*
G75*
G03*
X173433392Y-128186846I3270000J0D01*
G01*
%TO.C,Vol1*%
X167471000Y-115717000D02*
G75*
G03*
X165265608Y-112625154I-3270000J0D01*
G01*
X167115000Y-117202000D02*
G75*
G03*
X167471075Y-115660137I-2914000J1485000D01*
G01*
X163137000Y-112625000D02*
G75*
G03*
X161287171Y-117200968I1064000J-3092000D01*
G01*
X162717000Y-118630999D02*
G75*
G03*
X165686202Y-118630387I1484000J2913999D01*
G01*
%TO.C,R1*%
X173984064Y-108743000D02*
X172529936Y-108743000D01*
X173984064Y-106923000D02*
X172529936Y-106923000D01*
%TO.C,C6*%
X164320500Y-135969500D02*
X163533000Y-135969500D01*
X163926750Y-136363250D02*
X163926750Y-135575750D01*
X163293000Y-136467563D02*
X163293000Y-135182000D01*
X163293000Y-136467563D02*
X162228563Y-137532000D01*
X163293000Y-131776437D02*
X163293000Y-133062000D01*
X163293000Y-131776437D02*
X162228563Y-130712000D01*
X162228563Y-137532000D02*
X156473000Y-137532000D01*
X162228563Y-130712000D02*
X156473000Y-130712000D01*
X156473000Y-137532000D02*
X156473000Y-135182000D01*
X156473000Y-130712000D02*
X156473000Y-133062000D01*
%TO.C,C3*%
X154161000Y-141258000D02*
X153536000Y-141258000D01*
X153848500Y-141570500D02*
X153848500Y-140945500D01*
X153296000Y-141268563D02*
X153296000Y-140633000D01*
X153296000Y-141268563D02*
X152231563Y-142333000D01*
X153296000Y-137877437D02*
X153296000Y-138513000D01*
X153296000Y-137877437D02*
X152231563Y-136813000D01*
X152231563Y-142333000D02*
X147776000Y-142333000D01*
X152231563Y-136813000D02*
X147776000Y-136813000D01*
X147776000Y-142333000D02*
X147776000Y-140633000D01*
X147776000Y-136813000D02*
X147776000Y-138513000D01*
%TO.C,C7*%
X166116000Y-133136000D02*
X167116000Y-133136000D01*
X166616000Y-132636000D02*
X166616000Y-133636000D01*
X167356000Y-132350437D02*
X167356000Y-134136000D01*
X167356000Y-132350437D02*
X168420437Y-131286000D01*
X167356000Y-138941563D02*
X167356000Y-137156000D01*
X167356000Y-138941563D02*
X168420437Y-140006000D01*
X168420437Y-131286000D02*
X176076000Y-131286000D01*
X168420437Y-140006000D02*
X176076000Y-140006000D01*
X176076000Y-131286000D02*
X176076000Y-134136000D01*
X176076000Y-140006000D02*
X176076000Y-137156000D01*
%TO.C,R2*%
X162357000Y-109967064D02*
X162357000Y-108512936D01*
X164177000Y-109967064D02*
X164177000Y-108512936D01*
%TO.C,R3*%
X163316064Y-140493000D02*
X161861936Y-140493000D01*
X163316064Y-138673000D02*
X161861936Y-138673000D01*
%TO.C,U2*%
X169849000Y-122582000D02*
X159569000Y-122582000D01*
X159569000Y-122582000D02*
X159569000Y-127882000D01*
X169849000Y-124232000D02*
X169849000Y-122582000D01*
X169849000Y-127882000D02*
X169849000Y-126232000D01*
X159569000Y-127882000D02*
X169849000Y-127882000D01*
X169849000Y-124232000D02*
G75*
G03*
X169849000Y-126232000I0J-1000000D01*
G01*
%TO.C,C4*%
X156515000Y-127186252D02*
X156515000Y-125763748D01*
X158335000Y-127186252D02*
X158335000Y-125763748D01*
%TO.C,C8*%
X156840748Y-138673000D02*
X158263252Y-138673000D01*
X156840748Y-140493000D02*
X158263252Y-140493000D01*
%TO.C,Q1*%
X175565000Y-110682000D02*
X171965000Y-110682000D01*
X173765000Y-115132000D02*
G75*
G03*
X175603478Y-110693522I0J2600000D01*
G01*
X171926522Y-110693522D02*
G75*
G03*
X173765000Y-115132000I1838478J-1838478D01*
G01*
%TD*%
M02*
