%TF.GenerationSoftware,KiCad,Pcbnew,7.0.9*%
%TF.CreationDate,2024-04-11T20:03:21+10:00*%
%TF.ProjectId,cnc mill pcb tester,636e6320-6d69-46c6-9c20-706362207465,rev?*%
%TF.SameCoordinates,Original*%
%TF.FileFunction,Copper,L1,Top*%
%TF.FilePolarity,Positive*%
%FSLAX46Y46*%
G04 Gerber Fmt 4.6, Leading zero omitted, Abs format (unit mm)*
G04 Created by KiCad (PCBNEW 7.0.9) date 2024-04-11 20:03:21*
%MOMM*%
%LPD*%
G01*
G04 APERTURE LIST*
%ADD10C,0.300000*%
%TA.AperFunction,NonConductor*%
%ADD11C,0.300000*%
%TD*%
%TA.AperFunction,ComponentPad*%
%ADD12C,1.600000*%
%TD*%
%TA.AperFunction,ComponentPad*%
%ADD13O,1.600000X1.600000*%
%TD*%
%TA.AperFunction,ComponentPad*%
%ADD14R,3.960000X1.980000*%
%TD*%
%TA.AperFunction,ComponentPad*%
%ADD15O,3.960000X1.980000*%
%TD*%
%TA.AperFunction,ComponentPad*%
%ADD16R,1.800000X1.070000*%
%TD*%
%TA.AperFunction,ComponentPad*%
%ADD17O,1.800000X1.070000*%
%TD*%
%TA.AperFunction,Conductor*%
%ADD18C,0.250000*%
%TD*%
G04 APERTURE END LIST*
D10*
D11*
X106059653Y-67221971D02*
X105988225Y-67293400D01*
X105988225Y-67293400D02*
X105773939Y-67364828D01*
X105773939Y-67364828D02*
X105631082Y-67364828D01*
X105631082Y-67364828D02*
X105416796Y-67293400D01*
X105416796Y-67293400D02*
X105273939Y-67150542D01*
X105273939Y-67150542D02*
X105202510Y-67007685D01*
X105202510Y-67007685D02*
X105131082Y-66721971D01*
X105131082Y-66721971D02*
X105131082Y-66507685D01*
X105131082Y-66507685D02*
X105202510Y-66221971D01*
X105202510Y-66221971D02*
X105273939Y-66079114D01*
X105273939Y-66079114D02*
X105416796Y-65936257D01*
X105416796Y-65936257D02*
X105631082Y-65864828D01*
X105631082Y-65864828D02*
X105773939Y-65864828D01*
X105773939Y-65864828D02*
X105988225Y-65936257D01*
X105988225Y-65936257D02*
X106059653Y-66007685D01*
X106702510Y-67364828D02*
X106702510Y-65864828D01*
X106702510Y-65864828D02*
X107559653Y-67364828D01*
X107559653Y-67364828D02*
X107559653Y-65864828D01*
X109131082Y-67221971D02*
X109059654Y-67293400D01*
X109059654Y-67293400D02*
X108845368Y-67364828D01*
X108845368Y-67364828D02*
X108702511Y-67364828D01*
X108702511Y-67364828D02*
X108488225Y-67293400D01*
X108488225Y-67293400D02*
X108345368Y-67150542D01*
X108345368Y-67150542D02*
X108273939Y-67007685D01*
X108273939Y-67007685D02*
X108202511Y-66721971D01*
X108202511Y-66721971D02*
X108202511Y-66507685D01*
X108202511Y-66507685D02*
X108273939Y-66221971D01*
X108273939Y-66221971D02*
X108345368Y-66079114D01*
X108345368Y-66079114D02*
X108488225Y-65936257D01*
X108488225Y-65936257D02*
X108702511Y-65864828D01*
X108702511Y-65864828D02*
X108845368Y-65864828D01*
X108845368Y-65864828D02*
X109059654Y-65936257D01*
X109059654Y-65936257D02*
X109131082Y-66007685D01*
X110702511Y-65864828D02*
X111559654Y-65864828D01*
X111131082Y-67364828D02*
X111131082Y-65864828D01*
X112059653Y-66579114D02*
X112559653Y-66579114D01*
X112773939Y-67364828D02*
X112059653Y-67364828D01*
X112059653Y-67364828D02*
X112059653Y-65864828D01*
X112059653Y-65864828D02*
X112773939Y-65864828D01*
X113345368Y-67293400D02*
X113559654Y-67364828D01*
X113559654Y-67364828D02*
X113916796Y-67364828D01*
X113916796Y-67364828D02*
X114059654Y-67293400D01*
X114059654Y-67293400D02*
X114131082Y-67221971D01*
X114131082Y-67221971D02*
X114202511Y-67079114D01*
X114202511Y-67079114D02*
X114202511Y-66936257D01*
X114202511Y-66936257D02*
X114131082Y-66793400D01*
X114131082Y-66793400D02*
X114059654Y-66721971D01*
X114059654Y-66721971D02*
X113916796Y-66650542D01*
X113916796Y-66650542D02*
X113631082Y-66579114D01*
X113631082Y-66579114D02*
X113488225Y-66507685D01*
X113488225Y-66507685D02*
X113416796Y-66436257D01*
X113416796Y-66436257D02*
X113345368Y-66293400D01*
X113345368Y-66293400D02*
X113345368Y-66150542D01*
X113345368Y-66150542D02*
X113416796Y-66007685D01*
X113416796Y-66007685D02*
X113488225Y-65936257D01*
X113488225Y-65936257D02*
X113631082Y-65864828D01*
X113631082Y-65864828D02*
X113988225Y-65864828D01*
X113988225Y-65864828D02*
X114202511Y-65936257D01*
X114631082Y-65864828D02*
X115488225Y-65864828D01*
X115059653Y-67364828D02*
X115059653Y-65864828D01*
D10*
D11*
X108020225Y-86510257D02*
X107877368Y-86438828D01*
X107877368Y-86438828D02*
X107663082Y-86438828D01*
X107663082Y-86438828D02*
X107448796Y-86510257D01*
X107448796Y-86510257D02*
X107305939Y-86653114D01*
X107305939Y-86653114D02*
X107234510Y-86795971D01*
X107234510Y-86795971D02*
X107163082Y-87081685D01*
X107163082Y-87081685D02*
X107163082Y-87295971D01*
X107163082Y-87295971D02*
X107234510Y-87581685D01*
X107234510Y-87581685D02*
X107305939Y-87724542D01*
X107305939Y-87724542D02*
X107448796Y-87867400D01*
X107448796Y-87867400D02*
X107663082Y-87938828D01*
X107663082Y-87938828D02*
X107805939Y-87938828D01*
X107805939Y-87938828D02*
X108020225Y-87867400D01*
X108020225Y-87867400D02*
X108091653Y-87795971D01*
X108091653Y-87795971D02*
X108091653Y-87295971D01*
X108091653Y-87295971D02*
X107805939Y-87295971D01*
X108734510Y-87938828D02*
X108734510Y-86438828D01*
X108734510Y-86438828D02*
X109591653Y-87938828D01*
X109591653Y-87938828D02*
X109591653Y-86438828D01*
X110305939Y-87938828D02*
X110305939Y-86438828D01*
X110305939Y-86438828D02*
X110663082Y-86438828D01*
X110663082Y-86438828D02*
X110877368Y-86510257D01*
X110877368Y-86510257D02*
X111020225Y-86653114D01*
X111020225Y-86653114D02*
X111091654Y-86795971D01*
X111091654Y-86795971D02*
X111163082Y-87081685D01*
X111163082Y-87081685D02*
X111163082Y-87295971D01*
X111163082Y-87295971D02*
X111091654Y-87581685D01*
X111091654Y-87581685D02*
X111020225Y-87724542D01*
X111020225Y-87724542D02*
X110877368Y-87867400D01*
X110877368Y-87867400D02*
X110663082Y-87938828D01*
X110663082Y-87938828D02*
X110305939Y-87938828D01*
D10*
D11*
X107813939Y-73968828D02*
X108099653Y-73968828D01*
X108099653Y-73968828D02*
X108242510Y-73897400D01*
X108242510Y-73897400D02*
X108313939Y-73825971D01*
X108313939Y-73825971D02*
X108456796Y-73611685D01*
X108456796Y-73611685D02*
X108528225Y-73325971D01*
X108528225Y-73325971D02*
X108528225Y-72754542D01*
X108528225Y-72754542D02*
X108456796Y-72611685D01*
X108456796Y-72611685D02*
X108385368Y-72540257D01*
X108385368Y-72540257D02*
X108242510Y-72468828D01*
X108242510Y-72468828D02*
X107956796Y-72468828D01*
X107956796Y-72468828D02*
X107813939Y-72540257D01*
X107813939Y-72540257D02*
X107742510Y-72611685D01*
X107742510Y-72611685D02*
X107671082Y-72754542D01*
X107671082Y-72754542D02*
X107671082Y-73111685D01*
X107671082Y-73111685D02*
X107742510Y-73254542D01*
X107742510Y-73254542D02*
X107813939Y-73325971D01*
X107813939Y-73325971D02*
X107956796Y-73397400D01*
X107956796Y-73397400D02*
X108242510Y-73397400D01*
X108242510Y-73397400D02*
X108385368Y-73325971D01*
X108385368Y-73325971D02*
X108456796Y-73254542D01*
X108456796Y-73254542D02*
X108528225Y-73111685D01*
X108956796Y-72468828D02*
X109456796Y-73968828D01*
X109456796Y-73968828D02*
X109956796Y-72468828D01*
X110456795Y-73397400D02*
X111599653Y-73397400D01*
X111028224Y-73968828D02*
X111028224Y-72825971D01*
D10*
D11*
X128562510Y-80549114D02*
X128776796Y-80620542D01*
X128776796Y-80620542D02*
X128848225Y-80691971D01*
X128848225Y-80691971D02*
X128919653Y-80834828D01*
X128919653Y-80834828D02*
X128919653Y-81049114D01*
X128919653Y-81049114D02*
X128848225Y-81191971D01*
X128848225Y-81191971D02*
X128776796Y-81263400D01*
X128776796Y-81263400D02*
X128633939Y-81334828D01*
X128633939Y-81334828D02*
X128062510Y-81334828D01*
X128062510Y-81334828D02*
X128062510Y-79834828D01*
X128062510Y-79834828D02*
X128562510Y-79834828D01*
X128562510Y-79834828D02*
X128705368Y-79906257D01*
X128705368Y-79906257D02*
X128776796Y-79977685D01*
X128776796Y-79977685D02*
X128848225Y-80120542D01*
X128848225Y-80120542D02*
X128848225Y-80263400D01*
X128848225Y-80263400D02*
X128776796Y-80406257D01*
X128776796Y-80406257D02*
X128705368Y-80477685D01*
X128705368Y-80477685D02*
X128562510Y-80549114D01*
X128562510Y-80549114D02*
X128062510Y-80549114D01*
D10*
D11*
X128848225Y-73810257D02*
X128705368Y-73738828D01*
X128705368Y-73738828D02*
X128491082Y-73738828D01*
X128491082Y-73738828D02*
X128276796Y-73810257D01*
X128276796Y-73810257D02*
X128133939Y-73953114D01*
X128133939Y-73953114D02*
X128062510Y-74095971D01*
X128062510Y-74095971D02*
X127991082Y-74381685D01*
X127991082Y-74381685D02*
X127991082Y-74595971D01*
X127991082Y-74595971D02*
X128062510Y-74881685D01*
X128062510Y-74881685D02*
X128133939Y-75024542D01*
X128133939Y-75024542D02*
X128276796Y-75167400D01*
X128276796Y-75167400D02*
X128491082Y-75238828D01*
X128491082Y-75238828D02*
X128633939Y-75238828D01*
X128633939Y-75238828D02*
X128848225Y-75167400D01*
X128848225Y-75167400D02*
X128919653Y-75095971D01*
X128919653Y-75095971D02*
X128919653Y-74595971D01*
X128919653Y-74595971D02*
X128633939Y-74595971D01*
D10*
D11*
X128411653Y-68380828D02*
X127911653Y-67666542D01*
X127554510Y-68380828D02*
X127554510Y-66880828D01*
X127554510Y-66880828D02*
X128125939Y-66880828D01*
X128125939Y-66880828D02*
X128268796Y-66952257D01*
X128268796Y-66952257D02*
X128340225Y-67023685D01*
X128340225Y-67023685D02*
X128411653Y-67166542D01*
X128411653Y-67166542D02*
X128411653Y-67380828D01*
X128411653Y-67380828D02*
X128340225Y-67523685D01*
X128340225Y-67523685D02*
X128268796Y-67595114D01*
X128268796Y-67595114D02*
X128125939Y-67666542D01*
X128125939Y-67666542D02*
X127554510Y-67666542D01*
D12*
%TO.P,R3,1*%
%TO.N,Net-(J1-Pin_2)*%
X120650000Y-83806000D03*
D13*
%TO.P,R3,2*%
%TO.N,Net-(D1-BK)*%
X130810000Y-83806000D03*
%TD*%
D12*
%TO.P,R2,1*%
%TO.N,Net-(J1-Pin_2)*%
X120650000Y-77724000D03*
D13*
%TO.P,R2,2*%
%TO.N,Net-(D1-GK)*%
X130810000Y-77724000D03*
%TD*%
D12*
%TO.P,R1,1*%
%TO.N,Net-(J1-Pin_2)*%
X120650000Y-71120000D03*
D13*
%TO.P,R1,2*%
%TO.N,Net-(D1-RK)*%
X130810000Y-71120000D03*
%TD*%
D14*
%TO.P,J1,1,Pin_1*%
%TO.N,Net-(D1-A)*%
X108712000Y-83029000D03*
D15*
%TO.P,J1,2,Pin_2*%
%TO.N,Net-(J1-Pin_2)*%
X108712000Y-78029000D03*
%TD*%
D16*
%TO.P,D1,1,RK*%
%TO.N,Net-(D1-RK)*%
X142240000Y-77724000D03*
D17*
%TO.P,D1,2,GK*%
%TO.N,Net-(D1-GK)*%
X142240000Y-78994000D03*
%TO.P,D1,3,A*%
%TO.N,Net-(D1-A)*%
X142240000Y-80264000D03*
%TO.P,D1,4,BK*%
%TO.N,Net-(D1-BK)*%
X142240000Y-81534000D03*
%TD*%
D18*
%TO.N,Net-(D1-A)*%
X144272000Y-81280000D02*
X143256000Y-80264000D01*
X144272000Y-86106000D02*
X144272000Y-81280000D01*
X143256000Y-80264000D02*
X142240000Y-80264000D01*
X116303000Y-84807000D02*
X117602000Y-86106000D01*
X117602000Y-86106000D02*
X144272000Y-86106000D01*
X110490000Y-84807000D02*
X116303000Y-84807000D01*
X108712000Y-83029000D02*
X110490000Y-84807000D01*
%TO.N,Net-(D1-GK)*%
X132080000Y-77724000D02*
X133350000Y-78994000D01*
X130810000Y-77724000D02*
X132080000Y-77724000D01*
X133350000Y-78994000D02*
X142240000Y-78994000D01*
%TO.N,Net-(D1-RK)*%
X135636000Y-71120000D02*
X140716000Y-76200000D01*
X140716000Y-76200000D02*
X142240000Y-77724000D01*
X140222000Y-75706000D02*
X140716000Y-76200000D01*
X130810000Y-71120000D02*
X135636000Y-71120000D01*
%TO.N,Net-(J1-Pin_2)*%
X120650000Y-73000000D02*
X115926000Y-77724000D01*
X120650000Y-71120000D02*
X120650000Y-73000000D01*
X117094000Y-79502000D02*
X117094000Y-80250000D01*
X115621000Y-78029000D02*
X117094000Y-79502000D01*
X115926000Y-77724000D02*
X115621000Y-78029000D01*
X120650000Y-77724000D02*
X115926000Y-77724000D01*
X108204000Y-78029000D02*
X115621000Y-78029000D01*
%TO.N,Net-(D1-BK)*%
X130810000Y-83806000D02*
X139968000Y-83806000D01*
X139968000Y-83806000D02*
X142240000Y-81534000D01*
%TO.N,Net-(J1-Pin_2)*%
X120650000Y-83806000D02*
X117094000Y-80250000D01*
%TD*%
M02*
